<svg width="32" height="32" viewBox="0 0 32 32" fill="none" xmlns="http://www.w3.org/2000/svg">
  <rect width="32" height="32" rx="4" fill="#0A0A0F"/>
  <g transform="translate(2, 2) scale(0.068)">
    <path d="M410.579 340.402L210.554 1.47038C210.008 0.536489 209.015 0 207.992 0C207.644 0 207.286 0.0596099 206.939 0.1987C205.578 0.715318 204.794 2.12608 205.072 3.55672L260.451 289.913C260.65 290.946 261.375 291.79 262.358 292.148L407.004 344.734C407.332 344.853 407.679 344.913 408.017 344.913C408.891 344.913 409.735 344.535 410.311 343.84C411.116 342.876 411.225 341.505 410.589 340.422L410.579 340.402Z" fill="white"/>
    <path d="M399.247 350.208L124.694 250.391C124.366 250.272 124.019 250.212 123.681 250.212C122.976 250.212 122.281 250.461 121.734 250.938L5.95013 350.754C5.00661 351.569 4.66893 352.88 5.10593 354.053C5.54293 355.225 6.65528 356 7.89675 356H398.224C399.674 356 400.906 354.957 401.154 353.536C401.402 352.115 400.598 350.715 399.237 350.218L399.247 350.208Z" fill="white"/>
    <path d="M224.151 152.641C224.955 151.946 225.332 150.863 225.134 149.819L197.494 6.91477C197.255 5.69277 196.292 4.74895 195.06 4.54031C194.892 4.51051 194.733 4.50057 194.564 4.50057C193.511 4.50057 192.518 5.05693 191.982 5.99082L0.398274 337.918C-0.326743 339.18 -0.0387226 340.78 1.07363 341.704C1.62981 342.161 2.29524 342.389 2.9706 342.389C3.64595 342.389 4.36104 342.151 4.91722 341.664L224.141 152.641H224.151Z" fill="white"/>
  </g>
</svg>
