<?xml version="1.0" encoding="utf-8" ?><svg xmlns="http://www.w3.org/2000/svg" xmlns:xlink="http://www.w3.org/1999/xlink" width="1024" height="1024" viewBox="0 0 1024 1024"><path fill="#21FE76" transform="scale(2 2)" d="M175.243 129.549L175.229 114.868C175.195 85.0898 186.46 74.9513 215.665 74.9422L303.259 74.888C329.162 74.7755 336.753 90.5624 336.749 112.862L336.731 129.549L349.407 129.549L400.229 129.549L408.91 129.549C408.82 131.797 408.517 135.982 408.91 137.984C407.35 138.019 405.786 137.996 404.225 137.984L384.929 137.984L115.802 137.96C101.186 137.867 84.6333 141.601 80.9596 158.717C78.8738 168.435 79.5598 181.325 79.5587 191.527L79.5792 258.535C79.5949 261.716 79.7384 265.225 79.5705 268.353C75.6429 272.657 70.9725 271.333 70.9629 265.355L71.0152 176.993C71.0054 155.781 75.4416 135.727 100.381 130.367C105.949 129.17 110.898 129.546 116.507 129.534L175.243 129.549ZM183.755 129.549L197.182 129.549L197.169 113.83C197.169 108.259 195.86 98.8719 203.582 97.3092C210.441 95.9209 223.504 96.7637 230.77 96.7694L282.875 96.77L300.227 96.7509C306.73 96.7417 314.837 95.2666 314.858 104.418L314.787 129.549L328.174 129.549L328.195 114.33C328.223 90.2326 322.817 83.148 297.766 83.1675L229.882 83.186L214.879 83.1751C190.64 83.1787 183.739 90.2075 183.738 114.711L183.755 129.549ZM205.768 129.549C214.142 129.548 305.839 129.742 306.251 129.549L306.251 105.38L205.768 105.38L205.768 129.549Z"/><path fill="#63DD8B" transform="scale(2 2)" d="M349.407 129.549L400.229 129.549L408.91 129.549C408.82 131.797 408.517 135.982 408.91 137.984C407.35 138.019 405.786 137.996 404.225 137.984L384.929 137.984C380.44 137.171 392.189 138.27 393.398 137.55C392.037 135.338 392.398 134.057 393.129 131.635L395.174 129.549C389.093 130.236 384.993 129.592 379.053 129.56L358.014 129.56C356.176 129.568 350.695 129.882 349.407 129.549Z"/><path fill="#7ED882" transform="scale(2 2)" d="M400.229 129.549L408.91 129.549C408.82 131.797 408.517 135.982 408.91 137.984C407.35 138.019 405.786 137.996 404.225 137.984C403.727 134.208 403.789 134.229 404.761 130.53L404.426 130.042C403.228 129.587 401.555 129.617 400.229 129.549Z"/><path fill="#FED700" transform="scale(2 2)" d="M408.91 129.549C410.289 129.711 412.38 130.192 413.409 130.285C416.053 131.065 419.223 131.897 421.52 133.383C431.886 137.554 441.146 152.39 441.18 163.378L441.256 361C441.255 386.596 434.507 407.025 404.225 409.766C404.295 427.156 403.066 436.357 383.13 436.41L372.52 436.411C351.198 436.363 349.128 428.706 349.407 409.232L162.773 409.232C162.887 427.128 161.463 436.318 140.759 436.409L130.963 436.432C98.2338 436.467 111.587 409.543 106.227 408.568C106.157 406.124 106.224 403.246 106.227 400.773C110.817 401.099 120.72 400.784 125.568 400.781L392.551 400.787C425.272 400.801 432.767 391.143 432.76 360.094L432.761 176.217C432.76 159.608 433.222 150.446 417.478 140.824C417.571 140.843 412.536 138.783 411.929 138.559C410.866 138.303 409.991 138.156 408.91 137.984C408.517 135.982 408.82 131.797 408.91 129.549ZM152.142 425.78C156.214 421.282 154.773 414.864 154.815 409.232L115.781 409.232C115.737 414.691 114.784 429.228 124.386 428.068C132.637 427.312 147.122 430.659 152.142 425.78ZM357.938 409.232C357.896 416.261 355.864 426.484 365.187 427.863C371.544 427.874 377.932 427.884 384.26 427.877C397.778 427.86 395.147 420.238 395.174 409.232C392.625 409.351 390.937 409.368 388.394 409.232L357.938 409.232Z"/><path fill="#94CC7A" transform="scale(2 2)" d="M408.91 129.549C410.289 129.711 412.38 130.192 413.409 130.285C413.429 132.41 413.61 134.61 413.409 136.689C412.835 137.328 412.319 137.8 411.929 138.559C410.866 138.303 409.991 138.156 408.91 137.984C408.517 135.982 408.82 131.797 408.91 129.549Z"/><path fill="#9ED748" transform="scale(2 2)" d="M413.409 130.285C416.053 131.065 419.223 131.897 421.52 133.383C419.709 133.685 417.979 131.761 416.025 131.596C410.618 139.619 417.948 139.186 417.478 140.824C417.571 140.843 412.536 138.783 411.929 138.559C412.319 137.8 412.835 137.328 413.409 136.689C413.61 134.61 413.429 132.41 413.409 130.285Z"/><path fill="#FED700" transform="scale(2 2)" d="M281.56 206.761C314.151 201.657 341.738 247.225 316.869 276.981C315.068 279.012 304.069 290.999 302.1 290.318C293.296 287.273 301.618 280.45 303.614 278.704C337.646 249.04 305.326 202.062 269.578 217.89C254.18 224.708 263.012 231.289 247.085 220.753C224.448 205.778 194.378 221.637 194.311 249.128C194.275 263.907 201.333 270.694 211.637 280.98L224.375 293.865C228.914 298.626 233.677 303.184 238.272 307.887C254.995 325 254.211 327.969 272.704 309.2L282.29 299.586C293.621 288.06 295.379 298.22 292.531 301.233C290.69 303.179 288.944 304.754 287.232 306.499L275.429 318.408C259.123 335.022 253.475 335.228 236.803 318.415L206.403 287.848C201.621 283.157 196.535 278.683 192.904 272.959C164.902 228.798 222.566 186.198 255.67 216.724C263.309 211.032 271.947 207.062 281.56 206.761Z"/><path fill="#21FE76" transform="scale(2 2)" d="M106.227 408.568C91.5645 409.659 74.3512 394.455 71.8782 380.432C70.7813 374.213 71.01 367.548 71.0134 361.241L71.0425 286.853C70.9987 279.345 78.6752 281.394 79.2632 284.434C80.0167 288.33 79.5618 296.377 79.5637 300.784L79.5452 366.331C79.5121 385.563 85.8076 397.433 106.227 400.773C106.224 403.246 106.157 406.124 106.227 408.568Z"/><path fill="#21FE76" transform="scale(2 2)" d="M130.315 335.255C134.306 335.115 135.5 337.208 135.501 340.802C135.503 352.377 135.758 364.014 135.403 375.576C135.358 377.052 133.465 378.517 132.388 379.242C130.648 379.227 128.652 378.817 127.773 377.106C126.709 375.035 126.479 340.466 127.421 337.913C127.95 336.476 129.002 335.9 130.315 335.255Z"/><path fill="#FED700" transform="scale(2 2)" d="M380.589 336.043C381.89 336.191 384.359 337.032 384.484 338.466C385.54 350.499 384.589 362.875 385.088 374.989C385.19 377.481 383.284 378.669 381.193 379.242C379.784 379.179 377.673 378.676 377.071 377.25C376.249 375.304 376.124 339.787 376.972 338.323C377.773 336.94 379.1 336.398 380.589 336.043Z"/><path fill="#FED700" transform="scale(2 2)" d="M380.589 159.502C382.424 159.74 382.867 160.231 384.297 161.417C385.86 165.655 385.447 199.314 384.269 201.477C383.624 202.661 382.405 203.087 381.193 203.46C379.648 203.217 377.805 202.499 377.219 200.924C376.238 198.291 376.061 163.714 377.045 161.843C377.774 160.459 379.204 159.983 380.589 159.502Z"/><path fill="#21FE76" transform="scale(2 2)" d="M129.517 160.265C131.479 160.16 133.123 160.261 134.381 162.018C135.401 163.443 138.452 198.484 132.388 201.832C125.418 203.397 126.952 195.835 126.98 191.442L126.999 179.612C126.998 174.027 124.96 163.035 129.517 160.265Z"/></svg>