<svg width="1909" height="351" viewBox="0 0 1909 351" fill="none" xmlns="http://www.w3.org/2000/svg">
<path d="M199.508 0L255.27 288.228L400.913 341.155L199.508 0Z" fill="white"/>
<path d="M7.90625 350.224L400.922 350.22L124.476 249.746L7.90625 350.224Z" fill="white"/>
<path d="M0 345.561L220.734 155.306L192.905 11.4648L0 345.561Z" fill="white"/>
<rect x="1883.3" y="109.598" width="25.328" height="184.647" fill="white"/>
<path d="M1883.3 52.6367C1897.29 52.6367 1908.63 63.9761 1908.63 77.9665V83.0433H1883.3V52.6367Z" fill="white"/>
<path d="M599.468 59.4499C604.096 64.078 606.287 69.6797 606.287 76.2551H525.674V294.23H500.1V76.2551H442.867C436.291 76.2551 430.446 73.8182 426.061 69.192C421.433 64.32 419.242 58.9621 419.242 52.3867H582.419C589.238 52.3867 594.84 54.8218 599.468 59.4499Z" fill="white"/>
<path d="M1217.6 59.456C1224.42 54.8279 1232.22 52.6367 1240.5 52.6367L1128.71 294.48L1017.16 52.6367C1025.69 52.6367 1033.48 55.0718 1040.54 59.9438C1047.61 64.8139 1052.48 71.1472 1055.64 78.9401L1128.71 237.003L1202.75 78.2085C1205.67 70.1717 1210.78 64.0841 1217.6 59.456Z" fill="white"/>
<path d="M1424.4 294.228H1271.94V52.3867H1423.43V76.0094H1297.02V159.546H1397.12C1397.12 166.125 1394.93 171.479 1390.3 176.107C1385.92 180.733 1380.32 182.928 1373.98 182.928H1297.27V270.359H1424.64L1424.4 294.228Z" fill="white"/>
<path d="M1490.92 270.361V77.7146C1490.92 70.6515 1488.48 64.8077 1483.37 59.9358C1478.49 55.0656 1472.41 52.3867 1465.59 52.3867V294.228H1578.84L1590.77 270.361H1490.92Z" fill="white"/>
<path d="M1735.45 52.8672L1598.33 328.321H1626.09L1735.2 108.153L1785.37 209.47H1737.64C1729.36 209.712 1722.78 211.905 1717.91 216.046C1713.04 220.186 1709.39 224.57 1706.95 229.44L1705.49 232.607H1797.06L1827.75 294.468H1855.52L1735.45 52.8672Z" fill="white"/>
<path d="M663.244 294.232V76.5032H719.991C741.422 76.5032 757.01 80.8856 766.508 89.896C776.007 98.9083 780.877 110.354 780.877 123.75C780.877 137.145 775.763 148.834 765.535 158.578C755.305 168.319 739.961 173.189 719.747 173.189H715.851C712.684 173.189 710.249 174.408 708.3 176.355C706.352 178.546 705.377 180.738 705.377 183.662C705.377 185.61 705.865 187.561 707.326 189.506L713.416 197.787L765.535 269.39C771.136 277.183 778.442 283.273 786.966 287.657C794.247 291.401 802.241 293.534 810.488 294.232H814.552L740.205 191.943C759.445 189.508 775.277 182.445 787.696 170.512C800.361 158.58 806.45 142.747 806.45 122.775C806.45 109.87 803.283 97.9328 797.196 87.461C791.106 76.9891 781.608 68.4664 768.943 62.1349C756.278 55.8015 740.449 52.6367 721.452 52.6367H637.914V294.232H663.244Z" fill="white"/>
<path d="M1012.5 209.734H964.765C956.484 209.978 949.909 212.169 945.037 216.309C940.167 220.452 936.513 224.834 934.077 229.706L932.616 232.871H1024.19L1054.64 294.244H1082.52L962.816 53.1328L842.867 294.244H870.386L962.328 108.419L1012.5 209.734Z" fill="white"/>
<rect x="1883.3" y="83.0391" width="25.3298" height="4.39774" fill="white"/>
</svg>
