<svg xmlns="http://www.w3.org/2000/svg" width="248" height="45" viewBox="0 0 248 45"><path d="M19.1207 38.2383C14.0123 38.2383 9.21042 36.2499 5.60009 32.6392 1.98886 29.0288.0 24.2274.0 19.1203c0-5.108 1.98886-9.90943 5.60009-13.52021C9.21132 1.98886 14.0132.0 19.1207.0c5.1067.0 9.9077 1.98886 13.5189 5.60009C36.25 9.21087 38.2388 14.0123 38.2388 19.1203c0 5.1062-1.9888 9.9076-5.5992 13.5189C29.0293 36.2499 24.2283 38.2383 19.1207 38.2383zM20.8861 9.35031C20.39 9.35255 19.8743 9.43612 19.3514 9.60015c-1.0655.32-2.0524.88265-3.0159 1.71935-1.5357 1.2975-2.9114 2.9971-4.2021 5.1956-1.3793 2.3406-2.15425 4.6021-2.36788 6.9123C9.68239 24.3481 9.74317 25.1253 9.9568 25.8739 10.2992 26.9358 10.9418 27.6277 11.9805 28.0509 12.263 28.1586 12.532 28.2141 12.7805 28.2141 13.1872 28.2141 13.56 28.0688 13.8916 27.7837 13.9828 27.692 14.0802 27.6053 14.1759 27.5213 14.326 27.389 14.4789 27.2549 14.6156 27.0945l3.0571-3.4378L18.1303 23.1606C18.0615 23.469 18.0159 23.6857 18.0159 23.8873L18.015 23.8953C17.9087 24.53 17.7889 25.25 17.7111 25.9481 17.6673 26.5631 17.8318 26.9747 18.2448 27.2853 18.6756 27.6004 19.102 27.76 19.514 27.76 20.045 27.76 20.5438 27.4976 20.9961 26.9801l1.8342-2.177c1.2273-1.3592 2.4564-2.7563 3.6443-4.1074L26.5488 20.6104 26.6158 20.5348C27.1164 19.9659 27.6322 19.38 28.1381 18.8065 28.3383 18.5916 28.5466 18.3802 28.7307 18.1929L28.7343 18.1893C29.0373 17.8823 29.3502 17.5645 29.6282 17.24 29.7363 17.1319 29.8588 16.8999 29.781 16.7439 29.7417 16.626 29.5111 16.5151 29.3609 16.5151 29.3287 16.5089 29.2948 16.5053 29.2563 16.5053 29.1008 16.5053 28.922 16.5674 28.7888 16.6675 28.6619 16.7185 28.5493 16.8213 28.4509 16.9129L28.4429 16.9205C28.3902 16.9674 28.341 17.0121 28.2909 17.0492l-6.1882 6.1874L21.721 23.5802 21.569 23.5038C21.7442 22.8745 21.9391 22.1997 22.1796 21.5176 22.3655 20.9979 22.5505 20.4691 22.7293 19.9578L22.7633 19.8609C23.0851 18.9402 23.4846 17.7942 23.8985 16.7055 24.0719 16.2537 23.978 15.9001 23.5937 15.5591 23.1816 15.1497 22.6444 14.8874 21.9498 14.7573 21.8748 14.7448 21.8015 14.7386 21.7317 14.7386 21.3769 14.7386 21.1168 14.899 20.9585 15.2154 20.7556 15.7187 20.4249 16.1428 19.8877 16.5915 19.7187 16.7265 19.6088 16.8932 19.4819 17.0863L19.43 17.1636C18.9348 17.7826 18.4852 18.3869 18.0919 18.9594c-1.4561 1.9754-3.1786 4.249-5.1952 6.2253L12.4775 25.5682C12.4391 25.2992 12.4391 25.1874 12.4391 25.0323 12.4391 24.8057 12.4775 24.5751 12.5151 24.353L12.5159 24.3467C13.1863 20.9152 14.7926 17.83 17.291 15.1774c1.1441-1.1906 2.2114-2.0277 3.36-2.6351C21.3018 12.1973 21.9051 12.0292 22.4951 12.0292 22.5934 12.0292 22.6935 12.0346 22.7919 12.0444 23.5105 12.082 23.5937 12.1606 23.6696 12.8856 23.7072 13.2981 23.7456 13.7249 24.0889 14.0708 24.3275 14.3247 24.5778 14.4588 24.812 14.4588 25.1329 14.4588 25.3912 14.2116 25.5414 13.7638 25.6826 13.4112 25.6701 13.0362 25.503 12.6187 25.2786 11.9801 24.896 11.3991 24.3946 10.9383c-1.0941-1.06463-2.2338-1.58397-3.4852-1.58799H20.8861z" fill="#000"/><path d="M61.746 27.8112V25.6421C60.9319 26.4884 60.0241 27.1282 59.0226 27.5623 58.0208 27.9958 56.9525 28.2128 55.8171 28.2128 53.1605 28.2128 50.9541 27.3266 49.1975 25.5537c-1.7568-1.7726-2.635-3.9926-2.635-6.6598C46.5625 17.6515 46.782 16.4732 47.2214 15.3591 47.6605 14.2454 48.2869 13.2652 49.101 12.419 49.99 11.487 50.9621 10.7988 52.0174 10.3544c1.055-.44459 2.2574-.6669 3.6071-.6669 1.2102.0 2.3242.214270000000001 3.3421.6425C59.9836 10.7586 60.9105 11.4067 61.746 12.2743V10.1374h3.2135V27.8112H61.746zM49.8564 18.8617c0 1.789.591499999999996 3.2886 1.7751 4.4989 1.1836 1.2105 2.6325 1.8156 4.3464 1.8156 1.5639.0 2.9427-.607900000000001 4.1374-1.8237 1.1941-1.2155 1.7915-2.6375 1.7915-4.2657C61.9068 17.3513 61.3147 15.8653 60.1311 14.6282 58.9475 13.3911 57.5418 12.7724 55.9136 12.7724c-1.6709.0-3.0985.589300000000002-4.2821 1.7674C50.4479 15.7181 49.8564 17.1587 49.8564 18.8617z" fill="#000"/><rect x="67.3359" y="4.41406" width="3.14918" height="23.3937" fill="#000"/><path d="M71.7734 18.9854C71.7734 17.7323 71.9849 16.562 72.4082 15.4748 72.8312 14.3876 73.4549 13.4103 74.2798 12.5427 75.1688 11.5894 76.1705 10.8557 77.2846 10.3415 78.3983 9.82728 79.5551 9.57031 80.755 9.57031 82.0404 9.57031 83.2318 9.8004 84.33 10.2611c1.0977.4604 2.0911 1.1409 2.9803 2.0407C88.178 13.191 88.8449 14.1922 89.3106 15.306 89.7768 16.4203 90.0097 17.5715 90.0097 18.7604 90.0097 19.9711 89.7926 21.1492 89.3591 22.2954 88.925 23.4416 88.3171 24.4428 87.5354 25.2999 86.6357 26.2853 85.6259 27.0326 84.5066 27.541 83.3873 28.0499 82.1956 28.3044 80.9319 28.3044 79.6357 28.3044 78.4413 28.0715 77.3489 27.6053 76.2562 27.1396 75.276 26.4516 74.4084 25.541 73.5835 24.6732 72.9382 23.6639 72.4725 22.5122 72.0063 21.361 71.7734 20.1851 71.7734 18.9854zM75.0673 18.9533c0 1.7674.559699999999992 3.2401 1.679 4.4184C77.8656 24.5501 79.2607 25.1391 80.9319 25.1391c1.6387.0 3.0125-.5915 4.121-1.7751C86.1616 22.1803 86.7158 20.6993 86.7158 18.9211 86.7158 17.1324 86.1616 15.6542 85.0529 14.4866 83.9444 13.3193 82.5598 12.7353 80.8997 12.7353c-1.6498.0-3.0341.5921-4.15339999999999 1.7754C75.627 15.6943 75.0673 17.1754 75.0673 18.9533z" fill="#000"/><path d="M94.7796 27.9685C94.7796 29.9715 94.4181 31.3987 93.695 32.2503 92.972 33.1021 91.7854 33.5278 90.1361 33.5278 90.061 33.5278 89.946 33.5223 89.7907 33.5118 89.6355 33.501 89.5204 33.4957 89.4453 33.4957v-3.117C90.3021 30.3787 90.8779 30.2312 91.1725 29.9368 91.4671 29.6419 91.6141 28.9326 91.6141 27.808V26.8921 10.1339H94.7796V27.9685zm0-19.90715H91.6141V4.41406H94.7796V8.06135z" fill="#000"/><path d="M112.355 27.8112V25.6421C111.541 26.4884 110.633 27.1282 109.632 27.5623 108.63 27.9958 107.562 28.2128 106.427 28.2128 103.77 28.2128 101.563 27.3266 99.8069 25.5537 98.05 23.7811 97.1719 21.5611 97.1719 18.8939 97.1719 17.6515 97.3914 16.4732 97.8307 15.3591 98.2698 14.2454 98.8963 13.2652 99.7104 12.419 100.599 11.487 101.571 10.7988 102.627 10.3544 103.682 9.90981 104.884 9.6875 106.234 9.6875 107.444 9.6875 108.558 9.90177 109.576 10.33 110.593 10.7586 111.52 11.4067 112.355 12.2743V10.1374h3.214V27.8112h-3.214zm-11.889-8.9495C100.466 20.6507 101.057 22.1503 102.241 23.3606 103.425 24.5711 104.873 25.1762 106.587 25.1762 108.151 25.1762 109.53 24.5683 110.725 23.3525 111.919 22.137 112.516 20.715 112.516 19.0868 112.516 17.3513 111.924 15.8653 110.74 14.6282 109.557 13.3911 108.151 12.7724 106.523 12.7724 104.852 12.7724 103.425 13.3617 102.241 14.5398 101.057 15.7181 100.466 17.1587 100.466 18.8617z" fill="#000"/><path d="M128.814 18.8896C128.814 16.7367 128.509 15.1728 127.901 14.1979 127.294 13.2235 126.328 12.736 125.005 12.736c-1.366.0-2.37299999999999.49-3.024 1.4699C121.33 15.1863 121.005 16.7045 121.005 18.761v9.0459h-3.021V10.1331h2.828v2.0728C121.399 11.4132 122.064 10.8216 122.806 10.4303 123.548 10.0397 124.394 9.84375 125.344 9.84375 126.625 9.84375 127.693 10.0904 128.547 10.583 129.401 11.0758 130.101 11.847 130.645 12.8967 131.193 11.8683 131.918 11.1027 132.82 10.5991 133.722 10.0957 134.823 9.84375 136.122 9.84375 138.12 9.84375 139.72 10.4946 140.923 11.796 142.126 13.0974 142.728 14.8354 142.728 17.01V27.8069H139.53V17.5078C139.53 15.9974 139.199 14.8246 138.538 13.9892 137.876 13.1537 136.954 12.736 135.771 12.736 134.394 12.736 133.404 13.1806 132.802 14.0698 132.199 14.9587 131.898 16.4581 131.898 18.5684v9.2385h-3.084V18.8896z" fill="#000"/><path d="M148.352 8.06135h-3.149V4.41406h3.149V8.06135zm-3.149 2.07255h3.149V27.8077h-3.149V10.1339z" fill="#000"/><path d="M153.186 20.1415C153.454 21.6198 154.121 22.8167 155.187 23.7326 156.252 24.6481 157.519 25.1061 158.987 25.1061 160.036 25.1061 160.992 24.8546 161.854 24.3512 162.717 23.8479 163.405 23.1355 163.919 22.2141h3.583C166.688 24.1741 165.55 25.674 164.088 26.7129 162.626 27.7521 160.925 28.2713 158.987 28.2713 157.68 28.2713 156.485 28.041 155.404 27.5806 154.322 27.1201 153.342 26.4293 152.463 25.508 151.638 24.6404 150.993 23.6308 150.527 22.4791 150.061 21.3279 149.828 20.1523 149.828 18.9524 149.828 17.71 150.04 16.548 150.463 15.4659 150.886 14.3842 151.51 13.3988 152.335 12.5096 153.213 11.5455 154.204 10.8201 155.307 10.3325 156.41 9.84521 157.615 9.60156 158.922 9.60156 160.475 9.60156 161.919 9.96303 163.253 10.686 164.586 11.4089 165.687 12.4189 166.554 13.7148 167.068 14.5179 167.448 15.3993 167.695 16.3576 167.941 17.3166 168.065 18.4118 168.065 19.6434V20.1415H153.186zm11.392-2.86C164.182 15.8248 163.496 14.6975 162.521 13.8994 161.547 13.1014 160.379 12.7025 159.019 12.7025c-1.393.0-2.601.4095-3.62300000000002 1.2291C154.372 14.751 153.668 15.8675 153.283 17.2815h11.295z" fill="#000"/><path d="M172.697 27.8069H169.516V10.1331H172.568v2.0085C173.232 11.3489 173.963 10.7676 174.762 10.3981 175.559 10.0289 176.473 9.84375 177.501 9.84375 179.815 9.84375 181.59 10.5242 182.827 11.8844 184.065 13.2449 184.683 15.1941 184.683 17.7329v10.074h-3.197v-9.383C181.486 16.5495 181.138 15.1595 180.441 14.2544 179.745 13.3491 178.668 12.8967 177.212 12.8967 175.626 12.8967 174.478 13.4297 173.766 14.4953 173.053 15.5614 172.697 17.3207 172.697 19.7736v8.0333z" fill="#000"/><path d="M187.515 27.8077V13.0259H185.008v-2.892H187.515V4.41406H190.68V10.1339h2.506v2.892H190.68V27.8077H187.515z" fill="#000"/><path d="M191.984 18.9854C191.984 17.7323 192.196 16.562 192.619 15.4748 193.042 14.3876 193.666 13.4103 194.491 12.5427 195.38 11.5894 196.381 10.8557 197.495 10.3415 198.609 9.82728 199.766 9.57031 200.966 9.57031 202.251 9.57031 203.443 9.8004 204.541 10.2611 205.639 10.7215 206.632 11.402 207.521 12.3018 208.389 13.191 209.056 14.1922 209.522 15.306 209.988 16.4203 210.221 17.5715 210.221 18.7604 210.221 19.9711 210.004 21.1492 209.57 22.2954S208.528 24.4428 207.746 25.2999C206.847 26.2853 205.837 27.0326 204.717 27.541 203.598 28.0499 202.406 28.3044 201.143 28.3044 199.847 28.3044 198.652 28.0715 197.56 27.6053 196.467 27.1396 195.487 26.4516 194.619 25.541 193.794 24.6732 193.149 23.6639 192.683 22.5122 192.217 21.361 191.984 20.1851 191.984 18.9854zM195.278 18.9533c0 1.7674.560000000000002 3.2401 1.679 4.4184C198.076 24.5501 199.471 25.1391 201.143 25.1391 202.782 25.1391 204.155 24.5476 205.264 23.364 206.372 22.1803 206.927 20.6993 206.927 18.9211 206.927 17.1324 206.372 15.6542 205.264 14.4866 204.155 13.3193 202.771 12.7353 201.111 12.7353c-1.64999999999998.0-3.035.5921-4.154 1.7754-1.119 1.1836-1.679 2.6647-1.679 4.4426z" fill="#000"/></svg>