<svg xmlns="http://www.w3.org/2000/svg" width="158" height="51" viewBox="0 0 158 51" fill="none"><path d="M23.87 15.5839 24.6285 11.8487h3.0827c2.2524.0 3.9259 2.0848 3.4386 4.284L26.6839 36.2925C26.1991 38.4802 24.2593 40.0374 22.0185 40.0374H18.3839l.8173-3.5017c-2.3931 2.8012-5.0777 4.2019-8.4626 4.2019C4.37747 40.7376.0 36.5357.0 29.0655c0-8.5209 5.31103-17.9171 14.8823-17.9171 3.7935.0 7.1201 1.6341 8.9877 4.4355zM7.76211 27.548c0 4.0268 2.68469 6.5947 6.24489 6.5947 2.6261.0 4.9604-1.459 6.4781-3.3849l2.1593-9.7463c-1.2257-1.9259-3.6185-3.2681-6.5948-3.2681-4.8441.0-8.28749 4.6103-8.28749 9.8046z" fill="#000"/><path d="M43.8122.0C41.5947.0 38.8516 1.80911 38.8516 5.01919c0 2.1012 1.6923 3.79352 3.9686 3.79352 2.2762.0 5.0189-1.80936 5.0189-5.01894C47.8391 1.69257 46.1468.0 43.8122.0z" fill="#000"/><path d="M43.8361 12.1123C43.2199 11.568 42.4227 11.235 41.5918 11.1747 41.4926 11.1673 41.3942 11.1641 41.2968 11.1641c-1.827.0-3.3792 1.2457-3.7748 3.0298L31.6328 40.7376h3.4178c2.6299.0 4.90669999999999-1.8274 5.4755-4.3951l4.5454-20.4759C45.3806 14.4713 44.9187 13.0679 43.8361 12.1123z" fill="#000"/><path d="M45.4844 40.7451l5.4471-24.6025C51.4872 13.634 53.7114 11.8487 56.2807 11.8487h3.014l-.817 3.6767C60.9285 12.8408 63.9635 11.1484 68.4573 11.1484L67.0209 17.4902C66.5539 17.3737 58.6049 16.546 57.1352 21.5367l-3.3159 15.029C53.2802 39.0069 51.1162 40.7451 48.6161 40.7451H45.4844z" fill="#000"/><path d="M134.106 36.3021 131.781 46.7853C131.264 49.1167 129.197 50.776 126.809 50.776h-3.325L131.176 16.1141C131.729 13.6221 133.938 11.8487 136.491 11.8487H139.534L138.717 15.3504C141.109 12.5492 143.852 11.1484 147.237 11.1484c6.362.0 10.681 4.202 10.681 11.6722.0 8.4626-5.25300000000001 17.917-14.824 17.917-3.79399999999998.0-7.12-1.634-8.988-4.4355zm16.049-11.964c0-4.0268-2.626-6.5947-6.244-6.5947C141.343 17.7434 139.009 19.2024 137.491 21.1283L135.273 30.8746c1.226 1.9259 3.619 3.2683 6.595 3.2683C146.771 34.1429 150.155 29.5324 150.155 24.3381z" fill="#000"/><path d="M90.0078 40.7451 95.455 16.1426C96.0107 13.634 98.2348 11.8487 100.804 11.8487h3.014L103.001 15.5254C105.452 12.8408 108.487 11.1484 112.981 11.1484l-1.437 6.3418C111.077 17.3737 103.128 16.546 101.659 21.5367L98.3427 36.5657C97.8036 39.0069 95.6397 40.7451 93.1395 40.7451H90.0078z" fill="#000"/><path d="M85.2344 11.0969 87.6778.0H84.357C81.968.0 79.9008 1.66232 79.388 3.99586L77.8221 11.0969H74.4204C73.6797 11.0969 73.038 11.6102 72.8751 12.3327l-1.1803 5.2424h4.6686L71.2031 40.7302h2.9936c2.5744.0 4.80269999999999-1.7895 5.3591-4.3033l4.2196-18.8518h5.7191l1.4593-6.4782H85.2344z" fill="#000"/><path d="M124.125.0c-2.218.0-4.961 1.80911-4.961 5.01919C119.164 7.12039 120.856 8.81271 123.133 8.81271 125.409 8.81271 128.152 7.00335 128.152 3.79377 128.152 1.69257 126.459.0 124.125.0z" fill="#000"/><path d="M124.149 12.1123c-.616-.5443-1.414-.8773-2.245-.9376C121.805 11.1673 121.707 11.1641 121.609 11.1641c-1.827.0-3.37899999999999 1.2457-3.774 3.0298l-5.89 26.5437H115.363c2.63.0 4.907-1.8274 5.476-4.3951l4.545-20.4759C125.693 14.4713 125.231 13.0679 124.149 12.1123z" fill="#000"/></svg>