<svg width="256" height="79" viewBox="0 0 256 79" fill="none" xmlns="http://www.w3.org/2000/svg"><g clip-path="url(#clip0_3162_2115)"><path d="M178.806 17.7156C179.873 17.8277 180.932 18.0266 181.989 18.3125 183.045 18.6011 184.028 18.9597 184.938 19.3913 185.848 19.8228 186.668 20.3188 187.389 20.8848 188.11 21.448 188.682 22.0673 189.107 22.7426 189.53 23.4179 189.764 24.1296 189.806 24.8806 189.851 25.6316 189.651 26.4162 189.206 27.2344 188.716 28.1423 187.995 28.9745 187.04 29.7395 186.085 30.5016 184.955 31.1826 183.657 31.7794 182.358 32.3763 180.901 32.8862 179.29 33.3066 177.679 33.7269 175.972 34.0351 174.172 34.2341 174.772 34.4778 175.394 34.7525 176.039 35.0635 176.684 35.3745 177.361 35.694 178.073 36.0246 179.363 36.6439 180.49 37.2183 181.456 37.7507 182.423 38.2803 183.273 38.7791 184.006 39.2414 184.738 39.7066 185.355 40.1381 185.857 40.536 186.358 40.9339 186.783 41.287 187.141 41.598 187.209 41.6653 187.245 41.7914 187.257 41.9791 187.268 42.1668 187.234 42.3378 187.158 42.4919 187.079 42.646 186.947 42.7469 186.758 42.7917 186.569 42.8366 186.307 42.7469 185.975 42.5255 185.485 42.1949 184.758 41.7633 183.792 41.2337 182.825 40.7041 181.758 40.1493 180.592 39.5749 179.425 39.0005 178.237 38.4316 177.025 37.8656 175.814 37.3024 174.718 36.8204 173.741 36.4225 173.428 36.2908 173.129 36.1619 172.839 36.0414S172.262 35.8032 171.972 35.694C171.304 36.8877 170.698 37.9889 170.155 38.9949 169.611 40.0008 169.248 40.735 169.07 41.2001 169.025 41.3318 169.002 41.4887 169.002 41.6653 169.002 41.8418 168.991 42.0239 168.969 42.2117 168.946 42.3994 168.895 42.5704 168.819 42.7245 168.741 42.8786 168.614 42.9907 168.436 43.0551 168.214 43.142 167.986 43.1532 167.752 43.0887 167.518 43.0215 167.318 42.8842 167.152 42.674 166.986 42.4639 166.873 42.1837 166.819 41.8278 166.763 41.4747 166.791 41.0544 166.904 40.5668 167.104 39.771 167.405 38.8632 167.805 37.846 168.205 36.8288 168.673 35.7696 169.205 34.6628 168.45 34.419 167.755 34.2201 167.121 34.0659 166.487 33.9118 165.938 33.8222 165.47 33.7997 165.16 33.7773 164.915 33.6736 164.738 33.4859 164.56 33.2982 164.481 33.088 164.504 32.8554 164.526 32.6228 164.676 32.4127 164.954 32.2249 165.233 32.0372 165.659 31.9419 166.239 31.9419 166.726 31.9419 167.262 31.998 167.839 32.1073 168.417 32.2193 169.05 32.3735 169.738 32.5724 169.828 32.5724 169.91 32.5668 169.988 32.5556 170.067 32.5444 170.16 32.5388 170.273 32.5388 170.918 31.2778 171.566 30.0841 172.222 28.9577 172.879 27.8312 173.462 26.8589 173.972 26.0407 174.149 25.7745 174.383 25.4326 174.673 25.0123 174.96 24.592 175.284 24.2053 175.639 23.8522 175.994 23.4992 176.366 23.233 176.755 23.0564 177.144 22.8799 177.527 22.9135 177.904 23.1545 178.282 23.3759 178.476 23.6589 178.487 24.0007 178.499 24.3426 178.414 24.7069 178.237 25.0936 178.059 25.4803 177.831 25.8726 177.552 26.2705S177.037 27.0438 176.837 27.3969C176.659 27.7079 176.321 28.2824 175.82 29.123 175.318 29.9636 174.746 30.936 174.101 32.04 175.301 31.8411 176.563 31.5805 177.884 31.261 179.206 30.9416 180.462 30.5381 181.651 30.0505 182.84 29.5657 183.873 28.9829 184.752 28.3104 185.631 27.6351 186.214 26.8561 186.502 25.9734 186.747 25.2449 186.674 24.564 186.285 23.9335 185.896 23.303 185.273 22.7398 184.417 22.241 183.561 21.745 182.527 21.3191 181.316 20.9633 180.104 20.6102 178.786 20.3552 177.366 20.2011 175.811 20.0245 174.172 20.0582 172.448 20.2992 170.724 20.5429 169.008 21.0837 167.295 21.9244 167.318 22.1682 167.295 22.3783 167.228 22.5549 167.16 22.7314 167.045 22.8855 166.878 23.02 166.712 23.1545 166.462 23.219 166.129 23.219 165.684 23.219 165.352 23.1153 165.129 22.9051 164.907 22.695 164.78 22.4288 164.746 22.1093 164.712 21.7899 164.78 21.4508 164.946 21.0978 165.112 20.7447 165.374 20.4337 165.729 20.1703 166.084 19.8844 166.684 19.5678 167.529 19.2259 168.374 18.8841 169.38 18.573 170.546 18.2984 171.712 18.021 173.003 17.8165 174.414 17.6848 175.825 17.5531 177.287 17.5643 178.797 17.7184L178.806 17.7156z" fill="#000"/><path d="M204.712 29.4266C204.222 30.1776 203.599 30.8753 202.844 31.517 202.089 32.1587 201.272 32.7163 200.394 33.1927 199.515 33.669 198.599 34.0389 197.644 34.3023 196.689 34.5685 195.776 34.7002 194.909 34.7002 194.354 34.7002 193.805 34.6217 193.258 34.4676 192.714 34.3135 192.241 34.0641 191.841 33.7223 191.441 33.3804 191.142 32.9321 190.942 32.38 190.742 31.828 190.72 31.1527 190.875 30.3569 191.007 29.5835 191.297 28.869 191.743 28.2189 192.188 27.566 192.697 26.9972 193.275 26.5096 193.852 26.022 194.475 25.6298 195.143 25.3327 195.81 25.0329 196.43 24.8508 197.01 24.7863 197.41 24.7415 197.805 24.7695 198.193 24.8704 198.582 24.9713 198.909 25.1422 199.177 25.3832 199.444 25.627 199.622 25.9352 199.709 26.3107 199.796 26.6861 199.743 27.1401 199.543 27.6697 199.32 28.3114 198.954 28.8578 198.444 29.3117 197.931 29.7657 197.388 30.1356 196.81 30.4214 196.233 30.71 195.669 30.9201 195.126 31.0518 194.582 31.1835 194.154 31.2508 193.841 31.2508 193.928 31.517 194.134 31.7272 194.458 31.8813 194.779 32.0354 195.162 32.1138 195.607 32.1138 196.207 32.1138 196.847 32.0578 197.526 31.9485 198.205 31.8392 198.886 31.6711 199.577 31.4497 200.264 31.2284 200.932 30.9538 201.577 30.6203 202.222 30.2897 202.788 29.8918 203.278 29.4266 203.765 28.9839 204.129 28.7205 204.363 28.6308 204.596 28.544 204.746 28.544 204.813 28.6308 204.881 28.7205 204.898 28.8522 204.864 29.0287 204.83 29.2053 204.78 29.3398 204.715 29.4266H204.712zM197.912 26.5096C197.802 26.3779 197.579 26.3555 197.244 26.4424 196.912 26.532 196.543 26.7142 196.143 26.9888 195.743 27.2662 195.354 27.6249 194.976 28.0676 194.599 28.5103 194.298 28.9951 194.075 29.5275 194.652 29.4602 195.191 29.2837 195.692 28.9979 196.191 28.7121 196.624 28.401 196.991 28.0704 197.357 27.7397 197.63 27.4231 197.808 27.1261 197.985 26.8291 198.019 26.6245 197.906 26.5124L197.912 26.5096z" fill="#000"/><path d="M219.781 29.3935C219.958 29.5252 220.02 29.6877 219.964 29.8755 219.907 30.0632 219.826 30.2229 219.713 30.3574 219.223 31.0215 218.674 31.6072 218.062 32.1144 217.451 32.6243 216.823 33.0587 216.178 33.4229 215.533 33.7872 214.893 34.0646 214.259 34.2524 213.625 34.4401 213.054 34.5354 212.541 34.5354S211.58 34.4625 211.256 34.3196C210.935 34.1767 210.696 33.989 210.541 33.7564S210.296 33.2604 210.273 32.9606C210.251 32.6636 210.251 32.3469 210.273 32.0163 210.318 31.5735 210.434 31.0944 210.623 30.5732 210.811 30.0548 211.017 29.5728 211.239 29.1301 211.507 28.6005 211.794 28.0793 212.107 27.5721 210.93 28.0149 209.8 28.6341 208.724 29.4299 207.645 30.2257 206.679 31.0215 205.822 31.8173 204.966 32.6131 204.245 33.3165 203.656 33.9245 203.067 34.5326 202.662 34.88 202.439 34.9697 201.929 35.1687 201.555 35.1014 201.324 34.7708 201.09 34.4401 201.028 34.0422 201.141 33.5771 201.253 33.0026 201.442 32.3609 201.707 31.652 201.974 30.9459 202.273 30.265 202.608 29.6121 202.941 28.9592 203.293 28.3679 203.659 27.8383 204.025 27.3087 204.355 26.922 204.642 26.6783 204.974 26.3924 205.253 26.2131 205.476 26.1487 205.698 26.0814 205.887 26.0618 206.042 26.0814 206.197 26.1038 206.329 26.1795 206.442 26.314 206.729 26.5578 206.803 26.8996 206.659 27.3424 206.515 27.7851 206.282 28.253 205.96 28.7518 205.639 29.2506 205.31 29.7298 204.977 30.1949 204.645 30.6601 204.434 31.0243 204.343 31.2905 204.743 30.8478 205.234 30.3911 205.811 29.9147 206.389 29.4383 207.006 28.9536 207.662 28.4548 208.318 27.9588 209.006 27.4656 209.73 26.9781 210.451 26.4933 211.169 26.0394 211.879 25.6191 212.456 25.2884 212.958 25.0895 213.38 25.0222 213.803 24.955 214.158 24.9774 214.448 25.0895 214.738 25.1987 214.949 25.3669 215.082 25.5854 215.214 25.8068 215.282 26.0282 215.282 26.2495 215.259 26.7791 215.133 27.404 214.899 28.1241 214.665 28.8415 214.403 29.5224 214.116 30.1641 213.803 30.915 213.437 31.6912 213.017 32.487 213.327 32.5543 213.738 32.5095 214.251 32.3553 214.761 32.2012 215.296 31.9911 215.851 31.7249 216.406 31.4587 216.944 31.1616 217.468 30.8282 217.989 30.4975 218.417 30.1753 218.752 29.8671 219.062 29.5588 219.29 29.3851 219.437 29.3543 219.581 29.3206 219.699 29.3375 219.786 29.4047L219.781 29.3935z" fill="#000"/><path d="M231.514 21.6964C230.981 21.6739 230.401 21.6627 229.778 21.6627 229.246 21.6403 228.612 21.6291 227.88 21.6291H225.513C224.581 23.1535 223.623 24.7507 222.646 26.4207 221.668 28.0908 220.722 29.7384 219.812 31.3637 218.902 32.9889 218.074 34.5188 217.327 35.9563 216.583 37.3938 215.978 38.6435 215.51 39.7027 215.443 39.8344 215.367 40.0278 215.276 40.2828 215.189 40.5378 215.082 40.776 214.961 40.9945 214.84 41.2159 214.693 41.3924 214.527 41.5241 214.361 41.6558 214.166 41.6782 213.944 41.5914 213.721 41.5045 213.589 41.3588 213.544 41.1598 213.499 40.9609 213.499 40.7507 213.544 40.5294 213.589 40.308 213.657 40.0922 213.744 39.8821 213.834 39.6719 213.899 39.501 213.944 39.3693 214.344 38.2849 214.874 37.0379 215.527 35.6229 216.183 34.2078 216.91 32.7115 217.71 31.1283 218.51 29.5479 219.355 27.9451 220.243 26.3199 221.133 24.6946 222.009 23.1423 222.877 21.6599 221.944 21.6824 221.003 21.7104 220.06 21.744 219.113 21.7776 218.215 21.8169 217.358 21.8589 216.502 21.9037 215.713 21.9682 214.992 22.0578 214.271 22.1475 213.654 22.2456 213.141 22.3549 212.873 22.4221 212.668 22.3941 212.524 22.2708 212.381 22.1503 212.302 21.9934 212.29 21.8056 212.279 21.6179 212.341 21.419 212.473 21.2088 212.606 20.9986 212.828 20.8389 213.141 20.7268 213.496 20.5727 214.057 20.441 214.826 20.3289 215.592 20.2197 216.471 20.1188 217.46 20.0319 218.448 19.9422 219.516 19.8666 220.66 19.7993 221.803 19.7321 222.933 19.6788 224.043 19.634 224.998 18.0424 225.86 16.6778 226.626 15.5373 227.392 14.3997 227.987 13.6207 228.409 13.2004 228.564 13.0462 228.759 12.8585 228.992 12.6371 229.226 12.4158 229.463 12.2168 229.708 12.0403 229.953 11.8637 230.201 11.7433 230.457 11.676 230.714 11.6088 230.93 11.6648 231.108 11.8413 231.285 12.0179 231.376 12.2 231.376 12.3877 231.376 12.5755 231.33 12.7576 231.243 12.9342c-.113.1989-.256.3979-.433999999999998.5968C230.477 13.9513 229.959 14.6911 229.26 15.7531 228.561 16.8151 227.742 18.0732 226.809 19.5331 228.187 19.4883 229.37 19.4603 230.359 19.4491 231.347 19.4379 231.964 19.4323 232.209 19.4323 232.542 19.4323 232.877 19.4435 233.209 19.4659 233.542 19.4883 233.832 19.5443 234.077 19.6312 234.322 19.7209 234.522 19.8526 234.677 20.0291S234.911 20.4606 234.911 20.7913C234.911 21.1023 234.739 21.3209 234.395 21.4554 234.052 21.5871 233.657 21.6768 233.212 21.7216 232.722 21.7664 232.156 21.7552 231.514 21.688V21.6964z" fill="#000"/><path d="M239.151 30.2535C239.397 29.9873 239.574 29.9173 239.684 30.0378 239.794 30.1582 239.751 30.4749 239.551 30.9821 239.439 31.2483 239.208 31.5733 238.85 31.96 238.495 32.3467 238.078 32.711 237.599 33.0556 237.12 33.3975 236.594 33.6917 236.016 33.9355 235.439 34.1793 234.884 34.2998 234.349 34.2998 233.813 34.2998 233.354 34.2157 233.033 34.0504 232.712 33.8851 232.455 33.6581 232.267 33.3695 232.078 33.0809 231.951 32.7502 231.884 32.3747 231.816 31.9992 231.763 31.6013 231.717 31.181 231.495 31.3576 231.162 31.635 230.717 32.0104 230.272 32.3859 229.777 32.7894 229.233 33.221 228.689 33.6525 228.112 34.0896 227.5 34.5295 226.889 34.9723 226.283 35.359 225.683 35.6896 225.083 36.0203 224.517 36.2641 223.985 36.4182 223.452 36.5723 222.996 36.5835 222.619 36.4518 222.509 36.407 222.379 36.3313 222.235 36.2192 222.092 36.1099 221.962 35.9502 221.852 35.7373 221.742 35.5271 221.664 35.2553 221.619 34.9246 221.573 34.594 221.619 34.1961 221.751 33.7309 221.906 33.1565 222.179 32.5316 222.568 31.8563 222.957 31.181 223.424 30.5141 223.968 29.85 224.512 29.1859 225.112 28.547 225.768 27.9278 226.424 27.3085 227.083 26.7621 227.751 26.2857 228.419 25.8094 229.067 25.4283 229.7 25.1425 230.334 24.8566 230.906 24.7109 231.419 24.7109 231.664 24.7109 231.903 24.739 232.134 24.795 232.365 24.851 232.568 24.9435 232.734 25.078 232.901 25.2097 233.022 25.3862 233.101 25.6076 233.179 25.829 233.185 26.0952 233.117 26.4034 233.027 26.7789 232.757 27.0283 232.301 27.1488 231.844 27.2693 231.374 27.4206 230.884 27.5971 230.306 27.8185 229.706 28.1828 229.084 28.6927 228.461 29.2027 227.878 29.7435 227.334 30.318 226.791 30.8924 226.317 31.4612 225.917 32.0273 225.517 32.5905 225.238 33.0388 225.083 33.3695 225.238 33.3246 225.512 33.1873 225.9 32.9548 226.289 32.7222 226.723 32.4476 227.199 32.1253 227.678 31.8059 228.182 31.4556 228.717 31.0801 229.25 30.7047 229.751 30.3516 230.219 30.0181 230.686 29.6875 231.092 29.4045 231.436 29.1719 231.779 28.9393 231.996 28.8132 232.086 28.7908 232.532 28.6367 232.903 28.746 233.202 29.1215 233.501 29.4969 233.675 30.1162 233.718 30.9793 233.74 31.4668 233.81 31.8591 233.934 32.1562 234.056 32.456 234.306 32.5933 234.684 32.5709 235.171 32.5485 235.656 32.4504 236.134 32.2738 236.613 32.0973 237.05 31.8872 237.45 31.6434 237.85 31.3996 238.199 31.1474 238.501 30.8812 238.799 30.615 239.016 30.4048 239.151 30.2507V30.2535z" fill="#000"/><path d="M247.787 20.1374C247.432 20.5129 246.959 21.1433 246.37 22.0288S245.147 23.937 244.469 25.0971C243.79 26.2572 243.114 27.4901 242.435 28.7959 241.756 30.1017 241.136 31.3598 240.567 32.576 240.001 33.7921 239.522 34.8989 239.133 35.8937 238.744 36.8884 238.528 37.6506 238.482 38.183 238.573 38.3371 238.637 38.494 238.682 38.6481 238.728 38.7798 238.739 38.9143 238.716 39.046 238.694 39.1777 238.618 39.2898 238.482 39.3767 238.082 39.6429 237.694 39.6317 237.316 39.3431 236.939 39.0573 236.75 38.4912 236.75 37.6506 236.75 37.0537 236.888 36.2692 237.167 35.2968 237.446 34.3245 237.829 33.2457 238.316 32.0632 238.806 30.8807 239.373 29.6309 240.018 28.3168 240.663 27.0026 241.356 25.7136 242.102 24.4526 242.846 23.1917 243.612 22.0092 244.404 20.9052 245.193 19.8011 245.964 18.8484 246.722 18.0526 246.945 17.8312 247.179 17.6547 247.421 17.523 247.621 17.4361 247.843 17.3969 248.088 17.4081 248.333 17.4193 248.576 17.5566 248.821 17.8228 248.953 17.9125 249.021 18.0666 249.021 18.288 248.998 18.4645 248.905 18.6971 248.736 18.9857 248.57 19.2743 248.252 19.661 247.787 20.1458V20.1374z" fill="#000"/><path d="M251.518 22.0598C251.628 22.1915 251.673 22.3568 251.651 22.5558 251.628 22.7323 251.555 22.9537 251.434 23.2199 251.313 23.4861 251.062 23.8055 250.684 24.181 250.352 24.5117 249.96 24.9236 249.518 25.4083 249.073 25.8959 248.656 26.4031 248.267 26.9327 247.879 27.4623 247.552 27.9835 247.284 28.4907 247.017 29.0006 246.884 29.4406 246.884 29.8161 246.884 30.0823 246.957 30.3148 247.101 30.5138 247.245 30.7127 247.434 30.8949 247.667 31.0602 247.901 31.2255 248.16 31.388 248.451 31.5422 248.738 31.6963 249.028 31.8616 249.318 32.0381 250.386 31.4637 251.425 30.9397 252.437 30.4633 253.448 29.987 254.344 29.6619 255.121 29.4854 255.321 29.4406 255.51 29.4406 255.687 29.4854 255.865 29.5302 255.966 29.6395 255.986 29.8161 256.031 29.9926 255.992 30.1355 255.87 30.2476 255.747 30.3597 255.532 30.469 255.22 30.5782 254.552 30.822 253.797 31.1303 252.952 31.5057 252.107 31.8812 251.262 32.324 250.42 32.8311 250.687 33.0973 250.893 33.4168 251.037 33.7923 251.18 34.1677 251.22 34.6105 251.152 35.1205 251.084 35.6304 250.837 36.1825 250.403 36.7793 249.969 37.3762 249.436 37.9282 248.803 38.4382 248.169 38.9481 247.473 39.3741 246.718 39.7159 245.963 40.0578 245.228 40.2287 244.518 40.2287 244.25 40.2287 243.969 40.1447 243.667 39.9793 243.366 39.814 243.129 39.5702 242.952 39.2508 242.774 38.9313 242.718 38.5334 242.786 38.0571 242.853 37.5807 243.118 37.0231 243.586 36.3814 243.986 35.8294 244.501 35.2858 245.135 34.7562 245.769 34.2266 246.473 33.7166 247.253 33.229 246.963 33.0525 246.665 32.876 246.352 32.6994 246.039 32.5229 245.752 32.324 245.484 32.1026 245.217 31.8812 245 31.6374 244.833 31.374 244.667 31.1078 244.56 30.7996 244.518 30.4465 244.431 29.6283 244.597 28.7765 245.019 27.8938 245.442 27.0083 245.957 26.1733 246.569 25.3887 247.18 24.6041 247.814 23.9064 248.47 23.2983 249.127 22.6903 249.653 22.2532 250.053 21.9898 250.253 21.8805 250.442 21.802 250.62 21.7572 250.775 21.7123 250.935 21.7067 251.104 21.7404 251.273 21.774 251.408 21.8777 251.521 22.0542L251.518 22.0598zm-7.101 16.2831C244.507 38.3653 244.766 38.3037 245.2 38.1608 245.634 38.0178 246.104 37.7965 246.617 37.4967 247.127 37.1968 247.605 36.8269 248.05 36.387 248.496 35.9443 248.76 35.4483 248.851 34.8935 248.918 34.6077 248.794 34.3191 248.484 34.0304 247.462 34.7394 246.572 35.4623 245.817 36.2021 245.062 36.9446 244.594 37.6564 244.417 38.3401V38.3429z" fill="#000"/><path d="M95.7608 29.1041C97.0003 28.1542 97.62 26.9017 97.62 25.3465 97.62 24.4919 97.42 23.7297 97.02 23.0544 96.62 22.3819 96.0482 21.8074 95.3045 21.3311 94.5608 20.8575 93.6594 20.4904 92.6002 20.2355 91.541 19.9805 90.3522 19.8516 89.0367 19.8516H82.3125V39.7774H88.893C90.4367 39.7774 91.817 39.6401 93.0283 39.3655 94.2396 39.0909 95.2707 38.693 96.1186 38.169 96.9665 37.6478 97.6172 37.0061 98.0651 36.2467 98.513 35.4874 98.7384 34.6327 98.7384 33.6856S98.4764 31.8586 97.9525 31.0516C97.4285 30.2446 96.6989 29.5945 95.7636 29.1013L95.7608 29.1041zM91.5269 24.3938C91.8706 24.4975 92.1551 24.646 92.3861 24.8365 92.6142 25.0271 92.7297 25.2821 92.7297 25.6043 92.7297 25.8145 92.6959 26.0162 92.6283 26.218 92.5607 26.4169 92.4086 26.5963 92.172 26.7588 91.9325 26.9213 91.5748 27.053 91.0987 27.1567 90.6226 27.2604 89.9635 27.3136 89.124 27.3136H86.6056V24.1248H89.3803C89.7043 24.1248 90.0564 24.1444 90.4395 24.1808 90.8198 24.2201 91.1832 24.2901 91.5269 24.3938zm-4.9213 7.1874h3.3776C90.8029 31.5812 91.4649 31.6232 91.972 31.7101 92.4762 31.797 92.8678 31.9231 93.1467 32.094 93.4227 32.2649 93.6086 32.4779 93.7044 32.7357 93.8002 32.9907 93.8481 33.2905 93.8481 33.6324c0 .7958-.3155 1.3085-.943700000000007 1.5383C92.2762 35.3977 91.2818 35.5126 89.9268 35.5126H86.6084V31.584L86.6056 31.5812z" fill="#000"/><path d="M107.666 19.8594 99.1953 39.7852H103.86l1.259-3.0179h8.212L114.618 39.7852H119.283l-8.47-19.9258H107.666zM106.95 32.4969l2.291-5.4361L111.531 32.4969h-4.578H106.95z" fill="#000"/><path d="M124.16 27.1295C124.493 26.4373 124.926 25.8349 125.462 25.3221 125.994 24.8093 126.617 24.4058 127.321 24.1116 128.028 23.8174 128.78 23.6689 129.58 23.6689c1.547.0 2.851.5884 3.92099999999999 1.7653L134.389 26.4009 137.938 23.1 137.194 22.3603C135.172 20.3876 132.634 19.3984 129.583 19.3984 128.076 19.3984 126.67 19.6646 125.363 20.1942 124.056 20.7266 122.932 21.4552 121.985 22.3855 121.042 23.3158 120.298 24.417 119.754 25.6864 119.211 26.9585 118.938 28.3344 118.938 29.8139 118.938 31.2934 119.211 32.6692 119.754 33.9414 120.298 35.2136 121.047 36.3148 122 37.2423 122.955 38.1726 124.079 38.904 125.377 39.4336 126.673 39.966 128.076 40.2294 129.583 40.2294 132.634 40.2294 135.172 39.243 137.194 37.2703L137.938 36.5306 134.389 33.2297 133.501 34.1964C133.006 34.7652 132.42 35.2024 131.741 35.505 131.065 35.8076 130.344 35.9589 129.58 35.9589 128.78 35.9589 128.025 35.8132 127.321 35.519 126.614 35.2248 125.994 34.8213 125.462 34.3085 124.926 33.7957 124.493 33.1932 124.16 32.5011 123.825 31.809 123.639 31.0636 123.602 30.2678V29.3572C123.642 28.5614 123.825 27.816 124.16 27.1239V27.1295z" fill="#000"/><path d="M153.504 19.8594v7.4564H144.262V19.8594H139.969V39.7852H144.262v-8.199H153.504v8.199h4.291V19.8594h-4.291z" fill="#000"/><path d="M84.521 63.4406 83.7097 64.4438V67.0301H82.3125V59.5625h1.3972v3.0571l2.479-3.0571H87.8845l-2.3747 2.9058L88.1014 67.0301H86.507L84.5238 63.4406H84.521z" fill="#000"/><path d="M96.4766 59.5625h4.4504v1.331H97.8738V62.6112h3.0532v1.331H97.8738v1.7597h3.0532v1.331H96.4766V59.5653 59.5625z" fill="#000"/><path d="M109.531 59.5625H113.982v1.331h-3.054V62.6112h3.054v1.331h-3.054v1.7597h3.054v1.331H109.531V59.5653 59.5625z" fill="#000"/><path d="M122.578 59.5625h2.572C125.542 59.5625 125.899 59.6326 126.229 59.7727 126.559 59.9128 126.843 60.1005 127.082 60.3415 127.322 60.5797 127.511 60.8627 127.649 61.1849 127.787 61.51 127.854 61.8546 127.854 62.2217S127.787 62.939 127.649 63.2641C127.511 63.5919 127.322 63.875 127.082 64.1131 126.843 64.3513 126.556 64.5419 126.223 64.682 125.891 64.8221 125.53 64.8921 125.139 64.8921h-1.161V67.0301H122.581V59.5625H122.578zM123.975 60.8515v2.7516H125.046C125.251 63.6031 125.44 63.5667 125.612 63.4967 125.784 63.4238 125.93 63.3257 126.054 63.1996 126.178 63.0735 126.274 62.9278 126.342 62.7597 126.409 62.5916 126.443 62.4123 126.443 62.2217 126.443 62.0312 126.409 61.8518 126.342 61.6837 126.274 61.5156 126.178 61.3727 126.054 61.2494S125.784 61.0308 125.612 60.958C125.44 60.8851 125.251 60.8515 125.046 60.8515H123.975z" fill="#000"/><path d="M146.75 59.5625H148.147v7.4676H146.75V59.5625z" fill="#000"/><path d="M158.717 60.8935h-2.006v-1.331H162.131v1.331H160.117v6.1366h-1.398V60.8935H158.717z" fill="#000"/><path d="M183.193 63.4406 182.382 64.4438V67.0301h-1.398V59.5625h1.398v3.0571L184.861 59.5625H186.556L184.182 62.4683 186.773 67.0301H185.179l-1.983-3.5895H183.193z" fill="#000"/><path d="M195.195 59.5625h1.398v7.4676h-1.398V59.5625z" fill="#000"/><path d="M205.039 59.5625h1.459L207.918 64.7884l1.572-5.2259H210.867L212.431 64.7688 213.839 59.5625H215.248l-2.119 7.4676H211.741l-1.572-5.2679-1.572 5.2679H207.177L205.039 59.5625z" fill="#000"/><path d="M223.711 59.5625H225.108v7.4676H223.711V59.5625z" fill="#000"/><path d="M226.819 49.5078H82.3125V49.8273H226.819V49.5078z" fill="url(#paint0_linear_3162_2115)"/><path d="M50.0025 13.8601C51.749 11.9743 71.1637-1.30495 68.4848.104517c0 0-19.1134 9.555213-20.4289 10.261383C46.7826 11.0468 39.1542 7.7655 32.3371 12.6748 32.1145 12.8345 31.8948 13.0026 31.6751 13.182c-6.9777 5.635-6.1692 14.1815-9.8088 20.0687-3.6395 5.8845-11.3778 13.764-13.34972 28.4583C8.26023 63.6228 8.18417 65.6348 8.28558 67.6887 14.3985 74.6183 23.3621 79.0008 33.3596 79.0008c9.282.0 17.6739-3.7744 23.7191-9.8578C57.1661 67.9801 57.2111 66.7808 57.2111 65.5395c0-19.0096-10.3665-26.1017-11.7834-31.4341C45.1488 33.0574 44.6192 30.2805 44.6192 30.2805 44.1713 23.8244 46.3657 18.9908 48.2475 16.1382 48.9179 15.1238 49.5489 14.3533 50.0053 13.8601H50.0025z" fill="#000"/><path d="M50.9369 17.6688C50.858 17.7809 50.7791 17.8986 50.6975 18.0219 50.2101 18.7589 49.7059 19.6415 49.2411 20.6643c1.8676 1.1741 3.6198 2.5611 5.2199 4.1527C60.1034 30.4297 63.2105 37.8945 63.2105 45.8329 63.2105 53.7713 60.1034 61.2333 54.461 66.8488c-5.6425 5.6126-13.147 8.7033-21.1275 8.7033S17.8513 72.4614 12.206 66.8488C6.5636 61.2361 3.45645 53.7713 3.45645 45.8329c0-7.9384 3.10715-15.4004 8.74955-21.0159 3.5664-3.5474 7.8792-6.089 12.5836-7.476C25.553 15.8923 26.5023 14.4744 27.7277 13.1406 11.9891 15.7942.0 29.4209.0 45.8329.0 64.1475 14.9244 78.9931 33.3363 78.9931c18.4119.0 33.3363-14.8456 33.3363-33.1602.0-11.8866-6.2875-22.3076-15.7329-28.1641H50.9369z" fill="#000"/><path d="M226.819 49.4609H82.3125V49.7801H226.819V49.4609z" fill="url(#paint1_linear_3162_2115)"/></g><defs><linearGradient id="paint0_linear_3162_2115" x1="82.3125" y1="49.6675" x2="226.819" y2="49.6675" gradientUnits="userSpaceOnUse"><stop stop-color="#fff"/><stop offset=".22" stop-color="#fff" stop-opacity=".76"/><stop offset=".6" stop-color="#fff" stop-opacity=".36"/><stop offset=".87" stop-color="#fff" stop-opacity=".1"/><stop offset="1" stop-color="#fff" stop-opacity="0"/></linearGradient><linearGradient id="paint1_linear_3162_2115" x1="82.3125" y1="49.6205" x2="226.819" y2="49.6205" gradientUnits="userSpaceOnUse"><stop/><stop offset="1" stop-opacity="0"/></linearGradient><clipPath id="clip0_3162_2115"><rect width="256" height="79" fill="#fff"/></clipPath></defs></svg>