<?xml version="1.0" encoding="UTF-8"?>
<svg id="Layer_2" data-name="Layer 2" xmlns="http://www.w3.org/2000/svg" viewBox="0 0 248.42 48.19">
  <defs>
    <style>
      .cls-1 {
        fill: #fff;
      }
    </style>
  </defs>
  <g id="Layer_2-2" data-name="Layer 2">
    <g>
      <path class="cls-1" d="M69.79,31.58v1.2c0,.96-.53,1.49-1.49,1.49h-1.56c-.96,0-1.52-.53-1.52-1.49V10.18c0-.96.57-1.49,1.52-1.49h1.56c.95,0,1.49.53,1.49,1.49v8.81c1.52-2.19,3.71-3.08,6.08-3.08,5.2,0,8.77,4.14,8.77,9.37s-3.57,9.37-8.77,9.37c-2.37,0-4.56-.88-6.08-3.08ZM80.09,25.28c0-3.04-1.84-5.59-5.09-5.59s-5.24,2.37-5.27,5.59c.04,3.22,2.16,5.59,5.27,5.59s5.09-2.51,5.09-5.59Z"/>
      <path class="cls-1" d="M86.24,25.35c0-5.13,3.93-9.45,9.76-9.45,4.81,0,8.99,2.9,9.34,8.63.07.92-.53,1.41-1.49,1.41h-13.2c-.07,2.72,2.33,4.95,6.05,4.95,1.49,0,2.97-.39,4.42-1.31.78-.46,1.49-.39,2.09.28l.32.39c.64.71.6,1.59-.28,2.26-2.05,1.59-4.49,2.12-6.76,2.12-6.37,0-10.26-4.17-10.26-9.3ZM100.96,23.09c-.71-2.83-2.97-3.54-4.88-3.54s-4.35.81-5.2,3.54h10.08Z"/>
      <path class="cls-1" d="M108.81,28.43v-8.67h-1.98c-.53,0-.81-.28-.81-.81v-1.84c0-.5.28-.81.81-.81h2.19l.64-3.86c.11-.71.57-1.06,1.24-1.06h1.24c.74,0,1.17.42,1.17,1.17v3.75h4.46c.53,0,.81.32.81.81v1.84c0,.53-.28.81-.81.81h-4.46v8.84c0,1.63.81,2.26,1.77,2.26s1.8-.67,1.8-1.77c0-.18,0-.39-.04-.64-.07-.57.11-.88.67-.88h1.87c.46,0,.81.18.92.64.14.6.18,1.2.18,1.34,0,3.33-2.33,5.09-5.7,5.09-2.97,0-5.98-1.41-5.98-6.23Z"/>
      <path class="cls-1" d="M123.35,28.43v-8.67h-1.98c-.53,0-.81-.28-.81-.81v-1.84c0-.5.28-.81.81-.81h2.19l.64-3.86c.11-.71.57-1.06,1.24-1.06h1.24c.74,0,1.17.42,1.17,1.17v3.75h4.46c.53,0,.81.32.81.81v1.84c0,.53-.28.81-.81.81h-4.46v8.84c0,1.63.81,2.26,1.77,2.26s1.8-.67,1.8-1.77c0-.18,0-.39-.04-.64-.07-.57.11-.88.67-.88h1.87c.46,0,.81.18.92.64.14.6.18,1.2.18,1.34,0,3.33-2.33,5.09-5.7,5.09-2.97,0-5.98-1.41-5.98-6.23Z"/>
      <path class="cls-1" d="M135.76,25.35c0-5.13,3.93-9.45,9.76-9.45,4.81,0,8.99,2.9,9.34,8.63.07.92-.53,1.41-1.49,1.41h-13.19c-.07,2.72,2.33,4.95,6.05,4.95,1.49,0,2.97-.39,4.42-1.31.78-.46,1.49-.39,2.09.28l.32.39c.64.71.6,1.59-.28,2.26-2.05,1.59-4.49,2.12-6.76,2.12-6.37,0-10.26-4.17-10.26-9.3ZM150.48,23.09c-.71-2.83-2.97-3.54-4.88-3.54s-4.35.81-5.2,3.54h10.08Z"/>
      <path class="cls-1" d="M157.48,32.78v-14.96c0-.96.53-1.52,1.49-1.52h1.49c.96,0,1.49.57,1.49,1.52v2.48c.6-3.08,2.9-4.39,4.74-4.39.14,0,.53.04.71.07.78.07.92.71.92,1.42v1.77c0,.92-.42,1.31-1.1,1.2-.32-.07-.64-.11-.92-.11-1.7,0-4.25,1.03-4.25,6.9v5.62c0,.96-.57,1.49-1.52,1.49h-1.56c-.96,0-1.49-.53-1.49-1.49Z"/>
      <path class="cls-1" d="M178.49,28.43v-8.67h-1.98c-.53,0-.81-.28-.81-.81v-1.84c0-.5.28-.81.81-.81h2.19l.64-3.86c.11-.71.57-1.06,1.24-1.06h1.24c.74,0,1.17.42,1.17,1.17v3.75h4.46c.53,0,.81.32.81.81v1.84c0,.53-.28.81-.81.81h-4.46v8.84c0,1.63.81,2.26,1.77,2.26s1.8-.67,1.8-1.77c0-.18,0-.39-.04-.64-.07-.57.11-.88.67-.88h1.87c.46,0,.81.18.92.64.14.6.18,1.2.18,1.34,0,3.33-2.33,5.09-5.7,5.09-2.97,0-5.98-1.41-5.98-6.23Z"/>
      <path class="cls-1" d="M192.14,32.78v-14.96c0-.96.53-1.52,1.49-1.52h1.49c.96,0,1.49.57,1.49,1.52v2.48c.6-3.08,2.9-4.39,4.74-4.39.14,0,.53.04.71.07.78.07.92.71.92,1.42v1.77c0,.92-.42,1.31-1.1,1.2-.32-.07-.64-.11-.92-.11-1.7,0-4.25,1.03-4.25,6.9v5.62c0,.96-.57,1.49-1.52,1.49h-1.56c-.96,0-1.49-.53-1.49-1.49Z"/>
      <path class="cls-1" d="M204.42,10.99c0-1.49,1.1-2.65,2.87-2.65s2.9,1.17,2.9,2.65-1.17,2.65-2.9,2.65-2.87-1.17-2.87-2.65ZM205.02,32.78v-14.96c0-.96.53-1.52,1.49-1.52h1.59c.96,0,1.49.57,1.49,1.52v14.96c0,.96-.53,1.49-1.49,1.49h-1.59c-.96,0-1.49-.53-1.49-1.49Z"/>
      <path class="cls-1" d="M213.65,40.71v-22.89c0-.96.53-1.52,1.49-1.52h1.56c.96,0,1.52.57,1.52,1.52v1.17c1.49-2.19,3.68-3.08,6.09-3.08,5.2,0,8.74,4.14,8.74,9.37s-3.54,9.37-8.74,9.37c-2.41,0-4.6-.88-6.09-3.08v9.13c0,.95-.57,1.49-1.52,1.49h-1.56c-.96,0-1.49-.53-1.49-1.49ZM228.47,25.28c0-3.04-1.84-5.59-5.06-5.59s-5.27,2.37-5.31,5.59c.04,3.22,2.16,5.59,5.31,5.59s5.06-2.51,5.06-5.59Z"/>
      <path class="cls-1" d="M234.8,31.12c-.46-.96.04-1.63.99-1.87l.92-.21c.85-.21,1.27.18,1.87.85.64.78,1.73,1.27,2.97,1.27,1.56,0,2.65-.85,2.65-1.98,0-.96-.74-1.45-1.91-1.87l-2.3-.81c-2.3-.71-4.78-2.12-4.78-5.06,0-3.18,2.62-5.52,6.33-5.52,2.26,0,4.35.74,5.59,2.87.6.92.11,1.66-.88,1.91l-.81.21c-.85.21-1.31-.11-1.87-.71-.53-.64-1.24-.81-1.95-.81-1.38,0-2.19.85-2.19,1.87,0,.96.85,1.45,1.84,1.77l2.41.85c3.57,1.13,4.7,3.22,4.74,5.27,0,3.61-3.18,5.52-6.86,5.52-3.01,0-5.55-1.2-6.76-3.54Z"/>
    </g>
    <g>
      <path class="cls-1" d="M28.34,15.36s.09.01.13.02c.17.02.12.01-.13-.02Z"/>
      <path class="cls-1" d="M28.34,15.36s-.06,0-.09-.01c0,0,0,0,0,0,.04,0,.06,0,.09.01Z"/>
      <path class="cls-1" d="M46.94,27.03c-2.58-.59-5.22-.87-7.87-.87.03-1.7-.14-3.4-.5-5.08-.95-4.38-3.48-8.74-7.95-10.21-.62-.2-1.25-.29-1.89-.38-.43-.05.02,0,.09.02-.32-.05-.65-.09-.98-.12-.36-.03-.72-.03-1.08,0-1.54.09-3,.47-4.42,1.07-2.39,1.01-4.52,2.43-6.53,4.05-2.82,2.28-5.18,5.01-7.21,7.99.94-3.94,1.99-7.86,3.13-11.75.86-2.9,1.77-5.79,2.73-8.65.41-1.22-.47-2.74-1.72-3.02-1.36-.31-2.58.41-3.02,1.72C6.31,11.95,3.57,22.35,1.56,32.89c-.57,2.97-1.07,5.96-1.53,8.95-.19,1.27.32,2.7,1.72,3.02,1.37.31,2.57-.41,3.02-1.72.67-1.96,1.38-3.91,2.16-5.84.09-.23.19-.47.29-.7.05-.12.1-.23.15-.35.15-.36.04-.11,0,.02.18-.52.44-1.02.67-1.52.42-.92.85-1.84,1.31-2.74.93-1.84,1.95-3.64,3.09-5.37.27-.41.55-.82.84-1.23.14-.2.29-.4.43-.6.07-.1.15-.2.22-.3.02-.03.09-.13.15-.21-.02.03-.05.07-.08.12.56-.79,1.24-1.53,1.9-2.24.7-.76,1.44-1.5,2.21-2.19.36-.33.74-.64,1.11-.95.06-.05.28-.23.36-.29.03-.03.06-.05.08-.06.12-.09.25-.18.37-.27.87-.63,1.77-1.21,2.71-1.73.47-.26.95-.5,1.45-.72.05-.01.5-.19.57-.21.28-.09.56-.18.84-.25.28-.07.56-.13.85-.18,0,0,0,0,0,0,.14,0,.28-.02.41-.03.29-.01.57,0,.86,0,.07,0,.12,0,.16,0,.12.02.24.03.36.05.19-.12,1.09.27,1.29.34.01,0,.02,0,.03.01.07.03.13.07.12.06.21.11.42.23.62.35.03.02.16.1.27.17-.05-.04-.06-.06.02.01.09.06.17.12.16.12,0,0-.03,0-.05-.03.06.05.11.1.16.14.14.13,1.02.86.97,1.04,0,0-.36-.5-.09-.11.06.09.12.18.18.26.12.18.24.36.35.55.24.4.45.81.65,1.24.02.04.04.08.05.1.08.2.16.41.23.62.16.47.31.94.43,1.43.11.43.21.87.29,1.31.04.2.08.41.11.62,0,.03,0,.07.01.13.02.17.03.33.05.5.06.75.08,1.51.05,2.26-5.37.73-10.58,2.64-15.09,5.66-1.98,1.32-4.04,2.83-5.53,4.71-1.79,2.26-3.02,5.16-1.76,7.97,1.17,2.61,4.17,3.52,6.83,3.33,2.59-.19,5.05-.9,7.41-1.95,4.45-1.98,8.29-5.58,10.51-9.92.85-1.67,1.49-3.43,1.92-5.24,1.5-.03,3.01.04,4.5.22.03,0,.11.01.18.02.05,0,.1.01.12.02.25.04.51.08.76.12.54.09,1.07.2,1.6.33,1.25.28,2.72-.38,3.02-1.72.28-1.25-.38-2.72-1.72-3.02ZM26.46,15.32c.42-.08.12-.01,0,0h0ZM29.41,15.62s.04.01.09.04c-.05-.02-.1-.04-.09-.04ZM16.53,43.04s-.05-.02-.07-.04c.04.02.07.03.08.04,0,0,0,0,0,0ZM32.88,32.56c-.02.06-.05.12-.07.18.04-.12-.13.29-.15.34-.46,1.01-1.01,1.97-1.64,2.89-.14.21-.29.41-.44.61-.08.09-.15.19-.23.28-.34.41-.7.81-1.08,1.2-.35.36-.72.71-1.1,1.04-.19.17-.39.33-.58.49-.01,0-.03.02-.04.04-.09.07-.19.14-.29.21-.84.61-1.74,1.16-2.66,1.64-.23.12-.45.23-.68.33-.15.07-.81.4-.28.13-.47.24-1.01.39-1.51.55-1,.32-2.01.55-3.04.71-.02,0-.04,0-.06.01-.07,0-.15,0-.2.01-.24.02-.48.04-.72.04-.24,0-.48,0-.72-.02-.04,0-.07,0-.1,0-.08-.02-.15-.04-.21-.06-.11-.03-.22-.06-.33-.09-.04-.01-.12-.04-.17-.07,0,0-.14-.09-.2-.14-.02-.02-.06-.07-.09-.11-.02-.03-.03-.06-.04-.07,0-.01,0-.01-.01-.02,0-.02-.01-.04-.02-.06,0,0,0,.01-.01.01,0,0,0,0,0-.01,0-.01,0-.04,0-.07,0-.04-.02-.08-.02-.09-.06-.21-.01-.13.03-.02,0-.1,0-.21.01-.3.03-.11.05-.22.09-.33.03-.11.07-.22.11-.33,0,0,0,0,0,0,.24-.43.46-.87.75-1.27.02-.02.06-.08.1-.13.04-.05.08-.1.1-.12.18-.21.37-.42.56-.62.35-.36.73-.69,1.11-1.02.19-.17.39-.33.59-.5.1-.08.2-.16.3-.24.03-.02.17-.13.25-.19.04-.03.08-.06.09-.07.1-.08.21-.15.31-.23.21-.15.42-.3.63-.45.45-.31.9-.61,1.37-.9.9-.56,1.83-1.07,2.78-1.54.46-.23.93-.44,1.4-.65.03-.01.09-.04.16-.07.06-.02.12-.05.15-.06.27-.11.54-.21.81-.32.99-.37,2-.7,3.02-.98.79-.22,1.59-.39,2.39-.55-.03.1-.06.2-.1.3-.08.22-.16.44-.24.66Z"/>
      <path class="cls-1" d="M16.18,42.46s0,.08,0,.11c0,.02.01.05.02.07.02-.04.01-.11-.01-.18Z"/>
      <path class="cls-1" d="M30.61,16.3s-.01,0-.02-.01c.04.03.09.08.13.11-.02-.02-.05-.04-.07-.06-.02-.02-.03-.02-.04-.03Z"/>
    </g>
  </g>
</svg>