<svg width="295" height="42" viewBox="0 0 295 42" fill="none" xmlns="http://www.w3.org/2000/svg"><path d="M52.5156 8.86719H64.1143C66.35 8.86719 68.0911 9.42574 69.3376 10.5444 70.584 11.6615 71.2065 13.293 71.2065 15.4359 71.2065 16.5773 70.9326 17.6077 70.3862 18.5269 69.8383 19.4477 69.1108 20.1523 68.2022 20.6409 70.7408 21.4795 72.0101 23.3545 72.0101 26.2659c0 1.4444-.325699999999998 2.6954-.9786 3.7562C70.3801 31.0814 69.5004 31.891 68.394 32.4496 67.2875 33.0081 66.0593 33.2882 64.7094 33.2882H52.5156V8.86719zM63.4157 19.0337C64.4172 19.0337 65.2207 18.7598 65.8265 18.2119 66.4322 17.6655 66.7351 16.833 66.7351 15.7144c0-1.28-.296800000000005-2.1597-.8904-2.6375C65.2496 12.6005 64.3715 12.3615 63.2057 12.3615H56.9186v6.6722h6.4971zM63.6958 29.7938C64.9301 29.7938 65.8797 29.5381 66.5433 29.0252 67.2069 28.5138 67.5386 27.6053 67.5386 26.3009 67.5386 24.9967 67.1886 24.0531 66.49 23.4702 65.7915 22.8888 64.7779 22.5966 63.4507 22.5966H56.9186v7.1972h6.7772z" fill="#000"/><path d="M77.8742 31.4687C76.057 29.9088 75.1484 27.7309 75.1484 24.9351 75.1484 22.188 75.9535 20.0101 77.5592 18.4029 79.1663 16.7958 81.4599 15.9922 84.4429 15.9922 86.3986 15.9922 88.0697 16.3651 89.4561 17.1093 90.8411 17.855 91.8836 18.8747 92.5822 20.1669 93.2808 21.459 93.6308 22.9322 93.6308 24.5866v2.0256H79.3414C79.6442 29.1052 81.8099 30.3501 85.84 30.3501 86.9115 30.3501 88.0057 30.2573 89.1244 30.0716 90.2415 29.8844 91.2201 29.6287 92.0587 29.303v3.3879C91.2657 33.0181 90.2475 33.2844 89.0011 33.4944 87.7546 33.7045 86.5158 33.8095 85.2815 33.8095 82.1585 33.8095 79.6914 33.0287 77.8742 31.4687zm11.5987-7.8608C89.4257 22.2808 88.9539 21.255 88.0575 20.5336S85.9329 19.45 84.3729 19.45C82.8357 19.45 81.6243 19.8229 80.7385 20.5686 79.8543 21.3144 79.3885 22.328 79.3414 23.6079H89.4729z" fill="#000"/><path d="M100.709 32.71C99.3701 31.9765 98.3214 30.94 97.5651 29.6007 96.8086 28.2614 96.4297 26.7075 96.4297 24.9375c0-1.7472.378900000000002-3.2965 1.1354-4.6464C98.3214 18.9396 99.3701 17.8864 100.709 17.1285 102.049 16.3721 103.568 15.9931 105.269 15.9931c2.747.0 4.913.722900000000001 6.497 2.1657V7.46875H116.169V33.2869H111.906V31.3296C110.95 32.2154 109.961 32.8501 108.937 33.2336 107.911 33.6186 106.689 33.8104 105.269 33.8104 103.568 33.8104 102.049 33.4436 100.709 32.71zm8.997-3.371C110.684 28.6632 111.371 27.7561 111.766 26.6147V23.2253C111.393 22.0839 110.713 21.1692 109.722 20.4828 108.733 19.7964 107.61 19.4525 106.351 19.4525 104.767 19.4525 103.463 19.9638 102.438 20.9896 101.414 22.0139 100.901 23.3304 100.901 24.9375 100.901 26.5447 101.414 27.849 102.438 28.8504 103.463 29.8518 104.767 30.3526 106.351 30.3526c1.259.0 2.376-.337899999999998 3.355-1.0136z" fill="#000"/><path d="M121.234 16.5156H125.497v2.6908C126.172 18.2978 127.133 17.6221 128.378 17.1792 129.625 16.7378 131.051 16.5156 132.658 16.5156V19.87C130.958 19.87 129.485 20.1317 128.24 20.6553 126.993 21.1804 126.126 22.0007 125.636 23.1193v10.165h-4.402V16.5156z" fill="#000"/><path d="M139.413 32.7441C137.934 32.0334 136.788 31.0091 135.972 29.6698 135.156 28.3305 134.75 26.7401 134.75 24.9001 134.75 23.1072 135.152 21.5412 135.955 20.2019 136.759 18.8626 137.905 17.8261 139.396 17.0925 140.886 16.359 142.609 15.9922 144.566 15.9922 146.524 15.9922 148.24 16.359 149.72 17.0925 151.199 17.8261 152.345 18.8626 153.161 20.2019 153.977 21.5412 154.383 23.1072 154.383 24.9001 154.383 26.7401 153.977 28.3305 153.161 29.6698 152.345 31.0091 151.199 32.0334 149.72 32.7441 148.24 33.4549 146.524 33.8095 144.566 33.8095 142.609 33.8095 140.893 33.4549 139.413 32.7441zM148.409 28.8312C149.364 27.8176 149.842 26.5072 149.842 24.9001 149.842 23.2016 149.37 21.8669 148.428 20.9004 147.484 19.934 146.196 19.45 144.566 19.45S141.649 19.934 140.705 20.9004C139.763 21.8669 139.291 23.2016 139.291 24.9001 139.291 26.5072 139.768 27.8176 140.724 28.8312 141.678 29.8433 142.959 30.3501 144.566 30.3501 146.174 30.3501 147.454 29.8433 148.409 28.8312z" fill="#000"/><path d="M161.673 32.7441C160.193 32.0334 159.046 31.0091 158.231 29.6698 157.416 28.3305 157.008 26.7401 157.008 24.9001 157.008 23.1072 157.411 21.5412 158.213 20.2019 159.017 18.8626 160.164 17.8261 161.654 17.0925 163.146 16.359 164.869 15.9922 166.826 15.9922 168.781 15.9922 170.5 16.359 171.979 17.0925 173.457 17.8261 174.604 18.8626 175.42 20.2019 176.234 21.5412 176.642 23.1072 176.642 24.9001 176.642 26.7401 176.234 28.3305 175.42 29.6698 174.604 31.0091 173.457 32.0334 171.979 32.7441 170.5 33.4549 168.781 33.8095 166.826 33.8095 164.869 33.8095 163.152 33.4549 161.673 32.7441zM170.669 28.8312C171.623 27.8176 172.101 26.5072 172.101 24.9001c0-1.6985-.472000000000008-3.0332-1.416-3.9997C169.743 19.934 168.456 19.45 166.826 19.45 165.194 19.45 163.908 19.934 162.965 20.9004 162.023 21.8669 161.551 23.2016 161.551 24.9001 161.551 26.5072 162.027 27.8176 162.983 28.8312 163.937 29.8433 165.219 30.3501 166.826 30.3501 168.431 30.3501 169.713 29.8433 170.669 28.8312z" fill="#000"/><path d="M180.133 16.5157H184.256v2.2007c.744-.8842 1.618-1.5599 2.619-2.0256C187.876 16.225 188.89 15.9922 189.914 15.9922 191.219 15.9922 192.267 16.2068 193.059 16.6375 193.852 17.0697 194.445 17.715 194.841 18.578 195.587 17.7394 196.489 17.0986 197.548 16.6558 198.608 16.2129 199.662 15.9922 200.709 15.9922 202.807 15.9922 204.309 16.5157 205.217 17.5643 206.126 18.6114 206.579 20.1486 206.579 22.1758V33.2844h-4.226V22.7694C202.353 21.5823 202.114 20.7315 201.636 20.2186 201.158 19.7072 200.396 19.45 199.347 19.45 198.602 19.45 197.921 19.5961 197.305 19.8868 196.687 20.179 196.121 20.6737 195.609 21.3722 195.657 22.118 195.679 22.7237 195.679 23.1879V33.2844H191.416V22.6994C191.416 21.4894 191.219 20.6447 190.824 20.1669 190.427 19.689 189.706 19.45 188.657 19.45 187.074 19.45 185.653 20.348 184.394 22.1408V33.2844h-4.261V16.5157z" fill="#000"/><path d="M234.648 8.71094V9.30449C233.042 9.30449 231.437 9.30449 227.91 17.6477L221.626 33.2856H221.033C212.481 12.7258 212.098 12.1322 212.098 12.1322 210.945 9.3395 209.688 9.30449 208.781 9.30449V8.71094h11.101V9.30449C217.019 9.30449 218.345 13.3544 218.345 13.3544L223.687 26.653 227.352 17.4727S230.528 9.30449 224.769 9.30449V8.71094H234.648z" fill="#000"/><path d="M242.252 32.6923V33.2858H235.096V32.6923C236.422 32.2737 236.492 30.8081 236.492 29.0274V21.2778C236.492 20.0906 236.143 19.6021 234.711 18.8335V18.24L240.82 16.8444v12.183C240.82 30.9816 240.995 32.3437 242.252 32.6923zM238.307 14.0516c-1.327.0-2.374-1.0471-2.374-2.3742.0-1.3256 1.047-2.37271 2.374-2.37271S240.715 10.3518 240.715 11.6774C240.715 13.0045 239.634 14.0516 238.307 14.0516z" fill="#000"/><path d="M252.239 32.6905V33.284H245.083V32.6905C246.41 32.3069 246.48 30.8398 246.48 29.0591V11.3955C246.48 10.175 246.13 9.65141 244.734 9.12786V8.53431L250.843 7.24219V29.0591C250.843 30.9798 251.017 32.3754 252.239 32.6905z" fill="#000"/><path d="M262.184 32.6905V33.284H255.028V32.6905C256.355 32.3069 256.425 30.8398 256.425 29.0591V11.3955C256.425 10.175 256.075 9.65141 254.68 9.12786V8.53431L260.789 7.24219V29.0591C260.789 30.9798 260.962 32.3754 262.184 32.6905z" fill="#000"/><path d="M280.619 30.877 281.212 31.122C280.934 32.2391 279.328 33.6012 277.129 33.6012c0 0-3.108.0-3.49100000000004-2.8293C273.114 32.3091 271.055 33.6012 268.576 33.6012c0 0-4.01400000000001.0-4.01400000000001-3.5613.0-3.8048 2.93200000000002-4.1549 9.041-5.6905V22.1852c0-3.6298-2.024-5.4455-4.43400000000003-4.1884C268.052 18.5554 267.914 19.1489 268.157 19.1839 268.681 19.2524 269.134 19.4974 269.449 19.951 270.078 20.8596 269.833 22.0802 268.926 22.7087 268.017 23.3023 266.797 23.0923 266.168 22.1852 265.748 21.5216 265.713 20.6846 266.063 20.091 266.412 19.4974 266.865 18.5554 268.786 17.5433 270.357 16.7047 272.172 16.8447 272.172 16.8447 276.744 16.8447 278.001 19.7075 278.001 23.8258v5.202S277.966 31.4705 279.677 31.4705C279.677 31.4705 280.41 31.4705 280.619 30.877zM273.603 24.9779C270.181 25.7465 269.031 27.3872 269.031 29.1678c0 0 0 2.3027 2.26799999999997 2.3027C272.486 31.4705 273.289 30.5284 273.603 29.6914V24.9779z" fill="#000"/><path d="M294.16 31.7146S292.832 33.6002 289.273 33.6002C285.048 33.6002 282.954 31.9946 282.954 31.9946V27.5962H283.547C284.071 28.9568 285.188 33.0067 289.273 33.0067 291.75 33.0067 292.169 29.8639 289.516 28.1198L285.991 25.9906C282.605 23.9299 281.696 21.1021 283.617 18.5894 283.617 18.5894 284.943 16.8438 288.434 16.8438 292.449 16.8438 294.195 17.8908 294.195 17.8908v3.9099H293.601C293.147 20.5786 292.03 17.4373 288.434 17.4373 286.165 17.4373 285.188 20.125 288.224 22.0457L291.75 24.2449C294.857 26.1641 295.905 29.2019 294.16 31.7146z" fill="#000"/><path d="M29.0705 9.87888S28.6915 11.1299 27.7966 11.9989c0 0-.739600000000003 1.0365-1.4306 2.009.0.0-.9177 1.7213-2.3225 2.7014.0.0-1.5082 1.4976-2.3331 3.8642.0.0-.599599999999999 1.8172-1.1734 2.1125C20.537 22.686 19.7958 23.1349 19.6573 21.7256 19.6573 21.7256 19.5903 20.5218 20.3665 19.2738c0 0 1.7259-1.9283 3.0256-5.0757.0.0 1.6589-3.5933 1.2587-4.95387.0.0-.252700000000001-3.37565-5.0041-6.46822C19.6467 2.77601 19.2357 3.91898 18.8811 5.58702 18.8811 5.58702 18.4687 7.89275 18.2191 8.84244 18.2191 8.84244 18.0075 10.3005 17.9801 10.9001 17.9801 10.9001 17.8264 11.9989 17.3638 12.8116 17.3638 12.8116 16.6956 14.3442 16.7458 15.9499 16.7458 15.9499 16.8311 17.6362 15.8129 17.1111 15.8129 17.1111 15.3365 17.0091 15.5633 14.5756c0 0 1.2191-3.9768 1.216-6.71785.0.0.8188-4.04987-2.3788-6.07404.0.0-2.2144-1.578249-4.1685-1.78371C10.232.0 10.8834 1.59042 10.7981 2.62838 10.7981 2.62838 10.8651 4.10161 11.4465 5.22024c0 0 .802 1.74718.725899999999999 4.81996C12.1724 10.0402 12.2166 10.684 11.9807 11.2943 11.9807 11.2943 11.343 11.8939 11.0356 10.9321c0 0-.730600000000001-5.46531-1.98617-8.62028C9.04943 2.31182 8.465-.529633 2.46706.741182c0 0-1.45497.433748-2.46706.532678.0.0.744226.39266.391137 2.98147.0.0-.156759 4.48058.815753 7.88817.0.0.56769 2.5386 2.47163 3.0332.0.0 5.9675.9421 8.01908.751899999999999C11.6976 15.9286 12.8132 15.7718 14.0064 16.2695c0 0 1.2647.416999999999998.4368 1.0212C14.4432 17.2907 13.9455 17.5677 12.9623 17.2664 12.9623 17.2664 11.5119 16.997 8.52588 16.9924c0 0-5.07261-.342400000000001-6.63107-1.3332.0.0-.04718 2.8825 3.23259 6.6722.0.0 1.54933 2.152 6.8411 1.1414.0.0 3.0454-.9086 5.8244-1.2678.0.0 1.6909-.165899999999997 1.9131 1.1658C19.706 23.3708 19.7912 24.0968 18.3591 23.9126 18.3591 23.9126 15.437 23.8655 14.1388 24.249 14.1388 24.249 12.1907 24.8045 9.39338 24.6417c0 0-2.63295-.0822000000000003-3.70286 1.3195.0.0.17197 1.531 3.66786 4.9691C9.35838 30.9303 10.1254 31.7247 12.1785 31.4949c0 0 4.1884-.497700000000002 6.5383-1.9983.0.0 2.4031-1.8172 3.4776-1.6498.0.0 1.0045-.0761000000000003 1.1201.9299C23.3145 28.7767 23.4485 29.2836 23.106 29.2896 23.106 29.2896 21.9935 29.0796 20.5202 29.7767 20.5202 29.7767 19.8278 30.0673 19.0972 30.2759c0 0-4.2659 1.3347-6.8061 1.7045C12.2911 31.9804 11.6672 32.9727 12.9471 34.3729c0 0 .9147 1.0821 3.6877 1.8035C16.6348 36.1764 17.1735 36.3605 18.1552 36.8049 18.1552 36.8049 19.3255 37.537 20.3802 37.222c0 0 2.4062-.554000000000002 3.712-1.4794C24.0922 35.7426 25.2398 35.1521 25.7633 34.1735 25.7633 34.1735 25.7922 35.4154 26.1529 37.155 26.1529 37.155 26.5288 39.4577 26.5912 40.4576 26.5912 40.4576 26.751 41.1653 27.3507 41.0435 27.8849 40.94 27.8712 40.3024 27.8712 40.3024S27.3903 36.5112 27.0204 33.0488C27.0204 33.0488 27.022 32.8662 28.0112 33.1493c0 0 2.0257.409400000000005 3.467-1.4109l1.2358-1.5858S33.3532 29.3962 33.6622 27.6277C33.6622 27.6277 33.7504 26.8469 33.8189 26.1012 33.8189 26.1012 34.2831 24.1303 33.0747 22.4348c0 0-.129399999999997.8858-1.1262 1.6833C31.9485 24.1181 31.2027 24.6858 30.8496 25.2124c0 0-1.6437 1.9481-2.4442 2.3635.0.0-1.3226.692499999999999-1.6254 1.4307.0.0-.537300000000002.8507-1.0547.9786C25.7253 29.9852 25.1789 30.1404 25.3539 29.5773 25.3539 29.5773 25.4361 29.04 26.0494 28.7661c0 0 1.9953-1.6543 2.2814-2.0029C28.3308 26.7632 29.139 26.1377 29.5255 25.5533c0 0 3.2722-2.6801 3.7394-4.403C33.2649 21.1503 33.6896 19.2875 32.8251 17.4657 32.8251 17.4657 32.5907 16.7093 32.2148 16.2969c0 0 .00910000000000366 1.318-1.9663 3.2143.0.0-1.2815.9695-2.1931 2.5523.0.0-.518999999999998.8797-1.974 1.8674.0.0-1.1445.730499999999999-1.7944 2.5356.0.0-.00910000000000011.9009-.8492.8644C23.4378 27.3309 22.8153 27.1528 23.0117 26.0799c0 0 .0745000000000005-.9893 1.5508-1.7655.0.0 2.1003-1.3195 3.1535-2.7166.0.0 2.2052-2.5325 3.2371-4.1412.0.0 1.1719-2.327-.289199999999997-4.9843L29.0705 9.87888z" fill="#000"/></svg>