<svg width="348" height="130" viewBox="0 0 348 130" fill="none" xmlns="http://www.w3.org/2000/svg"><g clip-path="url(#clip0_1857_70)"><path d="M168.404 130C167.941 130 167.495 129.954 167.073 129.863 166.648 129.773 166.267 129.624 165.937 129.421 165.606 129.219 165.342 128.959 165.148 128.632 164.953 128.31 164.858 127.913 164.858 127.442 164.858 127.401 164.858 127.359 164.863 127.318 164.867 127.277 164.871 127.235 164.871 127.194h1.19C166.061 127.219 166.061 127.26 166.057 127.314 166.053 127.368 166.048 127.417 166.048 127.454 166.048 127.785 166.148 128.066 166.346 128.297 166.544 128.529 166.817 128.702 167.172 128.814 167.524 128.925 167.92 128.979 168.371 128.979 168.569 128.979 168.776 128.967 168.995 128.942S169.424 128.876 169.627 128.814C169.829 128.752 170.011 128.669 170.172 128.566S170.462 128.335 170.557 128.182C170.652 128.029 170.697 127.839 170.697 127.62 170.697 127.339 170.619 127.103 170.457 126.917 170.296 126.731 170.081 126.578 169.821 126.459 169.557 126.339 169.259 126.231 168.92 126.136 168.586 126.041 168.238 125.95 167.883 125.859 167.528 125.769 167.185 125.665 166.85 125.545 166.515 125.426 166.214 125.277 165.949 125.099 165.685 124.921 165.47 124.703 165.313 124.434 165.152 124.169 165.073 123.847 165.073 123.467 165.073 123.112 165.144 122.793 165.288 122.512 165.433 122.231 165.648 121.996 165.933 121.798 166.218 121.603 166.569 121.455 166.991 121.351 167.412 121.248 167.895 121.194 168.441 121.194 168.887 121.194 169.3 121.244 169.689 121.339 170.073 121.434 170.412 121.579 170.705 121.773 170.999 121.967 171.226 122.215 171.395 122.512 171.561 122.81 171.643 123.169 171.643 123.591V123.74H170.478V123.554C170.478 123.273 170.391 123.033 170.218 122.835 170.044 122.636 169.805 122.484 169.503 122.376 169.201 122.269 168.858 122.215 168.482 122.215 167.986 122.215 167.573 122.265 167.243 122.355 166.912 122.45 166.664 122.587 166.503 122.765 166.342 122.942 166.263 123.145 166.263 123.368 166.263 123.624 166.346 123.839 166.503 124.012 166.664 124.186 166.875 124.326 167.143 124.442 167.408 124.554 167.71 124.653 168.048 124.744 168.387 124.835 168.73 124.93 169.081 125.025 169.433 125.12 169.776 125.227 170.11 125.347 170.445 125.467 170.747 125.616 171.015 125.793 171.284 125.971 171.495 126.194 171.652 126.463 171.809 126.731 171.887 127.062 171.887 127.45 171.887 128.054 171.738 128.541 171.441 128.917 171.143 129.293 170.734 129.566 170.214 129.74 169.693 129.913 169.09 130 168.404 130z" fill="#000"/><path d="M183.911 129.851V122.376H180.998V121.347h7.029V122.376H185.089V129.851h-1.178z" fill="#000"/><path d="M195.49 129.851 198.849 121.347H200.399L203.77 129.851H202.494L201.663 127.744H197.523L196.705 129.851H195.49zm2.417-3.111H201.266l-1.029-2.666C200.213 124 200.175 123.897 200.126 123.764 200.076 123.632 200.023 123.483 199.965 123.322S199.849 122.996 199.791 122.826C199.733 122.657 199.68 122.5 199.63 122.364H199.556C199.498 122.529 199.432 122.719 199.357 122.934 199.283 123.149 199.209 123.359 199.134 123.558 199.06 123.76 198.998 123.934 198.948 124.074l-1.041 2.666z" fill="#000"/><path d="M214.605 129.851v-3.533L211.258 121.347h1.351L215.2 125.277H215.262L217.84 121.347H219.129l-3.334 4.971v3.533h-1.19z" fill="#000"/><path d="M241.889 130C241.426 130 240.98 129.954 240.558 129.863 240.133 129.773 239.753 129.624 239.422 129.421 239.092 129.219 238.827 128.959 238.633 128.632 238.439 128.31 238.344 127.913 238.344 127.442 238.344 127.401 238.344 127.359 238.348 127.318 238.352 127.277 238.356 127.235 238.356 127.194h1.19C239.546 127.219 239.546 127.26 239.542 127.314 239.538 127.368 239.534 127.417 239.534 127.454 239.534 127.785 239.633 128.066 239.831 128.297 240.03 128.529 240.302 128.702 240.658 128.814 241.009 128.925 241.406 128.979 241.856 128.979 242.054 128.979 242.261 128.967 242.48 128.942 242.699 128.917 242.91 128.876 243.112 128.814 243.315 128.752 243.496 128.669 243.658 128.566 243.819 128.463 243.947 128.335 244.042 128.182 244.137 128.029 244.182 127.839 244.182 127.62 244.182 127.339 244.104 127.103 243.943 126.917 243.782 126.731 243.567 126.578 243.306 126.459 243.042 126.339 242.744 126.231 242.406 126.136 242.071 126.041 241.724 125.95 241.368 125.859 241.013 125.769 240.67 125.665 240.335 125.545 240.001 125.426 239.699 125.277 239.435 125.099 239.17 124.921 238.955 124.703 238.798 124.434 238.637 124.169 238.559 123.847 238.559 123.467 238.559 123.112 238.629 122.793 238.773 122.512 238.918 122.231 239.133 121.996 239.418 121.798 239.703 121.603 240.054 121.455 240.476 121.351 240.897 121.248 241.381 121.194 241.926 121.194 242.372 121.194 242.786 121.244 243.174 121.339 243.558 121.434 243.897 121.579 244.191 121.773 244.484 121.967 244.711 122.215 244.881 122.512 245.046 122.81 245.129 123.169 245.129 123.591V123.74h-1.166V123.554C243.963 123.273 243.877 123.033 243.703 122.835 243.529 122.636 243.29 122.484 242.988 122.376 242.687 122.269 242.344 122.215 241.968 122.215 241.472 122.215 241.058 122.265 240.728 122.355 240.397 122.45 240.149 122.587 239.988 122.765 239.827 122.942 239.749 123.145 239.749 123.368 239.749 123.624 239.831 123.839 239.988 124.012 240.149 124.186 240.36 124.326 240.629 124.442 240.893 124.554 241.195 124.653 241.534 124.744S242.215 124.93 242.567 125.025C242.918 125.12 243.261 125.227 243.596 125.347 243.93 125.467 244.232 125.616 244.501 125.793 244.769 125.971 244.98 126.194 245.137 126.463 245.294 126.731 245.372 127.062 245.372 127.45 245.372 128.054 245.224 128.541 244.926 128.917 244.629 129.293 244.22 129.566 243.699 129.74 243.178 129.913 242.575 130 241.889 130z" fill="#000"/><path d="M255.314 129.851V121.347H257.136L259.07 126.864C259.12 127.012 259.169 127.174 259.227 127.351 259.281 127.529 259.331 127.694 259.376 127.851 259.421 128.008 259.459 128.145 259.479 128.26H259.566C259.591 128.136 259.624 127.992 259.665 127.831 259.707 127.669 259.752 127.504 259.802 127.331 259.851 127.157 259.897 127 259.938 126.86L261.872 121.343h1.81V129.847h-1.178v-4.983C262.504 124.608 262.504 124.331 262.516 124.025 262.525 123.723 262.533 123.447 262.541 123.194 262.549 122.942 262.554 122.765 262.554 122.657H262.454C262.43 122.765 262.388 122.913 262.33 123.108 262.273 123.302 262.211 123.504 262.149 123.715S262.033 124.112 261.979 124.281L259.983 129.847H258.967L256.971 124.281C256.922 124.141 256.868 123.975 256.814 123.789 256.76 123.604 256.707 123.413 256.653 123.215 256.599 123.017 256.55 122.831 256.496 122.657H256.409C256.417 122.839 256.422 123.062 256.426 123.331 256.43 123.599 256.434 123.868 256.438 124.137 256.442 124.405 256.446 124.649 256.446 124.864v4.983H255.306L255.314 129.851z" fill="#000"/><path d="M273.041 129.851 276.4 121.347H277.95L281.322 129.851H280.045L279.214 127.744H275.074L274.256 129.851H273.041zM275.458 126.74H278.818l-1.029-2.666C277.764 124 277.727 123.897 277.677 123.764 277.628 123.632 277.574 123.483 277.516 123.322S277.4 122.996 277.342 122.826C277.285 122.657 277.231 122.5 277.181 122.364H277.107C277.049 122.529 276.983 122.719 276.909 122.934 276.834 123.149 276.76 123.359 276.685 123.558 276.611 123.76 276.549 123.934 276.499 124.074l-1.041 2.666z" fill="#000"/><path d="M290.681 129.851V121.347H295.156C295.734 121.347 296.214 121.45 296.598 121.661S297.267 122.165 297.462 122.541C297.652 122.917 297.747 123.351 297.747 123.835 297.747 124.421 297.615 124.926 297.35 125.347 297.086 125.769 296.722 126.07 296.259 126.252L298.044 129.847H296.755L295.094 126.463H291.859V129.847h-1.178V129.851zM291.859 125.463h3.185C295.515 125.463 295.883 125.318 296.156 125.029 296.424 124.74 296.557 124.343 296.557 123.839 296.557 123.525 296.499 123.26 296.383 123.045 296.267 122.831 296.098 122.661 295.875 122.545 295.652 122.426 295.375 122.364 295.044 122.364h-3.185V125.463z" fill="#000"/><path d="M309.672 129.851V122.376H306.759V121.347h7.029V122.376H310.85V129.851h-1.178z" fill="#000"/><path d="M323.308 129.851V121.347H329.853V122.364H324.486v2.628h4.822V126.008h-4.822V128.835H329.928V129.851h-6.62z" fill="#000"/><path d="M339.907 129.851V121.347H344.382C344.96 121.347 345.439 121.45 345.824 121.661 346.208 121.872 346.493 122.165 346.687 122.541 346.877 122.917 346.972 123.351 346.972 123.835 346.972 124.421 346.84 124.926 346.576 125.347 346.311 125.769 345.948 126.07 345.485 126.252L347.27 129.847H345.981L344.32 126.463H341.084V129.847H339.907V129.851zM341.084 125.463H344.27C344.741 125.463 345.109 125.318 345.382 125.029 345.65 124.74 345.782 124.343 345.782 123.839 345.782 123.525 345.725 123.26 345.609 123.045 345.493 122.831 345.324 122.661 345.101 122.545 344.877 122.426 344.601 122.364 344.27 122.364H341.084V125.463z" fill="#000"/><path d="M200.51 40.2136 140.45 3.36768 14.0946 90.1211 140.45 13.1236l60.06 27.09z" fill="#000"/><path d="M235.513 31.4949 181.788.0.0 111.943 182.383 8.8303l53.13 22.6646z" fill="#000"/><path d="M149.326 110.898C145.26 110.898 141.376 110.125 137.777 108.6 134.182 107.075 131.004 104.968 128.331 102.336 125.653 99.6995 123.513 96.5633 121.963 93.0055 120.409 89.4436 119.62 85.576 119.62 81.5059S120.409 73.5309 121.963 69.9691C123.513 66.4155 125.657 63.2751 128.331 60.6388 131.004 58.0025 134.186 55.9034 137.781 54.391 141.38 52.8787 145.264 52.1143 149.33 52.1143 152.838 52.1143 156.177 52.7258 159.251 53.9365 162.309 55.139 165.131 56.7918 167.643 58.8454 167.986 59.1512 168.21 59.4239 168.35 59.7008 168.503 60.0066 168.573 60.2793 168.573 60.5437 168.573 60.7793 168.528 61.0148 168.437 61.2421L168.375 61.3991 168.272 61.5024 168.234 61.5809 168.098 61.7173C168.032 61.7834 167.953 61.8454 167.697 62.0148 167.404 62.209 167.053 62.3081 166.652 62.3081 166.185 62.3081 165.734 62.1511 165.305 61.8371 163.032 60.0768 160.549 58.6595 157.904 57.6058 155.284 56.5645 152.4 56.0397 149.334 56.0397 145.781 56.0397 142.392 56.705 139.268 58.0149 136.14 59.3248 133.38 61.147 131.062 63.4279 128.744 65.7089 126.884 68.4278 125.537 71.5186 124.19 74.597 123.508 77.9605 123.508 81.5142 123.508 85.0678 124.19 88.4313 125.537 91.5097 126.884 94.5964 128.744 97.3194 131.062 99.6003 133.38 101.881 136.14 103.699 139.268 105.009 142.388 106.319 145.776 106.984 149.334 106.984 152.375 106.984 155.251 106.443 157.879 105.381c2.65700000000001-1.074 5.136-2.508 7.364-4.252C165.664 100.782 166.131 100.6 166.615 100.6 167.048 100.6 167.466 100.766 167.825 101.08L167.867 101.117 167.945 101.195C168.259 101.505 168.424 101.927 168.424 102.406 168.424 103.042 168.148 103.613 167.623 104.055 165.164 106.166 162.354 107.856 159.28 109.071 156.189 110.294 152.846 110.914 149.334 110.914L149.326 110.898z" fill="#000"/><path d="M223.733 110.269C223.505 110.269 223.257 110.208 222.976 110.075 222.6 109.902 222.311 109.546 222.1 108.993L215.972 94.3568H186.585l-6.136 14.6192C180.25 109.484 180.003 109.823 179.672 110.017 179.387 110.187 179.122 110.265 178.866 110.265H178.751C178.275 110.265 177.85 110.121 177.482 109.84 177.052 109.513 176.825 109.034 176.825 108.46 176.825 108.137 176.887 107.832 177.011 107.546l22.491-53.4855C199.7 53.5399 199.985 53.1845 200.361 52.9944 200.613 52.8663 200.837 52.7878 201.039 52.7465L201.118 52.73H201.394C201.597 52.73 201.812 52.7837 202.159 52.9283 202.601 53.1101 202.932 53.4985 203.142 54.077l22.446 53.474C225.708 107.832 225.77 108.113 225.77 108.381 225.77 108.951 225.534 109.439 225.084 109.794 224.687 110.108 224.27 110.265 223.844 110.265H223.728L223.733 110.269zm-9.356-19.7179L201.312 59.267 188.176 90.5511h26.201z" fill="#000"/><path d="M252.723 111.013C250.649 111.013 248.674 110.856 246.848 110.55 245.005 110.241 243.228 109.728 241.567 109.026 239.906 108.323 238.311 107.398 236.827 106.278 235.348 105.162 233.918 103.778 232.575 102.171 232.418 101.98 232.274 101.782 232.154 101.584 231.968 101.286 231.877 100.947 231.877 100.584 231.877 100.076 232.071 99.6169 232.435 99.2533L232.592 99.0962 232.687 99.0425C232.997 98.8648 233.331 98.7781 233.683 98.7781 234.311 98.7781 234.902 99.1169 235.488 99.8152 236.447 100.976 237.501 102.022 238.629 102.939 239.744 103.844 241.009 104.625 242.393 105.261 243.777 105.898 245.335 106.385 247.025 106.708 248.728 107.034 250.645 107.203 252.728 107.203 255.165 107.203 257.504 106.96 259.682 106.48 261.822 106.009 263.727 105.237 265.347 104.183 266.938 103.15 268.211 101.799 269.132 100.158 270.049 98.5301 270.516 96.4972 270.516 94.1171 270.516 92.7411 270.252 91.5304 269.727 90.518 269.19 89.4808 268.467 88.5594 267.582 87.7826 266.678 86.9892 265.616 86.2991 264.421 85.733 263.198 85.1504 261.905 84.6546 260.579 84.2496 259.24 83.8405 257.872 83.4934 256.517 83.2083 255.149 82.9232 253.856 82.6753 252.661 82.4687 249.488 81.8613 246.678 81.1464 244.29 80.3406 241.86 79.5225 239.798 78.5143 238.158 77.349 236.476 76.1548 235.199 74.7334 234.356 73.1177 233.513 71.5021 233.088 69.6137 233.088 67.5063 233.088 65.0353 233.588 62.804 234.571 60.8785 235.555 58.9529 236.968 57.3124 238.782 55.9984 240.567 54.7051 242.757 53.7093 245.29 53.0481 247.79 52.3952 250.624 52.0605 253.711 52.0605 255.517 52.0605 257.219 52.1762 258.769 52.4035 260.335 52.6349 261.843 53.0192 263.252 53.544 264.657 54.0729 266.029 54.7629 267.33 55.6018 268.624 56.4364 269.909 57.4736 271.144 58.6843 271.541 59.081 271.748 59.581 271.748 60.1388 271.748 60.5809 271.611 60.9859 271.347 61.3412L271.31 61.3867 271.14 61.5561 271.086 61.5933C270.76 61.8247 270.376 61.9445 269.938 61.9445 269.529 61.9445 269.136 61.8164 268.777 61.5561 268.529 61.3826 268.273 61.176 268.016 60.9487 266.983 60.0686 265.971 59.2876 265.025 58.643 264.103 58.0149 263.103 57.4901 262.054 57.0852 261.008 56.6802 259.81 56.3786 258.496 56.1926 257.157 56.0026 255.546 55.9075 253.715 55.9075 251.69 55.9075 249.624 56.1059 247.583 56.4984 245.579 56.8827 243.753 57.5438 242.154 58.4612 240.592 59.3578 239.306 60.5603 238.34 62.0396 237.389 63.4899 236.906 65.3287 236.906 67.5022 236.906 69.1964 237.348 70.6591 238.216 71.8533 239.125 73.1012 240.344 74.1755 241.844 75.0557 243.385 75.9565 245.174 76.7085 247.162 77.287 249.195 77.8779 251.319 78.3986 253.484 78.8366 254.913 79.1217 256.426 79.4398 257.984 79.7787 259.558 80.1216 261.124 80.539 262.64 81.0142 264.178 81.4976 265.653 82.0927 267.02 82.791 268.421 83.5058 269.673 84.3901 270.743 85.419 271.83 86.4644 272.71 87.7123 273.351 89.1213 274 90.5428 274.326 92.2204 274.326 94.1088 274.326 96.9765 273.752 99.5136 272.624 101.646 271.496 103.778 269.917 105.563 267.938 106.951 265.983 108.323 263.669 109.352 261.062 110.013 258.488 110.666 255.682 110.997 252.728 110.997L252.723 111.013z" fill="#000"/><path d="M330.188 110.269C329.961 110.269 329.713 110.208 329.432 110.075 329.056 109.902 328.766 109.546 328.556 108.993L322.428 94.3568H293.04L286.904 108.976C286.706 109.489 286.458 109.823 286.127 110.017 285.842 110.187 285.578 110.265 285.322 110.265H285.206C284.731 110.265 284.305 110.121 283.937 109.84 283.508 109.513 283.28 109.034 283.28 108.46 283.28 108.137 283.342 107.832 283.466 107.546l22.491-53.4855C306.156 53.5399 306.441 53.1845 306.817 52.9944 307.069 52.8663 307.292 52.7878 307.494 52.7465L307.573 52.73H307.85C308.052 52.73 308.263 52.7837 308.614 52.9283 309.056 53.1101 309.387 53.4985 309.598 54.077l22.445 53.474C332.163 107.832 332.225 108.113 332.225 108.381 332.225 108.951 331.989 109.439 331.539 109.794 331.142 110.108 330.725 110.265 330.299 110.265H330.184L330.188 110.269zM320.833 90.5511 307.767 59.267 294.631 90.5511H320.833z" fill="#000"/><path d="M345.382 110.269C344.745 110.269 344.216 110.009 343.894 109.538 343.63 109.154 343.497 108.687 343.497 108.15V54.7752C343.497 54.2215 343.65 53.7505 343.948 53.3662 344.183 53.0604 344.625 52.6968 345.386 52.6968 346.287 52.6968 346.716 53.1472 346.898 53.4158 347.146 53.7877 347.27 54.2463 347.27 54.7752V108.15C347.27 108.674 347.146 109.133 346.906 109.513 346.601 110.001 346.072 110.269 345.423 110.269H345.386 345.382z" fill="#000"/></g><defs><clipPath id="clip0_1857_70"><rect width="347.266" height="130" fill="#000"/></clipPath></defs></svg>