<svg xmlns="http://www.w3.org/2000/svg" width="171" height="65" viewBox="0 0 171 65" fill="none"><path d="M18.735 63.5879H18.7324C16.0834 62.846 13.4736 61.6768 11.0414 60.027H11.0401c-1.62188-1.1032-3.1639-2.4195-4.55755-3.9628L6.48382 56.0655c-1.86158-2.0594-3.44164-4.517-4.56772-7.2954L1.91737 48.7726C1.27318 47.1862.781151 45.5072.455248 43.761V43.7572L.450176 43.7332.448908 43.7281C.226986 42.5094.0887661 41.2933.0317001 40.0848.0101395 39.6473.0 39.2085.0 38.7774c0-1.4482.114126-2.8723.324629-4.2634.272646-1.807.708871-3.5494 1.270641-5.2208L1.54074 29.4581 1.59654 29.2932c1.12481-3.3389 2.74799-6.3899 4.65648-9.1532 1.27445-1.8438 2.68331-3.5671 4.18728-5.1713V14.9649c2.0062-2.1405 4.1873-4.0807 6.4813-5.81171 1.8616-1.40506 3.8005-2.67571 5.794-3.79925 2.4449-1.54075 3.869-1.89708 5.6633-2.71882 1.3734-.54909 2.7683-1.02589 4.1848-1.42027H32.5649C34.8729.574451 37.2531.143297 39.7044.0266323H39.7082C40.0899.00760841 40.4754.0 40.8647.0c1.1451.0 2.327.0786228 3.5393.257423L44.4091.26123c1.6206.242209 3.3465.673365 5.1168 1.42282L49.5284 1.68658C50.709 2.19129 51.9302 2.84943 53.1197 3.72569V3.72696C53.8006 4.22786 54.4715 4.80232 55.1106 5.45539H55.1093C55.841 6.20357 56.5245 7.0494 57.1256 7.99161 57.8142 9.06949 58.3785 10.2552 58.7906 11.5055 59.1166 12.4934 59.3397 13.5079 59.4691 14.5223 59.8356 14.4906 60.2033 14.4627 60.5736 14.4437 60.9325 14.4285 61.2926 14.4196 61.6553 14.4196 62.3198 14.4196 62.9893 14.4526 63.664 14.5122L66.0163 14.8495C66.048 14.8571 66.0708 14.8622 66.0873 14.8647 66.1013 14.866 66.1241 14.8711 66.1596 14.8787l1.6409.3424C68.5982 13.8617 69.3755 12.52 70.13 11.1847 70.1909 10.803 70.2708 10.4289 70.371 10.0586 70.6563 9.00989 71.0735 8.09305 71.5338 7.32585H71.5326C71.8382 6.81606 72.1603 6.36843 72.4773 5.98292L72.4786 5.98165C72.8901 5.48238 73.3016 5.06864 73.6826 4.7263L73.715 4.69833C74.2311 4.24055 74.7231 3.88674 75.1505 3.61157L75.1568 3.6065C75.73 3.24001 76.2525 2.9699 76.6976 2.76447L76.7026 2.76066C77.2999 2.48676 77.835 2.29273 78.2966 2.14437L78.2916 2.1469 78.3042 2.1431C78.9231 1.94781 79.4887 1.80959 80.0301 1.70814L80.0378 1.70687C80.3472 1.64854 80.6832 1.59655 81.0624 1.55216H81.0687C81.2703 1.53061 81.5126 1.50904 81.7991 1.4951H81.8042C82.0173 1.48495 82.2278 1.47988 82.4357 1.47988c.978999999999999.0 1.9085.10906 2.7861.28786H85.2268c1.069.22319 2.114.56557 3.131 1.04112L88.3603 2.81012C89.04 3.12842 89.7197 3.51265 90.3868 3.97425H90.388C91.2744 4.59181 92.1608 5.36155 92.9712 6.3177 93.1005 6.46987 93.2273 6.62839 93.3529 6.79197 93.7688 6.50538 94.2076 6.23274 94.6717 5.97912L94.6755 5.97532C95.4072 5.57713 96.2188 5.21318 97.1166 4.92279H97.1179C98.1438 4.59054 99.3041 4.34833 100.577 4.28873 100.779 4.27986 100.983 4.27478 101.187 4.27478c1.069.0 2.176.13316 3.285.43116H104.473c1.324.35634 2.621.94221 3.804 1.76393C109.063 7.01516 109.784 7.65429 110.422 8.36823L110.423 8.37077C111.274 9.32438 111.955 10.3934 112.457 11.5182H112.458s0 0 0 .00130000000000052C112.651 11.9532 112.813 12.3894 112.951 12.8269 113.437 12.6646 113.957 12.5137 114.516 12.3907L114.521 12.3894C115.212 12.2372 115.977 12.1244 116.81 12.0838H116.812C117.045 12.0724 117.281 12.0673 117.518 12.0673c1.027.0 2.083.1065 3.152.342400000000001H120.672C121.188 12.5263 121.71 12.6722 122.233 12.8523 122.411 12.7648 122.588 12.6811 122.755 12.6075L122.76 12.6062C123.503 12.2816 124.191 12.0597 124.821 11.8999L124.826 11.8986C125.191 11.8073 125.558 11.7274 125.934 11.6653H125.939C126.355 11.5968 126.83 11.536 127.38 11.5106H127.384C127.617 11.4979 127.853 11.4928 128.09 11.4928 129.167 11.4928 130.283 11.6108 131.415 11.8796 132.041 12.0267 132.672 12.222 133.298 12.4693 134.207 12.0457 135.289 11.6323 136.57 11.3495L136.555 11.3521 136.575 11.3457C137.266 11.1986 138.031 11.082 138.864 11.0439H138.865C139.098 11.0338 139.334 11.0262 139.571 11.0262 140.599 11.0262 141.655 11.1327 142.724 11.3698H142.727C143.9 11.6285 145.112 12.0521 146.3 12.6925 147.452 12.1472 148.637 11.6843 149.849 11.314H149.852C150.442 11.1327 151.04 10.9755 151.645 10.8372 154.12 10.2349 156.151 10.2298 156.151 10.2298S156.652 10.2146 156.922 10.2146C157.236 10.2146 157.567 10.2222 157.915 10.2387L157.917 10.2425C158.631 10.2793 159.444 10.3642 160.342 10.5481H160.343C160.944 10.6711 161.598 10.8436 162.292 11.0896L162.295 11.0909C163.217 11.418 164.242 11.8923 165.28 12.5923L165.281 12.5936C165.876 12.9955 166.472 13.4698 167.042 14.0265c.655000000000001.6404 1.261 1.3721 1.785 2.19.59899999999999.9346 1.065 1.939 1.392 2.9661C170.593 20.3544 170.776 21.5096 170.826 22.5951V22.5938C170.837 22.8158 170.842 23.0339 170.842 23.2494 170.842 24.1042 170.764 24.9221 170.629 25.6956 170.459 26.6645 170.2 27.5559 169.893 28.3701L169.892 28.3739C169.278 29.9907 168.468 31.3273 167.632 32.4369L167.628 32.4407C167.436 32.6981 167.238 32.9428 167.039 33.18 167.048 33.393 167.054 33.6048 167.054 33.8216 167.054 34.5432 167.004 35.2584 166.912 35.9533 166.786 36.8905 166.583 37.7908 166.318 38.6443 165.79 40.3486 165.025 41.8589 164.149 43.1727 163.564 44.0502 162.925 44.8453 162.254 45.5681V45.5694C161.359 46.5331 160.398 47.3764 159.393 48.1183H159.392C158.054 49.1023 156.619 49.9202 155.093 50.5594L155.091 50.5619C154.217 50.9258 153.304 51.2391 152.346 51.48H152.344C152.329 51.4851 152.313 51.4889 152.297 51.4914 150.037 52.0976 148.891 51.9517 147.113 52.0063 146.556 51.9796 145.987 51.9315 145.402 51.8516L145.396 51.849C144.317 51.6981 143.135 51.4394 141.882 50.9842 141.035 51.4039 140.112 51.7742 139.105 52.0608H139.102C138.041 52.3639 136.882 52.5718 135.644 52.6314 135.416 52.6416 135.188 52.6479 134.959 52.6479 133.537 52.6479 132.106 52.4349 130.73 52.0063 129.941 51.7603 129.184 51.4445 128.465 51.0704 128.02 51.3481 127.588 51.5815 127.176 51.7818L127.169 51.7831C126.667 52.0266 126.166 52.2295 125.662 52.4032L125.658 52.4057C124.992 52.6353 124.279 52.8267 123.497 52.9599L123.491 52.9624C123.042 53.0372 122.541 53.0968 121.985 53.1235H121.983C121.783 53.1336 121.582 53.1387 121.381 53.1387c-.619.0-1.245-.0444000000000031-1.867-.137C119.064 52.9358 118.622 52.8394 118.19 52.7278 117.823 52.8635 117.446 52.9878 117.051 53.1019H117.049C115.987 53.4037 114.828 53.613 113.591 53.67 113.364 53.6814 113.135 53.6878 112.906 53.6878 111.484 53.6878 110.054 53.4773 108.678 53.0461L108.679 53.0474 108.675 53.0461H108.678C107.889 52.8001 107.132 52.4843 106.412 52.1115 105.967 52.388 105.534 52.6226 105.122 52.8229H105.115C104.614 53.0664 104.113 53.2706 103.608 53.4456L103.603 53.4468C102.937 53.6751 102.226 53.8678 101.442 54.001H101.437C100.988 54.0771 100.487 54.138 99.9318 54.1646H99.9293C99.7289 54.1735 99.5285 54.1785 99.3256 54.1785 98.7068 54.1785 98.0829 54.1329 97.4603 54.0441 96.9251 53.963 96.3963 53.845 95.8789 53.6992 95.5606 53.8083 95.2335 53.9148 94.8936 54.0099H94.8949C93.8284 54.3066 92.6706 54.5082 91.452 54.5653 91.23 54.5755 91.0069 54.5805 90.7849 54.5805 89.5523 54.5805 88.3362 54.4207 87.1696 54.1101L87.1708 54.1113C86.0333 53.8083 84.9517 53.3708 83.9461 52.8115 83.5504 53.0347 83.1434 53.2477 82.7223 53.4532H82.7198C81.7649 53.9135 80.7365 54.318 79.6307 54.6351 78.3677 54.9965 76.9981 55.2475 75.5499 55.3148H75.5486C75.1619 55.3325 74.765 55.3427 74.3541 55.3427 73.7708 55.3427 73.1646 55.3236 72.5344 55.2729H72.5331C71.4641 55.1867 70.3063 55.018 69.0813 54.6972H69.0788C68.5348 54.5539 67.9717 54.3776 67.3985 54.1646 67.2248 54.2648 67.0485 54.3649 66.8634 54.4626H66.8621C66.1165 54.8608 65.2668 55.2399 64.3044 55.5456H64.3031C63.5752 55.7764 62.7712 55.9666 61.9038 56.0794L59.4932 56.1758H59.4665C59.4399 56.172 59.3829 56.172 59.2915 56.1644L57.184 55.8613C56.6628 55.7446 56.1504 55.595 55.6483 55.4187 55.4784 55.4834 55.3072 55.5506 55.1309 55.6115 53.911 56.0414 52.5541 56.3318 51.1186 56.3965 50.8992 56.4066 50.6798 56.4142 50.4605 56.4142 50.4529 56.4142 50.4427 56.4142 50.4262 56.4142H50.4186 50.4097L50.2969 56.4117C49.0123 56.3927 47.7099 56.2126 46.4304 55.8575 45.894 56.3407 45.3436 56.8187 44.7705 57.2816H44.7692C42.6844 58.9656 40.341 60.5127 37.7096 61.7542H37.7084C37.3305 61.9343 36.945 62.1055 36.5544 62.2716 34.2845 63.2189 33.8965 63.2823 32.0653 63.7616 30.3863 64.1725 28.63 64.4388 26.8166 64.5237H26.8141C26.4324 64.5415 26.0494 64.5504 25.6677 64.5504 23.3357 64.5504 21.01 64.2219 18.735 63.5879zM13.7475 18.0591H13.7488c-1.3645 1.4545-2.6301 3.0067-3.76754 4.6514-1.70561 2.4703-3.12081 5.1447-4.09218 8.0258-.48442 1.4393-.8547 2.9256-1.0855 4.4536V35.1925c-.1788 1.1755-.27391 2.3726-.27391 3.5849C4.52967 39.1413 4.53855 39.5066 4.5563 39.868V39.8718C4.60449 40.8825 4.71862 41.8957 4.90503 42.9114L4.90883 42.9304c.27011 1.4533.67844 2.8431 1.20597 4.1404L6.11607 47.0746C7.03544 49.3458 8.33018 51.357 9.84557 53.0309L9.84684 53.0334c1.13876 1.2618 2.40436 2.3448 3.73966 3.2515 2.0087 1.3606 4.1644 2.3282 6.3671 2.9458C21.8482 59.7569 23.7618 60.0245 25.6677 60.0245 25.9797 60.0245 26.2916 60.0194 26.6048 60.0042 28.3701 59.9193 30.0807 59.6301 31.7039 59.1812 33.1267 58.7881 34.4849 58.272 35.7733 57.6646c2.2584-1.0665 4.2988-2.4056 6.1465-3.9007C42.7504 53.0905 43.5417 52.388 44.2975 51.6614l1.0411-1.0019 1.348.5212C46.8768 51.253 47.0543 51.319 47.2204 51.3722H47.2217C48.24 51.7032 49.309 51.8706 50.3628 51.8871H50.4414 50.4605C50.6101 51.8871 50.7572 51.8858 50.9068 51.8782H50.9081C51.863 51.8351 52.8014 51.6347 53.6244 51.3456L53.6257 51.3443C53.9756 51.2213 54.3117 51.0806 54.6338 50.9258L55.5798 50.4744 56.5359 50.9018C56.6019 50.9322 56.6425 50.9512 56.6577 50.9575L56.6615 50.9614C57.5644 51.3481 58.5801 51.5903 59.5845 51.6487L59.7722 51.6588C59.9142 51.6639 60.0537 51.6702 60.1919 51.6702 60.3238 51.6702 60.4544 51.6639 60.5837 51.6588 61.4397 51.6182 62.2272 51.4572 62.9323 51.2327 63.598 51.021 64.1864 50.761 64.7317 50.4693 65.1527 50.2449 65.5395 50.0077 65.9111 49.7528L66.975 49.0288 68.1416 49.5715C68.233 49.6146 68.304 49.6476 68.3522 49.6692 68.9888 49.9481 69.6152 50.1586 70.2315 50.3222 71.1572 50.5632 72.0373 50.6938 72.8932 50.7635 73.3941 50.8016 73.8798 50.8193 74.3541 50.8193 74.6863 50.8193 75.0135 50.8105 75.3369 50.7965 76.4021 50.7445 77.4216 50.5619 78.3778 50.288 79.2173 50.0445 80.0061 49.7351 80.7542 49.3775 81.4479 49.0427 82.0997 48.6673 82.7223 48.2616L84.0095 47.4208 85.2674 48.3072C85.4259 48.4175 85.5756 48.5202 85.7189 48.6077L85.7201 48.609C86.5178 49.1036 87.3991 49.4916 88.3312 49.7376H88.3324C89.1174 49.9456 89.9493 50.0559 90.7849 50.0559 90.9358 50.0559 91.0867 50.0521 91.2389 50.0445H91.2402C92.0936 50.0052 92.9179 49.8619 93.675 49.6514 94.1213 49.5259 94.5461 49.3788 94.9545 49.2101L95.761 48.8817 96.5815 49.1771C97.076 49.3585 97.5997 49.4878 98.1247 49.5664H98.126C98.5229 49.6248 98.9262 49.6552 99.3256 49.6552 99.455 49.6552 99.5856 49.6514 99.715 49.6451 100.074 49.6286 100.377 49.5905 100.681 49.5385 101.211 49.4498 101.658 49.3306 102.128 49.1683 102.473 49.049 102.805 48.9121 103.148 48.7485 103.673 48.4936 104.167 48.2058 104.724 47.7797 104.759 47.753 104.811 47.7112 104.876 47.6592L106.178 46.6067 107.568 47.5438C108.318 48.0472 109.153 48.4543 110.026 48.727L110.03 48.7282C110.949 49.0161 111.934 49.1619 112.906 49.1619 113.062 49.1619 113.218 49.1581 113.374 49.1492H113.375C114.236 49.1099 115.051 48.9628 115.808 48.7485 116.292 48.6115 116.751 48.4454 117.193 48.2578L117.987 47.9179 118.804 48.1931C119.256 48.344 119.721 48.4568 120.178 48.5253H120.181C120.577 48.5849 120.981 48.6141 121.381 48.6141 121.51 48.6141 121.639 48.6115 121.769 48.6052 122.127 48.5875 122.432 48.5507 122.735 48.5012 123.266 48.4087 123.713 48.2882 124.183 48.1271 124.529 48.0079 124.859 47.8722 125.201 47.7074 125.728 47.4525 126.222 47.1647 126.78 46.7386 126.816 46.7107 126.866 46.6714 126.927 46.6206L128.231 45.5643 129.621 46.5014C130.373 47.0087 131.208 47.4145 132.08 47.6846L132.085 47.6884C133.003 47.975 133.988 48.1233 134.959 48.1233 135.115 48.1233 135.271 48.1183 135.427 48.1107H135.43C136.29 48.0713 137.105 47.9242 137.862 47.7087 138.883 47.417 139.786 47.0099 140.614 46.5331L141.617 45.9523l1.059.4756C142.831 46.4964 142.981 46.561 143.127 46.6181 144.157 47.0226 145.098 47.2369 146.024 47.3701 146.703 47.4627 147.341 47.5032 147.966 47.5032 148.19 47.5032 148.41 47.4981 148.632 47.4867 149.541 47.4436 150.399 47.3054 151.233 47.0949 151.961 46.9098 152.658 46.6714 153.341 46.3886 154.534 45.8864 155.647 45.2523 156.704 44.475 157.495 43.8929 158.239 43.2386 158.933 42.4929H158.932C159.452 41.9337 159.937 41.3263 160.379 40.6631 161.042 39.6701 161.605 38.5529 161.992 37.3051 162.184 36.6838 162.331 36.0307 162.421 35.3548 162.489 34.8539 162.524 34.339 162.524 33.8216 162.524 33.639 162.519 33.4564 162.512 33.2738 162.503 33.0912 162.484 32.8845 162.457 32.6601L162.334 31.6126 163.057 30.8454C163.389 30.4929 163.707 30.12 164.013 29.7142L164.01 29.7206C164.646 28.8735 165.214 27.93 165.655 26.771 165.872 26.1965 166.05 25.579 166.166 24.9145 166.259 24.3869 166.312 23.8264 166.312 23.2494 166.312 23.1036 166.308 22.9552 166.302 22.8056 166.268 22.0777 166.143 21.3092 165.904 20.5585L165.902 20.5547C165.696 19.9055 165.388 19.241 165.014 18.6589L165.011 18.6551C164.682 18.1441 164.289 17.6647 163.877 17.2653L163.876 17.2627C163.513 16.9089 163.128 16.6008 162.745 16.3421V16.3433C162.068 15.8868 161.403 15.5761 160.773 15.353 160.3 15.1843 159.857 15.0689 159.431 14.9814 158.79 14.8495 158.219 14.7912 157.672 14.7595 157.411 14.743 157.161 14.7379 156.922 14.7379 156.664 14.7379 156.418 14.7455 156.181 14.7582 154.473 14.8381 152.803 15.1424 151.177 15.6395H151.178C149.961 16.0111 148.777 16.493 147.633 17.0763 147.543 17.1232 147.424 17.1879 147.277 17.2678L146.071 17.9133 144.937 17.1473C144.768 17.0332 144.602 16.9305 144.442 16.8354 143.558 16.3218 142.65 15.987 141.748 15.7879 141.01 15.6256 140.288 15.552 139.571 15.552 139.407 15.552 139.242 15.5559 139.078 15.5635 138.527 15.5901 138.021 15.6636 137.545 15.7676 136.645 15.968 135.907 16.2482 135.204 16.5754 134.945 16.6946 134.697 16.824 134.446 16.9596L133.408 17.5252 132.352 16.999C131.7 16.673 131.03 16.4359 130.371 16.2812 129.6 16.0986 128.84 16.0187 128.09 16.0187 127.925 16.0187 127.76 16.0225 127.598 16.0301 127.234 16.0504 126.975 16.0808 126.675 16.1303 126.426 16.1696 126.193 16.2203 125.943 16.2825 125.501 16.3966 125.077 16.5348 124.571 16.7529 124.254 16.8924 123.932 17.0535 123.576 17.2716L122.562 17.8917 121.476 17.4111C120.881 17.1499 120.284 16.9596 119.693 16.829 118.956 16.6654 118.234 16.5944 117.518 16.5944 117.353 16.5944 117.188 16.5957 117.025 16.6033 116.473 16.6312 115.966 16.7035 115.49 16.8087 114.59 17.0078 113.852 17.2881 113.151 17.6153 112.892 17.7357 112.642 17.8625 112.391 17.9995L111.357 18.5613 110.305 18.0413 110.304 18.0401 110.295 18.0363C110.286 18.0325 110.271 18.0236 110.25 18.0147L109.079 17.4339 108.995 16.1303C108.938 15.2109 108.722 14.2586 108.322 13.3633L108.343 13.4128 108.32 13.362C108.007 12.6582 107.57 11.9722 107.041 11.38L107.04 11.3787C106.641 10.9311 106.184 10.5265 105.693 10.1867L105.692 10.1854C104.959 9.67565 104.125 9.29775 103.296 9.07583H103.294C102.592 8.88561 101.88 8.79811 101.187 8.79811 101.055 8.79811 100.923 8.80319 100.794 8.80953H100.793C99.9622 8.84884 99.2039 9.00482 98.5115 9.228 97.9054 9.42456 97.3601 9.66804 96.8503 9.94576 95.9537 10.439 95.2106 11.0072 94.5297 11.6615 94.5157 11.6704 94.4701 11.7198 94.3864 11.8035L92.0835 14.1039l-1.3569-2.9573C90.6087 10.8905 90.4844 10.6508 90.3576 10.4327L90.3563 10.4302C90.1027 9.99521 89.8161 9.59829 89.513 9.24068V9.24195C88.9792 8.60917 88.4022 8.107 87.8024 7.69106L87.8036 7.6936C87.3547 7.38164 86.9007 7.12548 86.4366 6.9061 85.7366 6.5802 85.043 6.35194 84.3087 6.1985 83.6962 6.07296 83.0888 6.00575 82.4357 6.00575 82.2962 6.00575 82.1555 6.00702 82.0147 6.01462 81.8308 6.0235 81.7002 6.03491 81.5582 6.05013 81.3008 6.0793 81.1042 6.111 80.8772 6.15285 80.4829 6.2302 80.1215 6.31516 79.6738 6.45592 79.3378 6.56371 79.003 6.68672 78.5959 6.87313 78.2878 7.01516 77.9796 7.17494 77.6081 7.41208 77.3278 7.59469 77.0437 7.80012 76.7204 8.08417 76.4807 8.29722 76.236 8.54196 75.9811 8.85138 75.7909 9.08344 75.6032 9.34467 75.4231 9.64394L75.4218 9.64648C75.1555 10.0916 74.9057 10.6394 74.7421 11.2456L74.7409 11.2532C74.6623 11.5385 74.6014 11.8568 74.5646 12.1802L74.5126 12.6367 74.2882 13.0349C73.1291 15.0943 71.9206 17.1575 70.6906 19.2346l-1.0424 1.7589L67.7917 20.1388C66.9966 19.771 66.1406 19.4921 65.2491 19.3132L65.0855 19.279C63.9392 19.0533 62.7902 18.9442 61.6553 18.9442 61.3649 18.9442 61.0758 18.9518 60.7879 18.9658 59.7722 19.014 58.7716 19.1433 57.7888 19.3424L54.9977 19.9118 55.0713 17.0687C55.0751 16.9317 55.0764 16.791 55.0776 16.6515 55.0764 16.4638 55.0726 16.2761 55.065 16.091 55.0142 15.0144 54.8227 13.9327 54.488 12.9207V12.9169C54.1963 12.0318 53.7905 11.1822 53.3061 10.4264L53.3048 10.4213C52.8813 9.7568 52.3918 9.14938 51.8706 8.61804L51.8693 8.61551C51.4115 8.15012 50.9271 7.73418 50.43 7.36642 49.5576 6.72476 48.6572 6.23527 47.753 5.85104 46.3873 5.26771 45.0545 4.93547 43.7344 4.73384 42.7516 4.58801 41.798 4.5246 40.8647 4.52333 40.5477 4.52333 40.2332 4.53348 39.92 4.54616 37.858 4.6438 35.8164 5.00902 33.7773 5.57333H33.7785c-1.7804.49709-3.5481 1.14636-5.2943 1.93005H28.4855c-3.0562 1.37463-6.035 3.14872-8.8337 5.26142L19.6531 12.7622c-2.0975 1.5826-4.0858 3.3542-5.9056 5.2969zM10.6343 41.8665C7.79758 26.3791 27.2173 10.9691 40.1951 10.3554 44.8466 10.1372 50.8067 12.184 48.8867 19.2587 46.9656 26.3335 37.6716 31.728 32.8465 31.43 28.0239 31.2081 28.4043 26.5338 29.2298 26.4958 29.4835 26.4831 29.713 26.6784 30.0401 26.875 30.7744 27.315 32.0044 27.7538 35.1379 25.8402c2.483-1.5433 5.5784-4.4675 7.6366-7.0418C45.6049 15.0575 43.69 14.3233 41.9654 14.4031 32.9631 14.828 18.6323 31.3514 19.6189 41.0689 20.1629 46.2237 22.5773 47.9864 25.617 48.6699c6.5523 1.5382 15.9515-5.2068 21.1051-13.4622 2.7061-6.9125 10.7459-11.5778 17.321-10.2032C67.1538 25.6068 68.3319 28.2547 67.2603 29.4315 66.7252 30.0173 66.0062 29.4657 64.9803 28.9141 63.8085 28.2851 62.2373 27.6561 60.0841 28.7188c-4.1873 2.0746-7.459 7.6378-7.4526 10.9425C52.7912 43.0306 58.499 34.9528 60.3073 31.8624 60.4303 29.6813 61.2305 29.1157 62.666 29.2729 65.991 29.6407 66.6732 31.3374 65.6473 33.4869c-1.5699 3.3795-3.3275 5.941-3.2755 7.0646C63.0984 42.427 67.2121 37.016 68.9646 34.1247 69.3679 33.1686 69.8282 32.2479 70.2835 31.3932 73.4791 25.8351 76.9043 20.3404 80.0213 14.7113 80.2964 14.1723 80.4359 13.9416 80.479 13.2619 79.8323 12.3171 81.7649 11.8492 82.2899 11.8276 83.7153 11.7566 85.5654 12.7204 85.6466 14.4463 85.7709 17.0687 80.3129 25.6627 78.9117 27.8298 79.9059 26.582 82.1961 24.146 83.8459 24.0674 86.2464 23.9545 87.2634 26.3842 87.3636 28.4829 87.4333 29.9806 87.1975 31.3463 86.812 32.7133 87.5995 32.9365 88.3806 32.991 89.1618 33.0709c1.8248-3.6268 4.1048-6.9251 4.0566-7.9434C93.155 23.7808 94.0339 23.2875 95.1599 23.2342 96.6601 23.1632 98.5914 24.2741 98.6738 25.9974 98.84 29.519 93.1144 37.2214 93.1918 38.8725 93.1994 39.0234 93.2032 39.097 93.3529 39.0906 95.4757 38.9892 98.7017 33.6111 99.9901 32.3418 101.881 29.0574 103.929 26.0177 104.01 24.3945 103.736 23.3547 105.218 22.9109 105.818 22.883 107.694 22.7917 109.247 23.8455 109.346 25.9442 109.399 27.0702 108.784 28.3751 108.306 29.3719c1.851-2.1901 6.068-6.8186 8.994-6.9581C119.1 22.3301 120.8 23.3014 120.899 25.4002 121.027 28.0987 115.258 36.4796 115.332 38.0521 115.335 38.1294 115.41 38.1256 115.486 38.1218 117.451 38.0279 120.361 33.4133 121.804 31.7204c1.953-3.4416 4.176-6.6766 4.261-8.3682C125.79 22.3148 127.272 21.8697 127.872 21.8406 129.747 21.7531 131.301 22.8056 131.401 24.9043 131.453 26.0266 130.839 27.3327 130.36 28.332 132.21 26.142 136.428 21.5134 139.353 21.3739 141.154 21.289 142.853 22.2616 142.952 24.3578 143.08 27.055 137.312 35.4397 137.387 37.0135 137.389 37.087 137.465 37.0845 137.54 37.0807 139.508 36.9881 142.425 32.357 143.865 30.6717 143.801 30.4675 143.758 30.2557 143.746 30.0287 143.714 29.3554 143.983 28.6655 144.251 27.9795 146.599 23.5855 151.73 20.7919 156.456 20.5674 158.257 20.4824 160.379 20.8324 160.484 23.0833 160.665 26.9029 154.666 30.4155 154.561 28.1684 154.525 27.4177 156.704 25.8135 156.43 24.775 156.412 24.4009 155.812 24.4288 155.661 24.4351 154.312 24.4998 150.452 27.1603 150.527 28.7327 150.601 30.3052 156.527 30.0275 156.693 33.549 156.9 37.8948 152.108 41.5 148.357 41.6763 146.182 41.779 143.064 41.0258 142.929 38.1789 142.879 37.1289 143.531 34.9959 144.805 34.935 145.434 34.9046 145.516 35.3041 145.708 35.7022 145.906 36.1118 146.219 36.5202 147.359 36.4682 148.034 36.4365 151.521 35.4448 151.479 34.547 151.471 34.3961 150.785 34.2046 150.636 34.2097 149.266 33.8254 146.729 33.3601 145.144 32.2555 144.014 34.632 140.181 39.4381 139.271 40.3029 138.121 41.4087 136.655 42.2292 135.155 42.3015 132.905 42.4067 131.244 40.6808 131.135 38.3577 130.95 34.4633 135.385 28.0949 135.354 27.4202L135.197 27.2782C132.949 27.4583 125.39 39.3062 123.625 41.7181 123.203 42.337 122.171 42.7643 121.495 42.7948 119.994 42.8645 118.956 41.5622 118.879 39.9136 118.871 39.7538 118.87 39.589 118.876 39.4216 118.139 40.3384 117.518 41.0574 117.217 41.3453c-1.151 1.1045-2.616 1.9237-4.116 1.9947C110.85 43.4453 109.19 41.7219 109.081 39.4 108.896 35.5031 113.332 29.1347 113.3 28.4626L113.143 28.3181C110.896 28.5007 103.337 40.3448 101.57 42.7567 101.149 43.3794 100.117 43.8016 99.441 43.8333 97.9409 43.9044 96.9023 42.6033 96.8237 40.9535 96.8135 40.7252 96.8173 40.4881 96.8351 40.2459 96.0577 41.2324 95.3983 42.0136 95.0838 42.3116 93.9299 43.3451 92.54 44.1592 90.965 44.2353 88.8638 44.3342 87.058 42.692 86.9515 40.4424 86.8804 38.9524 87.3484 37.2278 88.0573 35.4829 87.252 35.6287 86.3364 35.5906 85.7455 35.6186 84.1439 39.8997 79.637 44.7679 75.0617 44.9835 71.6112 45.1471 67.9565 44.1935 67.7447 39.698 67.7359 39.523 67.7333 39.3468 67.7359 39.1718c-2.0988 3.1766-5.113 6.8515-7.7444 6.674C57.5048 45.7368 55.8562 42.6603 57.4109 38.9828 55.7637 42.2901 53.4608 46.0791 50.4541 46.0703c-2.4081-.0381-4.2152-1.6803-4.5639-4.2913C45.8433 41.4113 45.8128 41.0448 45.7976 40.6808c-4.1467 6.4331-11.0274 13.1148-19.4679 13.5117C26.1116 54.2028 25.8923 54.2079 25.671 54.2079 19.4966 54.2076 12.1903 50.2022 10.6343 41.8665zM81.8664 28.2914C80.1405 28.3739 73.6643 37.6906 73.7632 39.7893 73.7809 40.1647 74.0168 40.3765 74.3922 40.36 76.4173 40.2649 79.301 36.0738 80.5057 34.514 80.1912 34.2312 79.8665 33.7202 79.845 33.2687 79.7752 31.7711 81.3008 30.6476 82.404 30.1429 82.4586 29.6914 82.5156 29.3135 82.4941 28.8646 82.4738 28.4406 82.3339 28.2896 81.9451 28.2896 81.9199 28.2896 81.8937 28.2902 81.8664 28.2914zm15.0701-8.8209C96.934 19.4178 96.9328 19.3649 96.9328 19.312 96.9336 17.1059 99.0891 14.7116 101.068 14.62 102.268 14.5629 103.132 15.3479 103.188 16.545 103.191 16.5978 103.192 16.6508 103.192 16.7039 103.191 18.9202 101.04 21.4549 98.9896 21.5515 98.9528 21.5532 98.9165 21.554 98.8805 21.554 97.7409 21.5539 96.9943 20.7047 96.9365 19.4705zM170.2 19.123 170.219 19.1814V19.1826L170.2 19.123zM73.7124 4.6996C73.7025 4.70844 73.6926 4.71736 73.6826 4.7263L73.6681 4.73891 73.7124 4.6996zm1.4393-1.0893L75.1505 3.61157 75.1289 3.62425 75.1517 3.6103z" fill="#000"/></svg>