<svg xmlns="http://www.w3.org/2000/svg" width="195" height="53" viewBox="0 0 195 53" fill="none"><path d="M49.6243 34.6301H48.9743C47.7548 34.6301 47.2909 34.1258 47.1779 33.9718L39.3362 23.2472C39.0742 22.8431 38.848 22.4941 39.3148 21.8655l6.0577-8.16C46.1785 12.6305 46.6897 12.2675 47.3972 12.2675H48.0295L48.4841 11.9431V10.6953H40.4772v1.2478L40.9314 12.2675h3.4614C44.5287 12.2675 44.6162 12.279 44.6695 12.2909 44.6416 12.3583 44.5792 12.4761 44.4388 12.6638l-5.9616 8.0405C38.2899 20.963 38.0941 21.1174 37.9532 21.1174 37.8239 21.1174 37.6966 20.9778 37.6395 20.9034l-5.5321-7.5847C31.8869 13.0136 31.811 12.7225 31.9042 12.5406 31.9929 12.3669 32.2466 12.2675 32.6005 12.2675H34.027L34.5386 11.9263v-1.231H21.625v1.231L22.1362 12.2675h1.2261C24.3535 12.2675 24.9366 12.6026 25.1562 12.9216L32.3263 22.963C32.5648 23.3506 32.6962 23.8302 32.0454 24.7065l-6.7081 9.0366C24.9205 34.2979 24.1075 34.6301 23.5627 34.6301H22.2545L21.7999 34.9544v1.2479h8.5324V34.9544L29.8782 34.6301H26.4919C26.4706 34.6301 26.4529 34.6292 26.4373 34.628 26.4611 34.5615 26.5137 34.4543 26.6217 34.3085l6.4313-8.6843C33.4156 25.1458 33.6497 25.1089 33.7129 25.1089 33.7971 25.1089 33.8833 25.1696 33.9683 25.2887l5.8856 8.2894C40.0744 33.884 40.1504 34.1751 40.0572 34.357 39.9681 34.5307 39.7143 34.6301 39.3604 34.6301H37.1332L36.6216 34.9704v1.2319H50.1364V34.9704L49.6243 34.6301z" fill="#000"/><path d="M94.1889 30.625 93.9384 30.9609c-2.1023 2.8229-4.5639 4.3775-6.9318 4.3775C82.82 35.3384 80.0069 30.6595 80.0069 23.6956V23.6201C80.0069 17.1448 82.4164 12.3673 85.9985 11.7325 86.2162 11.696 86.4477 11.6771 86.6867 11.6771c2.7388.0 6.06139999999999 2.3614 6.348 4.5122L93.4079 18.9736H94.4061L94.6783 18.4969v-7.276L94.354 10.7668H93.4355L93.3484 11.0612C93.3016 11.2185 93.2564 11.3864 93.2108 11.5568 93.1 11.9686 92.8696 12.8272 92.6915 12.913 92.6915 12.913 92.638 12.9065 92.5264 12.8133 90.8199 11.4049 89.0317 10.1406 85.9308 10.1406 80.9053 10.1406 73.8281 14.3227 73.8281 23.6201 73.8281 32.4247 80.0636 37.175 85.9308 37.175 90.5242 37.175 92.6105 34.6974 95.0327 31.8215L95.3078 31.4947 94.1889 30.625z" fill="#000"/><path d="M130.027 34.5822C129.184 34.698 128.53 34.7522 127.971 34.7522 125.353 34.7522 124.185 33.7056 124.185 27.5029V13.2569C124.185 12.301 124.552 12.2907 125.356 12.2677L125.426 12.2657h2.99V11.0178L127.961 10.6935 125.439 10.6939 125.351 10.691C124.497 10.6664 124.2 10.6158 124.185 9.80202V4.09376C124.185 3.67247 123.89 3.35508 123.499 3.35508 123.198 3.35508 122.928 3.54724 122.774 3.87367 121.183 7.3741 118.615 9.48586 115.534 9.82009 115.148 9.87019 114.753 9.89564 114.36 9.89564 114.151 9.89564 113.939 9.88825 113.726 9.87429 113.499 5.8992 112.223 3.82645 111.124 2.4579 109.873.918529 108.258.0 106.802.0 105.964.0 105.224.313704 104.718.882396 104.093 1.58453 103.84 2.62501 103.988 3.88886 104.366 7.28952 107.909 10.344 112.298 11.1041V11.1792C112.298 11.9355 112.093 12.2628 111.988 12.2628 111.957 12.2628 111.838 12.2484 111.619 12.0653c-1.613-1.3439-3.788-1.9976-6.648-1.9976-5.2492.0-7.9961 4.1237-7.9961 8.1969.0 2.7758 1.286 4.9208 3.5281 5.8853C101.45 24.5576 102.805 25.0651 104.239 25.6026c1.533.5749 3.118 1.169 4.145 1.624C110.626 28.2313 111.701 29.7978 111.331 31.5236 110.927 33.4144 108.681 35.3291 105.172 35.3291 102.352 35.3291 99.6327 33.5179 99.2615 32.018 99.1273 31.4776 99.3383 31.0694 99.9062 30.7701 101.556 29.8959 101.468 28.7294 101.353 28.2687 101.114 27.3079 100.128 26.5556 99.1064 26.5556c-.4953.0-1.41789999999999.1799-2.0363 1.3867C96.2941 29.4632 96.4251 31.2136 97.4397 32.87 98.9581 35.3496 101.993 36.9514 105.172 36.9514c5.482.0 8.723-3.9299 9.41500000000001-7.5815C115.28 25.7086 113.55 22.4865 110.178 21.1611 109.595 20.9352 108.835 20.6523 108.019 20.3485 106.492 19.779 104.76 19.1335 103.656 18.6629 101.052 17.5473 100.412 15.7472 100.681 14.4349 100.964 13.0561 102.401 11.6645 104.971 11.6645c2.574.0 4.437.600400000000001 5.694 1.8326C111.407 14.2399 111.944 15.475 112.175 16.9597L112.493 19.7018h1.004L113.77 19.2246V11.2663C113.973 11.2753 114.178 11.2802 114.382 11.2802 115.043 11.2802 115.705 11.2314 116.346 11.1349 116.891 11.0573 117.321 11.0055 117.651 11.0055 118.221 11.0055 118.481 11.0055 118.481 12.356V27.5029c0 6.0573 2.593 9.1282 7.70700000000001 9.1282C127.373 36.6311 128.676 36.4706 130.172 36.1409L130.494 36.0698V34.5181L130.027 34.5822zM109.768 3.18508C110.711 4.28223 111.97 6.13489 112.241 9.68172 108.23 8.87077 105.799 5.99651 105.53 3.59774 105.448 2.85619 105.582 2.24643 105.91 1.88017 106.144 1.61944 106.479 1.48106 106.879 1.48106c.875.0 1.92999999999999.62248 2.889 1.70402z" fill="#000"/><path d="M151.241 33.5005 151.065 33.5379C150.671 33.6208 150.272 33.6976 150.023 33.6976 149.924 33.6976 149.88 33.6849 149.871 33.6849L149.87 33.6853C149.861 33.6697 149.832 33.5986 149.832 33.3638V21.3465C149.832 14.6918 146.608 10.7188 141.207 10.7188L141.003 10.7208C138.127 10.7688 135.048 12.353 133.515 14.5735 132.534 15.9942 132.275 17.5603 132.787 18.981 133.198 20.1299 134.202 20.8435 135.407 20.8435 136.666 20.8435 137.992 19.9755 138.09 18.3117 138.125 17.5816 137.795 17.0203 137.502 16.5247 137.328 16.2291 137.163 15.9495 137.105 15.6781 136.971 15.0433 137.17 14.3387 137.652 13.7449 138.387 12.8383 139.629 12.3181 141.06 12.3181c2.584.0 4.321 2.0181 4.321 5.0225.0 1.2799.0 2.2912-1.93100000000001 2.9933C142.232 20.7704 142.132 20.7996 140.466 21.2804L140.044 21.4023C138.934 21.7255 137.81 21.9903 136.819 22.2236 136.046 22.4059 135.317 22.5775 134.69 22.7532 131.19 23.733 129.755 27.5689 130.183 30.6808 130.577 33.5559 132.603 36.6281 137.104 36.6281 140.431 36.6281 140.807 36.3029 142.506 34.3422 142.869 33.9238 143.321 33.4024 143.889 32.7926 143.935 32.7429 143.994 32.7129 144.047 32.7129 144.118 32.7129 144.154 32.7803 144.154 32.9133v1.1013c0 1.5118 1.18700000000001 2.1881 2.363 2.1881C148.087 36.2027 149.956 35.7075 151.517 34.8781L151.735 34.7623V33.8536L151.241 33.5005zm-12.188 1.0651C137.606 34.5652 136.245 32.7602 135.889 30.3659 135.482 27.6321 136.402 24.2984 140.204 23.1409 141.656 22.6962 142.307 22.5044 142.73 22.38 143.12 22.2654 143.319 22.2067 143.766 22.0622 144.014 21.9813 144.152 21.9645 144.225 21.9645H144.226C144.231 22.022 144.23 22.1074 144.23 22.1648L144.229 22.2474C144.229 23.0017 144.222 23.7633 144.216 24.4799 144.21 25.1188 144.204 25.7223 144.204 26.2533c0 1.6699.0 3.112-.689000000000021 4.2153C143.219 30.9457 141.713 32.9531 140.713 33.8314 140.16 34.3184 139.602 34.5656 139.053 34.5656z" fill="#000"/><path d="M168.132 10.6953v1.2478L168.586 12.2675H172.298C172.806 12.2675 173.187 12.408 173.32 12.6428 173.456 12.8847 173.368 13.2858 173.073 13.7728l-7.459 12.3646C165.447 26.4089 165.18 26.7316 164.854 26.7316 164.533 26.7316 164.165 26.4245 163.894 25.9293L156.96 13.361C156.747 12.9762 156.68 12.6465 156.779 12.4798 156.859 12.3451 157.094 12.2675 157.426 12.2675H159.936L160.39 11.9431V10.6953H147.602v1.2478L148.056 12.2675h1.083C149.831 12.2675 150.206 12.7303 150.833 13.834 152.944 17.6395 158.844 28.6413 160.669 32.0798 161.207 33.0845 161.12 33.5362 160.704 34.2276L156.375 41.4014C155.366 43.073 154.111 45.1527 154.111 47.4086 154.111 50.4926 156.62 53.0019 159.704 53.0019 161.689 53.0019 163.505 51.8899 164.686 49.9523 165.135 49.2218 165.495 48.5825 165.798 47.8261 166.073 47.0797 166.456 45.6631 165.936 44.5598 165.518 43.638 164.586 43.0422 163.564 43.0422 163.164 43.0422 162.781 43.1329 162.438 43.3045 161.806 43.592 161.325 44.1151 161.083 44.777 160.844 45.4344 160.87 46.1443 161.161 46.7836 161.502 47.5026 162.204 47.8266 162.767 48.0869 163.15 48.2639 163.512 48.431 163.572 48.6342 163.619 48.7952 163.518 49.0814 163.288 49.4415 162.461 50.7452 161.088 51.5549 159.704 51.5549 157.471 51.5549 155.583 49.6562 155.583 47.3975 155.538 45.7382 156.267 44.3885 157.302 42.6636l17.197-28.4617C175.133 13.1828 175.768 12.2675 176.554 12.2675H177.186L177.64 11.9431V10.6953H168.132z" fill="#000"/><path d="M189.506 21.1641C188.924 20.9383 188.164 20.6554 187.349 20.3515 185.821 19.7824 184.088 19.1369 182.985 18.666 180.38 17.5499 179.74 15.7498 180.01 14.4379 180.293 13.0591 181.729 11.6676 184.3 11.6676c1.298.0 3.155.2012 4.631 1.1591C189.82 13.4122 190.172 15.0185 190.377 16.3366L190.694 19.0786H191.698L191.971 18.6019V10.5248L191.646 10.0703H190.728L190.58 10.5745C190.466 10.9654 190.276 11.6204 190.13 11.6199 190.103 11.6199 189.999 11.6089 189.783 11.4643 188.43 10.5786 186.432 10.0703 184.3 10.0703 179.05 10.0703 176.303 14.194 176.303 18.2673c0 2.7761 1.286 4.9211 3.52799999999999 5.8852C180.779 24.5602 182.133 25.0682 183.566 25.6052 185.1 26.1805 186.685 26.7747 187.712 27.2292 189.954 28.2344 191.028 29.8004 190.66 31.5262 190.255 33.4175 188.01 35.3321 184.5 35.3321 181.68 35.3321 178.961 33.5209 178.59 32.0206 178.456 31.4806 178.667 31.0725 179.234 30.7727 180.884 29.8985 180.796 28.7324 180.681 28.2717 180.443 27.3109 179.456 26.5587 178.435 26.5587 177.939 26.5587 177.016 26.7385 176.398 27.9453 175.622 29.4662 175.753 31.2162 176.768 32.873c1.518 2.4797 4.554 4.0814 7.732 4.0814C189.983 36.9544 193.223 33.0245 193.915 29.373 194.608 25.7112 192.878 22.4895 189.506 21.1641z" fill="#000"/><path d="M11.7208 36.0703C4.71049 36.0703.0 30.9726.0 23.3858c0-7.6422 4.6181-12.7764 11.4913-12.7764 6.5167.0 10.8946 4.6735 10.8946 11.6288v.7974H4.591c.22461 6.5874 3.26762 10.6606 8.0019 10.6606 3.3662.0 6.3213-2.0407 7.9055-5.459l.5608-1.2101 1.5029 2.0034L22.3543 29.4661c-2.0009 4.1973-5.8766 6.6042-10.6335 6.6042zM17.9374 20.753c-.4513-4.7856-3.1182-8.0902-6.5837-8.0902-3.60348.0-6.4531 3.4491-6.75038 8.0902H17.9374z" fill="#000"/><path d="M60.1661 36.0703c-7.0103.0-11.7208-5.0977-11.7208-12.6845.0-7.6422 4.6181-12.7764 11.4913-12.7764 6.5167.0 10.8946 4.6735 10.8946 11.6288v.7974H53.0363C53.2609 29.623 56.3039 33.6962 61.0382 33.6962c3.36619999999999.0 6.3214-2.0407 7.9055-5.459L69.5046 27.0271 71.0074 29.0305 70.7996 29.4661c-2.0009 4.1973-5.8766 6.6042-10.6335 6.6042zM66.3827 20.753C65.9314 15.9674 63.2646 12.6628 59.799 12.6628c-3.6035.0-6.4531 3.4491-6.7504 8.0902H66.3827z" fill="#000"/></svg>