<svg width="359" height="47" viewBox="0 0 359 47" fill="none" xmlns="http://www.w3.org/2000/svg"><path d="M72.0469 11.7891V35.1587H75.7141V24.404H87.289V21.0377H75.7141V15.2101H90.7925v-3.421H72.0469z" fill="#000"/><path d="M96.5 11.7891V35.1587h18.514V31.7931H100.167V24.404h11.986V21.0377H100.167V15.2101h14.837v-3.421H96.5z" fill="#000"/><path d="M160.25 11.7891V35.1587h18.514V31.7931H163.916V24.404h11.987V21.0377H163.916V15.2101h14.837v-3.421H160.25z" fill="#000"/><path d="M124.37 24.9226V35.1502H120.695V11.7891h16.122C139.212 11.7891 141.086 12.3646 142.438 13.517c1.352 1.151 2.03 2.7509 2.03 4.7976C144.468 19.9785 143.933 21.4176 142.863 22.6334 141.794 23.8491 140.4 24.5939 138.682 24.8685L145.18 35.1502h-3.976L134.569 24.9226H124.37zm0-3.4274h12.447C138.079 21.4952 139.043 21.2213 139.711 20.6728 140.377 20.1243 140.711 19.339 140.711 18.3146c0-1.023-.334000000000003-1.8048-1-2.344C139.043 15.4313 138.079 15.1617 136.817 15.1617H124.37v6.3335z" fill="#000"/><rect x="150.859" y="11.8047" width="3.71057" height="23.3554" fill="#000"/><path d="M184.461 35.1594V11.7891h1.916l14.859 16.4194V11.7891H204.821V35.1594h-1.916L188.073 18.7948V35.1594H184.461z" fill="#000"/><rect x="210.57" y="11.7891" width="3.71342" height="23.3718" fill="#000"/><path d="M219.906 35.1594V11.7891H222.944l9.577 13.6834 9.578-13.6834H245.137V35.1594H241.497V18.3573L232.521 31.3556 223.573 18.3573V35.1594h-3.667z" fill="#000"/><path d="M254.464 24.2952V35.1587h-3.667V11.7891h3.667v9.085h16.419v-9.085H274.523V35.1587H270.883V24.2952H254.464z" fill="#000"/><path d="M279.523 35.1587 291.4 11.7891h2.298l11.987 23.3696H301.771L298.734 29.2208H286.392L283.382 35.1587H279.523zM287.979 26.1284H297.119L292.577 17.1799 287.979 26.1284z" fill="#000"/><path d="M309.203 11.8438H312.754V26.3403C312.754 28.5136 313.267 29.9797 314.292 30.7395 315.316 31.4993 317.348 31.8791 320.387 31.8791 323.443 31.8791 325.484 31.4993 326.508 30.7395 327.533 29.9797 328.046 28.5136 328.046 26.3403V11.8438h3.524V27.2679C331.57 30.0416 330.691 32.047 328.933 33.2834 327.175 34.5198 324.309 35.1387 320.333 35.1387 316.376 35.1387 313.531 34.529 311.8 33.3104 310.069 32.0911 309.203 30.0772 309.203 27.2679V11.8438z" fill="#000"/><path d="M336.602 31.6502 338.283 28.7534C339.801 29.7707 341.457 30.5639 343.25 31.133 345.044 31.7021 346.76 31.9874 348.398 31.9874 350.365 31.9874 351.951 31.5861 353.159 30.7837 354.366 29.982 354.97 28.9512 354.97 27.6927 354.97 26.4336 354.417 25.4974 353.314 24.8856 352.21 24.2731 350.469 23.9324 348.088 23.8634 344.07 23.8114 341.31 23.3462 339.81 22.4662 338.309 21.5862 337.559 20.13 337.559 18.0941 337.559 16.1968 338.382 14.6709 340.03 13.5156 341.677 12.3603 343.888 11.7812 346.666 11.7812 348.563 11.7812 350.404 12.0494 352.189 12.5837 353.974 13.1186 355.694 13.9118 357.35 14.9633l-1.733 2.8725C354.237 16.9046 352.754 16.1847 351.167 15.6754 349.58 15.1667 348.062 14.912 346.614 14.912 344.94 14.912 343.595 15.2058 342.578 15.792 341.56 16.3782 341.051 17.1458 341.051 18.0941 341.051 19.0772 341.564 19.7758 342.591 20.1898 343.617 20.6038 345.398 20.8108 347.933 20.8108 351.452 20.8108 354.107 21.4055 355.901 22.5957 357.695 23.7858 358.592 25.5543 358.592 27.899 358.592 29.9862 357.682 31.7199 355.862 33.0993 354.043 34.4786 351.684 35.1694 348.787 35.1694 346.648 35.1694 344.522 34.8628 342.41 34.2503 340.297 33.6385 338.361 32.772 336.602 31.6502z" fill="#000"/><path d="M13.0938 37.4306h1.816V21.5395C14.9098 21.0212 15.33 20.6012 15.8482 20.6012h4.1084C20.4748 20.6012 20.895 21.0214 20.895 21.5395V37.4306h1.8413V18.5781H13.0938V37.4306z" fill="#000"/><rect x="16.7656" y="22.4844" width="2.28491" height="9.62231" fill="#000"/><rect x="16.7656" y="33.9766" width="2.28491" height="3.45359" fill="#000"/><path d="M24.5699 25.5871H36.9745L25.9177 12.5312l-3.863 4.172h1.5769C24.1499 16.7032 24.5699 17.1232 24.5699 17.6415v7.9456z" fill="#000"/><path d="M43.7173 30.6875C43.37 31.6341 42.9752 33.5809 42.8906 34.6421H42.909L42.8917 35.0046C42.8868 35.1097 42.8998 35.2128 42.9294 35.3106 42.9621 35.1402 43.0263 34.9815 43.1481 34.8555 43.2833 34.7158 43.4683 34.6421 43.6831 34.6421 43.9023 34.6421 44.0908 34.7186 44.2282 34.8634 44.3675 35.0104 44.4329 35.2038 44.4605 35.4094 44.5226 35.2823 44.5546 35.1405 44.5513 34.9962 44.5511 34.0547 44.1133 31.7459 43.7173 30.6875z" fill="#000"/><rect x="24.5703" y="27.4688" width="3.92137" height="9.96861" fill="#000"/><rect x="30.3203" y="27.4688" width="7.3445" height="9.96861" fill="#000"/><path d="M28.8476.365157C28.6489.133429 28.359 17306e-8 28.0539.0 12.5607.0.0 12.5598.0 28.053c0 7.3028 2.79129 13.953 7.36388 18.9442C7.36561 46.999 7.36803 47 7.37045 47H48.7349C48.7375 47 48.7398 46.999 48.7415 46.9972c3.7618-4.1067 6.3176-9.3364 7.1053-15.1284C55.8472 31.8662 55.8465 31.8638 55.8447 31.8619L28.8476.365157zM46.6101 39.3109H9.93953C9.44545 39.3109 8.99999 38.9511 8.95568 38.4591 8.9055 37.9031 9.3442 37.4343 9.89004 37.4343H11.2233C11.2281 37.4343 11.2321 37.4305 11.2321 37.4256V17.6523C11.2321 17.1293 11.6561 16.7053 12.1791 16.7053h7.3867C19.5682 16.7053 19.5705 16.7043 19.5722 16.7025l5.7105-6.2168C25.4686 10.3023 25.7039 10.1996 25.9512 10.1906 26.2304 10.1936 26.4865 10.3097 26.662 10.5089l15.51 18.3653C42.4139 29.148 42.4701 29.5126 42.3196 29.8466 42.1616 30.1973 41.812 30.4326 41.4496 30.4326 41.2682 30.4326 41.0042 30.375 40.7764 30.1007l-1.2377-1.4655C39.5333 28.629 39.5233 28.6328 39.5233 28.6409v8.7847C39.5233 37.4305 39.5271 37.4343 39.5319 37.4343h3.445V37.3348C41.9807 36.985 41.3267 36.0574 41.3361 34.9877 41.3361 34.9265 41.7454 28.7219 43.7551 28.7219c2.0099.0 2.4191 6.2061 2.4191 6.2688C46.1842 36.0581 45.5302 36.985 44.5339 37.3348V37.4343h2.0269C47.0547 37.4343 47.5001 37.7941 47.5444 38.2861 47.5946 38.8421 47.1561 39.3109 46.6101 39.3109z" fill="#000"/></svg>