<svg xmlns="http://www.w3.org/2000/svg" width="104" height="54" viewBox="0 0 104 54" fill="none"><rect x=".078125" y=".0703125" width="23.6195" height="2.5189" fill="#1c1b1a"/><rect x=".453125" y="17.8125" width="23.2434" height="2.98844" fill="#1c1b1a"/><rect x=".078125" y="17.8125" width="3.07923" height="19.2588" fill="#1c1b1a"/><path d="M66.1289.246532 63.0601.205026 48.7535 33.6407 34.0681.0234375 30.8047.171303 47.0024 36.8341 47.0361 36.8185 47.0439 36.8341h3.7978L50.8443 36.7874H50.8469L66.1289.246532z" fill="#1c1b1a"/><path d="M103.762 36.6269 95.4479 23.9261C101.119 22.5564 103.656 17.9544 103.63 12.1799 103.599 4.8385 98.8954-.297877 91.4892.0134178L75.3019.0756768 75.2604 2.31441 91.6578 2.23918C97.6036 2.21324 101.305 6.9994 101.305 12.019 101.326 16.551 97.741 22.0427 91.7253 22.0687L76.9906 22.1387H75.2422V37.0809H78.0413V24.4086L91.689 24.3437C91.9899 24.3437 92.2856 24.336 92.5735 24.3204l9.0275 13.1885L103.759 36.6243 103.762 36.6269z" fill="#1c1b1a"/><path d="M0 51.7193V45.1406H4.065V45.7788H.749703v2.2828H3.88341V48.6998H.749703V51.7219H0V51.7193z" fill="#1c1b1a"/><path d="M6.80452 51.7808C6.39205 51.7808 6.02888 51.6848 5.71758 51.4902 5.40628 51.2957 5.16503 51.0181 4.99641 50.6575s-.25422-.7834-.25422-1.2711C4.74219 48.8987 4.82779 48.4759 5.0016 48.1101 5.17281 47.7469 5.41666 47.4642 5.72796 47.2592 6.03925 47.0569 6.39724 46.9531 6.80452 46.9531S7.59054 47.0569 7.88627 47.267C8.182 47.4771 8.38175 47.7755 8.48811 48.1646L8.37656 48.2398V47.0673H9.11588v4.6486H8.37656v-1.201L8.48811 50.5693C8.38434 50.9585 8.182 51.2568 7.88627 51.4669 7.59054 51.677 7.22996 51.7808 6.80452 51.7808zM6.95238 51.1608C7.40895 51.1608 7.75916 51.0051 8.0056 50.6938 8.25204 50.3826 8.37656 49.9416 8.37656 49.3683 8.37656 48.7949 8.25204 48.3539 8.003 48.0478 7.75397 47.7391 7.40376 47.5861 6.95498 47.5861 6.50619 47.5861 6.14301 47.7443 5.88879 48.0608 5.63197 48.3773 5.50486 48.8209 5.50486 49.3864s.12711 1.0039.38393 1.3126C6.14561 51.0077 6.50101 51.1608 6.95498 51.1608H6.95238z" fill="#1c1b1a"/><path d="M10.5648 51.7133V48.3669C10.5648 48.1516 10.5596 47.9337 10.5519 47.7158 10.5415 47.4979 10.5233 47.28 10.4922 47.0647H11.203L11.286 48.0245 11.1926 48.0893C11.3041 47.7262 11.4961 47.446 11.7711 47.2489 12.0461 47.0517 12.3703 46.9531 12.7465 46.9531 13.1953 46.9531 13.5455 47.0647 13.7945 47.2852 14.0435 47.5057 14.2018 47.8455 14.2692 48.3021L14.0461 48.1827C14.1447 47.8066 14.3445 47.5083 14.6428 47.2852 14.9411 47.0621 15.3017 46.9531 15.7194 46.9531 16.2304 46.9531 16.6169 47.1062 16.8737 47.4097 17.1332 47.7158 17.2629 48.175 17.2629 48.7924v2.9209H16.5132v-2.882C16.5132 48.4007 16.4353 48.0842 16.2823 47.8844 16.1292 47.6847 15.8854 47.5835 15.5533 47.5835 15.1642 47.5835 14.8581 47.7158 14.635 47.9804 14.4093 48.245 14.2978 48.6056 14.2978 49.0621v2.6512H13.5481v-2.882C13.5481 48.4007 13.4702 48.0842 13.312 47.8844 13.1538 47.6847 12.9099 47.5835 12.5779 47.5835 12.1836 47.5835 11.8749 47.7158 11.6492 47.9804 11.4235 48.245 11.3119 48.6056 11.3119 49.0621v2.6512H10.5622 10.5648z" fill="#1c1b1a"/><path d="M18.6094 45.1016H19.5251v.8508H18.6094v-.8508zM18.682 51.7192V47.0705H19.4317v4.6487H18.682z" fill="#1c1b1a"/><path d="M20.8828 51.7159V44.9141H21.6325v6.8018H20.8828z" fill="#1c1b1a"/><path d="M24.5648 51.9603l-2.0882-4.8874H23.2626l1.681 4.1039L24.5648 51.9628V51.9603zm-1.6991 1.8573L22.7074 53.2365C22.9902 53.1691 23.2289 53.0913 23.4234 53.0005 23.618 52.9123 23.7814 52.7955 23.9137 52.6529 24.046 52.5102 24.1627 52.3234 24.2613 52.09L24.5571 51.4051 24.7231 51.1742l1.6991-4.1039H27.1719L25.0006 52.1444C24.8346 52.5206 24.6452 52.8215 24.4377 53.0446 24.2276 53.2703 23.9915 53.4415 23.7295 53.5582 23.4675 53.675 23.1796 53.7606 22.8657 53.8176z" fill="#1c1b1a"/><path d="M32.5774 51.7193l-2.8743-6.5787H30.5073l2.5604 5.9691H32.7616l2.5682-5.9691H36.1158l-2.8743 6.5787H32.5774z" fill="#1c1b1a"/><path d="M38.1014 51.7808C37.6889 51.7808 37.3257 51.6848 37.0145 51.4902 36.7032 51.2957 36.4619 51.0181 36.2933 50.6575 36.1247 50.2969 36.0391 49.8741 36.0391 49.3864 36.0391 48.8987 36.1247 48.4759 36.2985 48.1101 36.4697 47.7469 36.7135 47.4642 37.0248 47.2592 37.3361 47.0569 37.6941 46.9531 38.1014 46.9531S38.8874 47.0569 39.1831 47.267C39.4789 47.4771 39.6786 47.7755 39.7824 48.1646L39.6709 48.2398V47.0673h.7393v4.6486h-.7393v-1.201L39.7824 50.5693C39.6786 50.9585 39.4763 51.2568 39.1831 51.4669 38.8874 51.677 38.5268 51.7808 38.1014 51.7808zM38.2493 51.1608C38.7058 51.1608 39.056 51.0051 39.3025 50.6938 39.5489 50.3826 39.6734 49.9416 39.6734 49.3683 39.6734 48.7949 39.5489 48.3539 39.2999 48.0478 39.0508 47.7391 38.7007 47.5861 38.2519 47.5861S37.4399 47.7443 37.1831 48.0608C36.9263 48.3773 36.7991 48.8209 36.7991 49.3864S36.9263 50.3903 37.1831 50.699C37.4399 51.0077 37.7953 51.1608 38.2519 51.1608H38.2493z" fill="#1c1b1a"/><path d="M43.8117 51.7808C43.3551 51.7808 42.9608 51.6822 42.6288 51.4851 42.2967 51.2879 42.0399 51.0103 41.8583 50.6523 41.6767 50.2943 41.5859 49.8741 41.5859 49.3864 41.5859 48.8987 41.6793 48.481 41.8635 48.1153 42.0477 47.7495 42.3097 47.4642 42.6495 47.2592 42.9894 47.0569 43.3888 46.9531 43.8506 46.9531 44.1645 46.9531 44.468 47.0076 44.7612 47.114 45.0543 47.2203 45.2955 47.3708 45.4875 47.5627L45.2385 48.1179C45.0102 47.9389 44.7871 47.8066 44.5692 47.7158 44.3513 47.6276 44.123 47.5809 43.8895 47.5809 43.42 47.5809 43.049 47.7391 42.7766 48.053 42.5017 48.3669 42.3668 48.8105 42.3668 49.3838 42.3668 49.9571 42.5017 50.3877 42.774 50.6964 43.0464 51.0051 43.4174 51.1582 43.8921 51.1582 44.1204 51.1582 44.3461 51.1141 44.5666 51.0233 44.7897 50.9351 45.0128 50.8002 45.2411 50.6212L45.4901 51.1763C45.2929 51.3605 45.0439 51.5084 44.7456 51.6147 44.4473 51.7237 44.136 51.7756 43.8169 51.7756L43.8117 51.7808z" fill="#1c1b1a"/><path d="M48.2186 51.7808C47.8061 51.7808 47.4429 51.6848 47.1316 51.4902 46.8204 51.2957 46.5791 51.0181 46.4105 50.6575S46.1562 49.8741 46.1562 49.3864C46.1562 48.8987 46.2419 48.4759 46.4156 48.1101 46.5869 47.7469 46.8307 47.4642 47.142 47.2592 47.4533 47.0569 47.8113 46.9531 48.2186 46.9531S49.0046 47.0569 49.3003 47.267C49.5961 47.4771 49.7958 47.7755 49.8996 48.1646L49.788 48.2398V47.0673H50.5274v4.6486H49.788v-1.201L49.8996 50.5693C49.7958 50.9585 49.5935 51.2568 49.3003 51.4669 49.0046 51.677 48.644 51.7808 48.2186 51.7808zM48.3665 51.1608C48.823 51.1608 49.1732 51.0051 49.4197 50.6938 49.6661 50.3826 49.7906 49.9416 49.7906 49.3683 49.7906 48.7949 49.6661 48.3539 49.4171 48.0478 49.168 47.7391 48.8178 47.5861 48.369 47.5861 47.9203 47.5861 47.5571 47.7443 47.3003 48.0608 47.0434 48.3773 46.9163 48.8209 46.9163 49.3864S47.0434 50.3903 47.3003 50.699C47.5571 51.0077 47.9125 51.1608 48.369 51.1608H48.3665z" fill="#1c1b1a"/><path d="M51.3281 47.6587v-.5914H54.314v.5914H51.3281zm2.9677 3.3906V51.6874C54.192 51.7186 54.0883 51.7419 53.9871 51.7574 53.8859 51.773 53.7744 51.7808 53.6499 51.7808 53.2192 51.7808 52.8742 51.6589 52.62 51.4124 52.3632 51.166 52.2361 50.7976 52.2361 50.3021V45.8766L52.9858 45.6094v4.5942C52.9858 50.45 53.0221 50.642 53.0921 50.7769 53.1622 50.9118 53.2607 51.0051 53.3827 51.0596 53.5046 51.1115 53.6447 51.1375 53.7977 51.1375 53.8911 51.1375 53.9741 51.1323 54.0468 51.1193 54.1194 51.1063 54.205 51.0856 54.2958 51.0544V51.0493z" fill="#1c1b1a"/><path d="M55.1406 45.1016H56.0563v.8508H55.1406v-.8508zM55.2132 51.7192V47.0705H55.963v4.6487H55.2132z" fill="#1c1b1a"/><path d="M59.3404 51.7834C58.8969 51.7834 58.5103 51.6848 58.1808 51.4877 57.8514 51.2905 57.5946 51.013 57.413 50.6524 57.2314 50.2918 57.1406 49.8664 57.1406 49.3735S57.2314 48.463 57.413 48.0972C57.5946 47.7314 57.8514 47.4538 58.1808 47.2567 58.5103 47.0595 58.8969 46.9609 59.3404 46.9609 59.784 46.9609 60.1706 47.0595 60.5 47.2567 60.8295 47.4538 61.0863 47.734 61.2679 48.0972 61.4495 48.4603 61.5403 48.8858 61.5403 49.3735S61.4495 50.2944 61.2679 50.6524C61.0863 51.013 60.8295 51.2905 60.5 51.4877 60.1706 51.6848 59.784 51.7834 59.3404 51.7834zM59.3404 51.1634C59.797 51.1634 60.1498 51.0104 60.3988 50.7069 60.6479 50.4007 60.7724 49.9572 60.7724 49.3709S60.6453 48.3566 60.3936 48.0505C60.142 47.7418 59.7892 47.5887 59.3404 47.5887 58.8916 47.5887 58.5388 47.7418 58.282 48.0505 58.0252 48.3592 57.8981 48.7976 57.8981 49.3709 57.8981 49.9442 58.0226 50.4007 58.2716 50.7069 58.5207 51.013 58.8761 51.1634 59.3404 51.1634z" fill="#1c1b1a"/><path d="M62.6976 51.7133V48.3669C62.6976 48.1516 62.6924 47.9337 62.6847 47.7158 62.6743 47.4979 62.6561 47.28 62.625 47.0647H63.3358L63.4188 48.0245 63.3254 48.0997C63.4551 47.7236 63.6704 47.4382 63.9713 47.2437 64.2723 47.0491 64.6225 46.9531 65.0168 46.9531 66.1323 46.9531 66.69 47.5653 66.69 48.7924v2.9209H65.9429v-2.882C65.9429 48.4006 65.8573 48.0841 65.6835 47.8844S65.2399 47.5835 64.8715 47.5835C64.4409 47.5835 64.0959 47.7158 63.8365 47.9804 63.5771 48.245 63.4473 48.603 63.4473 49.0518v2.6615H62.6976z" fill="#1c1b1a"/><path d="M70.6094 51.7193V45.1406H73.2243C73.9325 45.1406 74.4772 45.2989 74.856 45.6128 75.2347 45.9267 75.4241 46.3806 75.4241 46.9721 75.4241 47.5636 75.2321 47.9838 74.8456 48.3081 74.4591 48.6323 73.9195 48.7932 73.2243 48.7932L73.9091 48.6635C74.1504 48.6635 74.3553 48.7309 74.5291 48.8632 74.7003 48.9955 74.8404 49.2056 74.9442 49.4962L75.7769 51.7245H74.9727L74.1608 49.5351C74.057 49.2575 73.9117 49.0733 73.7301 48.9851 73.5485 48.8969 73.3073 48.8502 73.0038 48.8502H71.3591v2.8743H70.6094V51.7193zM71.3591 48.2173H73.162C73.6731 48.2173 74.0544 48.1135 74.3034 47.9034 74.5525 47.6933 74.677 47.3871 74.677 46.9799 74.677 46.5726 74.5525 46.2691 74.306 46.0693 74.0596 45.8696 73.6783 45.7684 73.1594 45.7684H71.3565v2.4489H71.3591z" fill="#1c1b1a"/><path d="M80.7264 51.1582C80.5241 51.3502 80.262 51.5006 79.9456 51.6122 79.6291 51.7237 79.3022 51.7782 78.9702 51.7782 78.4903 51.7782 78.0752 51.6822 77.7276 51.4928 77.38 51.3009 77.1128 51.0259 76.9234 50.6653 76.7366 50.3047 76.6406 49.8741 76.6406 49.376 76.6406 48.878 76.734 48.4733 76.9182 48.1101 77.1024 47.7469 77.3592 47.4642 77.6887 47.2592 78.0181 47.0543 78.3995 46.9531 78.8301 46.9531S79.5979 47.0439 79.8937 47.2255C80.1894 47.4071 80.4151 47.6665 80.5733 48.0063 80.7316 48.3462 80.8094 48.7509 80.8094 49.2256V49.3631H77.297V48.8728h3.087L80.1427 49.2152C80.1557 48.673 80.0493 48.258 79.8236 47.9674 79.5979 47.6769 79.2711 47.5342 78.8405 47.5342 78.4098 47.5342 78.0389 47.6925 77.7821 48.0089 77.5252 48.3254 77.3981 48.7664 77.3981 49.3267 77.3981 49.9312 77.533 50.3852 77.8002 50.6938 78.0674 51.0026 78.4617 51.1556 78.978 51.1556 79.2477 51.1556 79.5097 51.1115 79.7588 51.0207 80.0078 50.9325 80.2465 50.795 80.4748 50.6108L80.7238 51.1556 80.7264 51.1582z" fill="#1c1b1a"/><path d="M81.9476 51.7133V48.3669C81.9476 48.1516 81.9424 47.9337 81.9347 47.7158 81.9243 47.4979 81.9061 47.28 81.875 47.0647H82.5858L82.6688 48.0245 82.5755 48.0997C82.7051 47.7236 82.9205 47.4382 83.2214 47.2437 83.5223 47.0491 83.8725 46.9531 84.2668 46.9531 85.3823 46.9531 85.94 47.5653 85.94 48.7924v2.9209H85.1929v-2.882C85.1929 48.4006 85.1073 48.0841 84.9335 47.8844S84.4899 47.5835 84.1215 47.5835C83.6909 47.5835 83.3459 47.7158 83.0865 47.9804 82.8271 48.245 82.6974 48.603 82.6974 49.0518v2.6615H81.9476z" fill="#1c1b1a"/><path d="M86.6953 47.6587v-.5914h2.9859v.5914H86.6953zM89.663 51.0493V51.6874C89.5592 51.7186 89.4554 51.7419 89.3543 51.7574 89.2531 51.773 89.1416 51.7808 89.0171 51.7808 88.5864 51.7808 88.2414 51.6589 87.9872 51.4124 87.7304 51.166 87.6032 50.7976 87.6032 50.3021V45.8766L88.353 45.6094v4.5942C88.353 50.45 88.3893 50.642 88.4593 50.7769 88.5294 50.9118 88.628 51.0051 88.7499 51.0596 88.8718 51.1115 89.0118 51.1375 89.1649 51.1375 89.2583 51.1375 89.3413 51.1323 89.414 51.1193 89.4866 51.1063 89.5722 51.0856 89.663 51.0544V51.0493z" fill="#1c1b1a"/><path d="M92.3748 51.7808C91.9623 51.7808 91.5992 51.6848 91.2879 51.4902 90.9766 51.2957 90.7354 51.0181 90.5667 50.6575 90.3981 50.2969 90.3125 49.8741 90.3125 49.3864 90.3125 48.8987 90.3981 48.4759 90.5719 48.1101 90.7431 47.7469 90.987 47.4642 91.2982 47.2592 91.6096 47.0569 91.9675 46.9531 92.3748 46.9531 92.7821 46.9531 93.1608 47.0569 93.4565 47.267 93.7523 47.4771 93.9521 47.7755 94.0558 48.1646L93.9442 48.2398V47.0673H94.6836v4.6486H93.9442v-1.201L94.0558 50.5693C93.9521 50.9585 93.7497 51.2568 93.4565 51.4669 93.1608 51.677 92.8003 51.7808 92.3748 51.7808zM92.5227 51.1608C92.9792 51.1608 93.3295 51.0051 93.5759 50.6938 93.8223 50.3826 93.9469 49.9416 93.9469 49.3683 93.9469 48.7949 93.8223 48.3539 93.5733 48.0478 93.3242 47.7391 92.9741 47.5861 92.5253 47.5861S91.7133 47.7443 91.4565 48.0608C91.1996 48.3773 91.0726 48.8209 91.0726 49.3864S91.1996 50.3903 91.4565 50.699C91.7133 51.0077 92.0687 51.1608 92.5253 51.1608H92.5227z" fill="#1c1b1a"/><path d="M96.1328 51.7159V44.9141H96.8825v6.8018H96.1328z" fill="#1c1b1a"/><path d="M99.9042 51.7808C99.1209 51.7808 98.5034 51.5811 98.0469 51.1816L98.2959 50.6264C98.5424 50.8184 98.7966 50.9585 99.0586 51.0467S99.6111 51.1816 99.9328 51.1816C100.283 51.1816 100.55 51.1219 100.732 51.0026 100.913 50.8832 101.004 50.7095 101.004 50.4812 101.004 50.297 100.942 50.1491 100.82 50.0428 100.695 49.9338 100.493 49.8482 100.21 49.7782L99.4243 49.594C99.0352 49.5084 98.7369 49.3527 98.5242 49.1322 98.3115 48.9117 98.2051 48.6471 98.2051 48.3384 98.2051 48.066 98.2803 47.8274 98.4282 47.6225 98.576 47.4149 98.7836 47.2541 99.0482 47.1373 99.3128 47.0206 99.6267 46.9609 99.9899 46.9609 100.317 46.9609 100.625 47.0128 100.913 47.1192 101.204 47.223 101.445 47.376 101.642 47.5732L101.393 48.1179C101.17 47.9337 100.944 47.7962 100.714 47.7054 100.483 47.6173 100.241 47.5706 99.9873 47.5706 99.6552 47.5706 99.3984 47.6354 99.2168 47.7651 99.0352 47.8948 98.9444 48.0712 98.9444 48.2917 98.9444 48.4837 99.0015 48.6342 99.1157 48.7457 99.2298 48.8573 99.414 48.9429 99.6656 49.0051L100.452 49.1997C100.89 49.2931 101.212 49.4435 101.417 49.6562 101.624 49.869 101.725 50.1388 101.725 50.4656 101.725 50.8651 101.562 51.1868 101.235 51.428 100.908 51.6693 100.465 51.7886 99.9042 51.7886V51.7808z" fill="#1c1b1a"/></svg>