<svg xmlns="http://www.w3.org/2000/svg" width="171" height="52" viewBox="0 0 171 52" fill="none"><path d="M38.4949.244391e-5C33.9078.244391e-5 30.1792 3.72863 30.1792 8.31573V18.2545H27.5995c-1.4265.0-2.5797 1.1574-2.5797 2.5797.0 1.4222 1.1574 2.5797 2.5797 2.5797h2.5797v5.736H19.7835c-4.5871.0-8.3157 3.7286-8.3157 8.3157V43.68c0 1.7426-1.4138 3.152-3.15207 3.152-1.74259.0-3.15203-1.4137-3.15203-3.152V8.31573c0-1.74259 1.41371-3.15203 3.15203-3.15203 1.74257.0 3.15207 1.41372 3.15207 3.15203V15.1024c0 4.5829 3.7286 8.3158 8.3157 8.3158h1.3027c1.4265.0 2.5797-1.1575 2.5797-2.5798.0-1.4222-1.1575-2.5797-2.5797-2.5797H19.7835c-1.7426.0-3.152-1.4137-3.152-3.152V8.32C16.6315 3.72863 12.8986.244391e-5 8.31573.244391e-5 3.73289.244391e-5.0 3.72863.0 8.31573V43.6843C0 48.2714 3.72862 52 8.31573 52c4.58707.0 8.31577-3.7286 8.31577-8.3157V37.4699c0-1.7426 1.4137-3.152 3.152-3.152H30.1792v9.3664c0 4.4931 3.5834 8.1534 8.0381 8.3029C38.3113 51.9872 38.401 52 38.495 52c4.5871.0 8.3157-3.7286 8.3157-8.3157V37.4699c0-4.5871-3.7286-8.3157-8.3157-8.3157H35.3429v-5.736h2.1654H38.4992c4.5829.0 8.3158-3.7287 8.3158-8.3158V8.31573C46.815 3.72862 43.0863.0 38.4992.0L38.4949.244391e-5zM35.3429 34.3136h3.152c1.7426.0 3.1521 1.4137 3.1521 3.152V43.68c0 1.7426-1.4137 3.152-3.1521 3.152-1.7425.0-3.152-1.4137-3.152-3.152V34.3136zm6.3084-19.2112c0 1.7426-1.4138 3.1521-3.1521 3.1521h-3.152V8.31573c0-1.74259 1.4137-3.15203 3.152-3.15203 1.7426.0 3.1521 1.41371 3.1521 3.15203V15.1024z" fill="#000"/><rect x="28.0938" y="18.2578" width="2.08854" height="5.1637" fill="#000"/><rect x="35.3359" y="18.2578" width="2.08854" height="5.1637" fill="#000"/><rect x="28.0938" y="29.1562" width="2.08854" height="5.1637" fill="#000"/><rect x="35.3359" y="29.1562" width="2.08854" height="5.1637" fill="#000"/><path d="M56.5938 11.7031h4.5144v9.3536C61.4243 20.715 61.7916 20.3648 62.2187 20.0018 62.6416 19.6387 63.1455 19.3056 63.7264 19.0023 64.3073 18.6991 64.9778 18.4514 65.7295 18.2549 66.4812 18.0627 67.3568 17.9645 68.352 17.9645 69.3471 17.9645 70.3423 18.0841 71.2648 18.3275 72.1873 18.571 72.9989 18.981 73.7036 19.5661 74.4083 20.147 74.9635 20.9371 75.3778 21.9323 75.7921 22.9274 75.9971 24.166 75.9971 25.6438V38.1623H71.4826V27.3138C71.4826 25.3747 71.1666 23.9696 70.5345 23.1111 69.9023 22.2483 68.8218 21.8212 67.297 21.8212 66.4001 21.8212 65.6227 21.9067 64.9693 22.0775 64.3158 22.2483 63.752 22.4704 63.2779 22.7523 62.8039 23.0299 62.3981 23.3417 62.0607 23.6791 61.719 24.0208 61.4072 24.3582 61.1125 24.6999V38.1665H56.598V11.7031H56.5938z" fill="#000"/><path d="M89.6427 38.8243C88.3102 38.8243 86.9861 38.6492 85.6749 38.2989 84.3637 37.9487 83.1935 37.3593 82.1641 36.535 81.1305 35.7107 80.2934 34.6301 79.6528 33.2975 79.0121 31.965 78.6875 30.3249 78.6875 28.3816 78.6875 27.0704 78.8925 25.7933 79.3068 24.5419 79.7211 23.2947 80.3703 22.1843 81.2544 21.2105 82.1385 20.2409 83.2746 19.4593 84.6584 18.8614 86.0422 18.2677 87.7037 17.9688 89.6427 17.9688 91.5818 17.9688 93.2475 18.2677 94.6313 18.8614 96.0151 19.4551 97.147 20.2367 98.0353 21.2105 98.9194 22.18 99.5686 23.2905 99.9829 24.5419 100.393 25.7933 100.602 27.0704 100.602 28.3816 100.602 30.3249 100.282 31.9607 99.637 33.2975 98.9921 34.6344 98.1549 35.7107 97.1256 36.535 96.092 37.3593 94.9218 37.9487 93.6148 38.2989 92.3079 38.6492 90.9796 38.8243 89.647 38.8243H89.6427zm0-3.8568C91.68 34.9675 93.2518 34.3781 94.358 33.2036c1.1019-1.1788 1.6571-2.8061 1.6571-4.8946.0-1.1404-.1708-2.1228-.508200000000002-2.9471C95.1652 24.5376 94.7082 23.8628 94.1231 23.3417 93.5422 22.8207 92.8631 22.4363 92.0858 22.1928 91.3084 21.9494 90.4969 21.8298 89.647 21.8298 88.7971 21.8298 87.9557 21.9494 87.1911 22.1928 86.4266 22.4363 85.7518 22.8164 85.1709 23.3417 84.5901 23.8628 84.1288 24.5376 83.7871 25.3619 83.4454 26.1862 83.2789 27.1686 83.2789 28.309 83.2789 30.3975 83.8298 32.029 84.936 33.2036 86.038 34.3824 87.6097 34.9675 89.647 34.9675H89.6427z" fill="#000"/><path d="M101.188 19.2744h3.493V12.9062h4.515v6.3682H116.004v3.8567H109.196v8.9522C109.196 32.4249 109.238 32.7709 109.324 33.1211 109.409 33.4756 109.567 33.7831 109.798 34.0479 110.029 34.317 110.349 34.5348 110.763 34.7014S111.711 34.9577 112.365 34.9577C112.8 34.9577 113.407 34.9107 114.184 34.8125 114.962 34.7142 115.641 34.5818 116.222 34.411v3.9678C115.662 38.4514 115.171 38.5197 114.748 38.5795 114.325 38.6393 113.924 38.6863 113.548 38.7247 113.172 38.7632 112.809 38.7845 112.455 38.7973 112.104 38.8101 111.733 38.8144 111.344 38.8144 110.276 38.8144 109.324 38.7162 108.487 38.524 107.65 38.3275 106.953 38.0157 106.394 37.5801 105.834 37.1444 105.412 36.5593 105.121 35.8332 104.831 35.1072 104.685 34.206 104.685 33.1425V23.1311H101.192V19.2744H101.188z" fill="#000"/><path d="M137.904 35.0017C137.904 35.6552 137.93 36.283 137.977 36.8767S138.122 37.9017 138.267 38.1708H133.646C133.573 37.8291 133.513 37.5045 133.462 37.1885 133.415 36.8724 133.39 36.5478 133.39 36.2061 132.903 36.4752 132.369 36.7656 131.788 37.0817 131.207 37.3977 130.554 37.6839 129.84 37.9359 129.127 38.1879 128.354 38.4014 127.53 38.5723 126.705 38.7431 125.804 38.8285 124.835 38.8285 124.181 38.8285 123.421 38.7517 122.558 38.5936 121.695 38.4356 120.871 38.1366 120.081 37.701 119.291 37.2653 118.625 36.6631 118.078 35.8986 117.531 35.1341 117.258 34.1475 117.258 32.9302c0-1.0934.256-2.0373.76400000000001-2.8402C118.531 29.287 119.205 28.6037 120.043 28.0313 120.88 27.4633 121.849 27.002 122.955 26.6475 124.057 26.2973 125.206 26.0069 126.394 25.7762 127.581 25.5456 128.781 25.3833 129.998 25.2851 131.211 25.1868 132.339 25.1014 133.385 25.0288V24.1532C133.385 23.4015 133.009 22.7908 132.258 22.3167 131.506 21.8426 130.195 21.6077 128.328 21.6077 127.286 21.6077 126.436 21.6931 125.779 21.8639 125.125 22.0348 124.608 22.2441 124.232 22.5003 123.857 22.7566 123.583 23.0342 123.412 23.3375 123.242 23.6407 123.122 23.9269 123.049 24.1917h-4.694C118.62 22.8591 119.12 21.7828 119.846 20.9713 120.576 20.1598 121.409 19.5277 122.357 19.0792 123.301 18.6308 124.296 18.3318 125.343 18.1866 126.385 18.0414 127.367 17.9688 128.29 17.9688 130.643 17.9688 132.471 18.225 133.77 18.7333c1.298.508199999999999 2.25 1.1361 2.857 1.875C137.233 21.3471 137.597 22.1373 137.716 22.9744 137.836 23.8115 137.9 24.5718 137.9 25.2509V35.006L137.904 35.0017zM133.39 28.3047C132.078 28.3517 130.848 28.4627 129.695 28.6336 128.542 28.8044 127.431 29.0222 126.364 29.287 124.954 29.6287 123.921 30.0515 123.25 30.5598 122.584 31.0681 122.238 31.7514 122.212 32.5971 122.187 33.447 122.447 34.1133 122.994 34.6002S124.369 35.3263 125.488 35.3263C126.338 35.3263 127.145 35.2409 127.91 35.07 128.674 34.8992 129.388 34.6899 130.058 34.4336 130.724 34.1774 131.339 33.9083 131.895 33.6136 132.45 33.3189 132.95 33.0456 133.39 32.7765V28.3004 28.3047z" fill="#000"/><path d="M142.273 11.7031H146.788V38.1623H142.273V11.7031z" fill="#000"/><path d="M170.478 35.0017C170.478 35.6552 170.504 36.283 170.551 36.8767 170.598 37.4704 170.696 37.9017 170.841 38.1708H166.22C166.147 37.8291 166.087 37.5045 166.036 37.1885 165.989 36.8724 165.963 36.5478 165.963 36.2061 165.477 36.4752 164.943 36.7656 164.362 37.0817 163.781 37.3977 163.132 37.6839 162.414 37.9359 161.697 38.1879 160.928 38.4014 160.104 38.5723 159.279 38.7431 158.382 38.8285 157.413 38.8285 156.759 38.8285 155.999 38.7517 155.136 38.5936 154.274 38.4356 153.449 38.1366 152.659 37.701 151.869 37.2653 151.203 36.6631 150.656 35.8986 150.109 35.1341 149.836 34.1475 149.836 32.9302c0-1.0934.256-2.0373.763999999999982-2.8402C151.109 29.2913 151.784 28.6037 152.621 28.0313 153.458 27.4633 154.427 27.002 155.534 26.6475 156.635 26.2973 157.784 26.0069 158.972 25.7762 160.159 25.5456 161.359 25.3833 162.576 25.2851 163.789 25.1868 164.917 25.1014 165.959 25.0288V24.1532C165.959 23.4015 165.583 22.7908 164.832 22.3167 164.08 21.8426 162.769 21.6077 160.898 21.6077 159.856 21.6077 159.006 21.6931 158.352 21.8639 157.699 22.0348 157.182 22.2441 156.806 22.5003 156.43 22.7566 156.157 23.0342 155.986 23.3375 155.815 23.6407 155.696 23.9269 155.623 24.1917H150.929C151.194 22.8591 151.694 21.7828 152.42 20.9713 153.15 20.1598 153.983 19.5277 154.931 19.0792 155.875 18.6308 156.87 18.3318 157.917 18.1866 158.959 18.0414 159.941 17.9688 160.864 17.9688 163.217 17.9688 165.045 18.225 166.344 18.7333c1.298.508199999999999 2.25 1.1361 2.857 1.875C169.807 21.3471 170.17 22.1373 170.294 22.9744 170.414 23.8115 170.478 24.5718 170.478 25.2509V35.006 35.0017zM165.963 28.3047C164.652 28.3517 163.422 28.4627 162.269 28.6336 161.116 28.8044 160.005 29.0222 158.938 29.287 157.528 29.6287 156.495 30.0515 155.824 30.5598 155.153 31.0681 154.812 31.7514 154.786 32.5971 154.76 33.447 155.021 34.1133 155.568 34.6002 156.114 35.0871 156.943 35.3263 158.062 35.3263 158.912 35.3263 159.719 35.2409 160.484 35.07 161.248 34.8992 161.966 34.6899 162.632 34.4336 163.298 34.1774 163.913 33.9083 164.469 33.6136 165.028 33.3232 165.523 33.0456 165.959 32.7765V28.3004L165.963 28.3047z" fill="#000"/></svg>