<svg width="260" height="88" viewBox="0 0 260 88" fill="none" xmlns="http://www.w3.org/2000/svg"><g clip-path="url(#clip0_172_116)"><path d="M14.4458 29.8476C14.4316 25.5182 14.5354 21.1889 14.7713 16.869c.118-2.1811 5.5858-2.1387 5.5292.0C20.1873 21.1465 20.1401 25.4193 20.159 29.6968 26.4053 30.606 31.9581 34.9495 33.4442 41.3657 33.6801 42.3785 30.7126 42.5717 30.472 41.3657 30.137 39.6509 29.4152 38.0398 28.3868 36.6265c-1.9532-2.6805-4.949-4.6213-8.2184-5.2243C20.2156 36.6171 20.3713 41.8274 20.6591 47.0376 20.928 51.9464 21.3196 56.8504 21.7913 61.7403 23.6596 61.8675 25.5278 61.8345 27.3347 61.665c5.1046-.4758 10.1054-2.0022 14.5826-4.4754C41.8182 56.7138 41.7238 56.2474 41.6342 55.7952 39.7754 46.4016 39.3319 36.2073 40.8086 26.7242c1.3351-8.5926 4.7413-18.07567 11.6387-23.82296C55.5657.305533 60.5996-1.10774 64.3124 1.09225 67.596 3.03314 68.4122 7.30121 68.4216 10.8155 68.431 15.9174 67.2657 20.9534 65.7655 25.8009c-1.3917 4.4989-3.0146 8.946-5.0763 13.1858C57.4811 45.5772 53.07 51.513 47.1917 55.7952 47.3521 56.7279 47.5219 57.656 47.7107 58.5793 48.5363 62.6448 49.4987 66.9977 51.3056 70.757 52.9049 74.0782 55.9809 77.8375 60.0995 75.7458 60.6986 75.4396 62.4867 75.9719 61.4818 76.5325 59.8589 77.4417 58.0425 77.7056 56.2026 77.4559 47.338 76.2358 44.045 66.7245 42.2617 58.8007c-6.1992 3.1328-13.3607 4.7062-20.3383 4.2775C22.4046 67.5112 23.1689 72.0572 22.8575 76.4807 22.7821 77.5454 20.6544 77.4041 20.2392 76.6833 19.0362 74.6058 18.5219 72.3587 18.069 70.0127 17.5831 67.5065 17.1632 64.9956 16.8047 62.4658L16.7952 62.3857C9.11002 60.7134.816217 55.5172.0519409 46.9905-.693464 38.6711 6.64736 31.4257 14.4458 29.8476zM2.97695 44.1498c-.75956 4.1268.54254 8.0321 3.39206 11.0754 2.75045 2.9301 6.35009 4.7438 10.21389 5.7096C15.9696 56.4076 15.4979 51.8616 15.1487 47.3014 14.7525 42.1194 14.5166 36.928 14.4552 31.7319 12.6908 32.2407 11.016 33.0887 9.54877 34.1533c-3.25524 2.3555-5.84057 6.0158-6.57654 9.9965H2.97695zM46.8709 53.8684C47.4701 53.3879 48.0598 52.8933 48.6306 52.3704c5.9208-5.4364 9.761-12.6912 12.587-20.1203 1.538-4.0419 2.8967-8.2017 3.8072-12.432C65.8646 15.9127 66.4826 11.6399 65.7749 7.66395 65.1522 4.17318 62.1328-.203244 58.0992 2.30766 54.9902 4.24384 52.8955 7.76288 51.2773 10.9427 47.7814 17.8301 46.4652 25.6454 46.0028 33.2865 45.5877 40.1173 45.8566 47.0706 46.8709 53.8684z" fill="currentcolor"/><path d="M82.1549 55.8995C81.4331 60.2241 78.8148 68.2185 72.8704 65.7735 69.969 64.5817 69.0726 61.3217 68.7565 58.4669 68.4357 59.6965 68.0347 60.9025 67.5063 62.0614 66.0768 65.1941 62.6329 66.9984 59.3446 65.4485c-3.7836-1.7854-4.0195-6.4869-3.175-10.0672C57.0518 51.6503 59.2455 48.0935 62.9914 46.718 65.0106 45.9783 67.6384 45.9736 69.5302 47.0666 71.0305 45.9878 74.5594 46.3411 74.4933 48.0935 74.3046 52.8421 73.545 57.6378 74.2763 62.3817 74.3659 62.9753 74.5405 64.6665 75.2906 64.9114 76.2389 65.2224 77.4089 63.2297 77.7816 62.589 78.9893 60.5209 79.7819 58.2455 80.2065 55.8995 80.348 55.1222 82.2776 55.1929 82.1597 55.8995H82.1549zM68.5961 48.8284C66.3835 46.8169 63.4821 50.0815 62.2507 52.2721c-1.5757 2.8077-2.3635 6.4162-1.7267 9.6102C60.6797 62.6691 61.0477 63.5312 61.6374 64.0965 62.4961 64.9209 63.5151 64.2189 64.1945 63.5076 65.3928 62.2404 65.9259 60.3372 66.3929 58.7025 67.3129 55.4567 67.7847 52.1025 68.5961 48.8284z" fill="currentcolor"/><path d="M111.169 56.7003C109.886 56.7333 108.376 56.6061 106.857 56.2858 106.767 56.8417 106.664 57.3975 106.536 57.9487 105.63 61.8446 103.092 66.6403 98.4076 66.5273 95.2797 66.4519 93.369 64.3131 92.232 61.6703 91.9112 62.7209 91.4678 63.7101 90.8686 64.5675 89.3731 66.7063 86.6604 67.4129 84.2071 66.6921 81.0793 65.7688 80.0414 62.3958 79.6356 59.4845 79.1167 55.7723 79.362 51.9612 79.7017 48.2443 79.9093 45.983 85.547 46.1338 85.3394 48.2443 85.0752 50.9106 84.8865 53.5958 84.8676 56.2764 84.8535 58.5894 84.7686 61.1945 85.3913 63.4369 85.6649 64.4168 86.1744 65.9761 87.4482 65.3307 88.4956 64.7984 89.1608 63.7384 89.6184 62.702 90.4299 60.8742 90.7931 58.8202 90.9394 56.7993 90.878 56.3517 90.8309 55.9136 90.7931 55.4896 90.6327 53.5535 95.6288 53.4969 95.8647 55.4896 96.1289 57.732 96.3601 59.9744 97.2093 62.0896 97.5537 62.9517 97.9783 63.8044 98.6718 64.4498 99.6342 65.3542 100.818 64.3838 101.583 63.6206 103.588 61.6232 104.512 58.7025 104.923 55.777 101.79 54.7406 99.0256 52.7762 98.6435 49.5633 98.3934 47.4528 99.2521 44.9608 100.799 43.491 102.054 42.2944 104.144 41.9505 105.451 43.2837 106.928 44.7818 107.05 47.5376 107.159 49.4974 107.263 51.3393 107.234 53.186 107.027 55.0185 108.456 55.386 109.914 55.5603 111.16 55.6168 112.33 55.6686 112.334 56.6862 111.16 56.7145L111.169 56.7003zm-6.878-12.0599C102.701 41.5642 100.686 47.3869 100.663 48.6777 100.615 51.5843 102.606 53.3415 105.093 54.3637 105.187 53.3038 105.225 52.2674 105.229 51.2922 105.244 49.1629 105.291 46.586 104.291 44.6404z" fill="currentcolor"/><path d="M134.583 55.8995C133.861 60.2241 131.243 68.2185 125.299 65.7735 122.397 64.5817 121.506 61.3217 121.185 58.4669 120.859 59.6965 120.463 60.9025 119.935 62.0614 118.505 65.1941 115.061 66.9984 111.773 65.4485 107.989 63.6631 107.753 58.9616 108.598 55.3813 109.48 51.6503 111.674 48.0935 115.42 46.718 117.439 45.9783 120.067 45.9736 121.959 47.0666 123.459 45.9878 126.988 46.3411 126.922 48.0935 126.733 52.8421 125.973 57.6378 126.705 62.3817 126.794 62.9753 126.974 64.6665 127.719 64.9114 128.667 65.2224 129.837 63.2297 130.21 62.589c1.208-2.0681 2-4.3435 2.42499999999998-6.6895C132.776 55.1222 134.706 55.1929 134.588 55.8995H134.583zM121.02 48.8284C118.807 46.8169 115.906 50.0815 114.674 52.2721 113.099 55.0798 112.311 58.6883 112.948 61.8823 113.103 62.6691 113.471 63.5312 114.056 64.0965 114.915 64.9209 115.939 64.2189 116.613 63.5076 117.812 62.2404 118.345 60.3372 118.812 58.7025c.920000000000002-3.2458 1.392-6.6 2.203-9.8741H121.02z" fill="currentcolor"/><path d="M131.248 41.4747C130.776 40.4336 130.243 38.6011 130.998 37.5506 131.545 36.7921 132.805 36.8628 133.427 37.4705 133.725 37.7625 133.942 38.1536 134.102 38.587 134.38 38.0169 134.715 37.4658 135.182 36.9476 136.022 36.0242 137.301 35.2846 138.579 35.7227 141.726 36.8015 136.919 42.8409 136.065 44.273 135.801 44.7158 134.871 44.7629 134.324 44.5557 134.272 44.551 134.215 44.5368 134.168 44.5227 132.725 44.094 131.842 42.7796 131.243 41.4653L131.248 41.4747zM145.42 55.8995C144.698 60.2241 142.08 68.2185 136.135 65.7735 133.177 64.5534 132.3 61.1851 131.998 58.2926 131.649 54.9385 131.772 51.4477 132.14 48.0983 132.38 45.8983 137.839 45.9265 137.754 48.0983 137.565 52.8468 136.805 57.6425 137.537 62.3864 137.626 62.98 137.801 64.6712 138.551 64.9162 139.499 65.2271 140.669 63.2344 141.042 62.5937c1.208-2.0681 2-4.3435 2.42500000000001-6.6895C143.608 55.1269 145.538 55.1976 145.42 55.9042V55.8995z" fill="currentcolor"/><path d="M142.066 41.4747C141.594 40.4336 141.061 38.6011 141.816 37.5506 142.363 36.7921 143.623 36.8628 144.245 37.4705 144.543 37.7625 144.76 38.1536 144.925 38.587 145.203 38.0169 145.538 37.4658 146.005 36.9476 146.845 36.0242 148.123 35.2846 149.402 35.7227 152.549 36.8015 147.741 42.8409 146.887 44.273 146.623 44.7158 145.694 44.7629 145.146 44.5557 145.095 44.551 145.043 44.5368 144.991 44.5227 143.547 44.094 142.665 42.7796 142.066 41.4653V41.4747zm14.177 14.4248C155.521 60.2241 152.902 68.2185 146.958 65.7735 144 64.5534 143.122 61.1851 142.821 58.2926 142.471 54.9385 142.594 51.4477 142.962 48.0983 143.203 45.8983 148.661 45.9265 148.576 48.0983 148.387 52.8468 147.628 57.6425 148.359 62.3864 148.449 62.98 148.623 64.6712 149.373 64.9162 150.322 65.2271 151.492 63.2344 151.864 62.5937 153.072 60.5256 153.865 58.2502 154.289 55.9042 154.431 55.1269 156.36 55.1976 156.243 55.9042V55.8995z" fill="currentcolor"/><path d="M180.86 43.9951 173.033 65.896C172.981 66.0421 172.844 66.1363 172.693 66.1363h-6.619C165.923 66.1363 165.786 66.0421 165.735 65.896L157.908 43.9951C157.823 43.7595 157.997 43.5146 158.248 43.5146H164.555C164.706 43.5146 164.843 43.6088 164.895 43.7548L169.386 56.3141 173.877 43.7548C173.929 43.6088 174.066 43.5146 174.217 43.5146H180.525C180.775 43.5146 180.949 43.7642 180.864 43.9951H180.86z" fill="currentcolor"/><path d="M189.663 36.745v4.6167C189.663 41.5595 189.503 41.7244 189.3 41.7244H182.969C182.77 41.7244 182.605 41.5642 182.605 41.3617V36.745C182.605 36.5471 182.766 36.3823 182.969 36.3823H189.3C189.498 36.3823 189.663 36.5424 189.663 36.745zm0 7.1276V65.7735C189.663 65.9714 189.503 66.1363 189.3 66.1363H182.969C182.77 66.1363 182.605 65.9761 182.605 65.7735V43.8726C182.605 43.6747 182.766 43.5098 182.969 43.5098H189.3C189.498 43.5098 189.663 43.67 189.663 43.8726z" fill="currentcolor"/><path d="M200.566 36.745V65.7735C200.566 65.9714 200.405 66.1363 200.202 66.1363H193.508C193.31 66.1363 193.145 65.9761 193.145 65.7735V36.745C193.145 36.5471 193.305 36.3823 193.508 36.3823H200.202C200.401 36.3823 200.566 36.5424 200.566 36.745z" fill="currentcolor"/><path d="M211.45 36.745V65.7735C211.45 65.9714 211.289 66.1363 211.086 66.1363H204.392C204.194 66.1363 204.029 65.9761 204.029 65.7735V36.745C204.029 36.5471 204.189 36.3823 204.392 36.3823H211.086C211.284 36.3823 211.45 36.5424 211.45 36.745z" fill="currentcolor"/><path d="M239.388 43.8585V65.7594C239.388 65.9573 239.228 66.1222 239.025 66.1222H232.694C232.495 66.1222 232.33 65.962 232.33 65.7594V65.4249C232.33 65.2836 232.179 65.2035 232.061 65.2695 230.245 66.2918 228.198 66.8335 226.094 66.8335 219.46 66.8335 214.063 61.5196 214.063 54.9856S219.46 43.1377 226.094 43.1377C228.198 43.1377 230.25 43.6747 232.061 44.7017 232.184 44.7724 232.33 44.6876 232.33 44.5463V43.8585C232.33 43.6606 232.491 43.4957 232.694 43.4957H239.025C239.223 43.4957 239.388 43.6559 239.388 43.8585zm-7.053 11.1318c0-2.9961-2.113-5.4317-5.15600000000001-5.4317S221.664 51.9942 221.664 54.9903C221.664 57.9864 224.14 60.422 227.179 60.422 230.217 60.422 232.335 57.9864 232.335 54.9903z" fill="currentcolor"/><path d="M259.991 59.3856C259.934 60.177 259.731 61.0203 259.382 61.8918 258.028 64.7748 254.895 66.4896 250.999 66.4896 250.461 66.4896 249.909 66.4566 249.352 66.3907 247.597 66.1834 246.064 65.7217 244.795 65.0057 243.488 64.12 242.492 62.8858 241.818 61.3312 241.728 61.1192 241.851 60.8789 242.073 60.8318l6.208-1.3332C248.427 59.4657 248.574 59.5269 248.659 59.6494 249.093 60.2995 249.833 60.6151 250.234 60.6622 251.183 60.7753 251.678 60.5209 251.923 60.2901 252.173 60.0545 252.286 59.7342 252.239 59.3856 252.14 58.5989 251.668 58.2361 249.267 57.0961L249.234 57.082C248.758 56.8558 248.163 56.5685 247.498 56.2434 247.04 56.0456 246.592 55.8336 246.177 55.6074L246.144 55.5886C246.083 55.5509 246.026 55.5179 245.965 55.4802 243.809 54.246 242.554 52.7432 242.228 51.0143 241.766 48.5458 243.356 46.4495 243.681 46.0537 244.163 45.512 244.719 45.0362 245.347 44.6358 247.229 43.4345 249.659 42.9398 252.187 43.2366 253.702 43.4156 255.079 43.8208 256.273 44.4473 256.839 44.7441 257.367 45.0974 257.844 45.4931 258.17 45.7805 259.184 46.7839 259.495 48.3197 259.533 48.5128 259.406 48.706 259.212 48.7437L253.103 49.9779C252.928 50.0109 252.763 49.9167 252.697 49.7518 252.522 49.3278 252.15 48.8991 251.343 48.8049 250.805 48.7437 250.324 48.9038 250.013 49.243 249.777 49.5021 249.682 49.8272 249.758 50.0863 249.876 50.4914 250.296 51.1368 252.57 52.0648 253.022 52.2391 253.438 52.3993 253.853 52.5736 254.386 52.7621 254.9 52.9646 255.377 53.1813 256.83 53.8597 260.179 55.8194 259.981 59.3903L259.991 59.3856z" fill="currentcolor"/><path d="M80.834 87.4107V82.4454H84.1553V83.1568H81.7115v1.3755H84.009V85.2437H81.7115V86.6993h2.4438V87.4107H80.834z" fill="currentcolor"/><path d="M90.8781 84.8904 92.7699 87.4154H91.7178L90.3686 85.5593 89.0193 87.4154H87.9672L89.859 84.8857 88.0286 82.4501H89.0806L90.3638 84.2261l1.2974-1.776H92.7086L90.8734 84.8904H90.8781z" fill="currentcolor"/><path d="M96.8838 82.4501H99.0398C99.5729 82.4501 99.9928 82.5773 100.29 82.8364 100.587 83.0955 100.738 83.4441 100.738 83.8917 100.738 84.3392 100.587 84.6925 100.285 84.9516 99.9834 85.2107 99.5682 85.3426 99.0398 85.3426H97.7849v2.0728h-.9011V82.4501zM98.936 84.6454C99.2474 84.6454 99.4833 84.5794 99.6437 84.4523 99.8041 84.3251 99.8843 84.1413 99.8843 83.8964 99.8843 83.6514 99.8041 83.463 99.6484 83.3358 99.4927 83.2086 99.2521 83.1426 98.936 83.1426H97.7849V84.6407H98.936V84.6454z" fill="currentcolor"/><path d="M105.163 87.4107V82.4454h3.322V83.1568h-2.444v1.3755h2.297V85.2437h-2.297V86.6993h2.444V87.4107h-3.322z" fill="currentcolor"/><path d="M117.043 87.4107H116.094L115.458 85.7572C115.401 85.6017 115.316 85.4981 115.198 85.4368 115.08 85.3756 114.929 85.3473 114.745 85.3473H113.844v2.0634H112.952V82.4454h2.128C115.642 82.4454 116.071 82.5679 116.363 82.8129 116.656 83.0578 116.802 83.4111 116.802 83.8728 116.802 84.2026 116.713 84.4805 116.538 84.7114 116.363 84.9422 116.113 85.1071 115.793 85.2013 116.085 85.2625 116.297 85.4651 116.429 85.8137L117.038 87.4013 117.043 87.4107zM114.953 84.6501C115.292 84.6501 115.542 84.5889 115.708 84.4617 115.873 84.3345 115.953 84.146 115.953 83.8917 115.953 83.6373 115.873 83.4535 115.712 83.3311 115.552 83.2086 115.297 83.1473 114.953 83.1473H113.83V84.6548h1.123V84.6501z" fill="currentcolor"/><path d="M121.482 87.4107V82.4454H122.383v4.9653H121.482z" fill="currentcolor"/><path d="M127.092 87.4107V82.4454H130.413V83.1568H127.969v1.3755h2.298V85.2437h-2.298V86.6993H130.413V87.4107H127.092z" fill="currentcolor"/><path d="M138.221 82.4501H139.065v4.9653H138.395L135.716 83.934V87.4154H134.876V82.4501H135.546L138.221 85.922V82.4501z" fill="currentcolor"/><path d="M144.75 87.161C144.387 86.9537 144.104 86.657 143.91 86.2707 143.717 85.8844 143.618 85.4368 143.618 84.9233 143.618 84.4099 143.717 83.967 143.91 83.5807 144.104 83.1992 144.387 82.9024 144.75 82.6951S145.543 82.3842 146.033 82.3842C146.368 82.3842 146.684 82.436 146.982 82.5396 147.279 82.6433 147.524 82.7893 147.718 82.9777L147.425 83.6326C147.203 83.4535 146.977 83.3216 146.76 83.2368 146.538 83.1568 146.302 83.1144 146.052 83.1144 145.571 83.1144 145.203 83.2698 144.939 83.5807 144.675 83.8917 144.542 84.3392 144.542 84.9186 144.542 85.4981 144.675 85.955 144.934 86.2659 145.194 86.5816 145.566 86.737 146.052 86.737 146.302 86.737 146.538 86.6946 146.76 86.6146 146.982 86.5345 147.203 86.4026 147.425 86.2188L147.718 86.8737C147.524 87.0621 147.279 87.2034 146.982 87.3118 146.684 87.4154 146.373 87.4672 146.033 87.4672 145.543 87.4672 145.118 87.3636 144.75 87.1516V87.161z" fill="currentcolor"/><path d="M152.19 87.4107V82.4454h3.321V83.1568H153.067v1.3755h2.298V85.2437h-2.298V86.6993H155.511V87.4107H152.19z" fill="currentcolor"/><path d="M169.32 87.4107 168.825 86.2471H166.395L165.89 87.4107H164.984l2.251-4.9653H167.966l2.255 4.9653H169.32zM166.692 85.5499H168.523L167.608 83.4253 166.692 85.5499z" fill="currentcolor"/><path d="M174.387 87.4107V82.4454H175.288V86.6711H177.614V87.4107h-3.227z" fill="currentcolor"/><path d="M182.61 87.1657C182.256 86.9584 181.978 86.6617 181.784 86.2801 181.591 85.8985 181.497 85.4462 181.497 84.9233 181.497 84.4004 181.591 83.9576 181.784 83.576 181.973 83.1944 182.247 82.8976 182.605 82.6951 182.959 82.4925 183.384 82.3889 183.865 82.3889 184.346 82.3889 184.771 82.4925 185.125 82.6951 185.478 82.8976 185.752 83.1944 185.941 83.576 186.129 83.9576 186.224 84.4098 186.224 84.9233 186.224 85.4368 186.129 85.8938 185.936 86.2801 185.747 86.6617 185.474 86.9584 185.12 87.1657 184.766 87.373 184.346 87.4766 183.865 87.4766 183.384 87.4766 182.969 87.373 182.61 87.1657zM184.936 86.2848C185.191 85.9692 185.318 85.5169 185.318 84.9233 185.318 84.3298 185.191 83.8869 184.936 83.576 184.681 83.2604 184.323 83.1049 183.86 83.1049 183.398 83.1049 183.039 83.2604 182.785 83.5713 182.53 83.8822 182.402 84.3345 182.402 84.9233 182.402 85.5122 182.53 85.9692 182.785 86.2848 183.039 86.6004 183.398 86.7606 183.86 86.7606 184.323 86.7606 184.681 86.6004 184.936 86.2848z" fill="currentcolor"/><path d="M194.211 82.4501H195.103v4.9653H194.211V85.2625h-2.548v2.1529H190.776V82.4501H191.663v2.0775h2.548V82.4501z" fill="currentcolor"/><path d="M203.609 87.4107 203.113 86.2471h-2.429L200.179 87.4107H199.273l2.25-4.9653H202.255l2.255 4.9653H203.609zM200.981 85.5499H202.811L201.896 83.4253 200.981 85.5499z" fill="currentcolor"/><path d="M214.219 87.4107V82.4454H215.12V86.6711H217.446V87.4107h-3.227z" fill="currentcolor"/><path d="M222.06 86.949C221.706 86.6004 221.531 86.0822 221.531 85.4039V82.4454H222.418V85.451C222.418 85.8797 222.517 86.2047 222.72 86.4214 222.919 86.6428 223.22 86.7512 223.612 86.7512S224.291 86.6381 224.494 86.4167C224.697 86.1953 224.796 85.8702 224.796 85.4463V82.4407H225.683v2.9584C225.683 86.0728 225.504 86.5863 225.155 86.9396 224.801 87.2929 224.287 87.4672 223.612 87.4672 222.937 87.4672 222.409 87.2929 222.06 86.9396V86.949z" fill="currentcolor"/><path d="M232.618 84.8904 234.51 87.4154H233.458L232.109 85.5593 230.759 87.4154H229.707L231.599 84.8857 229.769 82.4501H230.821L232.104 84.2261l1.297-1.776h1.048L232.613 84.8904H232.618z" fill="currentcolor"/><path d="M239.077 86.949C238.723 86.6004 238.548 86.0822 238.548 85.4039V82.4454H239.435V85.451C239.435 85.8797 239.534 86.2047 239.737 86.4214 239.935 86.6428 240.237 86.7512 240.629 86.7512 241.02 86.7512 241.308 86.6381 241.511 86.4167 241.714 86.1953 241.813 85.8702 241.813 85.4463V82.4407H242.7v2.9584C242.7 86.0728 242.521 86.5863 242.172 86.9396 241.818 87.2929 241.304 87.4672 240.629 87.4672 239.954 87.4672 239.426 87.2929 239.077 86.9396V86.949z" fill="currentcolor"/><path d="M251.466 87.4107H250.517L249.88 85.7572C249.824 85.6017 249.739 85.4981 249.621 85.4368 249.503 85.3756 249.352 85.3473 249.168 85.3473H248.267v2.0634H247.375V82.4454H249.503C250.064 82.4454 250.494 82.5679 250.786 82.8129 251.079 83.0578 251.225 83.4111 251.225 83.8728 251.225 84.2026 251.135 84.4805 250.961 84.7114 250.786 84.9422 250.536 85.1071 250.215 85.2013 250.508 85.2625 250.72 85.4651 250.852 85.8137L251.461 87.4013 251.466 87.4107zM249.376 84.6501C249.715 84.6501 249.965 84.5889 250.13 84.4617 250.296 84.3345 250.376 84.146 250.376 83.8917 250.376 83.6373 250.296 83.4535 250.135 83.3311 249.975 83.2086 249.72 83.1473 249.376 83.1473H248.253V84.6548H249.376V84.6501z" fill="currentcolor"/><path d="M259.967 82.4501 257.948 85.4462v1.9645H257.047V85.4462L255.028 82.4501H256.056L257.495 84.6972 258.939 82.4501H259.967z" fill="currentcolor"/><path d="M260 74.1307H74.2621V74.3898H260V74.1307z" fill="url(#paint0_linear_172_116)"/></g><defs><linearGradient id="paint0_linear_172_116" x1="74.2621" y1="74.2579" x2="260" y2="74.2579" gradientUnits="userSpaceOnUse"><stop stop-color="currentcolor" stop-opacity="0"/><stop offset="1" stop-color="currentcolor"/></linearGradient><clipPath id="clip0_172_116"><rect width="260" height="87.4766" fill="currentcolor"/></clipPath></defs></svg>