<svg xmlns="http://www.w3.org/2000/svg" width="220" height="55" viewBox="0 0 220 55" fill="none"><path d="M56.6126 23.7214C56.6126 24.2751 56.8789 24.357 57.3915 24.3776v.2255H53.8649v-.2255C54.3775 24.357 54.6236 24.2751 54.6236 23.7214V17.3859C54.6236 14.9665 54.0906 14.1053 53.25 14.1053c-1.1074.0-2.1325 1.5378-2.2761 3.3625v6.2536C50.9739 24.1931 51.1175 24.357 51.7532 24.3776v.2255H48.2266v-.2255C48.862 24.357 49.0057 24.1931 49.0057 23.7214v-8.796C49.0057 14.454 48.862 14.2694 48.2266 14.249V14.0438L50.6459 13.5928H50.9739v1.8453C51.302 14.3719 52.3477 13.3672 53.8444 13.3672c1.2916.0 2.3374.738099999999999 2.6655 2.5425C57.002 14.1669 58.1296 13.3672 59.4829 13.3672c1.5581.0 2.768 1.0662 2.768 3.7931v6.5611C62.2509 24.2751 62.5174 24.357 63.0302 24.3776v.2255H59.5033v-.2255C60.016 24.357 60.2622 24.2751 60.2622 23.7214V17.1603c0-2.4193-.533299999999997-3.055-1.292-3.055-1.1891.0-2.2141 1.5378-2.3576 3.3625v6.2536z" fill="#000"/><path d="M71.4954 21.9386C70.9622 23.6814 69.609 24.8296 67.8253 24.8296 65.8979 24.8296 63.2734 23.4559 63.2734 19.3141c0-3.383 1.7635-5.7203 4.7775-5.7203C70.2447 13.5938 71.8234 14.8445 71.8234 16.8948c0 2.5424-2.3579 4.7569-5.82300000000001 5.536C66.636 23.5174 67.6203 23.8865 68.5634 23.8865 69.8756 23.8865 70.9622 23.1689 71.2697 21.8361L71.4954 21.9386zM65.8364 22.1027C68.4199 21.5696 70.0806 19.7653 70.0806 17.0588c0-1.7633-.717600000000005-2.973-2.1118-2.973C66.3285 14.0858 65.2623 15.7055 65.2623 18.9041c0 1.4968.2256 2.4603.574100000000001 3.1986z" fill="#000"/><path d="M72.1484 24.3807C72.6609 24.3601 72.9276 24.278 72.9276 23.7245v-8.796C72.9276 14.3748 72.6609 14.2724 72.1484 14.2518v-.205L74.5677 13.5958C74.6498 13.5752 74.8139 13.5958 74.8958 13.5958V23.7245C74.8958 24.278 75.1625 24.3601 75.675 24.3807V24.6061H72.1484V24.3807zM73.9527 9.1875C74.7319 9.1875 75.2239 9.67957 75.2239 10.3972 75.2239 11.1559 74.7319 11.648 73.9527 11.648 73.153 11.648 72.6609 11.1559 72.6609 10.3972 72.6609 9.67957 73.153 9.1875 73.9527 9.1875z" fill="#000"/><path d="M75.8438 24.3816C76.4793 24.3612 76.6229 24.1971 76.6229 23.7254V10.7263C76.6229 10.2753 76.4793 10.0907 75.8438 10.0702V9.86526L78.2631 9.41406H78.5913V23.7254C78.5913 24.1971 78.7347 24.3612 79.3703 24.3816v.2255H75.8438v-.2255z" fill="#000"/><path d="M79.5312 24.3816C80.1668 24.3612 80.3104 24.1971 80.3104 23.7254V10.7263C80.3104 10.2753 80.1668 10.0907 79.5312 10.0702V9.86526l2.4194-.4512H82.2788V23.7254C82.2788 24.1971 82.4221 24.3612 83.0578 24.3816v.2255H79.5312v-.2255z" fill="#000"/><path d="M91.5656 21.9386C91.0326 23.6814 89.6793 24.8296 87.8956 24.8296 85.9682 24.8296 83.3438 23.4559 83.3438 19.3141c0-3.383 1.7633-5.7203 4.7773-5.7203 2.194.0 3.7726 1.2507 3.7726 3.301C91.8937 19.4372 89.5357 21.6517 86.0707 22.4308 86.7062 23.5174 87.6906 23.8865 88.6336 23.8865 89.9459 23.8865 91.0326 23.1689 91.34 21.8361L91.5656 21.9386zM85.9067 22.1027C88.4901 21.5696 90.1509 19.7653 90.1509 17.0588 90.1509 15.2955 89.4333 14.0858 88.0391 14.0858 86.3987 14.0858 85.3326 15.7055 85.3326 18.9041c0 1.4968.2256 2.4603.574100000000001 3.1986z" fill="#000"/><path d="M98.5611 14.9277C98.5611 14.3741 98.315 14.2717 97.8025 14.2511v-.205L100.222 13.5951C100.304 13.5745 100.468 13.5951 100.55 13.5951V23.7238C100.55 23.8263 100.571 23.9902 100.734 23.9902 101.021 23.9902 101.452 23.5186 101.637 23.3136V23.5186C101.165 24.1133 100.488 24.79 99.6887 24.79 99.0532 24.79 98.5611 24.3594 98.5611 23.7238V22.7601C98.233 23.8263 97.2077 24.8308 95.7111 24.8308c-1.5585.0-2.7679-1.066-2.7679-3.793V14.9277C92.9432 14.3741 92.6766 14.2717 92.1641 14.2511v-.205L94.5832 13.5951C94.6654 13.5745 94.8296 13.5951 94.9114 13.5951v7.2171c0 2.4195.5535 3.2805 1.3942 3.2805 1.1074.0 2.1324-1.5376 2.2555-3.3625V14.9277z" fill="#000"/><path d="M101.734 24.3815C102.226 24.3611 102.513 24.279 102.513 23.7253V14.8679C102.513 14.3348 102.226 14.2323 101.734 14.2118v-.2256C102.493 13.8633 103.518 13.5556 104.256 13.5556H104.482v2.1118C104.81 14.4579 105.671 13.4531 107.27 13.4531c1.06700000000001.0 2.051.4717 2.42 1.3533l-1.108 1.4351C108.501 15.4626 107.947 13.8837 106.819 13.8837c-1.476.0-2.337 2.6655-2.337 3.5882v6.2534C104.482 24.279 104.769 24.3611 105.261 24.3815v.2255h-3.527v-.2255z" fill="#000"/><path d="M117.316 21.9386C116.782 23.6814 115.429 24.8296 113.646 24.8296 111.718 24.8296 109.094 23.4559 109.094 19.3141c0-3.383 1.76300000000001-5.7203 4.777-5.7203C116.065 13.5938 117.644 14.8445 117.644 16.8948c0 2.5424-2.358 4.7569-5.82300000000001 5.536C112.456 23.5174 113.441 23.8865 114.384 23.8865c1.312.0 2.398-.717600000000001 2.706-2.0504L117.316 21.9386zM111.657 22.1027C114.24 21.5696 115.901 19.7653 115.901 17.0588 115.901 15.2955 115.183 14.0858 113.789 14.0858c-1.64.0-2.706 1.6197-2.706 4.8183C111.083 20.4009 111.308 21.3644 111.657 22.1027z" fill="#000"/><path d="M123.591 16.9758C123.734 16.6477 123.775 16.2787 123.775 15.9916 123.775 14.659 122.729 14.0438 121.848 14.0438 120.905 14.0438 119.92 14.741 119.92 15.6227c0 2.1732 5.803 2.6448 5.803 6.1918.0 2.2145-2.255 3.0346-3.95699999999999 3.0346-1.94800000000001.0-3.711-1.0866-3.711-2.4399C118.219 21.6097 118.772 20.8099 119.777 20.4614 119.613 20.7895 119.592 21.138 119.592 21.4251 119.592 23.3319 120.577 24.1931 122.114 24.1931c1.354.0 2.133-.717700000000001 2.133-1.5583.0-2.3784-6.008-2.6859-6.008-6.274.0-1.948 1.743-2.9936 3.85499999999999-2.9936C123.98 13.3672 125.292 14.2284 125.292 15.4791 125.149 16.0533 124.513 17.0168 123.796 17.0168 123.734 17.0168 123.652 17.0168 123.591 16.9758z" fill="#000"/><rect x="40.4297" y="19.1484" width="3.74487" height="34.9522" fill="#000"/><path d="M59.0237 28.7344c3.7276.0 6.7571 1.2483 9.0875 3.7449 2.1969 2.3967 3.2955 5.4426 3.2955 9.1374.0 3.695-1.0986 6.7409-3.2955 9.1375-2.3304 2.4967-5.3599 3.745-9.0875 3.745-3.7287.0-6.758-1.2483-9.0878-3.745-2.1969-2.3966-3.2953-5.4425-3.2953-9.1375.0-3.6948 1.0984-6.7407 3.2953-9.1374C52.2657 29.9827 55.295 28.7344 59.0237 28.7344zm0 22.3694c2.6961.0 4.8261-.9315 6.3911-2.7961 1.498-1.764 2.247-3.9946 2.247-6.691.0-2.6962-.748999999999995-4.9259-2.247-6.6908-1.565-1.8638-3.695-2.7961-6.3911-2.7961-2.6964.0-4.8271.932299999999998-6.3914 2.7961-1.4977 1.7649-2.247 3.9946-2.247 6.6908.0 2.6964.749299999999998 4.927 2.247 6.691 1.5643 1.8646 3.695 2.7961 6.3914 2.7961z" fill="#000"/><path d="M85.8867 51.1038C87.4846 51.1038 88.8991 50.6544 90.1309 49.7556 91.362 48.8569 92.2607 47.6921 92.8273 46.2604H96.8717C96.1057 48.7243 94.7073 50.7045 92.6775 52.2022 90.5469 53.7338 88.0165 54.4992 85.0878 54.4992c-3.6622.0-6.6408-1.2483-8.9378-3.745C73.9195 48.3248 72.8047 45.2791 72.8047 41.6167 72.8047 37.9554 73.9195 34.9095 76.15 32.4793c2.297-2.4966 5.2756-3.7449 8.9378-3.7449C88.0165 28.7344 90.5469 29.5005 92.6775 31.0314 94.7073 32.5292 96.1057 34.5101 96.8717 36.9732H92.8273C92.2607 35.5424 91.362 34.3767 90.1309 33.478 88.8991 32.5792 87.4846 32.1298 85.8867 32.1298 84.2889 32.1298 82.9322 32.3795 81.8173 32.8788 80.7015 33.3781 79.7617 34.0607 78.9962 34.9259 77.3649 36.7236 76.5495 38.954 76.5495 41.6167 76.5495 44.2805 77.3649 46.51 78.9962 48.3077c1.6641 1.8646 3.961 2.7961 6.8905 2.7961z" fill="#000"/><path d="M118.99 50.1052C116.993 53.0348 114.013 54.4992 110.052 54.4992 106.457 54.4992 103.528 53.2509 101.264 50.7542 99.0671 48.2913 97.9688 45.2454 97.9688 41.6167 97.9688 37.989 99.0671 34.9431 101.264 32.4793 103.528 29.9827 106.54 28.7344 110.302 28.7344c3.761.0 6.657 1.4815 8.68799999999999 4.444V29.1339h3.745V54.0997H118.99V50.1052zM110.551 51.1038c2.697.0 4.827-.9315 6.392-2.7961 1.498-1.764 2.247-3.9946 2.247-6.691.0-2.6962-.748999999999995-4.9259-2.247-6.6908C115.378 33.0621 113.248 32.1298 110.551 32.1298c-2.663.0-4.827.932299999999998-6.491 2.7961C102.495 36.6908 101.713 38.9205 101.713 41.6167 101.713 44.3131 102.495 46.5437 104.06 48.3077c1.664 1.8646 3.828 2.7961 6.491 2.7961z" fill="#000"/><path d="M129.929 54.0957V32.2645h-5.093V28.969h5.093V20.0312h3.745V28.969H139.416v3.2955H133.674V54.0957h-3.745z" fill="#000"/><path d="M145.404 24.7761H141.359V19.8828H145.404v4.8933zM141.509 28.9702h3.745V54.0969h-3.745V28.9702z" fill="#000"/><path d="M160.102 28.7344C163.829 28.7344 166.859 29.9827 169.189 32.4793 171.386 34.876 172.485 37.9219 172.485 41.6167 172.485 45.3117 171.386 48.3576 169.189 50.7542 166.859 53.2509 163.829 54.4992 160.102 54.4992 156.373 54.4992 153.344 53.2509 151.014 50.7542 148.817 48.3576 147.719 45.3117 147.719 41.6167 147.719 37.9219 148.817 34.876 151.014 32.4793 153.344 29.9827 156.373 28.7344 160.102 28.7344zm0 22.3694C162.798 51.1038 164.928 50.1723 166.493 48.3077 167.991 46.5437 168.74 44.3131 168.74 41.6167 168.74 38.9205 167.991 36.6908 166.493 34.9259 164.928 33.0621 162.798 32.1298 160.102 32.1298c-2.697.0-4.827.932299999999998-6.392 2.7961C152.213 36.6908 151.463 38.9205 151.463 41.6167c0 2.6964.75 4.927 2.24700000000001 6.691C155.275 50.1723 157.405 51.1038 160.102 51.1038z" fill="#000"/><path d="M178.69 29.1337v3.8947C179.589 31.8301 180.687 30.8149 181.985 29.9826 183.284 29.1508 184.765 28.7344 186.429 28.7344 188.094 28.7344 189.525 28.9675 190.724 29.4334 191.922 29.9 192.97 30.5989 193.869 31.5305 195.933 33.5614 196.965 36.2412 196.965 39.5694V54.0995H193.22V39.6694c0-2.297-.649000000000001-4.1272-1.947-5.4926C189.975 32.8123 188.293 32.1296 186.23 32.1296 184.133 32.1296 182.352 32.8287 180.887 34.2267c-1.465 1.4316-2.197 3.2628-2.197 5.4925V54.0995h-3.745V29.1337h3.745z" fill="#000"/><path d="M215.404 35.8246C215.071 33.2281 212.982 31.9299 209.138 31.9299c-3.845.0-5.768 1.1983-5.768 3.5951C203.37 36.5237 203.778 37.2813 204.594 37.7969 205.409 38.3134 206.433 38.7377 207.665 39.0701 208.896 39.4032 210.236 39.7114 211.684 39.9938 213.132 40.2771 214.472 40.6765 215.703 41.1922 216.935 41.7086 217.958 42.4156 218.774 43.3143 219.59 44.2132 219.998 45.4449 219.998 47.0093 219.998 49.4395 219.082 51.2955 217.252 52.5766 215.42 53.8585 212.94 54.499 209.812 54.499 206.483 54.499 203.836 53.6673 201.872 52.0023 200.075 50.5379 199.109 48.6242 198.977 46.2603H202.871C203.104 48.5571 204.402 50.1051 206.766 50.904 207.631 51.1708 208.488 51.3034 209.337 51.3034 210.186 51.3034 210.976 51.2535 211.709 51.1537 212.441 51.0538 213.157 50.8712 213.856 50.6044 215.454 49.9725 216.253 48.8902 216.253 47.3588 216.253 46.3274 215.845 45.5362 215.03 44.987 214.214 44.4378 213.19 43.9884 211.959 43.6389 210.727 43.2894 209.387 42.9734 207.939 42.6901 206.491 42.4077 205.151 42.0162 203.92 41.5168 202.688 41.0173 201.664 40.3355 200.849 39.4695 200.033 38.6043 199.626 37.406 199.626 35.8746c0-2.2634.823000000000008-4.0195 2.471-5.2679C203.745 29.3584 206.183 28.7344 209.412 28.7344 212.474 28.7344 214.888 29.4668 216.652 30.9313 218.117 32.1632 218.966 33.7945 219.199 35.8246H215.404z" fill="#000"/><path d="M24.5856 21.0312H20.6375C20.1522 25.6719 19.3906 29.9664 18.3516 34.1225h8.4503c-.9694-4.1561-1.7315-8.5195-2.2163-13.0913z" fill="#000"/><path d="M22.6371 36.6836l2.3548 7.134h5.0566c-1.1079-2.7013-2.078-5.4718-2.8396-8.4504H27.001 18.2044 17.9965C17.2343 38.3458 16.2648 41.1163 15.1562 43.8176h5.0567l2.4242-7.134z" fill="#000"/><path d="M31.0935 46.2422l-4.156 3.4632c1.039 1.1086 1.6627 2.5634 1.6627 4.2256h6.6493C33.7257 51.5067 32.3404 48.9439 31.0935 46.2422z" fill="#000"/><path d="M9.96875 53.931H16.6185c0-1.6622.623200000000001-3.117 1.6622-4.2256l-4.156-3.4632C12.9474 48.9439 11.5619 51.5067 9.96875 53.931z" fill="#000"/><path d="M15.0938 45.2031l4.1559 3.4633C19.3186 48.6664 19.3186 48.7359 19.3881 48.8054 20.3576 48.1818 21.4661 47.7664 22.713 47.7664c1.2464.0 2.3549.346299999999999 3.3244 1.039C26.0374 48.7359 26.1069 48.7359 26.1763 48.6664l4.156-3.4633H15.0938z" fill="#000"/><path d="M24.5804 19.6451 25.2036 16.3897l-1.8701-1.8701V10.2941C23.3335 9.94785 23.0566 9.60156 22.6408 9.60156 22.2945 9.60156 21.9482 9.87833 21.9482 10.2941v4.2255l-1.8701 1.8701L20.7013 19.6451h3.8791z" fill="#000"/><path d="M45.0012 3.62049c3.2898.0 6.4433 1.35084 8.8797 3.80279 1.1465 1.15357 2.0857 2.50989 2.7905 3.99472h3.9225C59.6843 8.95692 58.2776 6.71142 56.449 4.8714 53.3277 1.72979 49.2621.0 45.0012.0 39.221.0 33.936 3.23832 30.8945 8.36735 27.853 3.23768 22.568.0 16.7878.0 12.2779.0 8.0489 1.91709 4.87977 5.39871 1.76341 8.8224.030407 13.3726 316694e-9 18.2106-.0260726 22.3685 1.59687 26.8268 4.82506 31.4619c2.09296 3.0046 4.87285 6.1039 8.27804 9.2365l1.3343-3.7128C8.94936 31.7167 3.5788 24.8599 3.6208 18.2332 3.64526 14.2903 5.04325 10.5976 7.55748 7.8357 10.0315 5.11776 13.3094 3.62049 16.7878 3.62049c5.535.0 10.5119 3.89274 12.3845 9.68681C29.4136 14.0546 30.1094 14.5613 30.8945 14.5613 31.6802 14.5613 32.376 14.0546 32.6174 13.3073c1.8725-5.79407 6.8493-9.68681 12.3838-9.68681z" fill="#000"/></svg>