<svg width="314" height="88" viewBox="0 0 314 88" fill="none" xmlns="http://www.w3.org/2000/svg"><g clip-path="url(#clip0_233_717)"><path d="M78.1181 87.6233H75.3762L71.8247 83.5366H69.6051V87.6233H67.3071V75.4023C69.2395 75.4023 71.1719 75.4154 73.1174 75.4154 75.9898 75.4284 77.5174 77.3477 77.5174 79.4629 77.5174 81.1342 76.7471 82.8315 74.4361 83.3016L78.1311 87.4667V87.6233H78.1181zM69.6051 77.5567V81.4606h3.4992c1.4623.0 2.0891-.979299999999995 2.0891-1.9585C75.1934 78.5228 74.5536 77.5436 73.1043 77.5436H69.6051V77.5567z" fill="#000"/><path d="M92.7024 87.6233H83.5627V75.4153H92.7024V77.648H85.8477V80.4552h6.6066v2.1413H85.8477v2.755H92.7024v2.2718z" fill="#000"/><path d="M106.921 78.3662C106.503 77.6742 105.354 77.0083 104.023 77.0083c-1.711.0-2.533.718099999999993-2.533 1.619.0 1.05759999999999 1.253 1.3579 2.715 1.5407C106.751 80.4813 109.128 81.1472 109.128 84.0589 109.128 86.7746 106.725 87.9498 103.996 87.9498 101.503 87.9498 99.5833 87.1794 98.6824 84.9467l1.9196-.9923C101.137 85.2993 102.56 85.8868 104.036 85.8868 105.511 85.8868 106.843 85.3776 106.843 84.0589 106.843 82.9099 105.642 82.4398 104.023 82.257 101.529 81.9567 99.2308 81.3039 99.2308 78.562c0-2.5069 2.4812-3.5384 4.72619999999999-3.5514C105.864 75.0106 107.822 75.5459 108.749 77.4391L106.921 78.3792V78.3662z" fill="#000"/><path d="M124.548 87.6233h-9.14V75.4153h9.14V77.648h-6.855V80.4552H124.3v2.1413h-6.607v2.755h6.855v2.2718z" fill="#000"/><path d="M141.691 87.6233H138.949L135.398 83.5366h-2.22V87.6233H130.88V75.4023C132.813 75.4023 134.745 75.4154 136.69 75.4154 139.563 75.4284 141.09 77.3477 141.09 79.4629 141.09 81.1342 140.32 82.8315 138.009 83.3016L141.704 87.4667V87.6233H141.691zM133.178 77.5567V81.4606h3.499C138.14 81.4606 138.766 80.4813 138.766 79.5021 138.766 78.5228 138.127 77.5436 136.677 77.5436h-3.499V77.5567z" fill="#000"/><path d="M153.808 87.6756H151.418L146.339 75.4153H148.924L152.606 84.9206 156.301 75.4153H158.887L153.808 87.6756z" fill="#000"/><path d="M173.497 85.3254H167.112L166.068 87.6233h-2.494L169.045 75.4153H171.552l5.47 12.208H174.515L173.484 85.3254H173.497zM170.311 77.9875 168.039 83.1841H172.57L170.298 77.9875H170.311z" fill="#000"/><path d="M183.773 77.5044H179.908V75.4153h10.041v2.0891H186.084V87.6233h-2.298V77.5044H183.773z" fill="#000"/><path d="M195.902 87.6233V75.4153H198.187v12.208H195.902z" fill="#000"/><path d="M217.25 81.5912C217.211 84.7509 215.279 87.8975 210.983 87.8975S204.703 84.8162 204.703 81.6042C204.703 78.3923 206.766 75.1673 210.983 75.1673 215.2 75.1673 217.276 78.3923 217.25 81.5912zM206.975 81.6434C207.027 83.6541 208.11 85.7954 210.983 85.7954 213.855 85.7954 214.939 83.628 214.978 81.6303 215.017 79.5674 213.868 77.2694 210.983 77.2694 208.097 77.2694 206.922 79.5935 206.975 81.6434z" fill="#000"/><path d="M231.495 75.4023h2.298v12.221H232.357l-6.411-8.2257v8.2257h-2.298V75.4154H225.515L231.495 82.9882V75.4023z" fill="#000"/><path d="M248.181 78.3662C247.763 77.6742 246.614 77.0083 245.283 77.0083 243.572 77.0083 242.75 77.7264 242.75 78.6273 242.75 79.6849 244.003 79.9852 245.465 80.168 248.011 80.4813 250.388 81.1472 250.388 84.0589 250.388 86.7746 247.985 87.9498 245.256 87.9498 242.763 87.9498 240.843 87.1794 239.942 84.9467L241.862 83.9544C242.397 85.2993 243.82 85.8868 245.296 85.8868 246.771 85.8868 248.103 85.3776 248.103 84.0589 248.103 82.9099 246.902 82.4398 245.283 82.257 242.789 81.9567 240.491 81.3039 240.491 78.562c0-2.5069 2.48099999999999-3.5384 4.726-3.5514C247.124 75.0106 249.082 75.5459 250.009 77.4391L248.181 78.3792V78.3662z" fill="#000"/><path d="M130.332 16.6603v6.8809C131.99 21.4391 134.105 19.7547 136.651 18.4882 139.197 17.2217 142.109 16.582 145.386 16.582 151.64 16.582 156.523 18.436 160.049 22.1572 163.574 25.8783 165.337 31.0488 165.337 37.6946V55.2167C165.337 61.732 160.062 67.0068 153.546 67.0068V39.0133c0-3.8125-.939999999999998-6.8155-2.833-9.0352C148.82 27.7715 145.987 26.6617 142.2 26.6617 138.871 26.6617 136.077 27.8107 133.818 30.1087 131.546 32.4067 130.423 35.71 130.423 40.0318V55.3995c0 6.4108-5.196 11.6073-11.607 11.6073V28.2024c0-6.3716 5.157-11.529 11.529-11.529L130.332 16.6603z" fill="#000"/><path d="M183.747.0V66.9938C177.284 66.9938 172.048 61.7581 172.048 55.295V11.6988C172.048 5.23573 177.284.0 183.747.0z" fill="#000"/><path d="M190.406 5.82328C190.406 4.08674 190.928 2.67662 191.985 1.60597 193.043.535324 194.453.0 196.242.0 198.031.0 199.493.535324 200.524 1.60597 201.556 2.67662 202.065 4.08674 202.065 5.82328 202.065 7.55982 201.556 8.95688 200.524 10.0014 199.493 11.059 198.07 11.5813 196.242 11.5813S192.925 11.059 191.92 10.0014C190.915 8.94382 190.406 7.55982 190.406 5.82328z" fill="#000"/><path d="M190.406 16.6603h11.698V55.282C202.104 61.745 196.869 66.9807 190.406 66.9807V16.6603z" fill="#000"/><path d="M220.279 16.6603v6.8809C221.937 21.4391 224.053 19.7547 226.599 18.4882 229.145 17.2217 232.056 16.582 235.334 16.582 241.588 16.582 246.471 18.436 249.996 22.1572 253.521 25.8783 255.284 31.0488 255.284 37.6946V55.2167C255.284 61.732 250.009 67.0068 243.494 67.0068V39.0133c0-3.8125-.939999999999998-6.8155-2.833-9.0352C238.767 27.7715 235.934 26.6617 232.148 26.6617 228.818 26.6617 226.024 27.8107 223.765 30.1087 221.493 32.4067 220.371 35.71 220.371 40.0318V55.3995c0 6.4108-5.197 11.6073-11.608 11.6073V28.2024c0-6.3716 5.15799999999999-11.529 11.529-11.529L220.279 16.6603z" fill="#000"/><path d="M288.539 67.0721C284.583 67.0721 280.966 66.4193 277.702 65.1267 274.438 63.8341 271.644 62.0453 269.32 59.7734 266.996 57.5016 265.194 54.838 263.901 51.7697 262.609 48.7014 261.969 45.4242 261.969 41.938c0-3.4861.679000000000031-6.8547 2.024-9.9492C265.338 28.8944 267.192 26.2047 269.542 23.9459 271.892 21.6741 274.66 19.8853 277.846 18.5535S284.453 16.5689 288.122 16.5689C291.79 16.5689 295.303 17.1695 298.489 18.3838 301.674 19.5981 304.403 21.2824 306.701 23.4628 308.999 25.6433 310.788 28.2024 312.081 31.1663 313.373 34.1171 314.013 37.3551 314.013 40.8413v4.1128H273.067C273.864 48.5055 275.613 51.378 278.316 53.5585 281.006 55.7389 284.426 56.8226 288.552 56.8226 291.817 56.8226 294.663 56.0262 297.065 54.4202 297.183 54.3419 297.3 54.2635 297.418 54.1721 301.74 51.1169 307.445 50.8296 312.028 53.4671 309.848 57.5408 306.793 60.818 302.863 63.3118 298.932 65.8056 294.154 67.0591 288.539 67.0591V67.0721zM288.108 26.8053C284.609 26.8053 281.58 27.5757 279.034 29.1294 276.475 30.6701 274.686 32.707 273.655 35.24H302.21C301.348 32.4719 299.69 30.3829 297.222 28.9466 294.754 27.5235 291.712 26.8053 288.108 26.8053z" fill="#000"/><path d="M61.9016 41.8728c0-2.3111.3003-4.5307.9009-6.6851C63.4031 33.0464 64.2518 31.0357 65.3355 29.1817 66.4192 27.3146 67.7249 25.6041 69.2786 24.0765c1.5407-1.5276 3.2381-2.8464 5.0921-3.9562C76.2378 19.0236 78.2355 18.1749 80.3768 17.5743s4.3871-.9009 6.6981-.9009C89.3859 16.6734 91.6055 16.9737 93.7599 17.5743c2.1413.6006 4.152 1.4493 6.0061 2.546C101.62 21.2171 103.344 22.5358 104.871 24.0765 106.412 25.6172 107.744 27.3146 108.827 29.1817 109.924 31.0488 110.773 33.0464 111.373 35.1877 111.974 37.329 112.274 39.5617 112.274 41.8728 112.274 44.1838 111.974 46.4034 111.373 48.5708 110.773 50.7382 109.924 52.7359 108.827 54.5769 107.731 56.4309 106.412 58.1414 104.871 59.669 103.33 61.2097 101.633 62.5154 99.766 63.6121 97.8989 64.7089 95.9012 65.5445 93.7599 66.1451S89.3859 67.046 87.0749 67.046C84.7639 67.046 82.5442 66.7457 80.3768 66.1451S76.2117 64.6958 74.3707 63.6121C72.5297 62.5284 70.8193 61.2227 69.2786 59.669c-1.5407-1.5537-2.8463-3.2381-3.9431-5.0921C64.2518 52.7228 63.4031 50.7121 62.8025 48.5708 62.1889 46.4295 61.9016 44.1838 61.9016 41.8728zM71.5897 41.8728C71.5897 44.001 71.9944 46.0117 72.817 47.8919 73.6396 49.7851 74.7363 51.4302 76.1334 52.8142 77.5305 54.1983 79.1625 55.3081 81.0558 56.1306 82.949 56.9532 84.9466 57.358 87.0749 57.358 89.2031 57.358 91.253 56.9532 93.1332 56.1306 95.0133 55.3081 96.6585 54.2113 98.0555 52.8142 99.4526 51.4172 100.575 49.7851 101.385 47.8919 102.208 45.9987 102.612 44.001 102.612 41.8728 102.612 39.7445 102.208 37.7338 101.385 35.8797 100.562 34.0126 99.4657 32.3675 98.0555 30.9704 96.6454 29.5734 95.0133 28.4505 93.1332 27.641 91.253 26.8184 89.2423 26.4136 87.0749 26.4136S82.9359 26.8184 81.0558 27.641C79.1625 28.4635 77.5174 29.5603 76.1334 30.9704S73.6396 34.0126 72.817 35.8797C71.9944 37.7468 71.5897 39.7445 71.5897 41.8728z" fill="#000"/><path d="M28.5548 44.8497c1.6009.0 2.8986-1.2978 2.8986-2.8986C31.4534 40.3503 30.1557 39.0525 28.5548 39.0525 26.954 39.0525 25.6562 40.3503 25.6562 41.9511 25.6562 43.5519 26.954 44.8497 28.5548 44.8497z" fill="#000"/><path d="M38.3344 44.8497C39.9352 44.8497 41.233 43.5519 41.233 41.9511 41.233 40.3503 39.9352 39.0525 38.3344 39.0525 36.7335 39.0525 35.4358 40.3503 35.4358 41.9511c0 1.60080000000001 1.2977 2.8986 2.8986 2.8986z" fill="#000"/><path d="M48.1137 44.8497c1.6008.0 2.8985-1.2978 2.8985-2.8986C51.0122 40.3503 49.7145 39.0525 48.1137 39.0525 46.5128 39.0525 45.2151 40.3503 45.2151 41.9511c0 1.60080000000001 1.2977 2.8986 2.8986 2.8986z" fill="#000"/><path d="M28.5548 54.6291c1.6009.0 2.8986-1.2977 2.8986-2.8986.0-1.6008-1.2977-2.8985-2.8986-2.8985-1.6008.0-2.8986 1.2977-2.8986 2.8985.0 1.6009 1.2978 2.8986 2.8986 2.8986z" fill="#000"/><path d="M38.3344 54.6291C39.9352 54.6291 41.233 53.3314 41.233 51.7305 41.233 50.1297 39.9352 48.832 38.3344 48.832c-1.6009.0-2.8986 1.2977-2.8986 2.8985.0 1.6009 1.2977 2.8986 2.8986 2.8986z" fill="#000"/><path d="M48.1137 54.6291c1.6008.0 2.8985-1.2977 2.8985-2.8986.0-1.6008-1.2977-2.8985-2.8985-2.8985-1.6009.0-2.8986 1.2977-2.8986 2.8985.0 1.6009 1.2977 2.8986 2.8986 2.8986z" fill="#000"/><path d="M28.5548 64.4086C30.1557 64.4086 31.4534 63.1108 31.4534 61.51S30.1557 58.6114 28.5548 58.6114C26.954 58.6114 25.6562 59.9092 25.6562 61.51S26.954 64.4086 28.5548 64.4086z" fill="#000"/><path d="M38.3344 64.4086C39.9352 64.4086 41.233 63.1108 41.233 61.51S39.9352 58.6114 38.3344 58.6114C36.7335 58.6114 35.4358 59.9092 35.4358 61.51S36.7335 64.4086 38.3344 64.4086z" fill="#000"/><path d="M48.1137 64.4086C49.7145 64.4086 51.0122 63.1108 51.0122 61.51S49.7145 58.6114 48.1137 58.6114C46.5128 58.6114 45.2151 59.9092 45.2151 61.51S46.5128 64.4086 48.1137 64.4086z" fill="#000"/><path d="M13.2003 86.631C6.04524 86.631.0 80.5075.0 73.2479V41.1546c0-3.7211 1.60597-7.2725 4.4001-9.7533L33.869 4.66123c2.533-2.18047 5.5883-3.35557 8.8002-3.35557 3.212.0 6.2542 1.16205 8.8263 3.38168L63.1421 15.2502 58.7942 20.042 47.0693 9.4008c-1.0315-1.03147-2.6505-1.6582-4.4001-1.6582-1.5798.0-3.1466.52227-4.6743 1.54069L37.9166 9.33552 8.43461 36.0886c-1.4754 1.0315-2.2588 2.9378-2.2588 5.51V73.6919C6.17581 77.5436 9.38775 80.8078 13.2003 80.8078H57.8019V86.631H13.2003z" fill="#000"/></g><defs><clipPath id="clip0_233_717"><rect width="314" height="87.9367" fill="#000"/></clipPath></defs></svg>