<svg id="Layer_1" xmlns="http://www.w3.org/2000/svg" xmlns:xlink="http://www.w3.org/1999/xlink" viewBox="0 0 226 62" style="enable-background:new 0 0 226 62"><style>.st0{stroke:#000}</style><path d="M48.8 22.4V7.8h4.9c1.1.0 2.1.2 2.8.6.7.4 1.3 1 1.6 1.7.4.7.5 1.5.5 2.3.0.9-.2 1.6-.5 2.3-.3.7-.9 1.3-1.6 1.7s-1.7.6-2.8.6h-3.5v-1.6h3.5c.8.0 1.4-.1 1.9-.4s.8-.6 1-1.1.3-1 .3-1.6-.1-1.1-.3-1.6c-.2-.5-.6-.8-1-1.1-.5-.3-1.1-.4-1.9-.4h-3.1v13H48.8zM65.5 22.6c-1.1.0-2-.2-2.7-.7-.8-.5-1.3-1.1-1.8-2-.4-.8-.6-1.8-.6-2.9.0-1.1.2-2.1.6-3s1-1.5 1.7-2 1.6-.7 2.6-.7c.6.0 1.1.1 1.7.3.6.2 1.1.5 1.5.9.5.4.8 1 1.1 1.7s.4 1.6.4 2.6v.7h-8.4V16h6.7c0-.6-.1-1.2-.4-1.6-.2-.5-.6-.9-1-1.1-.4-.3-1-.4-1.6-.4-.7.0-1.2.2-1.7.5s-.9.8-1.1 1.3c-.3.5-.4 1.1-.4 1.7v1c0 .8.1 1.5.4 2.1s.7 1 1.2 1.3 1.1.4 1.8.4c.4.0.8-.1 1.2-.2.4-.1.7-.3.9-.6.3-.3.5-.6.6-1l1.6.5c-.2.5-.5 1-.9 1.4s-.9.7-1.5 1C66.9 22.5 66.2 22.6 65.5 22.6zM77.1 11.5v1.4h-5.7v-1.4h5.7zm-4-2.7h1.7v10.4c0 .5.1.8.2 1.1.1.2.3.4.5.5s.5.1.7.1.3.0.5.0c.1.0.2.0.3-.1l.3 1.5c-.1.0-.3.1-.5.1s-.5.1-.8.1c-.5.0-.9-.1-1.4-.3-.4-.2-.8-.5-1.1-.9s-.4-.9-.4-1.6V8.8z"/><path d="M81.5 22.9V6.5h11v1.6h-9v5.7H92v1.6h-8.5v7.5h-2zm13.4.0v-8.3c0-.5.0-1.1.0-1.6s-.1-1.1-.2-1.6h1.9l.3 2.8-.3-.1c.2-1 .7-1.8 1.5-2.3.8-.5 1.7-.8 2.6-.8.2.0.4.0.6.0.2.0.4.1.5.1l-.1 1.7c-.4-.1-.8-.2-1.3-.2-.9.0-1.6.2-2.1.5-.5.4-.9.8-1.2 1.3-.2.5-.4 1.1-.4 1.7v6.6H94.9zM104 22.9V11.3h2v11.5h-2zM103.8 6.5h2.5v2.1h-2.5V6.5zm16.5 15c-.6.5-1.3.8-2.1 1.1-.9.3-1.7.4-2.6.4-1.3.0-2.4-.2-3.4-.7-.9-.5-1.7-1.2-2.2-2.1-.5-.9-.8-2-.8-3.2s.3-2.2.8-3.1 1.2-1.6 2.1-2.1c.9-.5 1.9-.8 3.1-.8 1.1.0 2.1.2 2.9.7.8.5 1.4 1.1 1.8 1.9.4.8.6 1.8.6 3V17H111v-1.2h8.4l-.7.8c0-1.3-.3-2.4-.9-3.1-.6-.7-1.5-1.1-2.7-1.1s-2.2.4-2.9 1.2c-.7.8-1 1.9-1 3.3.0 1.5.4 2.6 1.1 3.4.7.8 1.8 1.1 3.2 1.1.7.0 1.4-.1 2.1-.3.7-.2 1.3-.6 1.9-1L120.3 21.5zm3.3 1.4v-8.3c0-.5.0-1.1.0-1.6s-.1-1.1-.2-1.6h1.9l.2 2.4-.3.2c.4-.9.9-1.6 1.8-2.1.8-.5 1.8-.7 2.8-.7 3 0 4.5 1.5 4.5 4.6V23h-2v-7.1c0-1.1-.2-1.9-.7-2.3-.5-.5-1.2-.7-2.2-.7-1.2.0-2.1.3-2.8 1s-1.1 1.5-1.1 2.7v6.6H123.6zm25.8.0h-2v-3.1l.3.3c-.3 1-.8 1.7-1.6 2.2-.8.5-1.8.8-2.9.8s-2.1-.2-2.9-.7-1.5-1.2-2-2.1c-.5-.9-.7-2-.7-3.2s.2-2.3.7-3.1c.5-.9 1.1-1.6 2-2.1.8-.5 1.8-.7 2.9-.7 1.2.0 2.1.3 2.9.8s1.3 1.3 1.6 2.2l-.3.2V6h2V22.9zM143.6 21.5c1.2.0 2.2-.4 2.8-1.2.7-.8 1-1.9 1-3.3.0-1.4-.3-2.5-1-3.3s-1.6-1.2-2.9-1.2c-1.2.0-2.2.4-2.9 1.1-.7.8-1 1.8-1 3.2.0 1.4.3 2.5 1 3.3C141.4 21.1 142.3 21.5 143.6 21.5zM153.4 22.9V6h2v16.9h-2zM158.7 28.1l-.4-1.4c.8-.2 1.4-.4 1.9-.6.5-.2 1-.5 1.3-.9.4-.4.7-.8.9-1.4l.8-1.7.5-.6 4.6-10.2h2l-5.9 12.6c-.5.9-1 1.7-1.5 2.2-.6.6-1.2 1-1.9 1.3C160.4 27.7 159.6 27.9 158.7 28.1zM163.4 23.5l-5.7-12.1h2.1l4.6 10.2-1 1.9z"/><path d="M49.7 38.9H49l2.8-6.4h.6l2.8 6.4h-.8L52 33.1h.3L49.7 38.9zM50.1 37.3l.3-.6h3.3l.3.6H50.1zM59.7 39c-.6.0-1.1-.1-1.6-.4-.4-.3-.8-.6-1-1.1s-.4-1.1-.4-1.7.1-1.3.4-1.7c.2-.5.6-.9 1-1.1.4-.3 1-.4 1.6-.4.4.0.8.1 1.2.2.4.1.7.3 1 .6l-.3.6c-.3-.3-.6-.5-.9-.6s-.6-.2-1-.2c-.7.0-1.2.2-1.6.7s-.6 1.1-.6 1.9.2 1.5.6 1.9c.4.5.9.7 1.6.7.4.0.7-.1 1-.2s.6-.3.9-.6l.3.6c-.3.3-.6.5-1 .6C60.5 38.9 60.1 39 59.7 39zM66.8 39c-.6.0-1.1-.1-1.6-.4-.4-.3-.8-.6-1-1.1s-.4-1.1-.4-1.7.1-1.3.4-1.7c.2-.5.6-.9 1-1.1.4-.3 1-.4 1.6-.4.4.0.8.1 1.2.2s.7.3 1 .6l-.3.6c-.3-.3-.6-.5-.9-.6-.3-.1-.6-.2-1-.2-.7.0-1.2.2-1.6.7-.4.5-.6 1.1-.6 1.9s.2 1.5.6 1.9c.4.5.9.7 1.6.7.4.0.7-.1 1-.2s.6-.3.9-.6l.3.6c-.3.3-.6.5-1 .6C67.7 38.9 67.3 39 66.8 39zM74 39c-.6.0-1.1-.1-1.5-.4s-.8-.6-1-1.1-.4-1.1-.4-1.7c0-.7.1-1.3.3-1.7.2-.5.6-.9 1-1.1.4-.3 1-.4 1.6-.4s1.1.1 1.5.4.8.6 1 1.1.3 1.1.3 1.7c0 .7-.1 1.3-.4 1.7s-.6.9-1 1.1C75.1 38.9 74.5 39 74 39zM74 38.4c.7.0 1.2-.2 1.6-.7.4-.5.6-1.1.6-2 0-.8-.2-1.5-.6-1.9-.4-.5-.9-.7-1.6-.7s-1.2.2-1.6.7c-.4.5-.6 1.1-.6 1.9s.2 1.5.6 2C72.8 38.1 73.3 38.4 74 38.4zM79.4 38.9v-6.4h.6l2.6 5.9h-.3l2.6-5.9h.6v6.4h-.7v-5.4h.3l-2.3 5.4h-.5l-2.4-5.4h.3v5.4H79.4zM88.3 38.9v-6.4h.6l2.6 5.9h-.3l2.6-5.9h.6v6.4h-.7v-5.4h.3l-2.3 5.4H91l-2.4-5.4h.3v5.4H88.3zM99.8 39c-.6.0-1.1-.1-1.5-.4s-.8-.6-1-1.1-.4-1.1-.4-1.7c0-.7.1-1.3.3-1.7.2-.5.6-.9 1-1.1.4-.3 1-.4 1.6-.4s1.1.1 1.5.4.8.6 1 1.1.3 1.1.3 1.7c0 .7-.1 1.3-.4 1.7-.2.5-.6.9-1 1.1C100.9 38.9 100.4 39 99.8 39zM99.8 38.4c.7.0 1.2-.2 1.6-.7.4-.5.6-1.1.6-2 0-.8-.2-1.5-.6-1.9-.4-.5-.9-.7-1.6-.7-.7.0-1.2.2-1.6.7-.4.5-.6 1.1-.6 1.9s.2 1.5.6 2C98.6 38.1 99.1 38.4 99.8 38.4zm5.5.5v-6.4h2.1c.7.0 1.3.1 1.7.4.5.2.8.6 1.1 1.1s.4 1 .4 1.7-.1 1.3-.4 1.7c-.3.5-.6.8-1.1 1.1-.5.3-1.1.4-1.7.4H105.3zM106 38.3h1.4c.8.0 1.4-.2 1.9-.6.4-.4.6-1.1.6-1.9.0-1.7-.8-2.6-2.5-2.6H106v5.1zM113.1 38.9h-.8l2.8-6.4h.6l2.8 6.4h-.8l-2.5-5.8h.3L113.1 38.9zM113.5 37.3l.3-.6h3.3l.3.6H113.5zm7.3 1.6v-5.7h-2.2v-.6h5.2v.6h-2.2v5.7H120.8zM125.9 38.9v-6.4h.7v6.4H125.9zM132.1 39c-.6.0-1.1-.1-1.5-.4s-.8-.6-1-1.1-.4-1.1-.4-1.7c0-.7.1-1.3.3-1.7.2-.5.6-.9 1-1.1.4-.3 1-.4 1.6-.4s1.1.1 1.5.4.8.6 1 1.1.3 1.1.3 1.7c0 .7-.1 1.3-.4 1.7-.2.5-.6.9-1 1.1C133.2 38.9 132.7 39 132.1 39zM132.1 38.4c.7.0 1.2-.2 1.6-.7s.6-1.1.6-2c0-.8-.2-1.5-.6-1.9-.4-.5-.9-.7-1.6-.7s-1.2.2-1.6.7-.6 1.1-.6 1.9.2 1.5.6 2C130.9 38.1 131.4 38.4 132.1 38.4zm5.5.5v-6.4h.6l4.1 5.4L142 38v-5.5h.7v6.4h-.6l-4.1-5.4.2-.1v5.5H137.6zM146.3 39c-.3.0-.6.0-.9-.1s-.6-.1-.8-.3c-.2-.1-.5-.3-.7-.5l.3-.6c.3.3.6.5 1 .6.3.1.7.2 1.1.2.5.0.9-.1 1.2-.3.3-.2.4-.5.4-.8.0-.2-.1-.4-.2-.5s-.3-.2-.6-.3c-.2-.1-.5-.2-.8-.2-.3-.1-.6-.1-.9-.2s-.5-.2-.7-.3c-.2-.1-.4-.3-.5-.5s-.2-.5-.2-.8c0-.4.1-.7.3-1 .2-.3.5-.5.8-.6.3-.2.8-.2 1.2-.2.3.0.6.0.8.1.3.1.5.2.7.3.2.1.4.3.6.4l-.3.6c-.3-.3-.6-.4-.9-.6-.3-.1-.6-.2-1-.2-.5.0-.9.1-1.2.3-.3.2-.4.5-.4.9.0.2.1.4.2.6.1.1.3.3.5.3.2.1.5.2.8.2.3.1.6.1.9.2s.5.2.8.3c.2.1.4.3.5.5s.2.4.2.7c0 .4-.1.7-.3.9-.2.3-.5.5-.8.6C147.2 38.9 146.8 39 146.3 39z"/><path class="st0" d="M19.9 51.4c-.2.0-.4-.1-.5-.2-.5-.5-5-4.9-9.5-10.8-2.6-3.5-4.7-6.8-6.1-9.9C1.9 26.5 1 23 1 19.9c0-2.5.5-5 1.5-7.3 1-2.2 2.3-4.3 4.1-6 1.7-1.7 3.8-3.1 6-4 2.3-1 4.8-1.5 7.4-1.5s5 .5 7.4 1.5c2.3 1 4.3 2.3 6 4 1.7 1.7 3.1 3.8 4.1 6 1 2.3 1.5 4.8 1.5 7.3.0 3.1-.9 6.6-2.8 10.5-1.5 3.1-3.5 6.5-6.1 9.9-4.4 6-9 10.3-9.5 10.8C20.3 51.3 20.1 51.4 19.9 51.4zM19.7 18.4c-.5.0-2.3.2-3.8 3C15 23 14.1 24 13.3 24.8c-1.1 1.1-1.9 2-2 3.8.1 4.1 2.5 4.5 3.6 4.5.1.0.2.0.3.0 1-.1 1.9-.3 2.6-.6.7-.2 1.4-.5 2-.5h.1c.7.0 1.3.2 2 .4.8.2 1.6.5 2.6.6.1.0.2.0.2.0 2.2.0 3.5-1.7 3.6-4.6-.1-1.8-.9-2.6-1.9-3.7-.8-.8-1.7-1.7-2.6-3.3-1.5-2.8-3.3-3-3.8-3h-.1-.1C19.8 18.5 19.8 18.4 19.7 18.4zm10.4-3.3c-1.3.0-2.7 1.3-3.1 3.1-.6 2 .2 4 1.6 4.4.2.0.3.1.5.1 1.3.0 2.7-1.3 3.1-3.1.6-2-.2-4-1.6-4.4C30.5 15.1 30.3 15.1 30.1 15.1zm-19.8.0c-.2.0-.4.0-.5.1-1.5.4-2.2 2.4-1.6 4.4.5 1.8 1.8 3.1 3.1 3.1.2.0.4.0.5-.1 1.5-.4 2.2-2.4 1.6-4.4-.5-1.8-1.8-3.1-3.1-3.1zM24.6 8.5c-1.5.0-3 1.5-3.6 3.5-.3 1.1-.3 2.3.1 3.3.4 1 1 1.6 1.8 1.8.2.1.4.1.6.1 1.5.0 3-1.5 3.6-3.5.3-1.1.3-2.3-.1-3.3-.4-1-1-1.6-1.8-1.8C25 8.5 24.8 8.5 24.6 8.5zM15.9 8.3c-.1.0-.1.0-.2.0-1.7.1-3 2.2-2.8 4.6.2 2.3 1.6 4.1 3.3 4.1.0.0.1.0.2.0.8-.1 1.6-.6 2.1-1.4.5-.9.8-2 .7-3.2C19 10.1 17.5 8.3 15.9 8.3z"/></svg>