<svg xmlns="http://www.w3.org/2000/svg" width="233" height="40" viewBox="0 0 233 40" fill="none"><path d="M0 39.3392V.611885H.119161C2.66921.611885 5.20496.602352 7.73594.583286 10.2622.56422 12.8027.554688 15.3527.554688c.8103.0 1.7779.142993 2.9123.424213 1.1344.281219 2.2164.781699 3.246 1.487129 1.0343.7102 1.9113 1.66826 2.6406 2.8837C24.8808 6.56517 25.2431 8.09997 25.2431 9.96365 25.2431 11.4603 24.9714 12.7568 24.4233 13.8483 23.8751 14.9398 23.1602 15.9026 22.2688 16.732 21.3775 17.5614 20.3575 18.3002 19.204 18.9484s-2.3356 1.2726-3.551 1.8827-2.4404 1.2346-3.6702 1.8828C10.7483 23.3621 9.60439 24.0914 8.55577 24.8969c-1.33461 1.0534-2.41659 2.2164-3.24595 3.4891-.82936 1.2726-1.34414 2.7597-1.5491 4.4614V34.487C3.76072 35.2973 3.77026 36.0742 3.78932 36.8226c.0190700000000001.7483.0286 1.5252.0286 2.3355V39.3392H0zM3.82269 26.2315c.92946-1.2965 1.96377-2.3975 3.09342-3.3079C8.05052 22.0132 9.18017 21.2125 10.3146 20.5261 11.001 20.0828 11.9638 19.5537 13.1983 18.9484c1.2345-.6053 2.4595-1.3346 3.6701-2.183C18.0839 15.874 19.123 14.8826 19.9952 13.7911c.8675-1.0915 1.306-2.3451 1.306-3.7655.0-1.17253-.2621-2.17349-.7912-3.00285-.5243-.82936-1.163-1.51573-1.9113-2.06387C17.8503 4.41074 17.0686 4.01036 16.2631 3.74344 15.4528 3.48128 14.7474 3.34782 14.1373 3.34782H3.82269V26.2315z" fill="#000"/><path d="M30.4688 39.3367V.609375h3.8226V39.332H30.4688V39.3367z" fill="#000"/><path d="M38.3594 19.9714c0-2.7931.533799999999999-5.4004 1.6063-7.8313 1.0724-2.42609 2.5166-4.54239 4.3374-6.3441 1.8208-1.80172 3.9562-3.21735 6.4014-4.24691C53.1497.519542 55.7331.0 58.4452.0c1.6587.0 3.1172.142993 4.3708.424214C64.0696.705434 65.285 1.13441 66.4576 1.69685 67.592 2.22116 68.7407 2.8694 69.918 3.64156 71.0906 4.40896 72.4061 5.31935 73.8646 6.37274H73.9266L73.9885 13.7798H72.4728L72.4109 13.5367C72.0057 11.6349 71.2574 9.99523 70.1659 8.6225 69.0743 7.24976 67.8494 6.12488 66.4957 5.25262c-1.3537-.86749-2.7598-1.5062-4.2183-1.91134-1.4585-.40515-2.7312-.60534-3.8227-.60534-2.307.0-4.4423.47664-6.4013 1.42517C50.0896 5.11439 48.4023 6.38703 46.9866 7.98379c-1.4156 1.59676-2.5309 3.42711-3.3365 5.49091C42.8398 15.5386 42.4347 17.7026 42.4347 19.9714c0 2.2688.405099999999997 4.3804 1.2154 6.4633C44.4604 28.5176 45.571 30.3575 46.9866 31.959 48.4023 33.5558 50.0896 34.8332 52.0534 35.7817 54.0172 36.7302 56.1477 37.2069 58.4547 37.2069 59.6272 37.2069 60.8427 37.1068 62.0963 36.9018 63.3498 36.6969 64.5939 36.3537 65.8284 35.8675 67.0629 35.3813 68.2545 34.7426 69.408 33.9562 70.5615 33.1649 71.6005 32.1878 72.5348 31.0105L72.5967 30.9485 74.1744 32.4643 73.9933 32.6454C73.021 33.9418 71.9009 35.0429 70.6234 35.9533 69.3508 36.8637 68.0114 37.612 66.6196 38.1983 65.223 38.7846 63.8169 39.2183 62.4013 39.5043 60.9857 39.7855 59.6701 39.9285 58.4547 39.9285 55.7426 39.9285 53.1639 39.4137 50.714 38.3794c-2.45-1.0295-4.5806-2.4499-6.4013-4.2469-1.8208-1.8017-3.2698-3.9132-4.3375-6.3441-1.0725-2.4262-1.6063-5.0382-1.6063-7.8313L38.3594 19.9714z" fill="#000"/><path d="M82.6617.609375V21.2433L97.2899.609375h3.2791L88.186 18.0879 102.814 39.332H98.1431L85.8218 21.4292 82.6665 25.862V39.3367H78.8438V.609375h3.8227H82.6617z" fill="#000"/><path d="M109.437.611885V36.5413h29.07v2.7932H105.609V.554688L109.432.616651 109.437.611885zM118.479 27.4994V.554688h20.028V3.34782H122.301V12.6948h13.294V15.426H122.301v9.347h16.268L138.507 27.6853 137.716 27.3802C136.744 27.4613 135.776 27.4994 134.804 27.4994H118.479z" fill="#000"/><path d="M138.078 3.34055V.609375H167.03V3.34055H154.465V39.332h-3.822V3.34055H138.078z" fill="#000"/><path d="M165.578.609375h14.747C181.865.609375 183.228.971625 184.425 1.70089 185.616 2.43016 186.617 3.36915 187.427 4.52263 188.238 5.67611 188.853 6.97258 189.277 8.40728 189.701 9.84198 189.916 11.2481 189.916 12.6256S189.763 15.2042 189.458 16.3577C189.153 17.5112 188.748 18.555 188.243 19.4845 187.737 20.4139 187.151 21.2147 186.484 21.882 185.816 22.5493 185.14 23.107 184.448 23.5503 185.297 25.4521 186.231 27.2109 187.242 28.8315 188.252 30.4521 189.344 31.8582 190.521 33.0498 191.693 34.2414 192.938 35.1756 194.253 35.8429 195.569 36.5102 196.975 36.8439 198.471 36.8439 200.292 36.8439 202.07 36.3482 203.815 35.3568 205.554 34.3653 207.132 32.9783 208.548 31.2004L208.61 31.1384 210.611 32.7781 210.492 32.9592C208.753 35.2662 206.808 37.0155 204.668 38.2071 202.523 39.3987 200.34 39.9993 198.114 39.9993 196.293 39.9993 194.572 39.6227 192.957 38.8744 191.336 38.1261 189.801 37.0822 188.343 35.7476 186.884 34.413 185.53 32.8019 184.277 30.924 183.023 29.0412 181.851 26.9678 180.754 24.7037H169.406V39.332H165.583V.609375H165.578zM169.401 21.9726h10.924C180.569 21.9726 180.859 21.9011 181.207 21.7581 181.55 21.6151 181.846 21.4864 182.089 21.3625 183.223 20.6761 184.191 19.5608 185.001 18.026 185.812 16.4864 186.217 14.6895 186.217 12.6256S185.821 8.83149 185.035 7.31576C184.243 5.80003 183.285 4.69422 182.151 4.00785 181.908 3.88869 181.603 3.74569 181.241 3.58364 180.878 3.42158 180.573 3.34055 180.33 3.34055H169.406V21.9726H169.401zM202.599.609375V27.5589H198.776V.609375H202.599z" fill="#000"/><path d="M208.062.608444h12.627C221.051.608444 221.428.598911 221.814.579845 222.2.56078 222.572.570313 222.939.608444 224.478.689474 225.841 1.09462 227.038 1.82389 228.229 2.55315 229.221 3.48261 230.012 4.61702 230.803 5.75144 231.399 7.02408 231.804 8.43971 232.209 9.85535 232.409 11.271 232.409 12.6866S232.195 15.4702 231.771 16.9049C231.346 18.3396 230.727 19.6361 229.921 20.7896 229.111 21.943 228.11 22.882 226.919 23.6113 225.727 24.3406 224.359 24.7028 222.819 24.7028H211.895V39.331H208.072V.608444H208.062zM222.81 21.9716C223.053 21.9716 223.344 21.9002 223.692 21.7572 224.035 21.6142 224.33 21.4855 224.573 21.3615 225.708 20.7133 226.675 19.6218 227.486 18.0822 228.296 16.5427 228.701 14.7457 228.701 12.6818 228.701 10.618 228.306 8.82579 227.519 7.31006 226.728 5.79433 225.77 4.68852 224.635 4.00215 224.392 3.88299 224.087 3.74 223.725 3.57794 223.363 3.41588 223.058 3.33485 222.815 3.33485H211.89V21.9669h10.925L222.81 21.9716z" fill="#000"/><path fill-rule="evenodd" clip-rule="evenodd" d="M67.4989 11.6189C67.0727 11.193 66.622 10.8066 66.1511 10.4591 65.9114 10.2823 65.6668 10.1156 65.4175 9.95943 65.3228 9.90005 65.2236 9.85086 65.1276 9.79461c-3.6941-2.17223-8.3182-2.1759-12.0123.0C52.2716 10.2914 51.4752 10.8989 50.7513 11.6228c-4.6163 4.6163-4.6163 12.1274.0 16.7437C55.2407 32.8557 62.4672 32.9789 67.107 28.7367 67.2383 28.6166 67.3681 28.4937 67.495 28.3665 67.5853 28.2765 67.6732 28.1847 67.7598 28.0924 72.1113 23.4557 72.025 16.1452 67.4989 11.6189zM57.3229 9.49009C57.342 9.15207 58.451 8.94696 59.8028 9.03068 61.1473 9.11414 62.222 9.45215 62.2032 9.79016L62.2011 9.79461C62.1684 10.1261 61.0651 10.3291 59.727 10.2459c-.9298-.0549-1.7215-.2354-2.122-.45129C57.4247 9.69755 57.3159 9.59395 57.3229 9.49009zM52.0215 11.6168c1.0292-.8696 2.0393-1.3709 2.2559-1.1163C54.4977 10.7587 53.8405 11.6738 52.8076 12.5474c-1.0292.8696-2.0393 1.3709-2.2559 1.1163C50.3314 13.4055 50.9886 12.4903 52.0215 11.6168zm-3.4673 9.7488C48.2201 21.3276 48.0605 20.211 48.201 18.8705 48.3376 17.526 48.7214 16.4665 49.0555 16.5044 49.3895 16.535 49.5491 17.6513 49.4123 18.9958 49.2718 20.3363 48.8883 21.3959 48.5542 21.3656zm3.8926 6.9384C52.181 28.5091 51.296 27.814 50.4643 26.7468 49.6365 25.6836 49.1771 24.6544 49.4429 24.4493 49.7048 24.2405 50.5935 24.9393 51.4252 25.9989 52.2569 27.066 52.7127 28.0989 52.4468 28.304zm.3493-5.9699C52.0633 21.601 52.0633 20.4086 52.7961 19.6758 53.5252 18.9464 54.7177 18.9464 55.4508 19.6794 56.1799 20.4086 56.1799 21.601 55.4508 22.3302 54.7177 23.0632 53.5252 23.0632 52.7961 22.3341zM57.5547 30.8674C56.2178 30.6701 55.1735 30.2484 55.2229 29.9103 55.2723 29.5799 56.3926 29.4698 57.7295 29.6597c1.3329.1936 2.381.619 2.3318.949400000000001C60.0119 30.9472 58.8916 31.0573 57.5547 30.8674zm1.2571-14.549C58.0787 15.5856 58.0787 14.3931 58.8079 13.6637 59.537 12.9346 60.7295 12.9346 61.4626 13.6676 62.1917 14.3968 62.1917 15.5892 61.4626 16.3184 60.7334 17.0475 59.5409 17.0475 58.8118 16.3184zm2.2329 8.0207C60.3156 23.61 60.3156 22.4175 61.0487 21.6845 61.7778 20.9553 62.9703 20.9553 63.6994 21.6845 64.4325 22.4175 64.4285 23.6063 63.6994 24.3355 62.9666 25.0683 61.7778 25.0722 61.0447 24.3391zm6.285 2.7887C67.1572 27.3737 66.9427 27.6437 66.6952 27.9233 66.5367 28.1026 66.3648 28.2854 66.1819 28.4686c-1.1079 1.1079-2.217 1.8138-2.4655 1.565C63.4705 29.7879 64.1761 28.6786 65.284 27.5707 65.5998 27.2549 65.9156 26.9721 66.2115 26.7345 66.4815 26.5177 66.7345 26.339 66.9561 26.2074 67.344 25.9766 67.6352 25.8908 67.7469 26.0028 67.8906 26.1464 67.7158 26.5765 67.3297 27.1278zM66.3083 13.3791C65.8392 12.8668 65.4682 12.3559 65.2519 11.9498 65.0475 11.5671 64.9811 11.2775 65.1006 11.1686 65.1956 11.0797 65.3937 11.1174 65.6529 11.2534 66.0681 11.4708 66.6413 11.9409 67.2046 12.551 68.1161 13.546 68.6592 14.5373 68.4122 14.7615 68.1655 14.993 67.2237 14.3701 66.3083 13.3791zM68.9896 23.1087C68.6516 23.1048 68.401 22.0037 68.4313 20.6516 68.458 19.3035 68.7542 18.2172 69.0883 18.2248 69.4263 18.2287 69.6769 19.3299 69.6505 20.6783 69.6201 22.0301 69.324 23.1163 68.9896 23.1087z" fill="#000"/></svg>