<svg width="289" height="41" viewBox="0 0 289 41" fill="none" xmlns="http://www.w3.org/2000/svg"><path d="M121.797 21.0139c0-6.3731 4.779-10.4201 10.506-10.4201 5.72800000000001.0 10.55 4.047 10.55 10.4201s-4.822 10.5494-10.55 10.5494c-5.727.0-10.506-4.1763-10.506-10.5494zm17.137.0c0-4.0478-3.01400000000001-6.5882-6.631-6.5882-3.61599999999999.0-6.631 2.5404-6.631 6.5882.0 4.0911 3.01500000000002 6.7608 6.631 6.7608 3.61699999999999.0 6.631-2.6697 6.631-6.7608z" fill="#000"/><path d="M125.715 15.5178V12.7622C125.715 11.6851 124.854 10.7812 123.734 10.7812c-1.077.0-1.937.9039-1.937 1.981V29.3396c0 1.0764.859999999999999 1.9802 1.937 1.9802C124.854 31.3198 125.715 30.416 125.715 29.3396V23.7852 15.5178z" fill="#000"/><path d="M125.715 4.7365V1.98094C125.715.904563 124.854.0 123.734.0c-1.077.0-1.937.904563-1.937 1.98094V18.5583c0 1.0764.859999999999999 1.9803 1.937 1.9803C124.854 20.5386 125.715 19.6347 125.715 18.5583V13.0039 4.7365z" fill="#000"/><path d="M174.172 21.0139c0-6.3731 4.779-10.4201 10.506-10.4201 5.72800000000001.0 10.55 4.047 10.55 10.4201s-4.822 10.5494-10.55 10.5494c-5.727.0-10.506-4.1763-10.506-10.5494zm17.137.0c0-4.0478-3.01400000000001-6.5882-6.631-6.5882-3.61599999999999.0-6.631 2.5404-6.631 6.5882.0 4.0911 3.01500000000002 6.7608 6.631 6.7608 3.61699999999999.0 6.631-2.6697 6.631-6.7608z" fill="#000"/><path d="M50.4809 10.5938C50.4736 10.5938 50.4664 10.5945 50.4592 10.5952V10.5938c-2.4776.0-4.7777.758699999999999-6.5904 2.1347C43.8479 11.6701 42.996 10.7879 41.89 10.7879c-1.0763.0-1.9369.9039-1.9369 1.9803V29.3456C39.9531 30.4227 40.8137 31.3265 41.89 31.3265c1.1197.0 1.981-.9038 1.981-1.9809V23.7919 20.2176c.3508-3.4125 2.9548-5.5746 6.1175-5.771C50.1466 14.4878 50.3105 14.5116 50.4809 14.5116c1.0821.0 1.9585-.8771 1.9585-1.9593C52.4394 11.4709 51.563 10.5938 50.4809 10.5938z" fill="#000"/><path d="M286.809 10.5938C286.802 10.5938 286.795 10.5945 286.787 10.5952V10.5938C284.31 10.5938 282.01 11.3525 280.197 12.7285 280.176 11.6701 279.324 10.7879 278.218 10.7879 277.142 10.7879 276.281 11.6918 276.281 12.7682V29.3456C276.281 30.4227 277.142 31.3265 278.218 31.3265 279.338 31.3265 280.199 30.4227 280.199 29.3456V23.7919 20.2176C280.55 16.8051 283.154 14.643 286.317 14.4466 286.475 14.4878 286.639 14.5116 286.809 14.5116 287.891 14.5116 288.768 13.6345 288.768 12.5523 288.768 11.4709 287.891 10.5938 286.809 10.5938z" fill="#000"/><path d="M72.1998 22.6H57.4488C57.921 25.9446 60.5365 28.0462 63.9237 28.0462 66.3255 28.0462 67.6546 27.4455 69.027 25.9446 69.7561 25.1296 70.8707 24.8726 71.6425 25.4306 72.4142 26.0306 72.586 27.1885 71.9861 27.8743 70.0557 30.3613 67.0547 31.5626 63.7959 31.5626c-5.7038.0-10.249-4.1597-10.249-10.5061.0-6.3463 4.5452-10.3768 10.249-10.3768 5.7025.0 9.9481 4.0305 9.9481 10.3768C73.744 21.9568 73.0148 22.6 72.1998 22.6zM69.8846 19.5557C69.4125 16.211 67.0114 14.1954 63.7959 14.1954 60.4939 14.1954 57.921 16.211 57.4488 19.5557H69.8846z" fill="#000"/><path d="M81.1676 14.1102C82.3681 11.7091 85.2414 10.6797 87.4281 10.6797c4.974.0 7.7187 3.2587 7.7187 8.8767v9.8195C95.1468 30.448 94.2892 31.3482 93.1745 31.3482 92.1025 31.3482 91.2441 30.448 91.2441 29.3759V19.8134C91.2441 16.4687 89.5722 14.4965 86.8274 14.4965c-2.8299.0-5.6598 1.586-5.6598 5.8309v9.0485C81.1676 30.448 80.31 31.3482 79.1946 31.3482 78.1233 31.3482 77.2656 30.448 77.2656 29.3759V12.8664C77.2656 11.7943 78.1233 10.8941 79.1946 10.8941c1.11540000000001.0 1.973.9002 1.973 1.9723v1.2438z" fill="#000"/><path d="M99.2657 14.4071C98.3648 14.4071 97.5938 13.678 97.5938 12.7352 97.5938 11.8342 98.3648 11.1051 99.2657 11.1051H101.41V5.31603C101.41 4.24398 102.267 3.34375 103.339 3.34375c1.11499999999999.0 1.973.90023 1.973 1.97228V11.1051h2.83C109.043 11.1051 109.814 11.8342 109.814 12.7771c0 .9009-.770999999999987 1.63-1.672 1.63h-2.83V29.3725c0 1.0721-.858000000000004 1.9723-1.973 1.9723-1.072.0-1.929-.900199999999998-1.929-1.9723V14.4071H99.2657z" fill="#000"/><path d="M153.85 25.5966 159.424 12.0888C159.811 11.1027 160.968 10.6312 161.955 11.0175 162.983 11.403 163.412 12.5609 162.983 13.5471L152.006 39.7902C151.62 40.7764 150.505 41.2485 149.476 40.8623 148.533 40.4335 148.146 39.3188 148.533 38.332l3.173-7.804L144.673 13.5038C144.33 12.5176 144.802 11.2745 145.831 10.9742 146.903 10.6746 147.889 11.146 148.318 12.218L153.85 25.5966z" fill="#000"/><path d="M221.438 29.672C221.009 30.7867 220.323 31.344 219.379 31.344H219.294C218.393 31.344 217.578 30.7867 217.192 29.672L212.261 15.7787 207.502 29.672C207.116 30.7867 206.386 31.344 205.444 31.344H205.358C204.457 31.344 203.642 30.7867 203.256 29.672L197.038 13.4202C196.695 12.4767 197.253 11.2335 198.325 10.9758 199.354 10.6762 200.34 11.1902 200.726 12.2623L205.358 25.3413l4.459-12.6502C210.246 11.4905 211.018 10.8906 212.175 10.8906H212.39C213.548 10.8906 214.277 11.4905 214.706 12.6911l4.459 12.6502L223.753 12.2623C224.139 11.1902 225.169 10.6762 226.197 10.9758c1.072.2577 1.63 1.5009 1.28700000000001 2.4444L221.438 29.672z" fill="#000"/><path d="M234.816 14.1102C236.017 11.7091 238.89 10.6797 241.077 10.6797 246.051 10.6797 248.795 13.9384 248.795 19.5564v9.8195C248.795 30.448 247.938 31.3482 246.823 31.3482 245.751 31.3482 244.893 30.448 244.893 29.3759V19.8134c0-3.3447-1.672-5.3169-4.417-5.3169-2.83000000000001.0-5.66 1.586-5.66 5.8309v9.0485C234.816 30.448 233.958 31.3482 232.843 31.3482c-1.071.0-1.929-.900199999999998-1.929-1.9723V12.8664c0-1.0721.858000000000004-1.9723 1.929-1.9723C233.958 10.8941 234.816 11.7943 234.816 12.8664v1.2438z" fill="#000"/><path d="M271.215 22.6H256.464C256.937 25.9446 259.552 28.0462 262.939 28.0462 265.341 28.0462 266.67 27.4455 268.043 25.9446 268.772 25.1296 269.887 24.8726 270.659 25.4306 271.431 26.0306 271.602 27.1885 271.002 27.8743 269.072 30.3613 266.07 31.5626 262.811 31.5626 257.108 31.5626 252.562 27.4029 252.562 21.0565 252.562 14.7102 257.108 10.6797 262.811 10.6797 268.515 10.6797 272.76 14.7102 272.76 21.0565 272.76 21.9568 272.031 22.6 271.215 22.6zM268.901 19.5557C268.428 16.211 266.027 14.1954 262.811 14.1954 259.51 14.1954 256.937 16.211 256.464 19.5557h12.437z" fill="#000"/><path d="M8.00607 32.2062c0 2.2105-1.79252 4.003-4.00303 4.003C1.79252 36.2092.0 34.4167.0 32.2062c0-2.2105 1.79252-4.0031 4.00304-4.0031 2.21051.0 4.00303 1.7926 4.00303 4.0031z" fill="#000"/><path d="M8.00607 20.5343c0 2.2105-1.79252 4.003-4.00303 4.003C1.79252 24.5373.0 22.7448.0 20.5343c0-2.2105 1.79252-4.0031 4.00304-4.0031 2.21051.0 4.00303 1.7926 4.00303 4.0031z" fill="#000"/><path d="M8.00607 8.87022c0 2.21048-1.79252 4.00308-4.00303 4.00308C1.79252 12.8733.0 11.0807.0 8.87022.0 6.65971 1.79252 4.86719 4.00304 4.86719c2.21051.0 4.00303 1.79252 4.00303 4.00303z" fill="#000"/><path d="M19.8654 32.2062c0 2.2105-1.7925 4.003-4.003 4.003-2.2105.0-4.003-1.7925-4.003-4.003.0-2.2105 1.7925-4.0031 4.003-4.0031 2.2105.0 4.003 1.7926 4.003 4.0031z" fill="#000"/><path d="M19.8654 20.5343c0 2.2105-1.7925 4.003-4.003 4.003-2.2105.0-4.003-1.7925-4.003-4.003.0-2.2105 1.7925-4.0031 4.003-4.0031 2.2105.0 4.003 1.7926 4.003 4.0031z" fill="#000"/><path d="M19.8654 8.87022c0 2.21048-1.7925 4.00308-4.003 4.00308-2.2105.0-4.003-1.7926-4.003-4.00308.0-2.21051 1.7925-4.00303 4.003-4.00303 2.2105.0 4.003 1.79252 4.003 4.00303z" fill="#000"/><path d="M31.2404 32.2062c0 2.2105-1.7925 4.003-4.003 4.003s-4.003-1.7925-4.003-4.003c0-2.2105 1.7925-4.0031 4.003-4.0031s4.003 1.7926 4.003 4.0031z" fill="#000"/><path d="M31.2404 20.5343c0 2.2105-1.7925 4.003-4.003 4.003s-4.003-1.7925-4.003-4.003c0-2.2105 1.7925-4.0031 4.003-4.0031s4.003 1.7926 4.003 4.0031z" fill="#000"/><path d="M31.2404 8.87022c0 2.21048-1.7925 4.00308-4.003 4.00308s-4.003-1.7926-4.003-4.00308c0-2.21051 1.7925-4.00303 4.003-4.00303s4.003 1.79252 4.003 4.00303z" fill="#000"/></svg>