<svg width="590" height="127" viewBox="0 0 590 127" fill="none" xmlns="http://www.w3.org/2000/svg">
<g clip-path="url(#clip0_291_3205)" filter="url(#filter0_d_291_3205)">
<path d="M19.9999 89.4586L21.9046 88.2128C25.6555 85.7677 30.5164 86.1053 34.0453 88.8765C37.8429 91.8572 42.587 93.6037 47.9738 93.6037C57.7541 93.6037 62.58 88.5621 62.58 82.7404C62.58 76.0221 54.0383 74.6831 45.1694 72.6688C34.3841 69.9791 23.038 66.6258 23.038 53.7481C23.038 43.7813 32.3626 34.7111 47.1909 34.7111C57.8709 34.7111 66.9618 38.7397 72.2434 45.5744L70.4323 46.8203C67.0203 49.1722 62.4865 49.3469 59.0161 47.0881C55.7443 44.9573 51.8415 43.7813 47.1792 43.7813C38.2986 43.7813 33.6947 48.1476 33.6947 53.5269C33.6947 60.024 41.3367 61.2465 50.6613 63.5985C61.2245 66.2881 73.1315 69.3038 73.1315 82.6356C73.1315 91.2517 65.6064 103.012 47.6232 103.012C35.1553 103.012 25.9359 97.97 19.9766 89.4586H19.9999Z" fill="white"/>
<path d="M344.982 68.9079C344.982 50.0339 359.846 35.4446 378.343 35.4446C396.84 35.4446 411.809 50.0339 411.809 68.9079C411.809 87.782 396.84 102.255 378.343 102.255C359.846 102.255 344.982 87.6656 344.982 68.9079ZM401.351 68.9079C401.351 55.7392 391.22 45.1087 378.343 45.1087C365.466 45.1087 355.557 55.7508 355.557 68.9079C355.557 82.065 365.571 92.6024 378.343 92.6024C391.115 92.6024 401.351 81.9603 401.351 68.9079Z" fill="white"/>
<path d="M294.936 36.1199C287.481 36.3179 283.263 37.0747 279.079 42.0464V36.1083H268.516V101.603H272.127C276.088 101.603 279.313 98.4008 279.313 94.4421V83.5671C278.974 74.6132 279.196 65.3217 279.196 64.6464C279.196 51.7687 282.865 46.0984 293.978 45.9004L294.936 36.1199Z" fill="white"/>
<path d="M505.604 36.1199C498.149 36.3179 493.931 37.9479 489.748 42.9081V36.0966H479.185V101.591H482.655C486.698 101.591 489.97 98.331 489.97 94.3023V83.5671C489.631 74.6132 489.853 68.9312 489.853 68.2559C489.853 55.3782 494.48 45.9354 505.604 45.7374C512.019 45.5628 514.765 46.9018 514.765 46.9018C516.366 42.3841 519.065 38.2041 519.065 38.2041C512.884 36.1549 505.616 36.1199 505.616 36.1199H505.604Z" fill="white"/>
<path d="M516.857 89.4586L518.762 88.2128C522.512 85.7677 527.373 86.1053 530.902 88.8765C534.7 91.8572 539.444 93.6037 544.831 93.6037C554.611 93.6037 559.437 88.5621 559.437 82.7404C559.437 76.0221 550.895 74.6831 542.026 72.6688C531.241 69.9791 519.895 66.6258 519.895 53.7481C519.895 43.7813 529.22 34.7111 544.048 34.7111C554.728 34.7111 563.819 38.7397 569.1 45.5744L567.289 46.8203C563.877 49.1722 559.343 49.3469 555.873 47.0881C552.601 44.9573 548.698 43.7813 544.036 43.7813C535.156 43.7813 530.552 48.1476 530.552 53.5269C530.552 60.024 538.194 61.2465 547.518 63.5985C558.081 66.2881 569.988 69.3038 569.988 82.6356C569.988 91.2517 562.463 103.012 544.48 103.012C532.012 103.012 522.793 97.97 516.833 89.4586H516.857Z" fill="white"/>
<path d="M469.906 35.433C464.964 35.433 460.944 39.4267 460.944 44.3635V72.1564C460.944 84.1259 456.106 91.8921 444.924 92.6839C433.741 91.8805 428.904 84.1259 428.904 72.1564V44.3635C428.904 39.4383 424.896 35.433 419.941 35.433H418.107V72.6105C418.107 91.3565 427.595 102.208 444.912 102.278C462.229 102.208 471.718 91.3565 471.718 72.6105V35.433H469.883H469.906Z" fill="white"/>
<path d="M79.3012 36.772H82.6898C86.651 36.772 89.8527 39.9739 89.8527 43.9094V45.947C94.2346 39.3452 101.421 35.4213 110.862 35.4213C122.547 35.4213 130.411 40.6842 134.127 48.7414C138.509 40.6842 147.051 35.4213 157.836 35.4213C176.38 35.4213 186.371 46.6223 186.371 63.6334V102.266H182.737C178.787 102.266 175.574 99.0761 175.574 95.129V63.517C175.574 52.4324 168.609 44.8176 156.924 44.8176C146.361 44.8176 138.053 52.0948 138.053 64.5183V102.255H134.419C130.47 102.255 127.256 99.0645 127.256 95.1174V62.504C127.256 51.7571 120.514 44.8176 109.273 44.8176C98.0322 44.8176 89.9462 52.4324 89.9462 65.4149V102.255H86.429C82.4795 102.255 79.2661 99.0645 79.2661 95.1174V36.772H79.3012Z" fill="white"/>
<path d="M192.541 68.9079C192.541 49.312 207.369 34.7576 226.03 34.7576C235.354 34.7576 244.913 39.2404 250.182 46.96V44.4217C250.182 39.8225 253.922 36.1083 258.526 36.1083H260.734V101.603H258.526C253.91 101.603 250.182 97.8769 250.182 93.2893V90.5298C247.6 94.4537 244.001 97.5858 239.502 99.7049C235.121 101.836 230.622 102.953 226.018 102.953C207.591 102.953 192.529 88.3991 192.529 68.9196L192.541 68.9079ZM247.612 55.3782C246.35 52.8749 244.422 50.7558 242.061 49.2305C222.992 36.9117 203.326 50.453 203.326 68.7915C203.326 82.3445 213.889 93.0914 227.035 93.0914C244.772 93.0914 257.264 74.4851 247.612 55.3782Z" fill="white"/>
<path d="M294.819 36.1199L293.499 45.9121H294.679L302.052 36.085L294.819 36.1199Z" fill="white"/>
<path d="M326.462 76.3481V61.654L315.688 75.9639V76.4645C315.688 96.5495 320.958 102.266 340.542 102.266H342.143V91.9969C328.857 91.9969 326.45 89.7148 326.45 76.3597L326.462 76.3481Z" fill="white"/>
<path d="M343.207 36.085H326.462V16L316.016 29.9139V36.085H310.208L302.835 45.9121H315.688V66.9169L326.462 52.7817V45.9121H335.752L343.207 36.085Z" fill="#FF6625"/>
</g>
<defs>
<filter id="filter0_d_291_3205" x="0" y="0" width="590" height="127" filterUnits="userSpaceOnUse" color-interpolation-filters="sRGB">
<feFlood flood-opacity="0" result="BackgroundImageFix"/>
<feColorMatrix in="SourceAlpha" type="matrix" values="0 0 0 0 0 0 0 0 0 0 0 0 0 0 0 0 0 0 127 0" result="hardAlpha"/>
<feOffset dy="4"/>
<feGaussianBlur stdDeviation="10"/>
<feColorMatrix type="matrix" values="0 0 0 0 0 0 0 0 0 0 0 0 0 0 0 0 0 0 0.25 0"/>
<feBlend mode="normal" in2="BackgroundImageFix" result="effect1_dropShadow_291_3205"/>
<feBlend mode="normal" in="SourceGraphic" in2="effect1_dropShadow_291_3205" result="shape"/>
</filter>
<clipPath id="clip0_291_3205">
<rect width="550" height="87" fill="white" transform="translate(20 16)"/>
</clipPath>
</defs>
</svg>
