<svg xmlns="http://www.w3.org/2000/svg" width="237" height="44" viewBox="0 0 237 44" fill="none"><path d="M13.3545 16.0655c5.489 2.5103 8.2336 5.6732 8.2336 9.4887.0 1.5397-.284500000000001 2.9035-.8535 4.0917C20.1656 30.8341 19.3958 31.7545 18.4252 32.4072 17.4545 33.0599 16.4002 33.5452 15.2623 33.8631 14.1243 34.1811 12.9194 34.3401 11.6475 34.3401 9.27115 34.3401 7.05377 33.9217 4.99538 33.085 2.93698 32.2482 1.27185 31.127.0 29.7212L2.15881 25.504C2.25922 25.7383 2.40146 26.0395 2.58555 26.4077 2.76963 26.7759 3.17127 27.4369 3.79046 28.3908 4.40965 29.3447 5.05395 30.1814 5.72335 30.901c.66939.7196 1.54798 1.3807 2.63575 1.9831C9.44687 33.4866 10.543 33.7878 11.6475 33.7878 12.9528 33.7878 14.1159 33.4197 15.1367 32.6833 16.1576 31.947 16.8772 31.1353 17.2955 30.2484 17.7139 29.3614 17.9231 28.5498 17.9231 27.8135 17.9231 26.6755 17.7474 25.6379 17.396 24.7008 17.0445 23.7636 16.6513 23.0105 16.2161 22.4415 15.781 21.8726 15.2121 21.337 14.5092 20.835 13.8063 20.3329 13.2624 19.9899 12.8775 19.8058 12.4926 19.6217 11.9989 19.4125 11.3965 19.1782L11.0953 19.0276c-1.80741-.7698-2.99559-1.2886-3.56458-1.5563C6.76091 17.17 6.04131 16.7851 5.37191 16.3166c-.66939-.4686-1.34716-1.0627-2.03329-1.7823-.68613-.7196-1.21328-1.6066-1.58145-2.6609-.36817-1.0543-.50205-2.21734-.40164-3.4892C1.389 7.48051 1.58982 6.56846 1.95799 5.64804s.90368-1.82411 1.60655-2.71106C4.26741 2.05003 5.2464 1.33879 6.50152.803277 7.75664.267759 9.18748.0 10.794.0c1.2384.0 2.4266.125512 3.5646.376536 1.1379.251024 2.0835.56062 2.8365.928784.7531.36817 1.4225.73634 2.0082 1.10451C19.7891 2.778 20.2158 3.07923 20.4836 3.31352L20.8852 3.71515 18.0235 7.3299 17.7725 6.57683C17.6721 6.2756 17.4294 5.73171 17.0445 4.94517 16.6596 4.15863 16.2161 3.45576 15.7141 2.83657s-1.1798-1.17144-2.0333-1.65676C12.8273.6945 11.8985.451843 10.8944.451843c-1.63998.0-3.05409.560617-4.24227 1.681857C5.46395 3.25494 4.76945 4.63558 4.56864 6.2756 4.40129 7.78174 4.79456 9.28789 5.74845 10.794c.95389 1.5062 2.26758 2.6609 3.94107 3.4642C10.861 14.8271 11.7228 15.2455 12.2751 15.5133 12.8273 15.781 13.1871 15.9651 13.3545 16.0655z" fill="#000"/><path d="M34.2881 32.3301 34.4387 32.8322C33.5351 33.2338 32.5895 33.5015 31.6022 33.6354 30.6148 33.7693 29.6526 33.7358 28.7154 33.535 27.7782 33.3342 27.0084 32.8238 26.406 32.0038 25.8035 31.1838 25.5023 30.1044 25.5023 28.7656V9.88856H22.6406V9.53713H23.1427c.8032.0 1.5647-.17572 2.2843-.527149999999999C26.1466 8.65854 26.7156 8.22344 27.134 7.70465 27.5523 7.18587 27.9205 6.66709 28.2385 6.14831 28.5564 5.62952 28.7823 5.18605 28.9162 4.81788L29.117 4.26562H29.7697V9.53713h4.2674V9.88856H29.7697V28.9162c0 1.3388.477 2.3512 1.4308 3.0374C32.1544 32.6397 33.1836 32.7652 34.2881 32.3301z" fill="#000"/><path d="M55.2751 29.5686C55.2751 30.2045 55.2918 30.6857 55.3253 30.9994 55.3587 31.3174 55.4257 31.6939 55.5261 32.129 55.6265 32.5641 55.8273 32.8737 56.1285 33.0578 56.4298 33.2419 56.8147 33.334 57.2832 33.334V33.6352H54.1203C53.5848 33.6352 53.0995 33.5557 52.6644 33.3842 52.2293 33.2168 51.9113 33.016 51.7105 32.7817 51.5097 32.5474 51.3423 32.3131 51.2085 32.0788 51.0746 31.8445 51.0076 31.6437 51.0076 31.4764L50.9574 31.2254V29.3176C50.4554 30.6564 49.3509 31.8362 47.6439 32.857 45.937 33.8778 43.8953 34.1874 41.5189 33.7858c-1.4392-.2301-2.8282-1.0878-4.167-2.5604-1.3388-1.4727-2.0081-3.2299-2.0081-5.2715.0-1.4058.2761-2.6944.828299999999999-3.8658C36.7244 20.9166 37.4272 19.9878 38.2807 19.3017 39.1342 18.6156 40.0546 18.0968 41.042 17.7454 42.0294 17.3939 42.9916 17.2182 43.9288 17.2182c3.38039999999999.0 5.7233 1.3053 7.0286 3.916V15.5113c0-1.4727-.401600000000002-2.7278-1.2049-3.7654-.8033-1.0376-2.0249-1.5564-3.6649-1.5564C45.2508 10.1895 44.4057 10.3987 43.5522 10.8171 42.6988 11.2397 41.9624 11.7375 41.3432 12.3233 40.724 12.909 40.1634 13.4947 39.6614 14.0804 39.1593 14.6661 38.7911 15.1598 38.5569 15.5615L38.1552 16.1639l-2.0584-1.9078C36.9336 13.252 38.3058 12.2396 40.2136 11.2187c1.9078-1.0166 3.849-1.5312 5.8238-1.5312 2.8449.0 5.0958.7196 6.75250000000001 2.1588 1.6568 1.4392 2.4852 3.5143 2.4852 6.2254V29.5686zM39.2597 25.8032C39.5275 27.0082 40.0546 28.0959 40.8412 29.0665 41.6277 30.0372 42.5063 30.74 43.4769 31.1751 44.4475 31.6103 45.4349 31.8445 46.439 31.878S48.3552 31.6019 49.1752 30.9492c.82-.6526 1.4141-1.5982 1.7822-2.8365V22.6403C50.5223 21.3015 49.7693 20.1719 48.6982 19.2515 47.6272 18.3311 46.2717 17.8709 44.6316 17.8709c-1.8073.0-3.2716.8033-4.3929 2.4098C39.1175 21.8873 38.7911 23.7281 39.2597 25.8032z" fill="#000"/><path d="M73.7032 9.53906h6.4764V9.9407C80.1796 9.97417 80.1043 9.97417 79.9537 9.9407 79.8031 9.90723 79.5855 9.9407 79.301 10.0411 79.0165 10.1415 78.7321 10.2587 78.4476 10.3925 78.1631 10.5264 77.8618 10.7774 77.5439 11.1456 77.2259 11.5138 76.9498 11.9656 76.7155 12.5011c-1.6066 3.916-4.8699 12.2835-9.7899 25.1024C65.5533 41.1179 63.8129 43.0591 61.7043 43.4273 59.8634 43.762 58.3405 43.2265 57.1356 41.8207L57.0352 41.6701l2.0082-2.8114C59.7463 39.7623 60.5328 40.3815 61.403 40.7162 62.2732 41.0509 63.1769 40.9422 64.1141 40.3899 65.0512 39.8377 65.8378 38.8085 66.4737 37.3023 66.6411 36.9341 66.8252 36.4739 67.026 35.9217L67.528 34.541 67.779 33.9386 58.5414 11.3464C58.2736 10.7774 57.9556 10.4009 57.5875 10.2168 57.2193 10.0327 56.7005 9.9407 56.0311 9.9407H55.6797V9.53906h10.543V9.9407C65.1851 9.90723 64.3902 10.0997 63.838 10.5181 63.2857 10.9364 63.2439 11.7313 63.7124 12.9028 63.9133 13.4048 65.9717 18.5927 69.8876 28.4663 73.7701 18.4922 75.7951 13.2877 75.9624 12.8526 76.6318 10.9113 75.9959 9.9407 74.0546 9.9407H73.7032V9.53906z" fill="#000"/><path d="M99.4547 29.5686C99.4547 30.2045 99.4715 30.6857 99.5049 30.9994 99.5384 31.3174 99.6054 31.6939 99.7058 32.129 99.8062 32.5641 100.007 32.8737 100.308 33.0578 100.609 33.2419 100.994 33.334 101.463 33.334V33.6352H98.3C97.7645 33.6352 97.2792 33.5557 96.8441 33.3842 96.409 33.2168 96.091 33.016 95.8902 32.7817 95.6894 32.5474 95.522 32.3131 95.3881 32.0788 95.2543 31.8445 95.1873 31.6437 95.1873 31.4764L95.1371 31.2254V29.3176C94.6351 30.6564 93.5306 31.8362 91.8236 32.857 90.1167 33.8778 88.075 34.1874 85.6986 33.7858c-1.4392-.2301-2.8282-1.0878-4.167-2.5604C80.1928 29.7527 79.5234 27.9955 79.5234 25.9539 79.5234 24.5481 79.7996 23.2595 80.3518 22.0881 80.9041 20.9166 81.6069 19.9878 82.4604 19.3017 83.3139 18.6156 84.2343 18.0968 85.2217 17.7454 86.2091 17.3939 87.1713 17.2182 88.1085 17.2182c3.38039999999999.0 5.7233 1.3053 7.0286 3.916V15.5113C95.1371 14.0386 94.7355 12.7835 93.9322 11.7459 93.1289 10.7083 91.9073 10.1895 90.2673 10.1895 89.4305 10.1895 88.5854 10.3987 87.7319 10.8171 86.8784 11.2397 86.1421 11.7375 85.5229 12.3233 84.9037 12.909 84.3431 13.4947 83.8411 14.0804 83.339 14.6661 82.9708 15.1598 82.7365 15.5615L82.3349 16.1639 80.2765 14.2561C81.1133 13.252 82.4855 12.2396 84.3933 11.2187 86.3011 10.2021 88.2423 9.6875 90.2171 9.6875c2.8449.0 5.09569999999999.7196 6.7525 2.1588 1.6568 1.4392 2.4851 3.5143 2.4851 6.2254V29.5686zM83.4394 25.8032C83.7072 27.0082 84.2343 28.0959 85.0209 29.0665 85.8074 30.0372 86.686 30.74 87.6566 31.1751 88.6272 31.6103 89.6146 31.8445 90.6187 31.878 91.6228 31.9115 92.5348 31.6019 93.3549 30.9492 94.1749 30.2966 94.769 29.351 95.1371 28.1127V22.6403C94.702 21.3015 93.9489 20.1719 92.8779 19.2515S90.4514 17.8709 88.8113 17.8709c-1.8073.0-3.27170000000001.8033-4.3929 2.4098C83.2972 21.8873 82.9708 23.7281 83.4394 25.8032z" fill="#000"/><path d="M128.627 33.3382V33.6394H123.456C122.92 33.6394 122.46 33.447 122.075 33.0621 121.69 32.6772 121.498 32.2169 121.498 31.6814V16.2183C121.498 14.5783 120.987 13.1224 119.966 11.8505 118.946 10.5787 117.515 10.0097 115.674 10.1436 114.737 10.2105 113.8 10.5452 112.862 11.1477 111.925 11.7501 111.222 12.3358 110.754 12.9048L110.051 13.7583V30.2255C110.051 30.6941 110.076 31.0706 110.126 31.3551 110.176 31.6396 110.285 31.9576 110.453 32.309 110.62 32.6604 110.913 32.9198 111.331 33.0872 111.75 33.2545 112.293 33.3382 112.963 33.3382V33.6394H102.922V33.3382C104.863 33.3382 105.834 32.3174 105.834 30.2757V11.4991C105.834 11.064 105.675 10.6791 105.357 10.3444S104.646 9.84234 104.177 9.84234H102.922V9.54111H110.051V12.955C110.118 12.8546 110.218 12.7124 110.352 12.5283 110.486 12.3442 110.779 12.0346 111.231 11.5995 111.683 11.1644 112.168 10.7711 112.687 10.4197 113.205 10.0683 113.875 9.7503 114.695 9.4658 115.515 9.18131 116.36 9.03906 117.23 9.03906c2.812.0 4.929.786540000000001 6.351 2.35964 1.423 1.5731 2.134 3.6147 2.134 6.125V30.2255C125.715 30.6941 125.74 31.0706 125.79 31.3551 125.84 31.6396 125.949 31.9576 126.116 32.309 126.284 32.6604 126.577 32.9198 126.995 33.0872 127.413 33.2545 127.957 33.3382 128.627 33.3382z" fill="#000"/><path d="M150.511 30.2703C150.511 32.312 151.482 33.3328 153.423 33.3328V33.634H148.604C147.666 33.634 146.98 33.1989 146.545 32.3287 144.537 33.5001 142.508 34.0858 140.47 34.0858 137.358 34.0858 134.789 32.9144 132.764 30.5715 130.735 28.2286 129.727 25.2665 129.727 21.6853c0-3.5478 1.07900000000001-6.535 3.238-8.9616C135.124 10.2972 137.759 9.08387 140.872 9.08387 142.88 9.08387 144.704 9.60265 146.344 10.6402V2.35642C146.344 1.88785 146.185 1.49458 145.867 1.17661 145.549.858648 145.156.699666 144.688.699666h-1.256V.398438H150.562L150.511 30.2703zM142.328 10.0378c-2.209.0-4.05000000000001 1.0794-5.523 3.2382C135.333 15.4348 134.596 18.2546 134.596 21.7355 134.596 22.84 134.739 24.0198 135.023 25.2749 135.308 26.53 135.734 27.76 136.303 28.965 136.872 30.1699 137.651 31.1656 138.638 31.9522 139.625 32.7387 140.738 33.132 141.977 33.132 143.315 33.132 144.767 32.6466 146.344 31.676 146.344 31.6426 146.336 31.5923 146.319 31.5254 146.303 31.4585 146.294 31.3915 146.294 31.3246L146.344 11.3933C145.072 10.4896 143.734 10.0378 142.328 10.0378z" fill="#000"/><path d="M165.576 33.7903H154.531V33.3384C156.941 33.2715 158.146 32.2004 158.146 30.1253V4.26984C158.146 2.19471 156.941 1.12368 154.531 1.05674V.554688h14.058C171.869.554688 174.513 1.54205 176.521 3.51677 178.529 5.49149 179.533 8.06867 179.533 11.2483c0 3.3805-1.029 6.0664-3.08699999999999 8.0579C174.387 21.2976 171.902 22.2934 168.99 22.2934 168.12 22.2934 167.283 22.1678 166.48 21.9168 165.677 21.6658 165.007 21.3646 164.472 21.0131 163.936 20.6617 163.476 20.3103 163.091 19.9588 162.706 19.6074 162.413 19.3145 162.213 19.0803L161.962 18.7288V30.1253c0 2.0751 1.20400000000001 3.1462 3.614 3.2131V33.7903zm-3.614-16.6178C162.028 17.2729 162.129 17.4151 162.263 17.5992 162.397 17.7833 162.681 18.1013 163.116 18.5531 163.551 19.0049 164.02 19.4066 164.522 19.758 165.024 20.1095 165.677 20.4358 166.48 20.737 167.283 21.0382 168.12 21.1889 168.99 21.1889 170.764 21.1889 172.245 20.2768 173.433 18.4527 174.622 16.6286 175.216 14.2271 175.216 11.2483 175.216 8.33643 174.672 5.97681 173.584 4.16943 172.496 2.36206 170.831 1.45837 168.589 1.45837H161.962V17.1725z" fill="#000"/><path d="M190.478 33.3328V33.634h-10.04V33.3328c1.93700000000001.0 2.911-1.0208 2.911-3.0625V2.35642C183.349 1.88785 183.19 1.49458 182.872 1.17661 182.55.858648 182.161.699666 181.693.699666H180.438V.398438H187.567V30.2201C187.567 30.6887 187.592 31.0652 187.642 31.3497 187.692 31.6342 187.801 31.9522 187.968 32.3036 188.136 32.655 188.428 32.9144 188.847 33.0818 189.261 33.2491 189.809 33.3328 190.478 33.3328z" fill="#000"/><path d="M211.564 29.5686C211.564 30.2045 211.581 30.6857 211.614 30.9994 211.648 31.3174 211.715 31.6939 211.815 32.129 211.916 32.5641 212.116 32.8737 212.418 33.0578 212.719 33.2419 213.104 33.334 213.572 33.334V33.6352H210.409C209.874 33.6352 209.389 33.5557 208.953 33.3842 208.518 33.2168 208.2 33.016 208 32.7817 207.799 32.5474 207.631 32.3131 207.498 32.0788 207.364 31.8445 207.297 31.6437 207.297 31.4764L207.247 31.2254V29.3176C206.744 30.6564 205.64 31.8362 203.933 32.857 202.226 33.8778 200.184 34.1874 197.808 33.7858 196.369 33.5557 194.98 32.698 193.641 31.2254 192.302 29.7527 191.633 27.9955 191.633 25.9539 191.633 24.5481 191.909 23.2595 192.461 22.0881 193.013 20.9166 193.716 19.9878 194.57 19.3017 195.423 18.6156 196.344 18.0968 197.331 17.7454 198.318 17.3939 199.281 17.2182 200.218 17.2182 203.598 17.2182 205.941 18.5235 207.247 21.1342V15.5113C207.247 14.0386 206.845 12.7835 206.042 11.7459 205.238 10.7083 204.017 10.1895 202.377 10.1895 201.54 10.1895 200.695 10.3987 199.841 10.8171 198.988 11.2397 198.251 11.7375 197.632 12.3233 197.013 12.909 196.452 13.4947 195.95 14.0804 195.448 14.6661 195.08 15.1598 194.846 15.5615L194.444 16.1639 192.386 14.2561C193.223 13.252 194.595 12.2396 196.503 11.2187 198.41 10.2021 200.352 9.6875 202.326 9.6875c2.845.0 5.096.7196 6.75300000000001 2.1588C210.736 13.2855 211.564 15.3606 211.564 18.0717V29.5686zm-16.015-3.7654C195.817 27.0082 196.344 28.0959 197.13 29.0665 197.917 30.0372 198.795 30.74 199.766 31.1751 200.737 31.6103 201.724 31.8445 202.728 31.878 203.732 31.9115 204.644 31.6019 205.464 30.9492 206.284 30.2966 206.878 29.351 207.247 28.1127V22.6403C206.811 21.3015 206.058 20.1719 204.987 19.2515S202.561 17.8709 200.921 17.8709C199.113 17.8709 197.649 18.6742 196.528 20.2807 195.407 21.8873 195.08 23.7281 195.549 25.8032z" fill="#000"/><path d="M229.992 9.53906h6.477V9.9407C236.469 9.97417 236.393 9.97417 236.243 9.9407 236.092 9.90723 235.875 9.9407 235.59 10.0411 235.306 10.1415 235.021 10.2587 234.737 10.3925 234.452 10.5264 234.151 10.7774 233.833 11.1456S233.239 11.9656 233.005 12.5011C231.398 16.4171 228.135 24.7846 223.215 37.6035 221.842 41.1179 220.102 43.0591 217.993 43.4273 216.152 43.762 214.63 43.2265 213.425 41.8207L213.324 41.6701 215.332 38.8587C216.035 39.7623 216.822 40.3815 217.692 40.7162S219.466 40.9422 220.403 40.3899C221.34 39.8377 222.127 38.8085 222.763 37.3023 222.93 36.9341 223.114 36.4739 223.315 35.9217L223.817 34.541 224.068 33.9386 214.83 11.3464C214.563 10.7774 214.245 10.4009 213.877 10.2168 213.508 10.0327 212.99 9.9407 212.32 9.9407H211.969V9.53906h10.543V9.9407C221.474 9.90723 220.679 10.0997 220.127 10.5181 219.575 10.9364 219.533 11.7313 220.002 12.9028 220.202 13.4048 222.261 18.5927 226.177 28.4663 230.059 18.4922 232.084 13.2877 232.251 12.8526 232.921 10.9113 232.285 9.9407 230.344 9.9407H229.992V9.53906z" fill="#000"/></svg>