<?xml version="1.0" encoding="UTF-8"?>
<svg id="Layer_2" data-name="Layer 2" xmlns="http://www.w3.org/2000/svg" viewBox="0 0 355.19 92">
  <defs>
    <style>
      .cls-1 {
        fill: #fff;
      }
    </style>
  </defs>
  <g id="Layer_2-2" data-name="Layer 2">
    <g>
      <g>
        <path class="cls-1" d="M127.31,64.75c-1.97,0-3.58-.31-4.82-.94-1.25-.62-2.24-1.54-2.99-2.74-.75-1.2-1.32-2.64-1.73-4.32-.41-1.68-.76-3.55-1.04-5.62l-1.37-10.01c-.19-.96-.48-1.67-.86-2.12-.38-.46-.98-.68-1.8-.68-1.15,0-1.87-.12-2.16-.36-.29-.24-.43-.62-.43-1.15,0-.29.02-.53.07-.72l.65-5.04c.29-2.02,1.44-3.02,3.46-3.02h2.66c1.58,0,2.93.17,4.03.5,1.1.34,2.03.92,2.77,1.76.74.84,1.33,1.98,1.76,3.42.43,1.44.77,3.26,1.01,5.47l1.58,14.33c.1.96.29,1.44.58,1.44.24,0,.58-.48,1.01-1.44l5.47-14.33c.86-2.21,1.72-4.03,2.56-5.47.84-1.44,1.75-2.58,2.74-3.42.98-.84,2.08-1.43,3.28-1.76,1.2-.33,2.59-.5,4.18-.5h2.66c1.78,0,2.66.77,2.66,2.3,0,.34-.02.58-.07.72l-.65,5.04c-.14.91-.43,1.51-.86,1.8s-1.22.43-2.38.43c-.82,0-1.49.23-2.02.68-.53.46-.98,1.16-1.37,2.12l-4.25,10.01c-.86,2.06-1.73,3.94-2.59,5.62-.86,1.68-1.84,3.12-2.92,4.32-1.08,1.2-2.33,2.11-3.74,2.74-1.42.62-3.11.94-5.08.94Z"/>
        <path class="cls-1" d="M168.14,27.31c1.82,0,3.66.2,5.51.61,1.85.41,3.5,1.08,4.97,2.02,1.46.94,2.66,2.15,3.6,3.64.94,1.49,1.4,3.29,1.4,5.4,0,.34-.01.66-.04.97-.02.31-.06.64-.11.97l-1.94,13.75c-.05.24-.07.53-.07.86,0,.62.14,1.14.43,1.55.29.41.7.61,1.22.61.48,0,.98-.19,1.51-.58.14-.14.26-.22.36-.22s.14.07.14.22v.14c-.34,2.35-1.27,4.19-2.81,5.51-1.54,1.32-3.46,1.98-5.76,1.98s-3.98-.55-5.04-1.66c-1.06-1.1-1.58-2.4-1.58-3.89v-.58c0-.19.02-.38.07-.58-.58,4.46-3.34,6.7-8.28,6.7-2.06,0-3.76-.35-5.08-1.04-1.32-.7-2.36-1.56-3.13-2.59-.77-1.03-1.3-2.13-1.58-3.31-.29-1.18-.43-2.24-.43-3.2,0-1.87.33-3.65,1.01-5.33.67-1.68,1.61-3.17,2.81-4.46,1.2-1.3,2.62-2.32,4.25-3.06,1.63-.74,3.41-1.12,5.33-1.12,1.68,0,3.12.42,4.32,1.26,1.2.84,2.09,1.81,2.66,2.92l.14-1.51c.05-.19.07-.46.07-.79,0-1.44-.59-2.7-1.76-3.78-1.18-1.08-2.87-1.62-5.08-1.62s-4.56.74-6.77,2.23c-.77.48-1.37.72-1.8.72-.38,0-.62-.12-.72-.36-.1-.24-.14-.48-.14-.72s.02-.43.07-.58l.72-5.11c.19-1.25.71-2.26,1.55-3.02.84-.77,1.84-1.37,2.99-1.8,1.15-.43,2.35-.73,3.6-.9,1.25-.17,2.38-.25,3.38-.25ZM162.88,52.37c0,1.15.24,2.2.72,3.13.48.94,1.32,1.4,2.52,1.4.91,0,1.68-.25,2.3-.76.62-.5,1.14-1.13,1.55-1.87.41-.74.7-1.55.86-2.41.17-.86.25-1.68.25-2.45,0-1.05-.25-2.05-.76-2.99-.5-.94-1.36-1.4-2.56-1.4-.82,0-1.52.25-2.12.76-.6.5-1.1,1.13-1.51,1.87-.41.75-.72,1.54-.94,2.38-.22.84-.32,1.62-.32,2.34Z"/>
        <path class="cls-1" d="M218.39,35.52c-.19,1.2-.53,1.93-1.01,2.2-.48.26-1.01.4-1.58.4-1.49,0-2.8.08-3.92.25-1.13.17-2.09.53-2.88,1.08-.79.55-1.44,1.32-1.94,2.3-.5.98-.88,2.29-1.12,3.92l-1.15,8.06v.14c0,.38.18.66.54.83.36.17.76.35,1.19.54.43.19.83.44,1.19.76.36.31.54.78.54,1.4,0,.34-.02.6-.07.79l-.5,3.82c-.1.86-.5,1.42-1.22,1.66-.72.24-1.42.36-2.09.36h-13.1c-.67,0-1.3-.11-1.87-.32-.58-.22-.86-.66-.86-1.33v-.36l.5-3.82c.14-1.01.46-1.7.94-2.09.48-.38,1-.67,1.55-.86.55-.19,1.04-.36,1.48-.5.43-.14.67-.48.72-1.01l1.73-12.38c.05-.14.07-.34.07-.58,0-.62-.21-1.15-.61-1.58-.41-.43-1.07-.65-1.98-.65-1.2,0-1.94-.13-2.23-.4-.29-.26-.43-.68-.43-1.26v-.58l.72-5.11c.29-2.02,1.44-3.02,3.46-3.02h2.81c3.36,0,5.86.75,7.49,2.23,1.54-1.01,3.14-1.79,4.82-2.34,1.68-.55,3.36-.83,5.04-.83s2.92.26,3.56.79c.65.53.97,1.25.97,2.16,0,.34-.02.6-.07.79l-.65,4.54Z"/>
        <path class="cls-1" d="M218.61,46.03c.38-2.54,1.21-4.94,2.48-7.2,1.27-2.26,2.84-4.24,4.72-5.94,1.87-1.7,3.97-3.06,6.3-4.07,2.33-1.01,4.72-1.51,7.16-1.51,2.3,0,4.4.43,6.3,1.3,1.9.86,3.53,2.03,4.9,3.49,1.37,1.46,2.44,3.18,3.2,5.15.77,1.97,1.15,4.06,1.15,6.26,0,2.69-.58,5.3-1.73,7.85-1.15,2.54-2.69,4.81-4.61,6.8-1.92,1.99-4.13,3.59-6.62,4.79-2.5,1.2-5.11,1.8-7.85,1.8-2.26,0-4.33-.43-6.23-1.3-1.9-.86-3.54-2.04-4.93-3.53-1.39-1.49-2.47-3.2-3.24-5.15-.77-1.94-1.15-4.02-1.15-6.23,0-.38.01-.79.04-1.22.02-.43.06-.86.11-1.3ZM237.91,37.11c-1.3,0-2.45.35-3.46,1.04-1.01.7-1.87,1.58-2.59,2.66-.72,1.08-1.27,2.24-1.66,3.49-.38,1.25-.58,2.45-.58,3.6,0,1.87.49,3.52,1.48,4.93.98,1.42,2.41,2.12,4.28,2.12,1.3,0,2.46-.32,3.49-.97,1.03-.65,1.91-1.49,2.63-2.52.72-1.03,1.27-2.17,1.66-3.42.38-1.25.58-2.45.58-3.6,0-.86-.12-1.73-.36-2.59s-.6-1.66-1.08-2.38c-.48-.72-1.08-1.3-1.8-1.73-.72-.43-1.58-.65-2.59-.65Z"/>
        <path class="cls-1" d="M257.56,46.03c.38-2.54,1.21-4.94,2.48-7.2,1.27-2.26,2.84-4.24,4.72-5.94,1.87-1.7,3.97-3.06,6.3-4.07s4.72-1.51,7.16-1.51c2.3,0,4.4.43,6.3,1.3s3.53,2.03,4.9,3.49c1.37,1.46,2.44,3.18,3.2,5.15.77,1.97,1.15,4.06,1.15,6.26,0,2.69-.58,5.3-1.73,7.85-1.15,2.54-2.69,4.81-4.61,6.8-1.92,1.99-4.13,3.59-6.62,4.79s-5.11,1.8-7.85,1.8c-2.26,0-4.33-.43-6.23-1.3-1.9-.86-3.54-2.04-4.93-3.53-1.39-1.49-2.47-3.2-3.24-5.15s-1.15-4.02-1.15-6.23c0-.38.01-.79.04-1.22.02-.43.06-.86.11-1.3ZM276.86,37.11c-1.3,0-2.45.35-3.46,1.04-1.01.7-1.87,1.58-2.59,2.66-.72,1.08-1.27,2.24-1.66,3.49s-.58,2.45-.58,3.6c0,1.87.49,3.52,1.48,4.93.98,1.42,2.41,2.12,4.28,2.12,1.3,0,2.46-.32,3.49-.97,1.03-.65,1.91-1.49,2.63-2.52.72-1.03,1.27-2.17,1.66-3.42.38-1.25.58-2.45.58-3.6,0-.86-.12-1.73-.36-2.59-.24-.86-.6-1.66-1.08-2.38-.48-.72-1.08-1.3-1.8-1.73-.72-.43-1.58-.65-2.59-.65Z"/>
        <path class="cls-1" d="M342.16,42.94c.05-.24.07-.44.07-.61v-.54c0-1.15-.31-2.22-.94-3.2-.62-.98-1.56-1.48-2.81-1.48s-2.42.58-3.53,1.73c-1.1,1.15-1.75,2.52-1.94,4.1l-1.66,11.74c-.05.19-.07.48-.07.86,0,.53.13,1.02.4,1.48.26.46.68.68,1.26.68.48,0,.98-.19,1.51-.58.14-.14.26-.22.36-.22s.14.07.14.22v.14c-.34,2.3-1.24,4.13-2.7,5.47-1.46,1.34-3.28,2.02-5.44,2.02-1.2,0-2.25-.2-3.13-.61-.89-.41-1.6-.95-2.12-1.62-.53-.67-.92-1.45-1.19-2.34-.26-.89-.4-1.79-.4-2.7,0-.29.01-.59.04-.9.02-.31.06-.64.11-.97l1.87-12.89c.05-.24.07-.44.07-.61v-.54c0-1.15-.31-2.18-.94-3.1-.62-.91-1.56-1.37-2.81-1.37-1.34,0-2.54.55-3.6,1.66-1.06,1.11-1.7,2.5-1.94,4.18l-1.51,10.8v.14c0,.38.18.66.54.83.36.17.76.35,1.19.54.43.19.83.44,1.19.76.36.31.54.78.54,1.4,0,.34-.02.6-.07.79l-.5,3.82c-.1.86-.5,1.42-1.22,1.66-.72.24-1.42.36-2.09.36h-13.1c-.67,0-1.3-.11-1.87-.32s-.86-.66-.86-1.33v-.36l.5-3.82c.14-1.01.46-1.7.94-2.09.48-.38,1-.67,1.55-.86.55-.19,1.04-.36,1.48-.5.43-.14.67-.48.72-1.01l1.87-13.18c.05-.19.07-.43.07-.72,0-.58-.16-.91-.47-1.01-.31-.1-.68-.17-1.12-.22-1.01,0-1.51-.55-1.51-1.66v-.61c0-.22.02-.44.07-.68l.65-4.54c.24-1.39.76-2.24,1.55-2.56.79-.31,1.72-.47,2.77-.47.77,0,1.56.02,2.38.07.82.05,1.61.17,2.38.36.77.19,1.48.49,2.12.9.65.41,1.19,1,1.62,1.76,1.54-1.39,3.06-2.39,4.57-2.99,1.51-.6,3.23-.9,5.15-.9,2.02,0,3.88.32,5.58.97,1.7.65,3.06,1.79,4.07,3.42,1.54-1.39,3.18-2.47,4.93-3.24,1.75-.77,3.56-1.15,5.44-1.15,4.32,0,7.3,1.01,8.93,3.02,1.68,2.11,2.52,4.61,2.52,7.49,0,.96-.07,1.99-.22,3.1l-1.94,13.75c-.05.19-.07.48-.07.86,0,.53.13,1.02.4,1.48.26.46.68.68,1.26.68.48,0,.98-.19,1.51-.58.14-.14.26-.22.36-.22s.14.07.14.22v.14c-.34,2.3-1.24,4.13-2.7,5.47-1.46,1.34-3.28,2.02-5.44,2.02-1.2,0-2.24-.2-3.13-.61-.89-.41-1.6-.95-2.12-1.62-.53-.67-.92-1.45-1.19-2.34-.26-.89-.4-1.79-.4-2.7,0-.29.01-.59.04-.9.02-.31.06-.64.11-.97l1.8-12.67Z"/>
      </g>
      <path class="cls-1" d="M46,0C20.59,0,0,20.59,0,46s20.59,46,46,46,46-20.59,46-46S71.4,0,46,0ZM11.96,27.66c1.46-1.46,3.82-1.46,5.27,0l13.07,13.07,13.07-13.07c1.46-1.46,3.82-1.46,5.27,0,1.46,1.46,1.46,3.82,0,5.27l-15.7,15.7c-.73.73-1.68,1.09-2.64,1.09s-1.91-.36-2.64-1.09l-15.7-15.7c-1.46-1.46-1.46-3.82,0-5.27ZM30.3,65.43c-.95,0-1.91-.36-2.64-1.09l-15.7-15.7c-1.46-1.46-1.46-3.82,0-5.27,1.46-1.46,3.82-1.46,5.27,0l13.07,13.07,28.77-28.77c.72-.72,1.67-1.14,2.71-1.09,1.01.02,1.98.45,2.66,1.2l15.7,17.01c1.4,1.51,1.3,3.87-.21,5.27-1.51,1.4-3.87,1.3-5.27-.21l-13.07-14.16-28.66,28.66c-.73.73-1.68,1.09-2.64,1.09ZM77.4,65.43c-.95,0-1.91-.36-2.64-1.09l-13.07-13.07-13.07,13.07c-1.46,1.46-3.82,1.46-5.27,0-1.46-1.46-1.46-3.82,0-5.27l15.7-15.7c1.46-1.46,3.82-1.46,5.27,0l15.7,15.7c1.46,1.46,1.46,3.82,0,5.27-.73.73-1.68,1.09-2.64,1.09Z"/>
    </g>
  </g>
</svg>