<svg xmlns="http://www.w3.org/2000/svg" width="186" height="47" viewBox="0 0 186 47" fill="none"><path d="M82.8636 20.4371 76.8984 5.63281H81.0096L83.798 13.1885 84.6061 15.7118C84.8208 15.0708 84.9552 14.6472 85.0109 14.4434 85.1414 14.0249 85.2797 13.6067 85.4292 13.1885l2.8155-7.55569H92.2732L86.3907 20.4371H82.8636z" fill="#000"/><path d="M96.7013 10.1484 93.1467 9.50735C93.5462 8.07577 94.2334 7.01623 95.2098 6.32899 96.1851 5.64035 97.6343 5.29688 99.5589 5.29688 101.305 5.29688 102.607 5.50459 103.461 5.91749 104.317 6.33039 104.918 6.85611 105.266 7.49295 105.615 8.12868 105.789 9.29796 105.789 10.9986L105.748 15.5701C105.748 16.8713 105.811 17.8303 105.935 18.4481 106.061 19.0662 106.295 19.7291 106.639 20.4354h-3.875C102.662 20.1745 102.537 19.7887 102.388 19.2781 102.323 19.0458 102.277 18.8924 102.25 18.8177 101.58 19.4682 100.864 19.9559 100.102 20.2817 99.3402 20.6064 98.5268 20.7693 97.6629 20.7693 96.1389 20.7693 94.9383 20.3564 94.0595 19.5292 93.1808 18.7023 92.7422 17.6565 92.7422 16.392 92.7422 15.5567 92.9418 14.811 93.3424 14.1551 93.7415 13.5003 94.3011 12.9978 95.0211 12.6502 95.7408 12.3011 96.7799 11.9968 98.1368 11.7373 99.9676 11.3938 101.236 11.0733 101.942 10.7757v-.391C101.942 9.6322 101.756 9.09557 101.384 8.77504 101.012 8.45452 100.311 8.2944 99.2803 8.2944 98.5822 8.2944 98.0391 8.43157 97.6491 8.7045 97.2581 8.97884 96.9429 9.45976 96.7013 10.1484zM101.942 13.3265C101.44 13.4936 100.645 13.6932 99.5589 13.9255 98.471 14.1576 97.7606 14.3857 97.4266 14.6086 96.9143 14.9714 96.659 15.4305 96.659 15.9886 96.659 16.5373 96.8642 17.0112 97.2729 17.4107 97.6819 17.8099 98.202 18.0095 98.8335 18.0095 99.5398 18.0095 100.214 17.7774 100.855 17.3127 101.329 16.9597 101.64 16.5278 101.789 16.0158 101.891 15.6816 101.942 15.0458 101.942 14.1061v-.7796z" fill="#000"/><path d="M121.663 10.0084 117.801 10.7052C117.671 9.93369 117.376 9.35367 116.917 8.9626 116.457 8.57294 115.859 8.37726 115.126 8.37726 114.149 8.37726 113.371 8.71402 112.791 9.38782 112.21 10.0627 111.919 11.1886 111.919 12.7683 111.919 14.5243 112.214 15.7658 112.805 16.4897 113.394 17.215 114.187 17.5775 115.181 17.5775 115.924 17.5775 116.533 17.3659 117.007 16.9435 117.481 16.5211 117.816 15.793 118.01 14.7623L121.858 15.4167C121.459 17.1826 120.692 18.5162 119.558 19.4181 118.425 20.3184 116.905 20.7693 114.999 20.7693 112.835 20.7693 111.108 20.0863 109.822 18.72c-1.288-1.365-1.931-3.2571-1.931-5.6732C107.891 10.6033 108.537 8.70058 109.829 7.33955 111.12 5.97739 112.867 5.29688 115.07 5.29688 116.872 5.29688 118.305 5.68542 119.37 6.46084 120.434 7.23625 121.198 8.41925 121.663 10.0084z" fill="#000"/><path d="M126.655 10.1484 123.1 9.50735C123.5 8.07577 124.187 7.01623 125.163 6.32899 126.138 5.64035 127.588 5.29688 129.512 5.29688 131.259 5.29688 132.56 5.50459 133.414 5.91749 134.27 6.33039 134.872 6.85611 135.219 7.49295 135.568 8.12868 135.742 9.29796 135.742 10.9986L135.702 15.5701C135.702 16.8713 135.764 17.8303 135.889 18.4481 136.014 19.0662 136.249 19.7291 136.593 20.4354H132.717C132.616 20.1745 132.491 19.7887 132.341 19.2781 132.276 19.0458 132.23 18.8924 132.203 18.8177 131.533 19.4682 130.818 19.9559 130.056 20.2817 129.294 20.6064 128.48 20.7693 127.616 20.7693 126.092 20.7693 124.892 20.3564 124.013 19.5292 123.134 18.7023 122.695 17.6565 122.695 16.392 122.695 15.5567 122.895 14.811 123.296 14.1551 123.695 13.5003 124.255 12.9978 124.975 12.6502 125.694 12.3011 126.733 11.9968 128.09 11.7373 129.921 11.3938 131.19 11.0733 131.896 10.7757v-.391C131.896 9.6322 131.71 9.09557 131.338 8.77504 130.965 8.45452 130.265 8.2944 129.234 8.2944 128.536 8.2944 127.992 8.43157 127.603 8.7045 127.212 8.97884 126.896 9.45976 126.655 10.1484zM131.896 13.3265C131.393 13.4936 130.599 13.6932 129.512 13.9255 128.424 14.1576 127.714 14.3857 127.38 14.6086 126.868 14.9714 126.612 15.4305 126.612 15.9886 126.612 16.5373 126.818 17.0112 127.226 17.4107 127.635 17.8099 128.155 18.0095 128.787 18.0095 129.493 18.0095 130.167 17.7774 130.808 17.3127 131.282 16.9597 131.593 16.5278 131.742 16.0158 131.844 15.6816 131.896 15.0458 131.896 14.1061v-.7796z" fill="#000"/><path d="M145.414 5.6326V8.75498H142.737V14.7218C142.737 15.9291 142.762 16.634 142.814 16.8336 142.864 17.0334 142.981 17.1978 143.162 17.3279 143.344 17.4584 143.564 17.5236 143.824 17.5236 144.187 17.5236 144.712 17.3974 145.399 17.1474L145.734 20.1858C144.823 20.5754 143.792 20.7711 142.639 20.7711 141.933 20.7711 141.297 20.653 140.729 20.4153 140.163 20.1788 139.747 19.872 139.482 19.4957 139.218 19.1195 139.034 18.6103 138.931 17.969 138.848 17.5141 138.806 16.5945 138.806 15.2091V8.75498h-1.798V5.6326h1.798V2.69218L142.737.40625V5.6326H145.414z" fill="#000"/><path d="M147.094.0h3.917V3.62514h-3.917V0zm0 5.63086h3.917V20.4351h-3.917V5.63086z" fill="#000"/><path d="M153.5 12.824C153.5 11.5229 153.82 10.2637 154.462 9.04686 155.103 7.82999 156.01 6.89949 157.186 6.25845 158.362 5.6174 159.674 5.29688 161.123 5.29688 163.363 5.29688 165.2 6.0247 166.63 7.47812 168.061 8.93265 168.777 10.7704 168.777 12.9911 168.777 15.2306 168.054 17.0874 166.609 18.5596 165.164 20.0331 163.346 20.7693 161.152 20.7693 159.795 20.7693 158.501 20.4625 157.27 19.8498 156.038 19.2359 155.103 18.337 154.462 17.1526 153.82 15.9668 153.5 14.5243 153.5 12.824zM157.513 13.0331C157.513 14.5014 157.862 15.6259 158.559 16.4069 159.256 17.1865 160.116 17.5775 161.138 17.5775S163.017 17.1865 163.709 16.4069C164.402 15.6259 164.749 14.4918 164.749 13.006 164.749 11.5553 164.402 10.4404 163.709 9.65935 163.017 8.87974 162.16 8.48867 161.138 8.48867S159.256 8.87974 158.559 9.65935C157.862 10.4404 157.513 11.5649 157.513 13.0331z" fill="#000"/><path d="M184.173 20.4354h-3.917V12.8797C180.256 11.2824 180.172 10.2475 180.005 9.77888 179.838 9.30916 179.566 8.94497 179.19 8.68435 178.814 8.42485 178.36 8.2944 177.831 8.2944 177.153 8.2944 176.543 8.48055 176.005 8.85119 175.466 9.2235 175.096 9.71646 174.897 10.329 174.696 10.9428 174.597 12.0771 174.597 13.7299v6.7055H170.68V5.63112H174.318V7.80676C175.61 6.1336 177.236 5.29688 179.197 5.29688c.864000000000004.0 1.654.1562 2.368.4672C182.281 6.07509 182.823 6.47316 183.19 6.9552 183.557 7.43892 183.812 7.98759 183.957 8.60149 184.101 9.21398 184.173 10.0927 184.173 11.2348v9.2006z" fill="#000"/><path d="M90.9049 30.2897l-3.8614.6967C86.9131 30.2149 86.6186 29.6349 86.1595 29.2438 85.699 28.8542 85.1014 28.6585 84.368 28.6585 83.3916 28.6585 82.6131 28.9953 82.0333 29.6691 81.4519 30.344 81.1613 31.4699 81.1613 33.0495 81.1613 34.8056 81.4561 36.0471 82.0468 36.771 82.6363 37.4963 83.4294 37.8588 84.4237 37.8588 85.1666 37.8588 85.7752 37.6472 86.2491 37.2247 86.723 36.8023 87.0587 36.0742 87.2527 35.0435L91.1006 35.698C90.7011 37.4638 89.9339 38.7974 88.7998 39.6994 87.667 40.5996 86.1472 41.0506 84.2417 41.0506 82.0767 41.0506 80.3504 40.3676 79.0641 39.0012 77.7767 37.6363 77.1328 35.7442 77.1328 33.3281c0-2.4436.646599999999992-4.3463 1.9383-5.7073C80.3627 26.2586 82.1092 25.5781 84.3123 25.5781 86.1145 25.5781 87.5475 25.9667 88.6123 26.7421 89.6758 27.5175 90.4406 28.7005 90.9049 30.2897z" fill="#000"/><path d="M92.0781 33.1052C92.0781 31.8041 92.3986 30.545 93.0397 29.3281 93.6807 28.1113 94.588 27.1807 95.7643 26.5397 96.9403 25.8987 98.2523 25.5781 99.7016 25.5781 101.941 25.5781 103.778 26.306 105.208 27.7594 106.639 29.2139 107.355 31.0517 107.355 33.2724 107.355 35.5118 106.632 37.3686 105.187 38.8408 103.742 40.3144 101.924 41.0506 99.7301 41.0506 98.3733 41.0506 97.0788 40.7438 95.8485 40.131 94.6165 39.5171 93.6807 38.6183 93.0397 37.4339 92.3986 36.2481 92.0781 34.8056 92.0781 33.1052zM96.0915 33.3144c0 1.4682.349100000000007 2.5927 1.0459 3.3737C97.8341 37.4677 98.6938 37.8588 99.7167 37.8588 100.738 37.8588 101.595 37.4677 102.288 36.6881 102.98 35.9071 103.327 34.7731 103.327 33.2872c0-1.4506-.346999999999994-2.5656-1.039-3.3466C101.595 29.161 100.738 28.7699 99.7167 28.7699 98.6938 28.7699 97.8341 29.161 97.1374 29.9406 96.4406 30.7216 96.0915 31.8461 96.0915 33.3144z" fill="#000"/><path d="M116.265 25.9138v3.1224H113.588V35.003C113.588 36.2104 113.614 36.9152 113.666 37.1148 113.716 37.3147 113.833 37.479 114.013 37.6092 114.195 37.7396 114.415 37.8049 114.676 37.8049 115.039 37.8049 115.563 37.6786 116.25 37.4286L116.586 40.467C115.674 40.8567 114.644 41.0524 113.491 41.0524 112.784 41.0524 112.149 40.9342 111.581 40.6966 111.015 40.46 110.599 40.1532 110.334 39.777 110.069 39.4008 109.886 38.8916 109.783 38.2502 109.7 37.7953 109.658 36.8758 109.658 35.4904V29.0362H107.859V25.9138H109.658V22.9734L113.588 20.6875v5.2263H116.265z" fill="#000"/><path d="M124.765 25.9138v3.1224H122.088V35.003C122.088 36.2104 122.114 36.9152 122.166 37.1148 122.216 37.3147 122.333 37.479 122.513 37.6092 122.695 37.7396 122.915 37.8049 123.176 37.8049 123.539 37.8049 124.063 37.6786 124.75 37.4286L125.086 40.467C124.174 40.8567 123.144 41.0524 121.991 41.0524 121.284 41.0524 120.648 40.9342 120.081 40.6966 119.514 40.46 119.099 40.1532 118.834 39.777 118.569 39.4008 118.386 38.8916 118.283 38.2502 118.2 37.7953 118.158 36.8758 118.158 35.4904V29.0362H116.359V25.9138H118.158V22.9734L122.088 20.6875v5.2263H124.765z" fill="#000"/><path d="M129.467 30.4296 125.913 29.7886C126.312 28.357 126.999 27.2975 127.976 26.6102 128.951 25.9216 130.4 25.5781 132.325 25.5781 134.071 25.5781 135.373 25.7858 136.227 26.1987 137.083 26.6116 137.684 27.1374 138.032 27.7742 138.381 28.4099 138.555 29.5792 138.555 31.2798L138.514 35.8514C138.514 37.1525 138.577 38.1116 138.701 38.7294 138.826 39.3475 139.061 40.0104 139.405 40.7166H135.53C135.428 40.4557 135.303 40.07 135.154 39.5594 135.089 39.327 135.043 39.1736 135.016 39.0989 134.346 39.7495 133.63 40.2371 132.868 40.563 132.106 40.8877 131.293 41.0506 130.429 41.0506 128.905 41.0506 127.704 40.6377 126.825 39.8105 125.947 38.9836 125.508 37.9377 125.508 36.6733 125.508 35.838 125.708 35.0922 126.108 34.4363 126.507 33.7816 127.067 33.2791 127.787 32.9314 128.507 32.5823 129.546 32.278 130.903 32.0186 132.733 31.6751 134.002 31.3545 134.708 31.057V30.6659C134.708 29.9135 134.522 29.3768 134.15 29.0563 133.778 28.7358 133.077 28.5756 132.046 28.5756 131.348 28.5756 130.805 28.7128 130.415 28.9858 130.024 29.2601 129.709 29.741 129.467 30.4296zM134.708 33.6077C134.206 33.7749 133.411 33.9744 132.325 34.2068 131.237 34.4389 130.526 34.667 130.193 34.8898 129.68 35.2526 129.425 35.7117 129.425 36.2699 129.425 36.8186 129.63 37.2925 130.039 37.692 130.448 38.0911 130.968 38.2907 131.599 38.2907 132.306 38.2907 132.98 38.0587 133.621 37.594 134.095 37.241 134.406 36.8091 134.555 36.297 134.657 35.9628 134.708 35.3271 134.708 34.3873V33.6077z" fill="#000"/><path d="M141.165 41.6919 145.638 42.2353C145.713 42.7568 145.884 43.114 146.154 43.3094 146.527 43.5879 147.112 43.7279 147.911 43.7279 148.933 43.7279 149.7 43.5742 150.21 43.2674 150.555 43.0622 150.815 42.7321 150.991 42.2773 151.112 41.9525 151.173 41.3524 151.173 40.479V38.3196C150.002 39.9166 148.525 40.7166 146.74 40.7166 144.751 40.7166 143.176 39.876 142.015 38.193 141.103 36.8648 140.648 35.2106 140.648 33.2318c0-2.4816.598000000000013-4.3776 1.792-5.6883C143.634 26.2343 145.118 25.5781 146.893 25.5781 148.724 25.5781 150.233 26.3824 151.423 27.9903V25.9124h3.667V39.1969C155.09 40.9434 154.945 42.2501 154.657 43.114 154.369 43.9776 153.965 44.6567 153.444 45.1485 152.924 45.6415 152.23 46.0272 151.36 46.3058 150.491 46.584 149.392 46.724 148.064 46.724 145.556 46.724 143.775 46.2949 142.725 45.4352 141.675 44.5752 141.151 43.486 141.151 42.1659 141.151 42.0354 141.155 41.8778 141.165 41.6919zM144.663 33.0075C144.663 34.5791 144.968 35.7279 145.576 36.4575 146.184 37.1881 146.935 37.552 147.828 37.552 148.784 37.552 149.592 37.1786 150.252 36.4303 150.912 35.6818 151.242 34.5735 151.242 33.1053 151.242 31.5721 150.926 30.4338 150.294 29.6909 149.663 28.9466 148.863 28.5756 147.897 28.5756 146.959 28.5756 146.184 28.9398 145.576 29.6691 144.968 30.3997 144.663 31.5122 144.663 33.0075z" fill="#000"/><path d="M166.887 36.0051 170.791 36.6598C170.289 38.0914 169.496 39.1806 168.414 39.9289 167.331 40.6774 165.977 41.0509 164.351 41.0509 161.776 41.0509 159.872 40.2102 158.636 38.5273 157.659 37.18 157.172 35.4796 157.172 33.4258c0-2.4528.640999999999991-4.3745 1.923-5.7641C160.378 26.2738 161.999 25.5781 163.96 25.5781 166.163 25.5781 167.9 26.3062 169.173 27.7597 170.447 29.2142 171.055 31.443 171 34.4433H161.187C161.214 35.6059 161.53 36.509 162.135 37.1556 162.738 37.8006 163.492 38.1239 164.392 38.1239 165.006 38.1239 165.522 37.9568 165.939 37.6214 166.357 37.2872 166.674 36.748 166.887 36.0051zM167.111 32.046C167.083 30.9134 166.791 30.0509 166.232 29.46 165.674 28.8704 164.997 28.5759 164.198 28.5759 163.342 28.5759 162.636 28.8869 162.079 29.5089 161.521 30.1324 161.247 30.9772 161.256 32.046H167.111z" fill="#000"/><path d="M28.2299 15.0135c1.1748-2.7694 2.7945-5.19287 4.8568-7.27001 1.4607-1.47072 3.0972-2.70689 4.8927-3.73039L39.203 1.16406H29.7437L19.6026 24.7066 9.45922 1.16406H0L14.8283 35.6985l4.7721 11.078 4.772-11.078 2.731-6.3625C26.6802 27.5773 26.4641 25.7452 26.4641 23.8401c0-3.1157.588600000000003-6.0592 1.7658-8.8289V15.0135z" fill="#000"/><path d="M55.0995 36.3036C53.2237 37.2862 51.1785 37.7743 48.9639 37.7743 47.0903 37.7743 45.3142 37.4024 43.6393 36.6561 41.9628 35.9101 40.4999 34.9082 39.2505 33.6459 37.9995 32.3858 37.0214 30.9086 36.3098 29.2164 35.5985 27.5242 35.245 25.7331 35.245 23.8387 35.245 21.9444 35.5985 20.1555 36.3098 18.4633 37.0192 16.7731 37.9995 15.2959 39.2505 14.0338 40.4999 12.7718 41.9628 11.7827 43.6393 11.0643c1.6749-.7182 3.451-1.075 5.3246-1.075 2.2168.0 4.262.475099999999999 6.1356 1.4278C56.9731 12.3695 58.5357 13.6833 59.787 15.3542l6.9018-5.45531C64.6436 7.16187 62.088 5.00512 59.0183 3.43119 55.9505 1.85926 52.5972 1.07031 48.962 1.07031 45.8942 1.07031 42.998 1.66139 40.2689 2.8441c-.7958.34401-1.5539.73977-2.2929 1.16111-1.7952 1.0235-3.4317 2.25768-4.8927 3.73067-2.062 2.07715-3.6817 4.50032-4.8565 7.26972-1.1772 2.7697-1.7659 5.7131-1.7659 8.8289C26.4609 25.7396 26.677 27.5717 27.1003 29.3304 27.3819 30.5023 27.7545 31.6418 28.2245 32.7492c1.1752 2.7697 2.7946 5.1928 4.8569 7.27C35.1433 42.0963 37.5379 43.726 40.2647 44.9087c2.7269 1.1827 5.6253 1.7741 8.6931 1.7741C52.5927 46.6828 55.9463 45.8827 59.0141 44.2787c3.0678-1.6018 5.6253-3.7435 7.6705-6.4248L59.7825 32.3989c-1.251 1.6146-2.8113 2.9133-4.6872 3.8939L55.0995 36.3036z" fill="#000"/></svg>