<?xml version="1.0" encoding="UTF-8"?>
<svg id="Layer_1" xmlns="http://www.w3.org/2000/svg" version="1.1" viewBox="0 0 336 500">
  <!-- Generator: Adobe Illustrator 29.8.1, SVG Export Plug-In . SVG Version: 2.1.1 Build 2)  -->
  <defs>
    <style>
      .st0 {
        fill: #e927e5;
      }

      .st1 {
        fill: #1085a2;
      }

      .st2 {
        fill: #d54dca;
      }

      .st3 {
        fill: #fa8531;
      }

      .st4 {
        fill: #c82ca8;
      }

      .st5 {
        fill: #6c37c9;
      }

      .st6 {
        fill: #150f23;
      }

      .st7 {
        fill: #e9d4e6;
      }

      .st8 {
        fill: #510d4c;
      }

      .st9 {
        fill: #711169;
      }

      .st10 {
        fill: #661938;
      }

      .st11 {
        fill: #fa4f33;
      }

      .st12 {
        fill: #052f3b;
      }

      .st13 {
        fill: #fee430;
      }

      .st14 {
        fill: #2a3372;
      }

      .st15 {
        fill: #952c8a;
      }

      .st16 {
        fill: #fb72a9;
      }

      .st17 {
        fill: #5e3193;
      }

      .st18 {
        fill: #242225;
      }

      .st19 {
        fill: #fc6a49;
      }

      .st20 {
        fill: #421d3f;
      }

      .st21 {
        fill: #f8e479;
      }

      .st22 {
        fill: #fb49b1;
      }

      .st23 {
        fill: #9deef2;
      }

      .st24 {
        fill: #2f1422;
      }

      .st25 {
        fill: #9d6dd3;
      }

      .st26 {
        fill: #8d0faf;
      }

      .st27 {
        fill: #361229;
      }

      .st28 {
        fill: #26100f;
      }

      .st29 {
        fill: #99184b;
      }

      .st30 {
        fill: #111115;
      }

      .st31 {
        fill: #4e1d5c;
      }

      .st32 {
        fill: #fdae29;
      }

      .st33 {
        fill: #f75c62;
      }

      .st34 {
        fill: #e7debd;
      }

      .st35 {
        fill: #d8126e;
      }

      .st36 {
        fill: #131126;
      }

      .st37 {
        fill: #6058a8;
      }

      .st38 {
        fill: #bf489a;
      }

      .st39 {
        fill: #1cb9d8;
      }

      .st40 {
        fill: #2b122f;
      }

      .st41 {
        fill: #ec89d2;
      }

      .st42 {
        fill: #f2ae57;
      }

      .st43 {
        fill: #2a0c25;
      }

      .st44 {
        fill: #431c15;
      }

      .st45 {
        fill: #ee5151;
      }

      .st46 {
        fill: #fc6431;
      }

      .st47 {
        fill: #31e4ec;
      }

      .st48 {
        fill: #07040d;
      }

      .st49 {
        fill: #e0a238;
      }

      .st50 {
        fill: #e32b31;
      }

      .st51 {
        fill: #4b2436;
      }

      .st52 {
        fill: #84263e;
      }

      .st53 {
        fill: #491531;
      }

      .st54 {
        fill: #d93747;
      }

      .st55 {
        fill: #0ad3da;
      }

      .st56 {
        fill: #998e9e;
      }

      .st57 {
        fill: #055860;
      }

      .st58 {
        fill: #25184c;
      }

      .st59 {
        fill: #4f172a;
      }

      .st60 {
        fill: #f31568;
      }
    </style>
  </defs>
  <path class="st18" d="M.7,418.3c111.8-.3,223.6-.3,335.7-.3-.3,1.4-1.5.6-2.4.6-16.1,0-32.3,0-48.4,0-95,0-190,0-284.9-.3Z"/>
  <path class="st18" d="M336.7,83c-111.8.3-223.6.3-335.7.3.3-1.4,1.5-.6,2.4-.6,16.1,0,32.3,0,48.4,0,95,0,190,0,284.9.3Z"/>
  <path class="st18" d="M.7,84.3c1,.7.7,2,.7,3.2,0,89,0,177.9,0,266.9,0,1.1-.2,2.2-.5,3.5-.2-91-.2-182.1-.2-273.6Z"/>
  <path class="st18" d="M336.7,417c-1-.7-.7-2-.7-3.2,0-86.8,0-173.7,0-260.5,0-1,.2-2,.5-3.2.2,88.7.2,177.7.2,266.9Z"/>
  <path class="st18" d="M.7,360.5c.7.4.7,1.3.7,2.2,0,17.5,0,35,0,52.6,0,.5-.2,1.1-.5,1.8-.2-18.6-.2-37.4-.2-56.6Z"/>
  <path class="st18" d="M336.7,140.8c-.7-.4-.7-1.3-.7-2.2,0-17.5,0-35,0-52.6,0-.5.2-1.1.5-1.8.2,18.6.2,37.4.2,56.6Z"/>
  <path class="st18" d="M336.7,148.9c-.6-.2-.7-.8-.1-1.6.1.4.1.9.1,1.6Z"/>
  <path class="st23" d="M247.4,171.8c0-.4,0-.5.1-.9-1.3-1.2,0-2.1.4-2.7,5.1-8.1,9.8-16.5,15.5-24.1.3-.4.8-.7,1.4-1.3.2-.3.3-.5.6-.7.4-.4.7-.7.9-1.2-.1-.3-.3-.4-.2-.4.4,0,.5,0,.6-.2-.3-.5-.2-.8.6-.7,1.3.8,1.4,2.1,2.2,3.4.4,2.8-.7,5-1.7,7.4-1.3,4.7-2.5,9.2-4.2,13.5-1.1,2.8-2.4,5.5-4.8,7.8-1.6,2-3.1,3.6-5.2,5.1-.5.2-.8.4-1.4.5-3.8,0-3.8-2.9-4.8-5.4Z"/>
  <path class="st49" d="M284,158.1c6.7-3.6,12.2-8.3,18.3-12.6,3.1-2.3,6.1-4.4,9.1-6.4,3.6-2.5,6.2-1.7,8.4,2.5-2,3.2-4.8,5.2-8.3,6.6-.7-.1-1-.4-1.3-.9,0-.1-.2-.4-.3-.5,0-.1-.3-.2-.5-.1-7.3,5.6-15.1,10.4-22.1,16.2-1,.8-1.9,1.6-3.4,1.7-1.7-.3-2.4-1.3-2.8-2.9,0-.4-.1-.5-.1-.9,0-.4,0-.5.2-.9.4-.5.7-.8,1.2-1.2.3-.2.4-.3.6-.5.3-.1.4-.2.9-.1Z"/>
  <path class="st4" d="M74.1,328.5c-2.6,1.9-5.1,3.7-7.8,5.5-.9,0-1.5,0-2-1,0-1.3.8-1.9,1.6-2.8,2.5-1.9,5.1-3.2,7.4-5.4,3.8-2.7,7.3-5.5,10.9-8.3.3-.3.4-.4.7-.6,1.8-1,3.2-2.2,4.8-3.5.3-.3.4-.4.7-.6,3.5-2.2,6.4-4.7,9.7-7.1,2.6-1.5,4.6-3.4,7-5.1.3-.2.4-.3.7-.6.7-.4,1.2-.7,1.6-1.4.3-.3.4-.4.7-.6,2-.5,3-2.7,5.4-2.1.5.5.7,1,.7,1.7,0,.6-.2.9-.4,1.4-1.1,1.8-2.7,2.8-4.3,4.2-.3.2-.4.3-.8.5-3.1,2-5.3,5-9.1,5.7-8.2,5-15.4,11.1-23.2,16.8-1.5,1.2-2.9,2.1-4.4,3.3Z"/>
  <path class="st44" d="M311,147.5c2.9-1.9,5.6-3.8,8.6-5.7.4.1.6.2.9.5-.4,1.8-.3,3.8-2.4,4.7-.2.1-.2.2-.2.2-1,.8-2,1.6-3.2,2.5-.1.2-.2.1-.2.2-.8.5-1.8.9-2.5,1.9-.1.2-.2.1-.2.1-.2.1-.4.3-.6.5-.4.5-.7.9-1.2,1.4-.9.1-1.4.6-2.1,1.3-.3,0-.4,0-.6,0-.1.1-.1.1-.1.1-.2.1-.3.3-.6.6-.1.1-.1,0,0,0-.5.4-1.1.7-1.9,1.2-.2.1-.2.1-.2.1-.3.3-.7.3-1.2.6-.1.1-.2.1-.1.1-.2.1-.3.3-.6.6-.1.1-.1,0-.1.1-.2.1-.3.3-.6.6-.1.1-.1,0,0,0-.7.7-1.8.8-2.6,1.9-.1.2-.1.1-.1.2-.5.4-1.1.7-1.9,1.2-.2.1-.2.1-.2.1-2.3,1.4-4.3,3.7-7.6,1.8-.3-.6-.3-1.1,0-1.8.3-.5.4-.7.8-1.1.5-.4.9-.6,1.3-1.1.3-.2.4-.3.7-.5.4-.2.7-.3,1.2-.5,1.5-.8,2.4-2,3.9-2.8.5-.3.9-.5,1.4-.9.3-.2.4-.3.6-.6.7-.5,1.4-.9,2.1-1.5,3.2-2.2,5.9-4.8,9.5-6.2Z"/>
  <path class="st29" d="M56.4,324.1c3.3-2.4,6.3-4.8,9.5-7.3.1-.2.1-.2.1-.2.5-1,1.5-1.4,2.6-1.9,1-.6,1.8-1.1,2.7-1.8,3.6-2.2,6.9-4.7,10.2-7.5.6-1,1.6-.9,2.4-1.5,3.2-3,7.3-4.5,10.3-7.8,2.1-3.4,5.7-4.5,8.5-7.1,1-.9,1.8-1.8,3.4-1.7.7.3,1,.7,1.2,1.4-.2,1.9-1.7,2.6-2.9,3.8-4.9,4-10,7.5-14.9,11.1-7.8,5.7-15.3,11.8-23.4,17.5-2.6,1.9-5,3.6-7.8,5.3-.6.2-.9.2-1.5,0-.9-.7-1.4-1.4-.3-2.3Z"/>
  <path class="st31" d="M16.8,359.7c4.1-4.4,8.2-8.6,12.5-12.9,1.7.8,1.5,1.9.8,3.2,0,0,0,.2,0,.3,0,0,.1,0,.3-.2.9-.7,1.9-1,2.8-1.9,1.7-.7,2.7-2.4,4.7-2.5,1.7.1,2.9.5,2.8,2.6-1.3,1.9-3.3,2.1-5.1,3.3-2.1.3-3.4,1.9-5.5,2.3-1.5.6-2.6,1.7-4,1.9-.1,0-.2,0-.3,0,.1,0,.3,0,.6.3-1.3.9-2.7,1.5-4.4,2.3-.8.5-1.3.9-2.1,1.1-.9.2-1.7.5-2.6.7-.2,0-.2-.3-.2-.5Z"/>
  <path class="st38" d="M233.4,194.5c1.2-2.5,2.5-4.8,3.9-7.4,2.2-3.5,4.3-6.7,6.5-10.2,3,1.4,2.2,4,1.8,6.8-.5,2.7-2.4,4.2-4.2,6-.9.8-1.5,1.7-2.3,2.6-.6.7-1.3.9-1.9,1.6-.4.5-.7.8-1.2,1.2-.5.2-.8.3-1.3.3-.7-.1-1-.4-1.4-1Z"/>
  <path class="st7" d="M247.1,171.7c1.6-.3,2.1,0,1.9,1.6-.1,1.6.9,2.8,2.8,3.1.2.2.3.3.5.7,0,.4,0,.5-.1.9-.7,1-1.4,1.6-2.6,1.8-1.2-.2-1.8-1-2.7-1.7-.7-.8-1.3-1.5-1.7-2.6.6-1.4,1.2-2.5,2-3.8Z"/>
  <path class="st2" d="M244.9,175.4c1.4-.2,2.2.3,2.5,1.7.4,1.1.9,1.8,1.5,2.8.2.7,0,1.2-.3,1.8-1.1,1.1-1.9,2.3-3.7,2,.2-2.4.5-4.6-.9-6.9.2-.6.4-1,.9-1.5Z"/>
  <path class="st15" d="M280.5,201.4c-2.3.6-4.7.9-7.4,1.3-3.2.3-6.2.6-9.5.8-.8-.3-1.1-.7-.7-1.5,1.2-.8,2.3-.5,3.6-.9,3.5-.5,6.7-1.1,10.3-.5,1.4,0,2.6-.2,3.7.9Z"/>
  <path class="st15" d="M229,214.1c-.2.2-.4.1-.5.1-.2-.1-.3-.3-.4-.6.1-1.8,1.5-2.4,2.6-3.5.2-.3.3-.4.6-.7.4-.3.6-.5,1-.8.3-.2.4-.3.7-.4.4-.2.7-.4,1.1-.7,1.1-.8,2.1-1.6,3.6-1.6.5.1.7.3.9.8-3.1,2.6-6.2,4.9-9.5,7.4Z"/>
  <path class="st38" d="M262.5,202.3c.3.5.5.7.7,1.1-3,.4-6.1.7-9.5,1-.6-.2-.9-.4-1.2-.9.6-1.4,1.7-1.5,3.1-1.5,2.5-.2,4.7-1,7,.4Z"/>
  <path class="st2" d="M252.5,203.3c.4.4.6.5.8.8-.4.2-.9.3-1.7.3-1.2.4-2.2.1-3.4.3-1,.1-1.7.2-2.7.3-.4,0-.5.1-.7.1-.5,0-.8,0-1.3,0-1.2,0-2.2.5-3-.7.1-.4.3-.6.7-.9,2.6-.2,4.9-1.2,7.2-1.3,1.3,0,2.7,0,4.1,1Z"/>
  <path class="st52" d="M318.1,147.2c.5-1.5,1.3-3,2.3-4.6,1.3,2.4,0,3.7-2.3,4.6Z"/>
  <path class="st9" d="M240.5,204.3c.7,1.1,1.6.8,2.6.9-1.1.8-2.9.4-4.3,1.6-.3,0-.4-.2-.7-.4-.3-1.8.8-2.2,2.4-2.1Z"/>
  <path class="st51" d="M314.7,149.9c0-1.6,1.4-2.1,2.9-2.6-.2,1.5-1.5,1.9-2.9,2.6Z"/>
  <path class="st48" d="M68.5,314.5c0,1.4-1.2,1.6-2.4,2.1-.1-1.4.2-2.7,2.4-2.1Z"/>
  <path class="st51" d="M312,151.9c-.1-1.3.7-1.9,2.2-2-.3.9-1,1.6-2.2,2Z"/>
  <path class="st15" d="M248.2,204.9c.7-.6,1.6-.6,2.9-.5-.7.2-1.7.4-2.9.5Z"/>
  <path class="st36" d="M80.3,221.7c.2,0,.3.2.5.3-.4.3-.5,0-.5-.3Z"/>
  <path class="st51" d="M311.3,152.5c-.5-.4-.2-.6.4-.6,0,.2,0,.4-.4.6Z"/>
  <path class="st36" d="M73.2,268.8c-.1.2-.2.4-.3.7,0-.2,0-.3.2-.6.1,0,.1,0,.1,0Z"/>
  <path class="st36" d="M116.3,176.1c.1-.2.2-.4.3-.7,0,.2,0,.3-.2.6-.1,0-.1,0-.1,0Z"/>
  <path class="st9" d="M244.7,205.2c0,0,.2-.2.4-.1,0,.2-.1.3-.4.1Z"/>
  <path class="st52" d="M277.9,124.7s0,0,0,0,0,0,0,0c0,0,0,0,0,0Z"/>
  <path class="st48" d="M266.3,140.5c0,0,0,.1,0,.1s-.2-.2-.2-.2c0,0,.1,0,.2,0Z"/>
  <path class="st48" d="M68.9,312.8s0,0,0,0Z"/>
  <path class="st48" d="M265.4,142.3c-.1.1-.4,0-.5.1,0-.2.1-.3.5-.5.1,0,.1.3,0,.4Z"/>
  <path class="st36" d="M80.6,223.8s-.2-.1-.2-.1c0,0,.2,0,.2,0s0,0,0,0Z"/>
  <path class="st5" d="M103.8,289.3c-3,2.4-5.6,5.1-9.3,6.6-1.9-3-3.6-6-5.4-9.3.3-.7.1-1-.5-1.3-.2,0-.3,0-.2-.1.1-.9-.5-1.5-.9-2.5.6-3.6-1.1-6.5-2.6-9.3-1.9-3.7.9-9.1,5.8-10.9,2.6,1.4,2.7,4.4,4.7,6.4,1.3,1.6,1.9,3.3,2.8,5.1,1,3.8,3,6.9,4.4,10.3.6,1.6,1.3,3.1,1.2,5Z"/>
  <path class="st58" d="M76.3,259.7c0-.5.4-.9.9-1.4.2-.7.5-1.2.9-1.7.7,0,.9,0,.6-.8,0-.3,0-.5.2-.8.5-.6.9-.9.7-1.8-.2-.7,0-1,.4-1.6,1.5-1.8,1.7-3.8,2.6-5.8,0-.4.1-.5.3-.9,1.8-2.8,2.5-5.8,3.5-8.9.2-1.1.7-1.8,1-2.9.3-.8.5-1.4,1-2.1,1-1.6,2.2-2.2,4.1-2.1.9.9.5,1.8.6,2.6,0,3.5,2,4.7,5,3,.5-.3.8,0,1.3.6.4.8.4,1.5.3,2.4-.3,1.2-.6,2.1-.8,3.3-.3.7-.8,1.1-.8,1.7,0,0,0,.1,0,.3,0,.2,0,.1.1-.4.2-.3.3-.4.6-.6,3.1,1.1,1.8,3.2,1.3,5-1.1,3.5-2.8,6.8-3.7,10.7-.2,1-.6,1.6-1.3,2.3-.7.5-1.3.6-2.1.6-1,0-1.8,0-2.8,0-1.4,0-2.5,0-3.9,0-2.6-.8-4.9-.8-7.5-.1-1,.2-1.8.2-2.7-.5Z"/>
  <path class="st1" d="M89.5,228.3c.3-2.5,1.7-4.4,2.9-6.6,2-2.7,1.8-6.4,4.9-8.4,1.9.3,3.5,0,5.1-.3,3.4-.7,6.1.2,8,3.6-.3,2.7-1.2,5.1-1.9,7.5-.3,1-.7,1.9-.3,3.1,0,2.1-1.1,3.6-1.7,5.6-1.1,2.6-1.3,5.3-3.5,7.3-1.4,0-1.5-.8-1.5-1.9.4-.7.8-1,.9-1.7,0-.4-.2.1-.2-.3,0-.2-.2-.2,0,0,.2.2,0,.6-.2,1.1-.8.5-1.4.3-2.1-.3-.7-3.1.8-5.7,1-8.7-.3-1.5,0-2.7.9-3.8.9-.4,1.1-1,1-2,0-.4.2-.6.2-.7,0-.3-.2-.2-.1.2-.5,1.5-1.6,2-3,2.5-.4.1-.7.1-.9.1-1.5,0-3.1.4-4.3-1.1-1.3,1.1-1.4,3-2.7,4.1-.8.7-1.5,1.3-2.7.7Z"/>
  <path class="st15" d="M100.1,202.3c0-.5.2-.8.4-1.2.9-.7,1.1-1.5,1.3-2.6.8-1.9,2.1-3.1,4.1-3.8,1.5-.5,2.7-.8,4.3-.5.7,0,1.2,1.7,1.8-.1,2.3-2.5,5-3.6,8.4-3.5.4,0,.6.1.9.3,1.6,2.5.2,4.1-1.2,6-.2.3-.3.5-.4.8-.3.4-.5.7-.9,1-.5.4-.9.7-1.5,1.1-3.1,2.3-6.1,4.3-9.9,4.8-.9.1-1.6.6-2.2,1.6-1.2,1.2-2.3,1.3-3.4,0-.1-.3-.2-.5-.2-.8,0-.5,0-.7,0-1.2-.3-.8-.9-1.1-1.3-1.9Z"/>
  <path class="st58" d="M121.9,191.7c-.3-.2-.4-.2-.7-.3-1.4-.5-2.7-.3-4-.1-1.3.2-2.4,0-3-1.6.8-1.7,3-1.6,3.5-3.4,0,0,.2,0,.3,0,0,0,.1.2.2.4,2.9.6,4.7-1.7,7.3-2.5.3-1,.8-1.4,1.9-1.4,1.2.7,1.9-.7,3-.2.8.9-.6,2.5,1.7,2.7,1.8.2,1.4,1.7.2,2.6-1.3,1-3.2,1-4.7,2.3-1.8,1-3.4,2-5.6,1.4Z"/>
  <path class="st37" d="M102,204.9c.3,1.5,1.1,1.9,2.6,1.4,2,1.5,1.4,3.8,1.7,5.9-2.8,1.4-5.7.6-8.6,1.5-2.8,2-2.7,5.5-5,7.7.8-4,2.4-7.8,4.4-11.7,1.3,0,1.6-.8,1.9-1.6.6-1.3,1.1-2.7,2.9-3.2Z"/>
  <path class="st31" d="M80.1,269.6c-1.9-3-4.1-5.7-4.4-9.3.6,0,1,0,1.7.1,1.2,0,2.2,0,3.2.1,2,.2,3.4,1.1,3.2,3.4-.2,2.3,1,4.7-1.2,6.8-1.5.8-1.6-.7-2.5-1.2Z"/>
  <path class="st31" d="M113.9,189.5c2,2.3,4.9.1,7,1.6-3.1.3-5.7,2.1-8.7,3.4-.3.6-.6.7-1.2.5-1.6,0-3,.3-4.7.6-1.1.3-1.4-.2-1.6-1.1,2.7-2.3,5.9-3.4,9.1-5Z"/>
  <path class="st39" d="M89.3,228.2c1.9,0,2.3-1.5,2.9-2.6.9-1.6,2-3.5,4-2.3,1.2.7,2.1-.2,3.2.4.4,1.5-.7,2-1.7,2.8-1.7.9-2.6,2.5-4.7,2.5-1.4.7-2.6,1.3-4,2.2-.3.2-.5.3-.8.2.2-1.1.6-2,1.2-3.1Z"/>
  <path class="st17" d="M102.2,205c-.9,1.5-1.8,3-2.6,4.5-.6,1.1-1.1,1.3-2.1.2,0-2.7,1.4-4.9,2.5-7.4,1.1.5,3-.3,3.1,1.8-.3.3-.5.4-.8.7-.1.1-.1.1,0,.1Z"/>
  <path class="st18" d="M86.5,236c.6,0,1,.1,1.4.2-2.3,2.6-1.8,6.5-4.5,9-.8-.4-.7-1-.7-1.8,1.3-1.8.8-4.3,2.3-6.1.8-.2.8-1,1.5-1.4Z"/>
  <path class="st25" d="M76.8,261.3c-.7,0-.9-.3-.9-.9,0-.2.1-.5.1-.6.7-.3,1.4-.4,2.3-.5,2.5-.2,4.8,0,7.4,0,1.4,0,2.6.1,4,.2.3,1.7-1.2,1.6-2.4,2.4-3.7.4-6.9-1.3-10.6-.5Z"/>
  <path class="st37" d="M87.9,282.1c.5.9.8,1.7.5,2.7-2.4-2.6-3.7-6-5.5-9.4,0-.4,0-.6.2-.8.4,0,.6,0,1,0,2.5,2,3.4,4.5,3.8,7.5Z"/>
  <path class="st38" d="M134.9,179c.7-.4,1.3-.6,2.2-.8.6-.5,1.2-.5,1.9-.3.6,1.7-.5,2.4-1.9,3.2-2.2.8-4,2.3-6.5,1.4-.3-.3-.4-.5-.2-.8,1.6-.9,3-1.7,4.6-2.7Z"/>
  <path class="st37" d="M104.6,194.3c.5.3.9.6,1.4,1.1-1.3.8-2.4,1.9-3.7,3.2-.2.3-.3.5-.7.5-.2-2.4.8-3.8,3-4.8Z"/>
  <path class="st14" d="M125.3,184c.4.1.5.3.7.5-2.4,1.3-4.6,3.2-7.7,2.5,2.2-1.1,4.5-2,7-3Z"/>
  <path class="st31" d="M82.5,243.5c.7.2.8.7.8,1.6,0,.2,0,.2,0,.2-.7,1.6-.9,3.4-2.2,4.9-.4.1-.5.1-.9,0,.6-2.3,1.4-4.4,2.3-6.7Z"/>
  <path class="st37" d="M80,269.7c1.2-.9,1.1.5,1.8,1,.3.2.4.2.7.3.3.2.3.3.6.5.2.3.3.4.4.7.1.3.2.4.3.7,0,.3,0,.5.1.8,0,.3-.1.4-.3.7-.2.2-.3.3-.6.5-1.1-1.6-2-3.4-3-5.3Z"/>
  <path class="st37" d="M78.7,256.5c-.5.5-.8,1-1.3,1.6-.5-1.5,0-2.8,1.5-3.7.5.1.6.4.4.9-.2.2-.1.2-.1.2-.2.3-.3.7-.5,1.1Z"/>
  <path class="st14" d="M86.8,235.7c-.5.7-.4,1.6-1.5,1.6.4-1.6,1-3.1,1.8-4.7.4-.2.6-.1.7.3-.3,1-.6,1.8-1,2.8Z"/>
  <path class="st37" d="M80,250.2c.2-.2.3-.2.6-.3.5.6.4,1.2,0,1.9-.4.4-.6.7-.8,1.1,0,.3-.1.5-.4.4-.6-1.3,0-2.2.5-3.2Z"/>
  <path class="st43" d="M83.7,303.8c-.1.9-.9,1.2-2,1.4-.3-1.5.9-1.2,2-1.4Z"/>
  <path class="st30" d="M70.6,261.7c0,.3,0,.5,0,.5-.1,0-.3.1-.4.2-.3-.9-.4-1.9.1-2.8.6.6.3,1.3.4,2.1Z"/>
  <path class="st30" d="M76.6,306c0-1.1.6-.8,1-.4.2.1.3.7.1.8-.4.5-.7,0-1.1-.4Z"/>
  <path class="st17" d="M130.3,181.5c.2,0,.2.3.1.4,0,.3.1.4,0,.7-1,.1-1.8,1-2.8.3.7-.6,1.5-1,2.6-1.4Z"/>
  <path class="st56" d="M101.3,199.1c.2-.2.4-.2.7-.3,0,.8-.1,1.7-1.1,2.2,0-.6.2-1.2.5-1.9Z"/>
  <path class="st18" d="M79.3,253.5c0-.3.3-.3.4-.3,2.1.9,0,1.3-.3,2.1-.2-.1-.2-.4-.2-.8,0-.4,0-.5.1-1Z"/>
  <path class="st1" d="M88,232.9c-.3.1-.4,0-.6-.3,0-.5.2-.8.4-1.3.3,0,.4,0,.7,0,0,.5-.3,1-.5,1.6Z"/>
  <path class="st37" d="M88.4,285.4c.6-.2,1.2-.2,1.5.4,0,0-.4.3-.8.5-.4-.2-.5-.5-.7-.9Z"/>
  <path class="st30" d="M73.5,307.2c.2.1.2.3.3.5,0,0-.2,0-.2.1,0-.2,0-.4,0-.6Z"/>
  <path class="st30" d="M75.6,238.7c-.2-.3-.2-.3,0,0Z"/>
  <path class="st30" d="M77.3,303.2c0,0,.2,0,.2,0,0,0-.2,0-.2,0Z"/>
  <path class="st30" d="M77.3,303.1s-.2-.1-.2-.1c0,0,.2,0,.2,0s0,0,0,0Z"/>
  <path class="st30" d="M76.3,300.7s0,0,0,0Z"/>
  <path class="st30" d="M76.3,236.9s0,0,0,0Z"/>
  <path class="st58" d="M101.6,308.6c2.6-2.3,5.4-4.4,8.3-6.6,1.7,0,2.3,1.3,2.9,2.5,1,2.1,2.3,3.9,3.5,6.2.9,2.2,2.8,3.7,2.4,6.3-2,1-2.6-.6-3.5-1.6-.9-1.1-1.6-2.4-2.9-3.1-.7-.4-1.6-.9-1.9.2-.6,2.3-2.2,1.6-3.9,1.5-1.4-.1-1.8-1.3-2.8-2-.8-1.1-1.4-2.1-2.1-3.3Z"/>
  <path class="st2" d="M118.7,317.4c-1-2.1-2-4-3.2-6.1,0-.3.2-.4.6-.5,2.7.6,3.1,3,4.3,4.9,1.3,1.8,2.3,3.6,3.4,5.5,1.3,1.5,1.4,4.1,4.4,3.7.6,0,.9,0,1.4.3,1.1.6,1.8,1.2,2.8,2,2.4,1.5,5,2.2,7.3,3.5,1.2.7,2.7,1.2,2.3,3.3-2.9,0-5.2-1.7-8-2.5-3.4-1.4-6.6-2.8-10.1-4.2-.7-.4-1-.9-1.5-1.4-.2-.3-.3-.4-.6-.6-.2-.3-.3-.4-.4-.8-.9-2.4-2.8-4.3-2.7-7.1Z"/>
  <path class="st9" d="M122.9,325.2c.4.5.6,1,.8,1.8-4.4-.8-8.3-3-12.7-4.9-.1-.5,0-.8.4-1.1,4,0,7.1,2,10.8,3.4.2,0,.2.2.2.2,0,.2.1.4.2.6.2.4-.2,0,0,.3.1.2.1.2.3-.2Z"/>
  <path class="st15" d="M111.5,321c-.1.4-.2.6-.5.8-3.7-.5-4.1-3.7-5.4-6.4-.5-.6-.4-1.1,0-1.6.9-.1,1.4.2,1.9.8.2.3.3.4.5.7.2.3.3.4.5.7.2.3.3.4.6.6,1.2,1.3,2.6,2.4,2.4,4.5Z"/>
  <path class="st9" d="M106.2,313.7c-.3.5-.5.8-.7,1.3-.6-.8-1.2-1.8-2-3,1.6-1.8,1.3,1,2.4,1.1.2.2.3.4.3.7Z"/>
  <path class="st30" d="M85.3,323.2c-.1.3-.2.4-.3.6-.3-.4-.3-.8,0-1.1.1.1.2.3.4.6Z"/>
  <path class="st30" d="M87.3,323.7c-.3,0-.4,0-.6,0,0,0,.1-.2.2-.2.2,0,.4.1.5.3Z"/>
  <path class="st43" d="M151.9,338.5c-.2,0-.3-.1,0-.4,0,0,0,.3,0,.4Z"/>
  <path class="st30" d="M159.3,342.7s.2-.2.2-.2c0,0,0,.2,0,.2,0,0,0,0,0,0Z"/>
  <path class="st30" d="M89.7,322.2s0,0,0,0Z"/>
  <path class="st30" d="M86.7,330s.1-.2.1-.2c0,0,0,.2,0,.2,0,0,0,0,0,0Z"/>
  <path class="st0" d="M155.4,333.2c-1.8.8-3.5,1.4-5.4,2.1-2.5.9-3.3-.7-3.7-2.4-.6-2.5-.9-5.1.5-7.7,1.7-1.3,3.3-.8,5-.5,1.4.3,2.8,1,4.3-.2.4-.2.5-.2.9-.2,2.9.9,5-.6,7.1-1.6,3.8-1.8,7.6-3.7,11.8-5,.5-.2.8-.3,1.4-.4.4,0,.5-.1.9-.2,1.6.1,2.8-.2,4.1-.6,2.2-.7,3.4,1,2.6,3.6-9.8,4.5-19.6,8.8-29.5,13.2Z"/>
  <path class="st2" d="M185.1,320.2c-.3-3.1-1.3-3.8-3.7-2.2-1.3.9-2-.4-3.2-.2-.3-1.8,1.1-2.1,2.3-2.6,1.5-.6,3-1.2,4.6-2.1.5-.3.8-.4,1.2-.7,1.6-.7,3.2-1,4.7-2.2.4-.2.6-.2,1-.2,2.4,1.2,2.6,3.1,2,5.5-2.5,2.5-5.8,3.2-8.9,4.7Z"/>
  <path class="st35" d="M194.1,315.8c-1.1-1.7-.6-3.9-2.3-5.4-.3-.2-.4-.3-.5-.7.2-.7.5-1,1-1.5,1.7-1.9,3.5-2.6,5.8-1.3-.1,1.3-.4,2.4-.7,3.7-1.3,1.8-1.4,4-3.4,5.2Z"/>
  <path class="st52" d="M214.4,232.8c-2.1,1.2-2.6,2.9-2.1,5,1.2,5.2.4,10.3-1,15.4-.4,1.5-1.2,2.2-2.8,2.7-2.4-2-.6-4-.2-6,.3-1.4,1.3-2.6,0-4.2-.2-.4-.2-.5-.3-.9-.1-2.6-1.2-4.7-1.9-7.1-.5-1.7-1.2-3.1-1.3-4.9.3-1.1.6-1.9,1.5-2.5,1.3-.3,2,.4,2.6,1.2.1-.9,0-1.7,0-2.7.2-.7.4-1.1.9-1.5.8-.4,1.5-.5,2.2-1.1.3-.2.4-.2.8-.3,3.8.1,1.5,3,2.1,4.5.1.3-.3,1.6-.7,2.5Z"/>
  <path class="st10" d="M217.3,222.3c-.3.2-.4.2-.7.3-.9.5-1.7.9-2.6,1.6-.7,0-1.1-.1-1.7-.6-.2-.3-.3-.5-.3-.9.3-1.5,1.4-2.3,2.5-3.3,1.4-.8,2.4-1.7,3.7-2.6.5-.2.8-.2,1.4-.1.8.3,1.2.9,1.6,1.6-.7,1.9-2.6,2.5-3.9,4Z"/>
  <path class="st38" d="M217.3,222.4c-.1-2.2,2.3-2.3,3.6-4,.4-.8.8-1,1.5-1.1.3,0,.5.1.7.4-1.5,2-3.6,3.2-5.8,4.7Z"/>
  <path class="st38" d="M228.2,213.3c.2.2.2.4.2.7-1.6,1.4-3.2,2.6-5,3.8-.2,0-.3,0-.3,0-.1-.2-.2-.3-.4-.7,1.1-2.4,2.9-3.5,5.5-3.8Z"/>
  <path class="st38" d="M213.5,223.6c1-.3,1.5-1.2,2.7-1.1-.2,1.6-1.7,2-2.8,3.1-.2.2-.4.3-.4.4,0,.2-.1.4-.5.6-.5-.3-.7-.6-.8-1.3.2-1.1.7-1.5,1.7-1.7Z"/>
  <path class="st41" d="M53.2,344.6c-.5.3-.7.5-1.2.7-2.2.3-4.1,1-6.3,1.1-2.6-1.4-1.2-2.6,0-3.6,2.8-2.2,5.9-3.9,9.6-4.9.4,0,.6,0,1,0,.9.1,1.5.4,2.3.6.4.2.5.3.8.5,1.2,1.9.1,2.7-1.2,3.2-1.7.7-3.3,1.3-5,2.3Z"/>
  <path class="st2" d="M45.6,345.5c2.1,1,3.9-1.4,6-.2-4.6,2.1-9.4,4.1-14.4,6.2-.9.3-1.6.5-2.2-.3,1.6-1.2,3.2-2.1,5-3.1.8-1.1,1.7-1.6,3-2.1.9-.3,1.7-.1,2.7-.5Z"/>
  <path class="st2" d="M53.3,344.8c.2-1.9,2.1-1.9,3.5-2.7,1-.5,2.7-.3,2.4-2.4,0-.3,0-.4.4-.6.5,0,.8,0,1.3.2.6.5,1.1,1,1.1,1.9-2.7,1.6-5.5,2.8-8.6,3.7Z"/>
  <path class="st58" d="M60.7,340.1c-.3-.4-.5-.5-.8-.7-.2-1.4.9-2,1.8-3,.5-.2.8-.2,1.3,0,1.4,1.3,2.4,2.6.8,4.4-1.2,0-2.1-.1-3.2-.6Z"/>
  <path class="st26" d="M34.7,350.9c.6.6,1.2.6,2,.6-1.8,1-3.6,2.5-6.2,2.7-.6.2-.9.1-1.1-.5,1.7-1.2,3.1-2.4,5.3-2.8Z"/>
  <path class="st2" d="M63.4,336.2c-.2.1-.3,0-.3,0,0,0-.2,0-.3,0-.7-.1-.9-.6-1-1.3,0-.8.3-1.2.7-1.9.6-.5,1-.7,1.8-.6.6.5,1,.8,1.5,1.3-.7.8-1.5,1.5-2.5,2.3Z"/>
  <path class="st17" d="M29.3,353.5c.4.1.5.3.9.6-1,.7-2.2,1.4-3.6,2.1-.7,0-1.6-.1-.7-.8,1-.7,2.1-1.2,3.4-1.9Z"/>
  <path class="st41" d="M60.7,340.1c.9,0,1.8.1,2.8.5-.3.4-.8.6-1.5.8-.6-.4-1-.7-1.4-1.3Z"/>
  <path class="st6" d="M19.6,359.6c.4-.4,1-.8,1.8-1.1-.1.8-.6,1.4-1.8,1.1Z"/>
  <path class="st30" d="M52.4,353.5c-.1-.1-.3-.3-.4-.4,0,0,0-.2,0-.2,0,.1.2.3.3.5,0,.1,0,.1,0,.1Z"/>
  <path class="st22" d="M187.1,193.3c.5.3.8.4,1.4.7,1.6,0,2.4.7,3,2.1.5,3.6-3,2.4-4.4,3.9-1.5.3-2.3-.5-3.1-1.2,7.3,6.1,7.3,8.3,0,15.3-1.2.1-1.9-.5-2.4-1.2-1.7-2.3-4.2-2.8-6.8-2.4-2.7.4-2.8-2-3.7-3.5-2,2.5-3.7,2-5.2-1.7.8-6.1,2.3-11.8,3.9-17.7,1.8-1.3,3-.3,4.2.8,1.5,1.3,2.4,3.1,4.5,4.1,2.5,1.4,4.6.4,6.9-.3.2,0,.2,0,.2,0,.4.4,1,.7,1.6,1.1Z"/>
  <path class="st54" d="M204.2,216.3c1.1,0,1.7-.7,2.5-1.2,1.3-.3,1.1.5,1,1.3-.7,2.1-3.3,2.6-3.3,5.1,0,.4.1.5,0,.9-.7,1.3-1.9,1.9-3,2.8-3.4,2.2-6,5.1-10,6.1-1.2-1.7.2-2.9.6-4.4.2-.4.4-.5.5-.6.3-.3,0,.2.2-.2.1-.2-.1,0-.4.1-.6.5-1.2.7-2,.8-2.6-1-5-1.5-7.7-1.7-1.2-2.6.8-4.1,1.8-6.2.7-1.2,1.3-2.2,2.6-2.9,3-.3,5.1-2.7,8.2-2.3,2.4.5,2.5,3,4.3,4.1.6.2,1,.1,1.5-.2,1.1-.5,1.8-1.3,3-1.4Z"/>
  <path class="st10" d="M204.7,222.1c-.7-.9-1.9-.4-2.7-1.3,1.9-1,3-2.8,4.8-4.2,3-3.2,6.7-5.3,10.1-8.1.2-.1.2-.2.2-.2.7-.5,1.4-.9,2-1.8.2-.5.4-.8.7-1.2.4-.2.7-.3,1.2-.4,1.1-.4,2.1-.7,2.8-1.7,2.4-1.9,4.7-3.6,7.2-5.5.8-.4,1.3-.9,1.9-1.6.3-.8.7-1.1,1.5-1.3.4-.1.7-.2,1.1-.3.3,0,.5-.1.9,0,.6.5.8,1,.8,1.7-2.7,3.5-6.3,5.7-9.5,8.4-3.3,2.7-6.9,5.1-10.2,8.3-3.8,2.4-6.3,6-10.1,8.5-.9.4-1.6.5-2.5.6Z"/>
  <path class="st35" d="M185.4,192c-1.8,3.5-3.7,3.7-7.2.9-1.6-1.3-3.1-2.6-2.8-4.8.2-1.1-.6-.4-.9-.7-1.2-1.2-1.3-2.3.6-3.1,1.4.8,2.5,1.6,3.9,2.5,2.2,1.7,4.2,3.3,6.2,5.1Z"/>
  <path class="st29" d="M203.4,214.4c.2.2.5.1.6,0,.2.4.3.9.4,1.6-.5,1.2-1.2,2-2.5,2.3-1.5-.1-2.6-.7-3.8-1.6-.6-.7-.9-1.2-.9-2.1,2-1.8,3.9-2.1,6.2-.4Z"/>
  <path class="st29" d="M216.8,208.3c-2.3,3.5-5.9,5.7-9.6,8.1-.2-.4-.1-.8-.2-1.3,3-2.5,6.1-4.9,9.8-6.8Z"/>
  <path class="st29" d="M218.9,206.4c1.3,1.8-.7,1.3-1.6,1.9-.1-1,.8-1.3,1.6-1.9Z"/>
  <path class="st35" d="M187.2,193.2c-.7.3-1.2-.1-1.7-.9.5,0,1,.4,1.7.9Z"/>
  <path class="st2" d="M37.4,338.2c3.8-4.2,7.5-8.1,11.5-12.2,1.4-.5,2.1-1.3,2.7-2.6.4-.8.8-.8,1.4-.4,1.2,1.9-.4,3.4-.4,5.3-.5,1.7-1.2,3-1.4,4.8-3.2,4.4-7.1,7.4-12.1,9.4-2.6-1.9-1.3-3,.6-4.3.2-.3.4-.4.4-.6,0-.3,0-.3,0,.1-.6.9-1.2,1.4-2.4,1.3-.3-.2-.3-.4-.3-.7Z"/>
  <path class="st15" d="M37.3,338.1c.2,0,.2.2.3.5.6,1.8.2,2.9-1,4.3-2,2.4-3,5.5-5.6,7.7-1,1.2-2.1,1.8-3.7,2,0-2.2,3.4-3,2.2-5.7,2.5-3,5.1-5.9,7.8-8.8Z"/>
  <path class="st40" d="M51.6,328.6c0-1.9.5-3.5,1.4-5.2,1.3-.7,2.2,0,3.4.6,0,.5-.5,1,.1,1.7,0,.5,0,.8-.4,1.3-1.6.9-2.5,3.2-4.6,1.6Z"/>
  <path class="st9" d="M51.6,323.4c.2,1.5,0,2.9-2.3,2.7.6-.9,1.4-1.8,2.3-2.7Z"/>
  <path class="st50" d="M292.5,200.6c-.5.1-.8.2-1.3.2-2.8-.2-5.2-.7-7.6-1.8-.4-.2-1.1-.2-1.2-.7-.6-2-2.6-2.3-4.1-3.5-.4-.3.2-.9-.7-.7-1.9-1.5-3-5.1-2-7,1.2-.5,2.2-.5,3.5,0,4.3.7,8.2,2.4,12.5,3.3,1.1.3,1.9.7,3,.9,5.7,1.6,11.3,2.9,16.9,4.9,1.2.5,2,.9,3.3,1,.7.3,1,.6,1.1,1.4-6.5.8-13,1.3-19.8,1.9-1.3.3-2.2.4-3.4.3Z"/>
  <path class="st54" d="M275.6,187.1c0,1.1-1.4,2.3.9,2.2,1.2,0,.7,1,.6,1.6-.3,1-1.1,2.2,1,2.6,4.3,2.7,7.8,6.3,12.9,7.1-3.2.5-6.4.8-10,1.1-1.4,0-2.4,0-3.7,0-1.6-1.3-2.8-2.8-4.6-3.5-2.8-1-5-2.8-4.7-6.1.3-3.1,2.3-5,5.6-5.7.4,0,.5-.1.9,0,.6.2.8.3,1.1.8Z"/>
  <path class="st34" d="M311.9,197c-5.9-1.6-11.6-3.1-17.5-4.7-.9-.6-1.5-1.2-2.6-.9-4.2-1-8.2-2.2-12.5-3.3,0-1.9-.3-3.8.3-5.8,1.1-.2,1.9,0,2.5,1.1,4.5,2,8.8,3.7,13.3,5.5,6.1,2.4,12,4.9,18.1,7.4.3,1.5-.7.9-1.6.8Z"/>
  <path class="st52" d="M315.9,198.7c-.4-.2-.5-.4-.6-.7-.2-.5-.1-.7.5-1,1.1.4,2.2.3,2.8,1.3-.7.9-1.6.4-2.7.4Z"/>
  <path class="st56" d="M315.8,196.9c.1.3,0,.6-.4.9-1.2-.1-2.3-.4-3.5-.8.4-.2.9-.3,1.7-.6.8,0,1.4.2,2.2.4Z"/>
  <path class="st54" d="M292.6,200.7c.7-.9,1.9-.6,3.1-.6-.9.3-1.9.5-3.1.6Z"/>
  <path class="st10" d="M291.7,167.1c-.3.3-.5.4-.6.6-.2.4-.5.6-1,.7-.7,0-1.1-.1-1.5.1-1,.6-1.9.6-2.7-.3-.9-1.1.3-1.8.8-2.8.2-.4.3-.5.5-.8.7-.6,1.2-1,2.2-.9,2.7.5,5.1.1,7.5-1.2-1,2-3.4,2.6-5.1,4.5Z"/>
  <path class="st10" d="M299.2,161.2c0-1.2,1-1.6,2.3-1.9-.2,1-1.2,1.3-2.3,1.9Z"/>
  <path class="st10" d="M304.6,157.2c.1-.7.6-1.1,1.6-1.3-.3.4-.9.8-1.6,1.3Z"/>
  <path class="st10" d="M297.2,162.6c.1-.7.6-1.2,1.6-1.3-.1.6-.7,1.1-1.6,1.3Z"/>
  <path class="st10" d="M303.3,157.9c.1-.2.4-.4,1-.7-.1.2-.4.4-1,.7Z"/>
  <path class="st10" d="M306.6,155.9c0,0,.1-.3.4-.5,0,0-.1.3-.4.5Z"/>
  <path class="st10" d="M302.6,158.6c0-.1,0-.3.4-.6,0,.1,0,.3-.4.6Z"/>
  <path class="st10" d="M301.9,159.2c0-.1,0-.3.4-.5,0,0-.1.3-.4.5Z"/>
  <path class="st10" d="M307.3,155.3c0-.2.1-.3.4-.1,0,0-.2.1-.4.1Z"/>
  <path class="st15" d="M223.5,203.1c.4,1.8-1.1,1.8-2.4,1.9.7-.7,1.4-1.3,2.4-1.9Z"/>
  <path class="st2" d="M234.3,194.7c-.2.5-.6.9-1.1,1.4-.3.2-.5.3-.9.3,0-.7.4-1.2.8-1.9.5,0,.8,0,1.2.2Z"/>
  <path class="st15" d="M231.9,196.3c.3,0,.5,0,1,0-.2.7-.5,1.7-1.7,1.5.1-.5.3-.9.7-1.4Z"/>
  <path class="st42" d="M272,155.4c0,.3-.2.4-.3.4-.8-.4-.4-1.1-.5-1.8,0,.5-.1,1-.3,1.5-.2.8.2,2.1-.9,2.3-1.3.2-1.3-1.2-1.7-2-.9-1.8-2-3.4-1.9-5.8,1.3-2.1,1.4-4.4,2.2-6.7-.2-2.2-.5-4.2,1.7-5.6,1.5.2,2.7-.8,4.1-.4-.3,3.3-.7,6.4-1.1,9.8-.4,2.8-.8,5.4-1.2,8.2Z"/>
  <path class="st21" d="M266.3,150.1c.5,2.4,3.2,4,3.4,7.2.5-1.4.8-2.4,1.5-4.3.2,1.4.2,1.9.3,2.6-.5,3.9-1,7.6-1.6,11.3-.1.6-.4,1,.7,1.1,1.1,1.1.8,2.1-.2,3.1-2.3.3-3.8,1.7-5.4,2.9-1.3,1-2.5,2.2-4.6,2.3-1.2-1.4-1.5-3.2-2.8-4.7,5.1-6.3,7-13.8,8.7-21.6Z"/>
  <path class="st42" d="M257.3,171.6c2.1.7,4.4,1.3,2.9,4.5-.1,3-2.7,3.4-4.6,4.9-2.9.6-4-.6-3.8-3.4.1-.2.2-.2.1-.2.3-.3.3-.7.6-1.1,1.6-1.6,3.1-3.1,4.7-4.7Z"/>
  <path class="st25" d="M270.8,138.3c-1.7,1.2-1,3.1-2.1,4.6-.5-.7-.9-1.7-1.4-2.8,1.1-2.2,2.2-4.1,3.5-6.2.5-.2.7-.2,1.1.3.6,1.7,0,2.9-1.1,4.2Z"/>
  <path class="st52" d="M252.6,176.2c0,.4-.1.7-.5,1.2-.2,0-.2-.2-.2-.6.1-.4.3-.5.6-.5Z"/>
  <path class="st21" d="M283.3,163.9c7.8-5.4,15.3-10.8,22.8-16.1,1.3-.9,2.6-1.7,4.2-2.6.2.3.2.6,0,1.2-.4,2.3-2.4,2.8-3.8,3.8-2,1.5-4.2,2.9-6.4,4.6-2.6,1.8-4.8,3.6-7.5,5.3-2.8,2.2-5.4,4.3-8.3,6.5-1.8,1.4-3.6,2.6-5.4,4-.8.6-1.5.9-2.3,1.5-1.3.7-2.2,1.7-3.8,1.7-.6-.2-.8-.4-1.1-.9,2.6-4.6,6.6-7.2,11.5-9Z"/>
  <path class="st42" d="M283.4,163.8c-3.6,3-7.4,5.8-11.2,8.8-.2.3-.4.4-.7.4-.7-.2-1.1-.5-1.5-1.1-.1-.4-.1-.5,0-.9.3-1,.6-1.7.9-2.7,3.1-2.4,6.1-4.5,9.3-6.9.2-.4.4-.6.8-.7.2,0,0,0,0,0,0,0,.2-.2.5-.2,1.1.9.7,2.5,2,3.3Z"/>
  <path class="st33" d="M299.7,154.6c3.4-2.7,6.8-5.2,10.4-7.8.4,0,.7.3,1,.6-2.9,2.4-5.9,4.7-9.2,7.1-.5.5-1,.4-1.6.5-.4,0-.5-.1-.7-.4Z"/>
  <path class="st28" d="M281.9,160.1c-.3-1,.3-1.4,1.6-1.4-.3.5-.8.9-1.6,1.4Z"/>
  <path class="st21" d="M310.5,145.2c.2-.2.6-.5.7-.4.4.4,0,.4-.4.5-.1,0-.2,0-.2-.1Z"/>
  <path class="st28" d="M283.8,158.7c0-.1,0-.3.4-.6,0,.1,0,.4-.4.6Z"/>
  <path class="st28" d="M281.7,160.5c-.2.2-.3.2-.6.2,0-.2.2-.4.5-.6.2,0,.1.2,0,.4Z"/>
  <path class="st40" d="M120,316.5c-1.2-1.7-2.2-3.4-3.4-5.3-2.7-2.8-3.9-6.1-5.6-9.4.8-1.8,2.5-2.4,3.9-3.7.2-.3.3-.4.6-.6,2.2,1,.5,3.6,2.6,5.1.4.4.5.5.7.8.4.5.5.9.9,1.4.2.2.3.3.6.6.2.3.3.4.5.7.2.3.3.4.5.7,1,1.4,1.9,2.6,2.7,4.1.1.4.1.5.1.9-1.4,1.7-2.8,3.2-4.2,4.8Z"/>
  <path class="st31" d="M109,299.5c-.2.1-.4.3-.5.3-2.9,1.1-4.9,3.1-7.3,4.9-3.6,2.5-7,4.7-10.2,7.6-.1.2-.2.1-.2.2-1.8,1-3.7,2.1-5.2,3.9-.1.2-.2.1-.2.1-2.4,1-4.1,3.3-7,3.6-1-2.5,1-3.3,2.3-4.2,6-4.3,11.8-8.8,17.9-13.3,1.1-.6,2.1-1,2.9-2,.5-.4.9-.6,1.4-1,.8-.5,1.4-.8,2-1.5.3-.3.4-.4.7-.6,1.6-.7,2.8-1.6,3.9-3.1,1.1-.6,2.1-1,3.3-.4,1.1,2.4-.9,2.5-2.3,3.5-.2.2-.1.2-.1.2-.7.3-.9,1-1.4,1.6Z"/>
  <path class="st22" d="M116.1,297.3c-.5-.7-.5-1.2-.5-2,0-.4-.1-.5-.1-.9.2-.5.3-.7.7-1.1.3-.3.4-.4.7-.6,4.3-3.3,8.6-6.2,12.9-9.6,1-.8,1.9-1.2,3.2-1.1.7.4,1,.8,1.2,1.5,0,1.9-1.2,2.8-2.4,3.6-3.2,2.4-6.3,4.9-9.8,7.3-2,1-3.2,2.9-5.8,2.9Z"/>
  <path class="st27" d="M77.4,320c3.1-.6,4.8-3.1,7.7-3.4-3,3.4-7.1,5.7-10.8,8.7-.5.3-.8.3-1.3-.1-.3-.5-.4-.9-.3-1.5,1.1-1.9,2.9-2.4,4.7-3.7Z"/>
  <path class="st27" d="M91,312.5c.7-2.7,3.2-3.7,5.4-5.1,1.4-.9,2.7-1.9,4.3-2.9.3,0,.5.2.4.5-3.4,2.6-6.6,5.1-10,7.5Z"/>
  <path class="st58" d="M73,324.4c.4.3.6.5,1,.8-2.2,1.9-4.6,3.7-7.2,5.6-.8-.5-.8-1.2-.4-2.2,2.4-1.3,3.3-4.5,6.6-4.3Z"/>
  <path class="st5" d="M110.8,301.6c2.5,2.6,3.6,6,5.6,9.2-.1.2-.3.2-.7.2-2-2.9-3.7-5.8-5.5-8.9,0-.3.2-.3.6-.5Z"/>
  <path class="st17" d="M67.5,328.5c-.4.8-.7,1.4-1,2.2-.5.8-1.1,1.3-1.8,2-.5.3-.8.5-1.3.8-1.3-.8-.6-1.8-.3-3,.3-.7.5-1.1.9-1.6.9-.9,1.8-1.3,3.1-1.1.3.2.4.4.4.8Z"/>
  <path class="st53" d="M101.1,305.1c-.2,0-.2-.2-.3-.5,2.3-2,4.2-4.4,7.4-4.9-2.2,1.9-4.5,3.6-7.1,5.4Z"/>
  <path class="st27" d="M85.6,316.6c.3-2.7,2.5-3.4,4.9-4.1-1,1.8-3,2.8-4.9,4.1Z"/>
  <path class="st10" d="M115.8,294.3c0,.2,0,.4-.1.6-1.7,1.1-3.3,2-5.1,3,0-1.5,2.1-1.5,2.3-3.5.1-.5.2-.6.4-.9.3-.2.4-.2.7-.3.6,0,1,.1,1.5.5.2.3.3.4.3.7Z"/>
  <path class="st10" d="M109,299.5c0-.7,0-1.5,1.1-1.7.3.9-.4,1.1-1.1,1.7Z"/>
  <path class="st22" d="M115.8,297.6c-.2.1-.5.2-.6.2,0-.2,0-.4.4-.7.2,0,.2,0,.2,0,.1.1.2.2.1.5Z"/>
  <path class="st56" d="M271.9,134.5c-.4-.2-.6-.4-.9-.7,1-2,2.1-3.9,3.3-6,.3-.2.5-.2.8,0,.9,2.2-.9,3.4-1.4,5.2-.4.8-.9,1.2-1.8,1.5Z"/>
  <path class="st52" d="M275.3,128c-.3-.1-.4-.2-.6-.3.8-.8,0-3.2,2.4-2.4.1.2.2.3.3.2.3.2.5.5.7,1-.9-.4-1.5,0-1.9,1.1-.3.3-.5.4-.9.4Z"/>
  <path class="st45" d="M292.1,160c2.4-1.9,4.7-3.7,7.3-5.5.2,0,.3,0,.4.2.2.4.3.7,0,1.2-.1.2-.1.1-.1.1-.3.3-.7.5-1.2.9-1.6,1.3-3,2.4-4.7,3.6-.4,0-.7,0-1.1-.1-.3,0-.4,0-.6-.3Z"/>
  <path class="st45" d="M283.6,166.2c2.7-2.2,5.4-4.2,8.4-6.3.2,0,.4,0,.4.1.1.2.2.3.1.6-.1.2-.2.1-.2,0-.4.4-.7.9-1.3,1.5,0,.3,0,.4-.3.5-1.4.3-2.1,1.2-2.9,2.4,0,.2-.1.3-.2.4-.8.6-1.5,1.3-2.6,1.6-.7,0-1.1-.3-1.5-.9Z"/>
  <path class="st38" d="M288,165.2c-.2-1.5.8-2.2,2.4-2.5,0,.3-.3.6-.7,1.1-.6.6-1.1,1-1.7,1.5Z"/>
  <path class="st16" d="M299.9,155.9c-.2-.2-.2-.5,0-1,.5-.2,1-.3,1.7-.3-.3.4-.9.8-1.6,1.3Z"/>
  <path class="st16" d="M298.6,156.9c0-.5.2-.9,1-1-.2.3-.5.6-1,1Z"/>
  <path class="st22" d="M291.2,162.2c.1-.4.5-.9,1-1.5.4.8-.2,1-1,1.5Z"/>
  <path class="st22" d="M292.6,160.9c-.2-.2-.2-.3-.2-.6.3-.1.6,0,1.1,0-.1.3-.4.4-.9.5Z"/>
  <path class="st45" d="M65.2,320.8c5.6-5.4,12.1-9.5,18.1-14.2,6.5-5,13.2-9.8,20-14.7,3.6.1,3.7.4,2.3,4.2-9.2,6.8-18.1,13.6-27,20.3-2,1.5-3.9,2.9-6.3,4.1-.6.3-1,.5-1.6.9-.3.2-.4.3-.7.5-.6.3-1,.5-1.5.9-.3.2-.5.2-.9.3-1.5,0-2.2-.9-2.4-2.3Z"/>
  <path class="st40" d="M103.9,289.4c-2.7-4.6-4.8-9.6-6.9-14.9,2.8-.9,2.9-3.7,4.4-5.7,1.7.3,1.9,1.6,2.3,2.7,1.7,4.7,3.2,9.5,4.4,14.7-.2,1.1-.7,1.6-1.8,1.7-.9.4-1.6,1-2.4,1.6Z"/>
  <path class="st33" d="M65,320.6c1,.6,1.8,1.3,2.8,2.1-.1,2.8-2.4,3.7-4.7,4.9-2.1.2-4.2,1.3-5.4-1.4,2.1-2.4,4.7-3.8,7.3-5.5Z"/>
  <path class="st33" d="M105,295.8c.5-1.7,1.4-3.3-1.4-3.9.9-1.1,2-2,3.2-3.1.3-.8.7-1.3,1.3-1.9.2-.3.3-.5.6-.8,1.8-.6,3.5-2.8,4.9-1.1,1.3,1.8-.8,3.4-1.9,4.8-.3.3-.6.6-1,1.2-.7,1.2-2.2,1.6-2.4,3.2-.3.5-.5.8-.9,1.2-.8.5-1.4.7-2.3.3Z"/>
  <path class="st16" d="M57.6,325.9c1.5,1.9,3.3.7,5.1.7.3.1.3.3.3.7-.3.8-.7,1.3-1.3,1.9-.7.5-1.2.9-2,1.2-.4,0-.5,0-.9,0-.5-.2-.8-.3-1.3-.6-.6-.6-.9-1.1-1.4-1.9-.2-.3-.2-.5-.2-1.1.2-.6.3-.8.6-1,.4,0,.7,0,1.1,0Z"/>
  <path class="st15" d="M108.5,286.6c0,1.1-.6,1.5-1.3,2.1-.4-.2-.6-.4-1-.8.3-.5.7-.8,1.3-1.3.4-.4.6-.4,1.1,0Z"/>
  <path class="st49" d="M271.7,134.7c.4-.6.7-1,1.2-1.4.7-.6,1.3-1.3,2-.8.6.5.3,1.4.2,2.3-.2.9-.3,1.7-.5,2.6-1.2.9-1.9,2.7-3.7,1.1-.4-1.3.4-2.4.8-3.8Z"/>
  <path class="st54" d="M275.1,134.7c0-1.1-.6-1.6-1.9-1.5-.2-2,1.6-3.1,1.9-5.1.3-.3.5-.3.9-.3-.1,2.2-.4,4.5-.9,7Z"/>
  <path class="st48" d="M278.1,126.5c-.2,0-.5-.2-.7-.7.2,0,.4.2.7.7Z"/>
  <path class="st4" d="M31.2,350.8c.8-3.1,2.7-5.9,4.7-8.5.7-.9,1.9-1.6,1.8-3.2.8-.7,1.5-1.1,2.5-1.5.2,1.6-2.8,2.1-1.2,4.5.1.5.1.8-.2,1.3-1.9,1.7-2.9,3.9-5,5.4-.9.8-1.6,1.4-2.6,2Z"/>
  <path class="st17" d="M43.6,346.3c-.9,1-1.8,1.5-3.1,1.6-.3-1.2-1.5-1.1-2.2-1.7-.1-.3-.2-.4-.2-.8.3-1.1,1-1.6,2-2.1,2.4-.4,3.8.3,3.6,3Z"/>
  <path class="st2" d="M38.4,345.3c-.2.3-.2.6-.2.7-1.4,1-2.8,1.9-4.4,2.9.9-2.2,1.9-4.5,4.3-6.1.9.6.7,1.4.2,2.5Z"/>
  <path class="st8" d="M244.7,183.9c1.4-.3,2-1.5,3.1-2.3,1.3,1.1-.2,2.2,0,3.6-1.2,3.1-3.6,4.3-6.8,4.6.7-2.3,3-3.4,3.7-5.8Z"/>
  <path class="st8" d="M238.3,192.3c.1-1.4,1.1-1.9,2-2.7.2,0,.2,0,.2,0,.5.5,1.1.9,1.4,1.9,0,1.7-.7,2.6-2.3,3.2-1.4-.3-2.4-.6-1.3-2.3Z"/>
  <path class="st10" d="M238.3,192.1c0,.7,0,1.4.8,2,0,1-.6,1.5-1.6,1.7-.8-.3-1-.9-1.1-1.9.3-1.1.8-1.6,1.8-1.8Z"/>
  <path class="st10" d="M235.6,194.6c.1-.4.3-.7.7-1.1.2,0,.2,0,.3,0,.4.5.3,1-.4,1.4-.3,0-.5-.2-.6-.3Z"/>
  <path class="st52" d="M247.4,185c-.5,0-1.1.3-1.3.1-.6-.3,0-.6.2-.9.6-.8,1.4-1.3,1.6-2.5.2-.5.4-.8.7-1.3,0-.4.1-.7.5-.9.9-.7,1.7-1.3,2.6-2,1,1.1.7,3.3,3.4,2.7.7.1,1,.5,1.2,1.2-1.9,3.2-4.5,5.2-8,6.4-1.4-.7-.4-1.8-.9-2.8Z"/>
  <path class="st41" d="M249.3,179.3c0,.4-.1.6-.4.9-1.2-.3-1.7-1.1-1.6-2.5.6.3,1.2.9,1.9,1.6Z"/>
  <path class="st29" d="M274,186.7c-1.2,1.6-3.4,1.3-4.4,3.5-1.4,3.1.1,6,3.4,6.9,1.7.5,4.4,1.2,3.9,4.4-3.3.1-6.5.3-10,.8-2-.8-4,0-5.7-.7-3.7-1.4-4.6-4.6-2.3-7.9.6-.9,1.9-1.3,1.5-2.9-.1-.9.1-1.5.6-2.2.4-.4.6-.6,1-1,.3-.3.4-.4.7-.6,2-.7,3.2-2.6,5.5-2.6,2.2.5,4.4.4,5.8,2.5Z"/>
  <path class="st9" d="M260.3,190.1c1.8.9,2.5,1.7.7,3-1,.7-1.8,1.3-1.7,3.1.1,2.2,1,4.3,3.6,4.7,1.2.2,2.4.6,3.7,1.1-1.1.2-2.2.3-3.7.4-2.3.2-4.3.4-6.6.5-2.7-1.1-4.2-3.1-5.4-5.7,0-.7,0-1.2.4-1.8,1.1-.9,2.1-1.6,3.2-2.4.6-.5.9-.9,1.5-1.5.4-.5.8-.7,1.3-1,.3-.2.4-.2.8-.3.5-.1.7-.2,1.2-.2.3,0,.5,0,1,.1Z"/>
  <path class="st43" d="M252.2,195.5c-.3.5-.5.8-.8,1.2-2.3,3.9-5.9,5.8-10,7.4-.2.1-.5.2-.6.3-1,.6-1.8,1.1-2.8,1.8-1.1.8-2.1,1.4-3.3,2.1-.5.3-1,.3-1.3.7,0,.2,0,.3-.1.2-.4,0-.8,0-1.2.5,0,.2,0,.2,0,.3-3.3,2.4-6.9,4.2-10,6.8-.5.4-1.2.6-2.1.4-.5,0-.7,0-1.4-.1-.5-2.9,2.4-3.3,3.7-5.2,1-.8,1.8-1.5,2.9-2.2,1.5-.6,2.3-1.7,3.7-2.5.6-.5,1.1-.9,1.7-1.5,2.2-1.6,4.5-2.8,6.2-5,.2-.3.2-.5.4-.8.3-.4.5-.7.9-1.1,9.2-7,18.3-13.7,27.5-20.3,2.2-1.6,3.9-4.1,7.1-4.3,1.1.3,1.7.9,2,2,0,1.4-.4,2.1-1.5,2.5-2.2.7-3.9,2.1-6,3.5-2.3.9-3.9,2.4-6,3.4-.1,0-.3.2-.2.3.2.2.3.2.5.5.2,2.2-1.3,3.2-2.9,4.4-.2.2-.4.3-.5.3-.5.2-1,.1-1.4.7-.1.9-.2,1.6-1.3,1.9-1.5,0-2.4.9-3.4,2Z"/>
  <path class="st59" d="M219.8,217.3c3.9-2.6,7.6-5.6,12.1-7.4-.4,1.7-2.2,2-3.3,3.3-1.8,1.3-3.5,2.4-5.4,3.7-.6.7-1.5.4-2,1.2-.1.1-.2.2-.2.2-.6,0-1-.3-1.2-1Z"/>
  <path class="st59" d="M233.6,209.1c-.4-.7-.3-1.1.8-.8-.1.3-.4.5-.8.8Z"/>
  <path class="st59" d="M232.2,209.9c0-.5.2-.7.8-.7,0,.3-.4.5-.8.7Z"/>
  <path class="st15" d="M241.5,204.3c2.9-2.4,6.2-4.8,9.6-7.3,1.9,1.6,3.5,3.4,4.8,5.7-.9.3-1.9.5-3.1.7-3.8.4-7.4.6-11.3.8Z"/>
  <path class="st17" d="M82.1,271.6c-.1-.1-.1-.4-.1-.6,2.1-2.7-.3-5.7.8-8.4.3-.8-.7-.9-1.4-.9-1.4-.1-2.9-.2-4.6-.3,3-1.3,6.5-.3,10.1-.8,1.2-.4,2.2-.2,3.5-.2.7.6.8,1.1.4,2-2.6,2.4-5.2,4.4-5.5,7.9-.2,2.7,2.1,4.8,2.7,7.4.3,1.4,1.8,2.8,0,4.4-1.8-1.9-2.6-4.5-4.1-7-.5-.5-.4-.9-.7-1.4-.1-.1,0-.2-.1-.1-.1,0-.2-.2-.5-.5-.2-.1-.2-.4-.2-.6-.1-.4-.3-.6-.5-.9Z"/>
  <path class="st58" d="M101.8,268.2c-.4,2-.3,3.9-1.3,5.7-1,1.8-1.8,1.6-3.2.4-.9-1.5-1.6-3-2.4-4.6-.3-.4-.4-.7-.4-1.2,1.8-1.6,2.8-3.3,2.9-5.5,0-1.1,0-2.2,1.4-3.1.4,0,.6,0,1,.1,1.3,2.7,2.7,5.1,2.1,8.2Z"/>
  <path class="st37" d="M94.8,267.9c0,.5,0,.8,0,1.4-2.1-1.4-2.5-4.1-4-6.4-.1-.7,0-1.2,0-1.9.1-.3.3-.4.7-.5,2.1,2,3.3,4.4,3.4,7.4Z"/>
  <path class="st14" d="M92.7,229.2c1.2-1.2,2.5-2.2,3.9-3.2,1.6.3,2.8,0,3.6-1.4.5-.8,1.2-1.3,2.5-1,.3.3.3.4.2.8-.9,1.1-1.2,2.1-1,3.4-1.5,2.5-1,5.4-2.7,7.7-1.2-.6-1,.3-1.1.7-.8,3.1-1.8,1.9-3.5.5-2.5-2.1-3.6-4.3-1.9-7.6Z"/>
  <path class="st36" d="M91.5,241.6c1.5,1.2,1,3.1,2.3,4.4,1.1,1.1-1.1,2.2-2,3.2-2.1,2.2-4.7.3-6.9,2.2,0-4.2,2.1-7.3,3-10.7.2-.7.4-2.7,1.8-2.1.5.2,2.3,1.2,1.8,3Z"/>
  <path class="st14" d="M101.9,237.2c.3.8.4,1.6.7,2.5,1.2,1.4.5,2.7.1,3.9-.6,2.3-1.6,4.4-2.4,6.6-.7,1.9,0,1.4,1.1,2.8,2.4,3.2,7.1,2.8,8.9,6.6-.4.9-1,1.3-2,1.6-1.5.4-2.8.3-4.4.1-.9-.3-1.6-.6-2.4-1-1.4-1.6-3.8-1.6-4.5-3.7,0,0-.5,1-1.4.9.2-3.8,2.2-6.9,3.2-10.4.5-1.6,1.7-3.2.2-5.1-.8-1.3,0-2.4,0-3.8.2-.7.4-1.1,1-1.5.7,0,1.2.2,1.9.4Z"/>
  <path class="st14" d="M94.9,268.2c-1.2-2.4-2.3-4.8-3.5-7.4-.2-1.1.6-.9,1.2-1.3.6-.2,1.1-.2,1.9-.2,1.7-.7,3.2-1.3,4.4.6-.5,3-.7,5.9-2.4,8.3-.5.7-.9.9-1.6,0Z"/>
  <path class="st57" d="M99,260.2c-1.2-1-2.6-.3-4-.8,0-.5.2-1,.4-1.7.6-.9,1.1-1.6,1.9-2.6.3,2.7,3.4,1.9,4.3,4.1,0,1.6-1,1.3-2,1.1-.2,0-.4-.1-.5-.1Z"/>
  <path class="st7" d="M100.2,236.4c-.2.6-.4.9-.9,1.4-.3-.5-.3-1.2-.3-2,1.3-2.5.2-5.7,2.8-7.7-.4,2.6-1,5.3-1.6,8.3Z"/>
  <path class="st18" d="M80.5,252c0-.5,0-1,.3-1.8.8-1.7,1.5-3.2,2.4-4.8,0,2.4-.4,4.8-2.7,6.6Z"/>
  <path class="st25" d="M98.8,238.1c.2-.1.3-.2.4-.2.9,1.3,0,2.5-.3,3.9,0,.2-.1.5-.2.6-.8.3-.9-.2-.9-1,.3-1.2.5-2.2,1-3.3Z"/>
  <path class="st17" d="M85.9,259.1c-2.1.2-4.3.2-6.9.1,2-.8,4.4-.5,6.9-.1Z"/>
  <path class="st5" d="M92.5,259.4c.3.9-.4.9-1.1,1.2-.1.1-.4.2-.6.2-1.1,0-2,0-3.3,0,.5-.3,1.4-.6,2.4-1.1.9-.2,1.6-.2,2.6-.2Z"/>
  <path class="st37" d="M97.8,241.3c.3.2.4.6.7,1.1,0,1.3-.1,2.4-1.4,3.8.2-2,.4-3.4.7-4.9Z"/>
  <path class="st18" d="M78.7,256.7c0-.4,0-.8.4-1.3,0,.4.5,1.1-.4,1.3Z"/>
  <path class="st36" d="M85.7,253s0,0,0,0Z"/>
  <path class="st37" d="M136.3,180.4c1.3-.3,1.6-1.6,2.8-2.1,1.1-1.9,3.3-2,4.5-3.6,1.8-1.3,3.4-.5,5,.2,2.5,1.2,5,2.3,7.8,3.2-.7,2.4-3.1.9-4.4,2.2-.6.4-1.3,1-1.6.7-1.3-1.1-1.2.5-1.9.9-2.1,1.9-4.1,3.4-7,3.8-2.9-.7-4.9-2-5.2-5.2Z"/>
  <path class="st38" d="M151.1,179.6c1.7-1.6,3.6-.9,5.4-1.3.4-.1.7-.2,1.2-.1,1.2.6,2.2,0,3.4.5.3.2.4.2.7.2.3,0,.4-.2.6-.1.1.2.2.1.2.1.1.2.3.4.7.2,2.7.7,5.9-.5,8.2,2.1-.5,1.6-2.3,1.2-3.4,2.3-.9,1,0,2.1-.9,3.1-2.3,1.2-3.9-.6-6.1-.8-2.9-2.3-5.6-4.2-9.3-4.5-.7,0-1.1-.7-.8-1.7Z"/>
  <path class="st4" d="M167.3,182.9c1.1-1.1,2.3-2,4.1-1.5,1.7.5,2.6,1.7,3.9,2.8-.5,1.1-1.6,1.6.3,2.9,1.3.8,1.3,3.6,2.4,5.5,0,1.1-.2,1-.9.5-2.4-1.6-3.5-4.5-6.6-5.5-.4-.1-.4-.2-.6-.5-.5-1.7-2-2.5-2.6-4.1Z"/>
  <path class="st25" d="M143.4,174.4c.4,2.8-2.4,2.4-3.9,3.6-.7,0-1.2,0-2,0,1.4-1.7,3.6-2.5,5.9-3.7Z"/>
  <path class="st15" d="M161.1,178.6c-.9,0-2.1.9-3.1-.2,1-.4,2-.5,3.1.2Z"/>
  <path class="st15" d="M163.2,178.9c0,.3-.1.5-.3.7-.1-.2-.2-.3-.3-.6.1-.2.3-.2.6-.1Z"/>
  <path class="st15" d="M162.5,178.7c0,.1-.2.2-.4.1,0-.3,0-.5.4-.1Z"/>
  <path class="st12" d="M110.5,259.7c-1.9-2.1-4.6-1.5-6.5-3-1.1-.9-2.6-1.4-2.6-3.2-1,.4,0,1.7-1.1,1.8.9-2.1-3.6.3-2.2-2.7,1.8-3.9,3.1-8.1,4.6-12.5.9-2.5,1.8-4.7,2.7-7.2,4.9,1.3,9.8,2.6,13.6,6.3,1.7,1.7,4.7,1.8,5.9,4.2,0,0,1-.5,1.7,0,.9,1.6,0,2.9,0,4.6-.7,3.1-1.1,6-1.4,9.2-.5,1.2-1,2.1-2,2.3-3.7.7-7.3,1.6-11.1,1.2-.6,0-1-.4-1.6-1Z"/>
  <path class="st57" d="M126.5,243.4c-1-.3-1.5,1.1-2.3.4-2.5-2.3-5.8-3.5-8.6-5.6-1.9-1.4-3.9-4.2-7.3-2.9-1.2.4-1.6-1.6-2.5-2.5-.6-2.2,1.5-3.3,1.7-5.4,0-.9,0-1.5.6-2.2,2.3,0,3.7,1.6,5.4,2.5,3.6,1.8,6.9,3,11.1,2.7,3-.3,5.2,3.8,4.7,7.9-1,1.8-.7,4-2.6,5.3Z"/>
  <path class="st47" d="M97.6,214c2.3-2.6,5.5-1.1,8.5-2,.3-.5.5-.7,1-1,2.9-.8,5.6-.5,8.5,0,0,3.2-1.1,5.7-3.6,7.9-1,0-1.5-.4-1.8-1.4-2.3-3.3-5.1-4.4-8.8-3.2-1.2.4-2.4.4-3.8-.2Z"/>
  <path class="st58" d="M103,223.6c-1.5.2-1.9,1.1-2.3,2.2-1,2.7-2.5,1-3.9.2.8-.8,1.6-1.4,2.6-2.1,1.1-.8,2.1-1.4,3.2-2.2.4.1.6.4.6,1,0,.4,0,.5-.2.9Z"/>
  <path class="st39" d="M110,217.3c.4.2.8.6,1.3,1.1.5.7.2,1.3,0,2-.7,1.8-1.1,3.4-2.8,4.6-.4.6-.6,1.1-.9,1.8-.6-3.3.7-6.4,2.5-9.5Z"/>
  <path class="st57" d="M103.3,223.3c-.3-.3-.3-.7-.5-1.3,0-1.1-.4-2.1.7-2.6.3-.1,1,.1,1.2.4.7,1.3-1.3,1.2-1.1,2.5.1.5.1.7-.3,1Z"/>
  <path class="st39" d="M103.1,223.4c.2-.3.3-.4.4-.8,1.2.8.4,1.7-.2,2.5,0,0-.2,0-.3,0,0,0,0-.2-.2-.4,0-.3,0-.4,0-.7,0-.2.2-.4.2-.5Z"/>
  <path class="st14" d="M102.1,237.2c0-.5-.2-1.2.5-1.1.4,0,.2.7-.2,1.1-.1.1-.2,0-.3,0Z"/>
  <path class="st56" d="M115.7,210.6c-1.4,1-2.7,1.4-4.3.9-1.1-.3-2.2-.7-3.5,0-1-1.8.4-2.8,1.2-3.8,2.4-2.9,5-5.7,7.6-8.7.5-.3.8-.5,1.2-.9.4,0,.6-.1.8-.6,0-.2.1-.1,0-.1,1.9-1.4,2.9-3.6,4.7-5,1.6-1.2,3.2-2.7,5.8-2.1,1.4,1.6.6,2.8-.2,4-1.3,1.8-2.6,3.5-4.3,5.3-.2.3-.3.5-.5.8-1.7,1.4-2.4,3.3-3.7,5-.4.6-.6.9-1,1.5-.2.3-.3.4-.5.7-1.3,1-1.5,2.8-3.5,3Z"/>
  <path class="st17" d="M116.8,199.1c-2.3,4.4-5.8,8.1-8.9,12.3-.4.3-.7.4-1.3.5-2.3-1.3-2.5-3.2-1.7-5.4-1.9-2.4,1.1-2.9,1.5-2.9,4.2.2,7.1-2.3,10.4-4.5Z"/>
  <path class="st34" d="M130.2,191.2c-3.7-1-5.2,2.2-7.5,3.7-1.2.8-2,2.1-3.6,2.7.6-1.8,2.3-3.3,2.5-5.8,1.7-.8,3.3-1.3,5.1-2,1.6-1.1,3.3-1.4,5.1-1.5.4.6.5,1.1.2,1.8-.3.5-.5.7-1,.9-.3.1-.5.1-.9.2Z"/>
  <path class="st4" d="M110.8,195c.4-.2.6-.3,1.1-.3.3.8.5,2-.6,2.2-.9.1-1.1-.8-.6-1.8Z"/>
  <path class="st34" d="M118.8,197.6c.1.3.3.8-.5.6,0-.2.2-.4.5-.6Z"/>
  <path class="st37" d="M102.3,204.9c0-.1.1-.3.5-.6,0,.1-.1.3-.5.6Z"/>
  <path class="st14" d="M132.1,189c-1.8-.6-3.2.6-5,.6,1-2.2,4-1.4,5.5-3.2-.5-1.5-2.5.8-3.2-1.5-.5-1.6,1.5-.9.9-2,0-.3,0-.4,0-.7,2-.3,3.5-1.8,5.7-2.2,1.6,1.8,2.8,3.7,5,4.8.2.3.2.5,0,.8-2.9,1.6-5.6,3.3-9,3.3Z"/>
  <path class="st14" d="M83.3,273.7c.2.1.4.4.6.9,0,.2-.2.1-.4,0-.2-.3-.2-.6-.3-1Z"/>
  <path class="st14" d="M82.8,273c.1,0,.3,0,.5.4-.1,0-.3,0-.5-.4Z"/>
  <path class="st14" d="M82.1,271.7c0,0,.3.2.5.5,0,0-.3-.2-.5-.5Z"/>
  <path class="st4" d="M147.8,324.8c-1.5,4.8-.8,8.7,1.8,10.5-2.7,2.6-4.9-.4-7.6-1-.9-2.8-3.6-2.4-5.3-3.6-1.4-1-3.1-1.6-4.8-2.6.5-2.7,3.3-3,4.9-4.9,2.3-.9,4.3-1.6,6.8-.9,1.7.5,3.3.8,4.2,2.5Z"/>
  <path class="st8" d="M106.2,314.1c0-.3,0-.4,0-.7,1-1.7,2-.4,3,0,.6-1.2-.9-3.2.6-3.3,1.4-.1,3.2.4,4.4,1.8,1.4,1.7,2.1,4,4.3,5.3,1.5,2.3,2.7,4.6,4,7.1-2.7,1.1-4.8-.8-7.1-1.4-1.2-.3-2.2-.9-3.6-1.5-1.3-1.3-2.3-2.6-3.4-4-.2-.3-.4-.3-.6-.6,0-.2-.1-.3-.2-.3-.2,0-.3-.2-.5-.4-.3-.7-.6-1.2-.9-1.9Z"/>
  <path class="st17" d="M137.1,323.7c-1.2,2.2-3.6,2.6-5.2,4.2-.8-.6-1.4-1.1-2-1.9,0-.7,0-1.2.4-1.4,2.4-1.8,1.7-3.6.3-5.8,0-.6,0-.9.3-1.3,2.5-3,3.4-3.1,5.4,0,.8,1.2,2.6,1.5,2.8,3.4-.2,1.4-1.2,2-2,2.9Z"/>
  <path class="st31" d="M119.8,316.7c.8-2,.3-5,3.8-4.8.8-.4,1.3-.1,2,.3.3.2.4.3.6.6.4.6.6.9,1,1.5.7,1.1,1.2,2.1.7,3.5-3.1-.1-3,2.8-4.7,4.1-1.3-1.7-2.4-3.3-3.5-5.2Z"/>
  <path class="st17" d="M123.1,322.1c.6-4.7,1.3-5.3,4.8-4.4.7,0,1.1.4,1.6,1,.2.5.2.9.2,1.4-.1.4-.2.5-.4.9-2.3,1.4-.7,3.1-.7,4.7-3,.8-4.3-1.1-5.4-3.7Z"/>
  <path class="st37" d="M128.7,325.9c-1.6-1.8-4-3.6,0-5.4.5.2.6.5.8.9,0-.2-.2-.4-.4-.8-.1-.4-.1-.6-.1-1,.4-.8,1-1.2,1.9-.9,4.3,3.2,4.2,3.7-.8,7.1-.5.1-.8.2-1.4.2Z"/>
  <path class="st8" d="M123.1,324.9c-.4.6-.6.5-.7-.3.2,0,.4,0,.7.3Z"/>
  <path class="st9" d="M107.1,315.9c.1,0,.2,0,.4.3-.1,0-.3,0-.4-.3Z"/>
  <path class="st9" d="M107.7,316.6c.1,0,.3,0,.4.3-.1,0-.3,0-.4-.3Z"/>
  <path class="st45" d="M206.3,271.3c3,.4,2.9,2.7,3.1,4.7.6,6.5-1.3,12.4-4.5,18.2-.5.6-1,.9-1.3,1.3q-1.9,2.4-3.2-.9c.3-3.1,2.4-5.1,3.6-7.6,1.1-2.3,2-4.6,1.4-7.5-.2-2.2,0-4.1,0-6.3,0-.8.3-1.3.9-1.8Z"/>
  <path class="st54" d="M200.9,294.4c.5.6.8,1.3,1.1,2,.9-.7,1-2,2.6-2.1-1.6,4.2-3.5,8.5-6,12.6-1.9.6-4.1-.3-5.5,2-.3,0-.4-.1-.6-.5.8-4.3,3.1-7.5,5.5-11,1-1.1,1.6-2.3,3-3Z"/>
  <path class="st49" d="M209,245.2c1.6,1.4,1.3,3.1.6,4.6-.9,1.8-1.1,3.8-1.2,6-.4,3.3-.7,6.2-1.2,9.5-.3.3-.4.4-.8.4-.3-.2-.4-.4-.5-.8.2-1.8.2-3.4-.3-5.2-.3-4.7.9-9.1,1.7-13.6.6-.5,1.6.4,1.7-.9Z"/>
  <path class="st32" d="M205.9,265.4c.4,0,.6,0,.9,0,.1,1.7,0,3.4-.2,5.4-.2.6-.2.9-.3,1.3-.4.6-.8,1-1.7.5-1.1-2.8-.8-5.1,1.2-7.3Z"/>
  <path class="st26" d="M138.6,321.5c-1.2-2.5-3.8-3.4-5-5.7-.8.6-.7,1.7-1.9,2-1.7-2.9,1.2-4.7,1.7-7.3.2-.7.3-1.1.7-1.7.1-.3.2-.5.4-.8.5-.8.9-1.4,1.2-2.3.5-1,1-1.9,1.2-3,0-1.2.6-2,1.1-3.1.2-.3.2-.4.4-.7.2-.4.3-.6.4-1.1.2-.6.3-.9.4-1.5.1-.5.2-.8.4-1.2.7-1.5,1.1-2.8,2.2-4,2.6-.8,4.1,1.7,6.5,1.9,1.4,1,2.8,1.2,4.3,1.2,1.2,0,2.5-.2,3.7.9,1.9,7,1.6,13.9.9,21.1.5,2.9,1.1,5.5-.2,8.3,0,2.1-.7,2.8-2.7,2.2-1.9-.6-3.9-.9-6.1-1.4-1.5-.5-2.8-1-4.2-1.6-1.5-1.7-3.7-.6-5.3-2Z"/>
  <path class="st35" d="M156.4,316.4c-.2-7-.4-13.8-.3-20.7.7-1.4,1.8-1.7,3.1-1.7,1.4,0,2.5-.7,3.9-1.4.8-.5,1.6-.5,2.3-1.2.3-.2.4-.3.7-.5,2.4-1.1,4.2-2.6,6.1-4.4.6-.4,1.1-.5,1.8-.4,1.2.7,1.6,1.8,2,3.1.1,1,0,1.8-.1,2.7-4,3.5-5.8,8.7-10.1,11.7-1.9,1.3-2.3,6.8-.9,8.6.8,1,.8,2,.5,3.1-.3,1-.6,2.1.4,2.8,1,.7,2.1.1,3.1-.4,3.6-1.9,7.3-3.6,11.3-4.8,2.1-.6,4.1-.5,6,.7-2.6,1.5-5.2,2.7-8,4.2-.1.2-.1.2-.1.2-.3.4-.7.4-1.3.5-5.5,2.4-10.7,4.8-16.1,7-.9.4-2.5,2.3-3.5-.5-.7-2.9.1-5.6-.8-8.4Z"/>
  <path class="st22" d="M156.2,316.5c.7-.8,1-.7,1,.2,0,2.4,0,4.9,0,7.6,0,.3-.3.3-.4.3-.3-2.6-.4-5.2-.5-8.1Z"/>
  <path class="st2" d="M176.8,318.4c.2-.2.5-.4,1.1-.6-.2.2-.5.4-1.1.6Z"/>
  <path class="st60" d="M186.2,313.7c-6.3-.3-11.6,1.9-16.7,4.9-1.2.7-2.6,1-3.9,1.2-1.8.3-2.9-2.3-1.9-4.6.3-.7,1.3-1,1-2-.3-.9-.9-.9-1.9-.7-.5.1-.6-2.5.1-3.1.9-.7,0-1.2,0-1.7.6-1.9-1.6-4.6,2.4-5.5,1.8-.4,3.9-3.1,4.6-4.9,1.1-2.7,3.1-4,5.3-5.6.5-.6,1-.7,1.8-.7,2.9,1.6,4.2,4.5,6.2,6.8,2.3,2.7,4.5,5.5,6.7,8.4.7,1,1.6,1.9,1.5,3.5,0,.2,0,.5,0,.6,0,.3-.1.4-.3.8-1.4,1-3.1.6-4.2,2-.2.4-.4.5-.7.6Z"/>
  <path class="st54" d="M187.1,313.2c0-2.8,2.3-1.6,3.9-2-.9,1.2-2.4,1.3-3.9,2Z"/>
  <path class="st32" d="M191.7,309.8c-4.8-5.9-9.5-11.8-14.3-17.9-.6-.8-1.6-1-1.8-2.1-.6-1.1-1.5-1.8-1.5-3.2-.2-.5-.2-.8,0-1.4,2.4-2.8,4.4-5.6,5.7-9,0-.4.1-.5.2-.9.7-1.4,1.5-2.5,1.8-4.1,0-1.1.3-1.8,1.1-2.7,1.6-1.2,2.9-.7,4.2,0,3.1,1.5,6.1,3,9.4,4.7,1.5,1.1,3.2,1.6,4,3.5-1.5,2.9-3.3,5-6.4,6-2.2.7-3.8,2.6-5.6,4.3-.3.5-.9-.3-.9.6-1.1,1.2-2.3,1.7-3.6,1.9-2.4.3-2.1,1.7-1,3,2.6,3.1,4.8,6.4,7.9,9.4,1.7,1.9,2.6,3.8,1.9,6.4,0,.2,0,.6,0,.7-.3.4-.6.6-1.1,1Z"/>
  <path class="st43" d="M210,300.1s0,0,0,0Z"/>
  <path class="st32" d="M205.8,232.3c.3,1.6.8,3,1.2,4.6.3.9,0,1.2-.8,1.4-1.9-.5-2-2.1-2.7-3.6-4.3,2.1-7.4,5.9-11.9,7.9-2.6.4-4.4,1.8-6.3,3.4-2.7,1.4-4.1,4.5-7.6,4.4-1.5-1.9-.2-3.1.9-4.2,2.3-2.4,5-4.6,8-5.9,3.4-1.5,6.4-3.6,9.7-5.6.3-.2.4-.4.7-.6.6-.4.9-.7,1.5-1.2,2.2-1.1,4-2.7,6.7-2.7.9.6.8,1.3.7,2.2Z"/>
  <path class="st42" d="M205.4,238c.6-.3,1-.4,1.5-.7.8,2.2,1.5,4.5,2.2,7.1-.4.6-.9.5-1.7.2-.5-.3-.7-.4-.9-.7-.3-.5-.4-.7-.7-1.2-.6-1.6-1.2-3-.3-4.6Z"/>
  <path class="st45" d="M209.4,228.4c1.1,1.9,1.2,3.7,0,5.6-.8-1.2-1.5-2.2-2.4-3.4-.5-1.3.3-1.9,1.4-2.3.4,0,.5,0,.9.2Z"/>
  <path class="st42" d="M209.1,228.4c-.5.7-1.2,1.2-2,1.8-.4.8-.7,1.4-1.2,2.2-.3-.4-.5-1-.8-1.8,0-2,1.3-2.5,3.1-2.8.4.1.6.2.9.6Z"/>
  <path class="st21" d="M207.4,244.3c.8-1,1,0,1.5.3.1.1.3.3.3.5-.4.8.3,1.7-.6,2.1,0,0-.4-.7-.8-1.2-.6-.5-.7-.9-.5-1.7Z"/>
  <path class="st16" d="M209.3,228.6c-.2,0-.4,0-.8-.2-.5-1.1,0-1.7,1.1-2.3.6,0,.9,0,1.4.4.3.5.3.9-.1,1.3-.6.2-.9.4-1.3.7,0,.2-.2.2-.3.2Z"/>
  <path class="st24" d="M210.9,227.8c0-.3,0-.5.4-1.2.3-.4.4-.5.8-.5.3,0,.5,0,.8,0,0,1.1-.5,1.7-1.9,1.7Z"/>
  <path class="st59" d="M212.2,222.3c.2.2.1.5.1.6-.1,2.1-2.1,2.3-3.2,3.7-1,.7-1.7,1.4-3.1,1-.6-.5-.7-1-.5-1.7.2-1.2,1.8-.1,1.8-1.6,1.2-1.1,2.2-2.4,4-2.4.4.1.5.2.9.4Z"/>
  <path class="st29" d="M209.1,226.5c.2-2,2-2.1,3.1-3.3.6,0,.9,0,1.5.3-.2.5-.6.9-1.1,1.5-.4.6-.7,1.1-1.3,1.4-.1.1,0,0,0,.1-.3,0-.5,0-1,0-.4.1-.6.2-1,0Z"/>
  <path class="st43" d="M218.5,217.2c-.6,1.4-1.7,2.1-3.3,2,0-1.1.4-1.5.9-2.1.3-.2.4-.3.7-.4.5-.1.8,0,1.2.1.2.1.3.3.4.4Z"/>
  <path class="st43" d="M212.6,222.4c-.4,0-.5,0-.9,0-.3-.3-.3-.6-.2-1.1.1-.3.2-.5.4-.8.4-.4.6-.6,1-.9.3-.2.4-.3.8-.4.5,0,.8,0,1.2.3.2.1.2.1.2.2-.4,1.1-1.3,1.8-2.4,2.6Z"/>
  <path class="st10" d="M221.3,218.2c0-.8.5-1.1,1.5-1.2.2.1.2.2.3.5-.5.3-1,.5-1.8.7Z"/>
  <path class="st16" d="M211.2,226.7c-.2-.8.3-1,.9-1.5.2.2.2.4.1.8-.3.4-.6.6-1,.6Z"/>
  <path class="st25" d="M43.7,346.5c-1.1-.8-.6-3.1-3-2.4-.6-.5-.5-1.2,0-1.5,3.7-2.5,6.8-5.8,11.4-7.4,2.3.3,4.6.2,4.6,3.4-4.4,1.3-8,3.5-11.5,6,0,0-.1.2,0,.3.1.2.3.3.6.4-.4.4-1.1.8-1.9,1.2Z"/>
  <path class="st37" d="M56.3,338.8c-.5-2.1-2.3-2.3-4.1-2.7-.1-.5,0-.8.3-1.2,2.8-1,5.6-.7,8.4-1.9.7.3,1,.6,1.2,1.3.2.7.3,1.2.5,1.9-1.5.4-1.4,2.4-2.8,3-.2.2-.3.2-.6.3-.2,0-.5,0-.6,0-.6-.5-1.2-.3-2-.5-.2,0-.3,0-.3-.1Z"/>
  <path class="st25" d="M56.6,339c.4,0,1,0,1.7.2-.4,0-1,0-1.7-.2Z"/>
  <path class="st2" d="M52.1,343.8s0,0,0,0Z"/>
  <path class="st5" d="M62.4,334.5c-.5-.3-.8-.6-1.2-1.1-.2-.3-.3-.4-.4-.8,0-.7.2-1.2.6-1.8.7-.6,1.3-.8,2.2-.5,1.1,1.2-.6,1.8-.4,3-.2.5-.4.8-.9,1.2Z"/>
  <path class="st16" d="M166.3,205.5c.5.9,1.1,1.5,2,1.9.8.3,1.4,1.1,1.1-.8-.2-1.3,1.7-.5,2.7-.7,1.2-.2.9.6.8,1.2-.3,1.2-.6,2.1,1.2,2.4,2.1.4.5-1.7,1.7-2.2.5,2.1,1.8,2.4,3.8,2.5,1.9.1,3.2,1.7,4,3.7.3.2.4.3.5.7,0,1.6-1.1,2.4-1.7,3.7-2,2.5-3.3,5.1-5.4,7.6-.3.3-.4.4-.8.5-2.8,0-4-2.1-5.8-3.3-1.2-.8-2.3-1.7-3.9-2.3-1.4-.7-2.4-1.4-3.1-2.8,0-4.4.6-8.5,3.1-12.2Z"/>
  <path class="st41" d="M190.9,196.6c1.9,1.4,4.8,1.7,5.6,4.8-.9,1.7-2.2,3-2,5.2.1,1.3.8,2.2.9,3.5,0,.4,0,.5-.3.9-.3.3-.4.3-.8.4-1.1-.2-1.7-.8-2.3-1.7-.5-.8-.7-1.4-.9-2.2,0-2.1-1.1-3.4-2.4-4.5-.9-.8-2-1.4-2.1-3.1.7-.9,1.4-1.9,2.3-1.6,1.5.4,1.5-.6,1.8-1.6Z"/>
  <path class="st7" d="M166.6,205.2c-1.3,4.1-2,8-2.6,12.2-.5.6-1,.4-1.6,0-.9-3.1.7-5.7,1-8.8,0-.4.1-.6.3-.9.4-.8.6-1.4.5-2.3,1.2-4.8,1.7-9.5,3.1-14.1.4-1.3-.2-1.8-1.4-2.4-2.1-.3-3.7-1.2-5.2-2.7-.2-.3-.3-.5-.2-1.1,2.1,0,4.1.5,6.3.9,1.4-.3,2.6-.4,3.5.9,0,.3,0,.4,0,.5-1.2,5.9-2.4,11.7-3.7,17.8Z"/>
  <path class="st7" d="M186.6,199.6c2.1,2.5,5.8,3.5,5.6,7.7-.9.1-1.7-1.2-2.3.9-.5,1.9-2.2,3.5-3.5,5.4-.9.9-1.5,1.7-2.9,1.7-.3-.2-.4-.4-.3-.8.1-.2.2-.5.2-.6,1.9-2.9,5.2-5.5,5.1-8.6,0-3.1-4.6-4.5-6.3-7.7,1.8-.1,2.7,1.3,4.2,2Z"/>
  <path class="st19" d="M182.4,225.1c3.1-2.3,5.4-.2,7.8,1.2,2.1,1.7,0,2.5-.8,3.7-.9.8-1.8,1-3,1.3-2.6,0-3.8,2.6-6.4,2.3-1.3-.5-1.7-1.4-1.9-2.7.8-2.5,1.6-4.8,4.3-5.8Z"/>
  <path class="st16" d="M182.7,224.9c-1.8,1.5-2.2,3.8-4,5.3-1.6.4-2.2-.6-2.9-1.9-.3-.9-.4-1.5.1-2.3.2-.2.2-.2.2-.2,1.8-2.4,3.5-5,5.4-7.6.5-.4.9-.7,1.6-.9,1.1.2,2,.4,2.5,1.5-1,2.1-1.9,4-2.9,6.1Z"/>
  <path class="st22" d="M185.7,218.9c-.7-.4-1.8,0-2.2-1-.2-1.8,1.4-2.8,1.9-4.5,1.5-2.3,3-4.3,4.1-6.5,1.2-2.5,1.7-.7,2.6.4.3.6.5,1,.7,1.5-.7,3.1-2.1,5.6-4.9,7.3-.8.9-1.4,1.7-2.1,2.7Z"/>
  <path class="st35" d="M187.7,216.4c1.3-2.6,2.7-5,4.9-7.3.6.4,1,1,1.5,1.7.9.6,1.7,1,1.9,2.3,0,.4,0,.5-.3.8-1.8,2.1-5.6.3-6.4,3.7-.5-.4-1-.8-1.6-1.3Z"/>
  <path class="st21" d="M191.3,231.1c3.2-2,6.2-4,9.4-6.1.3.1.4.2.5.6-.4,1.7-1.6,2.4-2.9,3.5-1.7,1.6-3.6,2.6-5.5,4-1.9,1.3-3.5,2.7-5.4,4.1-2,1.4-3.5,3.1-6.1,3.4-.4,0-.6,0-.9-.3-.3-.3-.4-.4-.5-.7,0-1.1.7-1.6,1.5-2.2.4-.4.6-.6,1-.9,1.8-1.3,3.4-2.4,5.2-3.8,1.3-.7,2.1-1.8,3.8-1.5Z"/>
  <path class="st11" d="M191.6,230.9c-1,1-2,1.7-3.2,2.5-1.2-1.1-.5-2.1.3-3.3-.8-2,2.6-1.5,1.6-3.4.4-.4,1-.6,1.7-.9.6-.2.9-.1,1.1.5.2,1.8-.7,3.1-1.4,4.6Z"/>
  <path class="st38" d="M195.7,214.3c-.2-.2-.1-.4-.1-.6,0-.4.2-.6.6-.9.3,0,.5,0,.8,0,.4.3.5.5.6,1.2.2,1,.4,1.6.7,2.3,1.1.8,2,1.5,1.5,3-2-1.1-2.7-3.1-4-5Z"/>
  <path class="st9" d="M199.8,219.6c-.6-.9-1-1.8-1.4-2.8,1.2,0,2.4,0,3.2,1.5-.4.8-.8,1.3-1.8,1.3Z"/>
  <path class="st45" d="M193.1,226.6c-.3-.2-.5-.4-.8-.7.6-1.5,2-1.4,3.3-1.9-.4,1.3-.8,2.4-2.4,2.6Z"/>
  <path class="st42" d="M201.1,225.2c-.2-.2-.2-.2-.2-.2.7-1.1,1.7-2,3.3-2.3.4,1,0,1.5-.7,2.2-.8.6-1.5.7-2.4.2Z"/>
  <path class="st42" d="M204.4,222.2c.3-.8.8-1.2,1.7-1.2.4,1.4-.3,1.7-1.6,1.6-.2-.2-.2-.2-.2-.2,0,0,.1-.2.1-.3Z"/>
  <path class="st45" d="M196.8,222.8c0-.1.1-.1.2-.2,0,0,0,.2-.2.2Z"/>
  <path class="st22" d="M193.5,207.1c-.7-2.7-.1-4.8,2.8-5.6,1,1.5,1.9,3,2.8,4.7-.4,1.6-1,2.9-2.6,3.2-1.8.3-2.1-1.2-3-2.3Z"/>
  <path class="st60" d="M193.4,207.2c1.9,2,3.8,1.9,5.7-.6,1.1,1.4,1.9,2.9,2.9,4.6.5.3.6.6.6,1.2-2.8,1.1-5.2,0-7.4-1.9-.6-1.1-1.1-2.1-1.7-3.3Z"/>
  <path class="st35" d="M195,210.5c2.5,0,4.6,1.3,7.1,2,.3-.2.4-.3.6-.2.1.2.2.2.1.2.3.3.5.7.6,1.3,0,.2,0,.5,0,.7-1.8-.3-3.7-.4-5.8,0-.2,0-.2,0-.2,0-.3-.3-.3-.7-.7-1.2-.2-.1-.4-.2-.5-.2-.8-.2-1.1-.8-1.3-1.6,0-.4,0-.5,0-.9Z"/>
  <path class="st53" d="M202.9,212.2c0,.2-.3.2-.5.2-.2-.3-.2-.5-.2-.9,0-.5,0-1.2.5-.9.2.1.1.9.2,1.6Z"/>
  <path class="st53" d="M203.6,213.8c-.3-.2-.5-.6-.7-1.2.5,0,1.2.2.7,1.2Z"/>
  <path class="st27" d="M247.8,187.3c2.7-1.8,5.2-3.7,7.9-5.7,1.5-2.1,3.6-3.3,5.5-4.4,3-1.7,5.5-4,8.7-5.7.7.3,1.1.6,1.6,1.1-.5,3.2-3.3,4.1-5.2,5.5-8.9,6.5-17.7,13-26.5,19.5-4.2,3.1-7.9,6.8-12.4,9.9-1.8,1.5-3.6,2.6-5.2,4.3-.3.3-.4.4-.7.6-.7.4-1.2.7-1.8,1.4-.4.4-.7.5-1.3.7-.8.1-1.3,0-1.9-.4-.4-.5-.5-.8-.2-1.4,6.4-6,13.2-11.1,20.1-16.2.2-.3.3-.4.6-.7.8-.5,1.3-1,2-1.4,1.1-.5,1.8-1.2,2.2-2.3,1.6-2.5,3.9-3.7,6.6-4.6Z"/>
  <path class="st53" d="M216.2,212.5c.2.2.2.5.2,1.2.2.6.2.8.1,1.2,0,.7.6.3,1,.7.4.6.2,1-.3,1.4-.2.1-.2.1-.2.1-.7.5-1.4.9-1.9,1.9-.1.2-.1.1-.1.1-.3.3-.7.3-1.2.6-.1.1-.2.1-.1.1-.4.3-.9.6-1.2,1.2-.1.2-.1.1-.1.1-1.4.8-2.9,1.8-4.3,3-1.7,1.5-3.4.9-5.2.5.4-.7.9-1.2,1.4-1.9.6-.6,1.1-.9,1.8-1.4,3.4-3,6.7-5.8,10.1-8.7Z"/>
  <path class="st8" d="M237.2,195.4c0,.4-.2.6-.5.8-.3-.2-.5-.6-.7-1.1.1-.5.3-.8.5-1.3.6.2.6.8.7,1.6Z"/>
  <path class="st7" d="M53.3,335.1c-.5.3-.7.4-1,.8-4,2.7-7.8,5.3-11.8,8.1-.7.6-1.3,1-2,1.5-.1-.6-.1-1.4,0-2.4.2-.3.4-.4.6-.7,4.2-2.4,7.5-5.8,11.4-8.8,1.1-1.9,2.2-3.5,4.6-3.9.8,0,1.3,0,2,.5,1.6,3.7-1.7,3.6-3.6,4.9Z"/>
  <path class="st14" d="M55.9,330.2c-1.8,1-3.3,2-5.1,3.2-.8-1.6-.2-3.1.7-4.8,1.5-.8,2.7-1.4,4.2-2,.2,0,.2,0,.2,0,0,.1.1.3.4.5.9.4,1.2,1,1.6,1.9,0,1.4-.9,1.5-2,1.4Z"/>
  <path class="st4" d="M42.8,335.3c0,.3-.2.8-.7.3.2-.1.3-.2.7-.3Z"/>
  <path class="st4" d="M40.3,337.3c.2-.3.4-.7.8-.2,0,0-.2.2-.5.4-.1,0-.3,0-.3-.2Z"/>
  <path class="st4" d="M43,335.3c0,0,.2-.5.2,0,0,0-.2,0-.2,0Z"/>
  <path class="st42" d="M278,181.8c.5.4.9.6,1.4,1,3.3,2.8,3.3,3.1-.4,5.1-1,0-2-.3-3.3-.5-.3-.2-.5-.4-.8-.6-.6-1.8-.2-3.6-.1-5.6,1.2-.7,2.2-.6,3.1.6Z"/>
  <path class="st7" d="M291.9,191.6c.7-1,1.5-.6,2.2.4-.6,0-1.3-.2-2.2-.4Z"/>
  <path class="st54" d="M278.2,193.5c.1-.1.3-.3.4-.4,0,0,.2,0,.2,0-.1,0-.3.2-.5.3-.1,0-.1,0-.1,0Z"/>
  <path class="st19" d="M274.7,181.2c1.8,1.8,2.8,3.4.2,5.2-.2.2-.3.2-.6.4-2.1-.5-4-1.1-6.1-1.9.9-3.6,3.2-4.9,6.5-3.7Z"/>
  <path class="st59" d="M275.1,181.4c-3.4-1.1-4.6,2.1-6.9,3.2-1.7,1.1-3.3,2-5.1,3-1.8-1.3-.5-2.3.4-3.5.8-1.2,2-1.6,3.1-2.5,2.3-2.2,4.7-3.8,7.6-4.8,1-.4,1.9.7,3-.4.5-.1.8,0,1.3.2.6.4.8,1,.4,1.2-1.9,1-1.5,2.3-.8,4-.9,0-1.9-.2-3.1-.4Z"/>
  <path class="st52" d="M284.8,166.8c1.1-.3,1.4-1.5,2.7-1.4.3,1.1-1,1.5-1.2,2.4,1.1,1.2,2.1-.7,3.4.2.2.2.2.3.1.5-1.9,1.4-3.6,2.6-5.5,3.9-1.9-.1-2.5-1.2-2.4-3,.5-1.5,1.3-2.4,2.9-2.6Z"/>
  <path class="st19" d="M278.8,176.5c-.3.2-.5.2-.8.3-2.6-.2-3.2-1.7-1.9-5.2.6-.6,1.2-1,1.9-1.5.8,0,1.3.3,1.8,1,.5,1.3.8,2.5.4,3.9-.5.6-.9.9-1.5,1.4Z"/>
  <path class="st54" d="M280.4,175.2c-.8-1-1.5-2.1-.8-3.6.1-1.6.9-2.3,2.5-2.3.8,1.1,1.3,2,1.9,3.1-1.1,1-2.2,1.9-3.6,2.8Z"/>
  <path class="st28" d="M289.7,168.8c-.1-.1,0-.4,0-.6.3-.2.6-.2,1-.3,0,.6.1,1.3-1,.8Z"/>
  <path class="st28" d="M280.9,160.7c0,.2-.2.3-.5.6-.5-.5,0-.5.5-.6Z"/>
  <path class="st51" d="M270.1,171.2c-.7,2.3-2.6,3.3-4.4,4.4-3.1,1.9-6.3,3.8-9.6,5.7-.4-.2-.5-.6-.7-1,1.5-1.3,3-2.4,4.7-3.8,2.5-2.1,4.9-3.9,7.1-5.9,1-.9,1.6.2,2.6.1.2,0,.3.3.3.4Z"/>
  <path class="st41" d="M227,207.1c10-9,20.9-16.7,31.6-24.7,4.2-3.2,8.3-6.4,12.7-9.6.2,0,.5,0,.6,0,.3.2.4.4.7.7.4.3.5.6.3,1-2.9,1-4.6,3.2-6.8,4.8-9.1,6.6-18.1,13.3-27.2,20.1-.4.3-.6.4-.9.7-.1.1-.1.1-.1.1-2.1,2.3-4.8,3.7-7.3,5.9-.3.3-.4.4-.7.7-.6.4-1,.6-1.7.8-.6,0-.9-.1-1.3-.5Z"/>
  <path class="st49" d="M273.1,174.7c-.2-.3-.2-.6-.2-1,1-.8,2-1.5,3.2-2.2,1.3,1.5-.2,3.3.7,4.9.1.2.5.3,1,.4-.9.4-1.9,4.1-3.3,0-.2-.9-.7-1.4-1.3-2Z"/>
  <path class="st33" d="M282.5,169.2c-1,.7-1.7,1.3-2.7,2-.8,0-1.3-.2-1.5-1,1.6-1.5,3.2-2.8,5.1-4.2.6,0,.9.3,1.5.6-.6.9-1.4,1.7-2.3,2.6Z"/>
  <path class="st9" d="M138.8,298.9c-.2,1.1-.6,2-1,3.2-.4,1.4-1,2.4-1.7,3.7-.4.9-.7,1.6-.9,2.6-.1.2-.1.2-.1.2-.4.4-.8.9-1,1.7-.5,1.7-1.3,3-2,4.4-2,4.1-2.3,4.2-5.1.2-.4-.6-.7-1-1.2-1.5-.2-.2-.1-.2-.1-.1-.5-.8-1.2-1.6-2.1-2.5-.8-1.7-2.2-2.6-3.2-4.1-.1-.2-.1-.2-.1-.2-.1-.2-.3-.3-.6-.6-.1-.1,0-.1-.1,0-.4-.6-.7-1.1-1.2-1.9-.1-.2,0-.2,0-.1,0,0-.2-.2-.5-.2-2.2-1.3-3.5-3-2.1-5.7-.1-.2,0-.5,0-.6,1.7-1.2,3.3-2.3,5.1-3.5,3.5.7,3.6,1.1,1.6,3.5-.4,0-.6-.2-.7-.4-.1-.2,0-.1.3.3,1.8,0,3.3,0,4.9-.1,2.8-.4,6-1.5,8.5,1.2.8.9,2.2.1,3.4.6Z"/>
  <path class="st15" d="M120.2,306.7c1.6.4,2.4,1.7,3.4,3.2.1.4.2.6.2,1-1.6-.9-2.6-2.4-3.5-4.2Z"/>
  <path class="st2" d="M123.7,311.3c0-.3,0-.5,0-.9.8.5,1.7,1.2,2.1,2.6-.5-.2-1-.6-1.7-1.2-.2,0-.3-.4-.3-.5Z"/>
  <path class="st15" d="M118.2,304c.7,0,1.2.6,1.4,1.6-.8,0-1.2-.6-1.4-1.6Z"/>
  <path class="st15" d="M117.8,303.8c0-.3.2-.3.4,0,0,.1-.2.1-.4,0Z"/>
  <path class="st15" d="M119.6,306c.2,0,.3,0,.6.3-.2,0-.4,0-.6-.3Z"/>
  <path class="st30" d="M104.7,295.8c.7-.3,1.3-.5,2-.8.5-.2.8-.2,1.1.3.6,2-1.1,2-2.1,2.9-.1.2-.2.1-.2.2-.6.5-1.5.8-1.9,1.8-.4.4-.7.6-1.2.8-1.1.5-2,.9-2.8,1.9-6.4,5.5-13.2,10.1-19.8,15-.6.5-1.2,1-1.8,1.7-.1.2,0,.2,0,.2-1.4.9-2.5,2.4-4.4,3-1.2-.6-2.7.3-3.3-1.4,0-.7.3-1.1,1-1.4,11.5-7.6,21.8-16.6,33.4-24.2Z"/>
  <path class="st43" d="M112.8,294.3c-.9.3-1.8.5-2.9.9-.4,0-.5,0-.8-.3-.2-.3-.2-.5-.2-.9,0-.4,0-.5.2-.9.2-.3.3-.5.5-.8,4-3.6,7.9-7,13-9,.4.2.5.3.7.6.3,2.1-1.3,2.8-2.5,4.1-.9.6-1.7,1-2.3,2-.3.6-.5.9-.8,1.5-.4.7-.9,1-1.5,1.4-.8.5-1.6.5-2.5.7-.2.1-.2.1-.2.1-.1.2-.3.3-.6.6-.1.1-.1,0-.2,0Z"/>
  <path class="st43" d="M105.8,298.4c-.5-1.4,1.5-1.3,1.6-2.6.4-.8.9-1.2,1.9-.9.2.1.3.2.3.3-.5,1.9-2.1,2.6-3.8,3.3Z"/>
  <path class="st43" d="M99.7,303.1c-.1-1.3.6-2,2.3-2-.3.9-1,1.6-2.3,2Z"/>
  <path class="st43" d="M103.7,300.3c-.2-1,0-1.9,1.6-1.9.1,1-.7,1.4-1.6,1.9Z"/>
  <path class="st8" d="M139,299c-1.9.3-3.7,3.3-5.6-.7-.5-1.1-5.3-1.4-6.9-.3-2.4,1.8-3.3.2-4.8-.8,1.8-1.6,1.8-1.8-.7-3.3,4.1-3.4,8.3-6.6,12.7-10.2.5-.9,1-1.3,1.8-1.7.4,0,.5-.1.9,0,1.1.5,1.7,1.2,1.7,2.5.4.7-1.3.2-.1,1,2.2.9,2.3,3.2,3.6,4.8.2.3.3.4.4.8,0,1.8-.8,3.1-1.5,4.6-.3.3-.5.5-.6.9-.1.6-.2,1.1-.3,1.7-.1.4-.2.5-.4.7-.2.1-.2.1-.2.1Z"/>
  <path class="st10" d="M115.5,292.5c.6-.5,1-.9,1.4-1.3.6-.7,1.4-.9,1.9-1.8.3-.3.4-.4.7-.6,2.3-1.3,4.2-2.7,6-4.7.5-.7.9-1.2,1.7-1.6.8-.3,1.5-.2,2.3,0,.5.2.7.5.9,1-4.3,3.5-8.7,6.8-13.3,10.2-.5.3-.8.6-1.2.9-.2,0-.3,0-.3-.1-.4-.5-.5-1.1-.1-1.8Z"/>
  <path class="st59" d="M130.7,283.6c-.4,0-.6-.2-.9-.5.3-2.9,2.4-3.5,4.9-3.8,1.2,1.2.6,2-.4,2.8-.4.2-.5.2-.9,0-1,.3-1.7.8-2.7,1.4Z"/>
  <path class="st33" d="M133.2,282.3c0-.2,0-.4.2-.4.2,0,.4,0,.7.2.2.5.2.8,0,1.3-.1.2,0,.2,0,.2-.2-.4-.4-.8-.7-1.4Z"/>
  <path class="st31" d="M67.6,328.7c-.2,0-.3-.3-.4-.7.5-3.2,2.7-4.2,5.7-4.8.4.4.4.7.3,1.1-2.4.8-3.4,3.2-5.6,4.3Z"/>
  <path class="st31" d="M73.1,322.7c1.6-1,3-1.9,4.6-2.8-.7,1.7-2.1,2.7-4.1,3.4-.2,0-.3,0-.4,0-.1-.2-.2-.3-.1-.5Z"/>
  <path class="st36" d="M73.1,322.5c.1,0,.1.4,0,.5-1.9,1.5-3.8,2.9-5.8,4.5-.9.6-1.7,1.1-2.6,1.6-1.5.5-2-.3-2.3-1.6.1-.4.2-.5.3-.8,1.7-1.4,3.3-2.5,5.1-3.9.1-.2.1-.2.1-.2.2-.8.8-1.2,1.8-1.3.2-.1.2-.1.2-.1.1-.1.2-.3.5-.2.4,1.8,2.2.1,2.7,1.4Z"/>
  <path class="st14" d="M62.3,327.4c.8.5,1.3,1.1,2.1,1.7,0,.4-.2.8-.5,1.2-.6.3-1.1.5-1.8.8-1.2-.3-1.5-1.1-1.1-2.3.5-.6.8-1,1.3-1.4Z"/>
  <path class="st31" d="M115.5,292.2c.1.6,0,1.1,0,1.8-.5,0-1.1-.1-1.8-.4.4-.5,1-1,1.8-1.4Z"/>
  <path class="st31" d="M113,294.2c-.1-.2,0-.3.4-.5,0,.2,0,.3-.4.5Z"/>
  <path class="st33" d="M69.7,321.3c-.3.4-.8.9-1.5,1.4-.2-.9.3-1.3,1.5-1.4Z"/>
  <path class="st33" d="M70.7,321c-.1.2-.4.2-.6.2,0-.6.2-1.1,1.2-1.2,0,.3-.2.6-.6,1.1Z"/>
  <path class="st17" d="M99.4,260.4c.6-.4,1.3-.6,2.1-.9.6,0,1.1.2,1.7.4-.7,3,.3,5.7,1.1,8.4,1.7,5.5,3.9,10.9,5.1,16.8,0,.6-.2.9-.4,1.4-.1.2-.3.1-.3,0-.3-.1-.6-.2-1-.4-2-5.9-3.9-11.7-5.9-17.8-.9-2.8-1.6-5.4-2.4-8.2Z"/>
  <path class="st54" d="M109.1,286.8c-.2-.2-.2-.5-.1-.9,0-2.3,2-2.9,3.4-4.2,4.9-3.4,9.5-6.8,14-10.6.6-.4,1-.6,1.6-1,7-4.4,13.1-9.6,19.8-14.5.7-.7,1.5-1,2.3-1.6,3.6-2.5,6.9-5,10.5-7.4,1-.6,1.9-1,3.1-.9.3.2.5.3.7.6.2,1.6-.8,2.4-2,3.2-.4.3-.6.5-.9.9-.4.3-.6.5-.9.8-.4.3-.6.5-1,.8-.3.2-.4.3-.7.5-3,2.2-5.8,4.2-8.7,6.5-.3.3-.4.4-.7.6-.7.3-1.1.7-1.6,1.3-.2.3-.4.3-.6.6-1,.4-1.7.8-2.4,1.6-.2.3-.3.4-.6.6-.7.6-1.4.8-2.1,1.5-.3.2-.4.3-.7.5-1.1.5-1.9,1.2-2.8,2-.2.3-.3.4-.6.6-1.4.7-2.4,1.5-3.5,2.6-1.5,1.1-2.9,2.2-3.6,3.7-1.1,2.5-4.5,2.5-5.6,5.2-.2.3-.3.4-.6.7-.4.3-.6.5-1.1.8-.3.2-.4.3-.7.5-1,.4-1.7.8-2.3,1.6-.2.3-.3.4-.5.6-.4.3-.6.4-1,.6-.3.2-.4.2-.6.4-.3.3-.4.5-.7.9-2.6,2-4.8,4.3-8,5.3.4-2.3,3.2-3.2,3.1-6-1.2.5-2.5,1.1-3.9,1.6Z"/>
  <path class="st34" d="M109.5,291.3c2.7-2,5.3-3.9,8.1-5.9,0-.5.1-.7.6-.8.2,0,.2,0,.2,0,0-.5.5-.5,1-.7.2,0,.1-.1.2-.1.6-1.3,1.7-2,3.2-2.5.2,0,.2,0,.3,0,0-.5.5-.5,1-.7.2-.1.2,0,.2-.1,2.5-3.2,5.9-5.3,9.1-7.7,3.1-2.4,6-4.9,9.6-6.9,3-2.8,6.5-4.6,9.6-7.3,3.4-2.3,6.6-4.6,9.6-7.4.3-.3.4-.4.7-.7.5-.3.7-.5,1.2-.7,4.9-3.1,9.1-7,14.1-9.9.6-.1.9,0,1.4.2.4.2.7.2,1.3.3.5,2.1-1.2,2.8-2.4,3.8-1.6,1.3-3.3,2.6-5.2,3.9-3.5,2.2-6.6,4.5-9.6,7.3-.3.2-.4.3-.7.5-.3.2-.4.3-.8.5-.6.3-1,.5-1.5.9-.3.2-.4.3-.7.5-1.5.6-2.3,1.8-3.6,2.7-6.2,3.4-11,8.3-16.7,12.1-1.8,1.2-3.3,2.6-5.4,3.8-4,2.2-6.9,5.8-11.4,7.2-4.4,3-8.5,6-12.8,9.2-.2.5-.4.7-.8.8-.2-.1-.3-.1-.3,0,0,1-.6,1-1.4,1-1-2.1.6-2.4,1.9-3.1Z"/>
  <path class="st24" d="M107.4,294.3c.5-.4.9-.6,1.5-.9.3.3.4.7.6,1.3-.5.4-1,.6-1.7.9-.3-.1-.4-.3-.7-.5,0-.3.1-.4.4-.8Z"/>
  <path class="st47" d="M53.3,335.2c.8-1.7,3-2.2,3.7-4.3.3-.6.7-.8,1.3-1,.4,0,.5,0,.9.2,1.2.4,1.6,1.1,1.6,2.3,0,.3.1.4.2.7-2,2.5-4.7,2.8-7.7,2.1Z"/>
  <path class="st1" d="M61,332.4c-1.1-.2-1.2-1.1-1.6-2.1.4-.7.5-1.5,1.5-1.7.4.7.6,1.4.9,2.3-.2.6-.4.9-.9,1.5Z"/>
  <path class="st1" d="M58.4,329.6c0,.7-.5.9-1.2,1-.6,0-1-.2-1.5-.4.5-.4,1.1-.7,1.9-1.1.4,0,.5,0,.7.4Z"/>
  <path class="st40" d="M56.4,327c-.2.1-.3,0-.5-.3.1,0,.3,0,.5.3Z"/>
  <path class="st9" d="M248.1,187.2c-2.1,1.6-3.8,3.7-6.5,4.5-.5-.5-.7-1.1-.9-1.9,2.5-1.1,4.7-2.5,6.6-4.7,1.2.2,1.1,1,.8,2.1Z"/>
  <path class="st24" d="M263.9,184c1.6,1.9-1.7,1.8-1,3.4,0,.2,0,.2,0,.2-.4.2-.4.6-.7,1-.5.5-.9.8-1.4,1.4,0,.2,0,.2,0,.2-.2.2-.4.4-.8.6-.4,0-.7,0-1.1,0-.2-2,2.3-2.3,2.5-4.5,0-1.7,1-2.3,2.5-2.4Z"/>
  <path class="st59" d="M262.2,188.6c0-.2.2-.6.5-.9,0,.2-.2.6-.5.9Z"/>
  <path class="st24" d="M252.3,195.6c.1-1.6.7-3,3-2.3-.9.8-1.8,1.5-3,2.3Z"/>
  <path class="st24" d="M257,191.8c-.2-.6-.2-1.3,1-.9-.1.3-.5.6-1,.9Z"/>
  <path class="st29" d="M259.9,190.8c0-.1.2-.3.6-.6,0,.1-.2.3-.6.6Z"/>
  <path class="st29" d="M230,206.5c1.8-2.7,4.7-4.3,7.6-6.1-.7,3-3.7,4-6,5.9-.6.3-1,.4-1.7.2Z"/>
  <path class="st38" d="M226.6,207c.5,0,.7,0,1.1,0,.6.2,1,0,1.7.4-.8,1.1-2,2-3.3,2.9-1.6-.2-2.4.9-3.6,1.7-.5.1-.8,0-1.3-.2,1.1-2.3,3.4-3.2,5.4-4.9Z"/>
  <path class="st20" d="M264.2,184c-1.3.2-2,.9-2.7,1.9-.4.2-.7.2-1.2.2,1.3-2.3,3.6-3.6,6.3-4.7,0,1.3-1.4,1.6-2.3,2.6Z"/>
  <path class="st15" d="M217.2,217.1c0-.3.2-.7.4-1.4,0-.5.1-.7.2-1,.2-.3.3-.4.7-.6,1.3-.9,2.3-1.8,4-2.1.4,0,.5,0,.9.2-1.5,1.5-3.2,2.9-5,4.5-.4.3-.7.3-1.1.4Z"/>
  <path class="st29" d="M223.7,212.2c-.3.1-.5.1-1,.1-.4-.1-.6-.3-.5-.6,1.1-1,1.7-2.6,3.6-1.6-.5.8-1.2,1.4-2,2Z"/>
  <path class="st20" d="M260.1,186.2c-.4.4-.7.7-1.1,1.1-.1-.1-.2-.2-.3-.4.3-.2.7-.4,1.2-.7.2,0,.2,0,.2,0Z"/>
  <path class="st38" d="M229.8,206.3c.4,0,.8,0,1.5,0-.2.4-.6.7-1.3,1.2-.2,0-.2.1-.2.1-.2-.3-.3-.6-.1-1.2.1-.2.1-.2.1-.2Z"/>
  <path class="st29" d="M238.1,200.2c0-.2.1-.4.5-.6,0,.2-.1.4-.5.6Z"/>
  <path class="st58" d="M113.2,282.3c-1.1,1.5-2.5,2.3-4.1,3.3-3.6-7.4-5.5-15.4-8-23.2-.6-1.9,1-1.5,2-2.1,1.6-.2,3-.2,4.7-.2,4.5.5,5.3,1.1,6.5,5.3-1.7,2.5-2.7,4.6-.8,7.6,1,1.5,0,3.7-2,5-.2,0-.4.3-.5.4.5,1.5,2.1,2.2,2.1,4Z"/>
  <path class="st36" d="M114.5,265.5c-.7,0-1.4-.2-1.4-.3.4-3.4-2.5-3.8-4.7-5,.4-.3,1-.5,1.8-.7,4.8,0,9.4.1,13.9-1.9,1.1.3,1.2,1.2,1.3,2.3-.3,3.2-.3,3.2-3,2.9-2-.3-3.2,1.8-5.1,1.8-.8,0-1.6.8-2.7.8Z"/>
  <path class="st37" d="M94.8,264.3c-.2-.8-.4-1.4-.7-2.2,1.3.5,1.7,1.2,1.3,2.2,0,.1,0,.2-.1.3-.2.2-.4.2-.5-.3Z"/>
  <path class="st39" d="M165.8,187.9c2.5.3,3.1,1.4,2.4,3.8-1.2,4.4-1.9,8.9-2.9,13.6-.5.8-.3,1.4-.5,2.2-.1.2,0,.2,0,.2-5.2-.8-10.8-.2-15.1-4.7-1.9-1.6-1.3-3.8-1.9-5.9-.2-.9-.2-1.6-.2-2.5,0-.4,0-.6,0-1,.7-2.7,1.3-5.1-.1-7.6-1.7-.5-3.2.2-5,.1-.5-.1-.8-.3-1.2-.7-.1-.2,0-.4,0-.5,2.3-1,4.6-1.8,6.2-4.1,1.4.5,3,0,4.4,1.1,2,2.4,4.9,1.8,7.4,3.1.3.2.5.3.7.5-.4,1.3.6,2.4,0,3.7,0,.2-.2.4,0,.5,2.4.5,4.7,1.2,5.9-2Z"/>
  <path class="st25" d="M151.4,183.2c-.9-1.7-3-.5-3.8-2.2,1.1-.6,2.2-1.1,3.5-1.5.3,1.8,2.1,1.1,2.7,1.1,3,0,5.1,1.2,6.6,3.9.2.2.2.4.2.5-.4.4-.9.5-1.6.5-1.9-.4-3.5-.8-5.3-1.3-.5,0-.8-.2-1.2-.4-.5-.2-.7-.3-1.2-.5Z"/>
  <path class="st22" d="M170.4,187c-1.1,0-2-.3-3.1-.8-.9-1.2-3-2.2-.2-3.5,1.8.9,4,1.4,3.3,4.3Z"/>
  <path class="st51" d="M126.3,243.7c.6-2,1.1-3.7,1.8-5.7.3-.3.5-.3.9-.3.8.6.9,1.3.9,2.3-.6,2.4-1.1,4.6-1.8,7-.3,2.9.7,6-2.5,7.9-1.2-2.2,0-4.3-.2-6.7.4-1.6.6-3,.8-4.6Z"/>
  <path class="st31" d="M125.4,248.2c.2,2,.2,4.1.3,6.5.4.4.6.7.7,1.2,0,.6,0,.9,0,1.5-.5,1.1-.4,2.2-1.1,3.2-.3.2-.5.3-.8.2-.2-1-.3-1.9-.3-3.1.3-3.3.7-6.3,1.2-9.6Z"/>
  <path class="st1" d="M129.2,237.6c-.3.1-.4.1-.7.2,1.4-3.4-1.4-4.9-3.3-6.6-1-.9-2.5,1.6-3.6-.2-1.9,1.8-3.6,0-4.9-.7-2.7-1.5-6.3-1.9-8.3-5-.1-1.9,1.3-3.2,1.8-5.1.7-.9,1.4-.3,2.4-.4.4.1.5.2.9.3,6.5,3,11.6,7.9,17.8,11.2.7.6.8,1.2.7,2.1,0,.4-.1.5-.3.8-.4.7-.9,1.1-1.1,1.8-.4.7-.7,1.2-1.4,1.6Z"/>
  <path class="st55" d="M112.9,220.4c-.9.1-1.8.6-2.5-.4.2-.4.5-.8.9-1.3,2.1-2.3,2.6-5.2,4.2-7.9,1-1.5,1.9-2.8,3.1-4,1.6.9,1.3,2.3,1.4,3.6.4,3.5,1.5,4.4,5,4.2,1.4,0,2.9.2,4.5-.3.4,0,.5-.1.9-.2.4,0,.5,0,1.1,0,.6.1.7.2,1,.4.4.3.6.5.9.9.2.3.3.4.4.7.3.6.4.9.7,1.5.1.3.2.5.3.8.8,1.9,1.9,3.6,2.2,5.7-.4,2.4-2.2,3.8-3.4,5.8-.5.7-.9,1.1-1.3,1.8-.3.2-.5.3-.7.1-1.3.4-2.2-.2-3.1-.8-5-3.6-10.1-7.2-15.5-10.4,0-.3,0-.4.3-.6.1,0,.3.2.2,0,0-.1-.4,0-.5.2Z"/>
  <path class="st1" d="M133.8,218.4c-.1-.2-.2-.3,0-.3,0-.5-.3-.9-.5-1.6-.2-.2-.1-.2-.1-.2-.3-.3-.3-.7-.6-1.2-.1-.1,0-.1-.1-.1,0-.2-.2-.3-.5-.3,0,.1-.3.1-.4.2-1.5-.5-1.9-1.9-2.6-3.3-1.6-4.1-3.5-7.8-5.1-11.8,1.9-2.9,4-5.6,6.1-8.5,0-.2,0-.3,0-.4,0-.5.6-.5,1.1-.8.4-.4.5-.7.8-1.2,3-1.3,5.9-2.5,9.1-3.7.5,0,.8,0,1.3.1.3,1.7-1.1,2-2.2,2.4-2.4.9-3.9,2.4-4.7,4.8-.5,1.5-1.4,2.8-2.1,4.2-.5,1-1.3,1.7-.8,3.4.6,1.8-1.6,1.5-2.8,2-.4.2,0,.7,0,.3,0-.1,0-.2.2-.3.8-.4,1.5-.1,2.2,0,1.9.1-.2,2.6,2.1,2.9,2.1.3,1.3,2.7,1.1,4.3-.1,1.4-.6,2.7,1.5,3.4,1.4.5.9,2.2.5,3.3-.6,1.4-1.1,3.1-3.4,2.3Z"/>
  <path class="st39" d="M130.5,214.7c-1.4,1.3-2.8,1.7-4.4,1-.3-.1-.7-.4-.8-.3-1.9,1.2-3.7,2.3-5.1-.8-.8-1.8-2-3.3-1.2-5.5.2-.5,0-1.3-.2-2.1,0-.2,0-.2,0-.1.4-.2.5-.6.6-1.2.6-2.3,2.4-3.7,3.8-5.5.9,0,1.1.7,1.4,1.5,0,1.9-.6,3.8,1.7,4.9,1.6,1,1.8,2.6,2.7,4.2.4,1.5,1.4,2.4,1.3,4Z"/>
  <path class="st55" d="M124.1,202.7c-.1-.9-.3-1.5-.6-2.3,0-.2,0-.4,0-.5,1.5-.3,1.6.9,2,1.8,1.4,3,2.6,6,4,9.3,0,.4-.2.5-.4.4-1-1.4-1.7-2.7-2.7-4.1-1.7-1.1-1.9-2.8-2.3-4.5Z"/>
  <path class="st55" d="M119.3,205.7c.8.5.4.8-.3,1.2,0-.3,0-.7.3-1.2Z"/>
  <path class="st56" d="M131,190.2c0,.3-.4.6-.9.8-.2-.6.2-.8.9-.8Z"/>
  <path class="st15" d="M138.3,321.4c1.9.4,3.9-.1,5.3,1.8-2.1-.5-4.1.2-6.3.7-1.1-1.4-.4-2.1,1-2.5Z"/>
  <path class="st41" d="M126.7,313.9c1.1,1.1,2,2.1,3.2,3.5,1.3-2.5,2.5-4.8,3.8-7.3.3-.3.4-.4.8-.4-.8,2.6-1.8,5.2-2.9,7.9-.2.5-.3.7-.4,1.1-.6.4-1.1.5-1.9.7-.4-.5-.6-.9-1-1.5-.7-1.1-1.2-2-1.8-3.1-.3-.4-.3-.6-.2-.8,0-.2.2-.2.5-.2Z"/>
  <path class="st2" d="M126.8,313.8c0,.2-.2.3-.4.7-.3-.2-.5-.6-.7-1.1.3,0,.7.1,1.1.4Z"/>
  <path class="st56" d="M129,320.4c1.3.9,1.1,1.9.3,3-1.3-.8-.2-1.7-.3-2.7,0-.2,0-.2,0-.3Z"/>
  <path class="st34" d="M201.2,294.1c-.7,1.3-1.4,2.4-2.2,3.7-1.4-1.2-.8-2.6-.2-3.9,1.6-3.5,3.1-7.2,5-10.8,0-.6.2-.9.3-1.5.2-1.2.7-1.9,2-2,1.4,2.9,0,5.2-1.2,7.6-1.2,2.3-2.4,4.5-3.6,7Z"/>
  <path class="st21" d="M206.2,279.4c-.7.6-1.1,1.2-1.3,2.1-.8.6-1.4.3-1.6-.4-.4-1.7-1.8-2.7-2.9-4.1-1.3-1.1-2.6-1.9-4-2.8-.2-.5,0-.7.4-1.1,1.8-.4,3.2.1,4.3,1,1.8,1.3,2.7.7,3.8-1,.5-.3.7-.5,1.2-.7.1,2.2.1,4.5.1,7Z"/>
  <path class="st21" d="M204.6,282.7c-1.3,3.7-2.8,7.2-4.3,10.7-.6,1.3-1.4,2.5-1.5,4.3-1.9,3.6-3.8,6.9-5.9,10.4-1.2-1.5-.8-3.8-2.7-5.5,3.6-6.5,7.6-12.6,11.6-18.7.6-.8,1.3-1.5,2.7-1.3Z"/>
  <path class="st11" d="M205.1,272.7q-.5,4.3-4.1,2.6c-1.2-.6-2.4-1.1-3.8-1.7-3.7-1-6.7-2.9-10-4.9-.3-1.6.7-2.4,1.5-3.3,1.5-1.7,2.3-3.7,1.7-6.2,0-1.1-.2-2-.4-2.8q-1.1-4.4,3-6.4c.4-.3,1,.1.8-.7.9-1.8,1.8-1.9,2.8-.1.2.3-.3.5.2.5.8-.8,1.5-1.6,2.7-.9.1,0,.1.8.3.2.9-2.8,2.9-1.6,4.9-1.3-.2-1.7.5-2.9,2.1-3.6.2,0,.5,0,.6,0,.2.5.2.9.3,1.6.2,4.7-1,9.1-1.2,13.8.3,1.8,0,3.5-.2,5.3-.1.2-.2.4-.2.5-.4,2.5-.7,4.8-1,7.5Z"/>
  <path class="st32" d="M206.4,264.7c-.8-1.4.1-3,0-4.9.8,1.4.6,3,0,4.9Z"/>
  <path class="st33" d="M174.8,285.4c-.3.3-.5.5-.8.7-.3.3-.6.5-.9.7-2.5,1.3-4.2,3.5-7,4.6-.2.2-.2.1-.2.1-.4.5-1,.7-1.8,1-1,.3-1.7.5-2.6,1-.7.2-1.1.3-1.8.3-.7,0-1.1,0-1.8,0-.5,0-.8.1-1.3.2-1,0-1.7-.4-2.8-.3-.4,0-.6,0-1,0-1.7,0-3.2,0-5-.2-2.3-.2-3.8-1.6-5.6-2.7-.2,0-.3-.2-.4-.2-.6-1-.7-1.8.6-2.4,1.8.1,3,1.5,4.9,1.6,5.4,1.9,10.1.3,15.1-1.8,9.5-5.9,14.1-14.5,16.1-25.2.9-4.2.7-8.2,1.3-12.5.7-1.8,2.1-2.5,3.6-3.5,2.4.5,1.1,3,2.7,4.1,1.1,1.2,1.2,2.3.2,3.6-1.4,1.5-1.2,3.1-1.2,5-.6,3.6-.7,7.2-2.7,10.5-.3,1.8-1.2,3.2-1.5,5-.2.2-.1.2-.1.2-1.6,3.4-3.8,6.6-5.9,9.9Z"/>
  <path class="st16" d="M147.9,293.9c1.4-.8,3.1-1,5.1-.7.3,0,.6,0,.8,0,.9-.1,1.7-.1,2.6.4.5.1.6,0,.8-.4.6-.1,1.2-.1,1.9-.1.8.3,1.3.2,2,0,.9-.4,1.7-.6,2.6-.9.4.1.5.3.5.6-2.3,2-5.1,1.8-7.8,2.6-2.8-1.1-5.9.4-8.6-1.6Z"/>
  <path class="st4" d="M135.9,305.9c.4-1.2,1-2.2,1.7-3.5.2,1-.1,2.1-1,3.2-.3.2-.4.3-.7.2Z"/>
  <path class="st2" d="M135.5,305.9c.2-.2.5-.1.7-.1.2.9-.3,1.7-1,2.6-.6-.7-.1-1.5.3-2.4Z"/>
  <path class="st2" d="M134.8,309.7c-.3.1-.4.1-.8.2-.1-.6,0-1.1.9-1.4.2.4.1.8,0,1.3Z"/>
  <path class="st9" d="M140.1,296.4c0,0,0-.3.3-.6,0,.1,0,.3-.3.6Z"/>
  <path class="st9" d="M139.2,298.9c0-.1,0-.3.3-.5.1.1,0,.3-.3.5Z"/>
  <path class="st41" d="M166.2,291.8c1.7-2,3.9-3.5,6.5-4.8-1.7,2-3.7,3.8-6.5,4.8Z"/>
  <path class="st54" d="M175.3,289.8c.6.4,1.2,1,1.8,1.8-.4.2-.8.1-1.4.1-.5-.5-.7-1.1-.4-1.9Z"/>
  <path class="st60" d="M163.3,322.2c-.6-.3-.6-.7-.2-1.1,0,0,.4,0,.5,0,.3.4.3.7-.3,1.1Z"/>
  <path class="st41" d="M164.3,293.1c-.2,0-.3-.2-.3-.6.5-.4,1.1-.6,1.8-.9.3,1.1-.7,1.1-1.5,1.5Z"/>
  <path class="st35" d="M176.4,292.7s0,0,0,0Z"/>
  <path class="st13" d="M204.8,282.6c-3.2,2.7-4.5,6.5-6.8,9.6-2.5,3.4-3.8,7.6-7.6,10.3-3.8-2.7-5.9-6.7-9-9.9-1.6-1.7-.4-3.8,2-3.9,1.4,0,2.2-1.8,3.9-1.5.3-2.6,4.3-2.4,3.3-6,1.1,1.7,1,1.7,1.6.8.7-1,2,.2,3-.8,1.4-1.5,3-2.8,4.8-4.2,3.3,0,4.3,2,4.6,4.7.2.3.2.6.1,1Z"/>
  <path class="st42" d="M187.3,268c3.2,1.8,6.3,3.5,9.5,5.3,0,.3-.2.4-.5.7-4.3-1.4-7.8-4.5-12.6-5.2-1-1.5.3-2.9.4-4.6,2.2.3,2.3,2.2,3.2,3.9Z"/>
  <path class="st21" d="M174.9,285.5c.9-3.6,3.7-6.5,5.6-10-.3,4-2.9,6.9-5.6,10Z"/>
  <path class="st34" d="M184.8,263.9c-.6,1.5-.9,3-1.2,4.6-.3,1-.5,1.7-.8,2.6-.4.4-.6.4-.9-.1.8-3.8,1.5-7.4,2.3-11.3.2-.3.4-.4.9-.2,1.1,1.6,1.1,3-.3,4.4Z"/>
  <path class="st21" d="M181.8,270.9c.3,0,.5.1.8.3.2,1.6-.7,2.8-1.6,4.1-.6-1.5.3-2.8.8-4.5Z"/>
  <path class="st13" d="M187.5,287c-.4-.3-.6-.6-.5-1.1,0,0,.2-.1.3-.2,0,.3.2.6.2,1.1,0,.2,0,.2,0,.2Z"/>
  <path class="st46" d="M185.4,254.9c.8-1,1.5-1.8.3-2.8-1.2-1.5-.8-3.1-.9-5,0-.4,0-.6.1-1,1.7-1.9,3.5-3.1,5.8-4.1,4.6-3.1,8.9-6.3,13.5-9.6.5,1.8.9,3.4,1.3,5.2.4,1.7.8,3.1,1.3,4.8-.2.6-.3.9,0,1.4.2,0,.2,0,.2,0,0,1.2-1.9,1.9-.7,3.6.3.5-1,2.8-2.3,1.7-3.5-3.2-3.5.4-4.7,2-.9-.5,0-1.4-.5-2.1-.8.2-.7,2.8-2.5,1-.3-.7-.3-1.5-1.1-1.6-.6,0-.9.5-1,1.3-4,1.8-5.1,4.3-2.6,8,0,.1-.3.5-.6.8q-2-.8-2.7-3c-1.3,3.7-1.4,3.7-3.4,2.9-.2-1.3,0-2.4.5-3.6Z"/>
  <path class="st3" d="M172.5,247.2c2.9-2.4,5.7-4.6,8.7-7,1.9-1.3,3.5-2.5,5.4-3.7,1.9.3,3-.9,4.6-1.5.6-.2,1-.4,1.6-.6.3-.2.4-.2.8-.4.3,0,.5-.1.8-.2,1.1,0,2-.2,2.9.4-2.9,2.8-6.2,5-9.9,6.8-3.8,1.8-8,4.1-9.8,9.1,0,.6,0,.8-.3,1.1-1.2,1.6-2.2,3-4.3,3.2-2.2-1.6-.6-2.9.2-4.3,0-.2.2-.5.3-.6s.2-.4.2-.4c0,0-.3,0-.4-.2-.6-.4-.9-.9-.8-1.7Z"/>
  <path class="st54" d="M197.5,234.5c-1,.1-1.9.3-3,.3-.1-1.8,1.6-2.1,2.6-3.3.9-.6,1.8-.6,2.7-1.2.3-.2.4-.3.7-.4.3-.2.4-.2.6-.4.4-.2.6-.3,1-.5.3-.2.4-.2.6-.4.3-.2.4-.2.6-.4.3-.2.4-.2.7-.4.4-.1.7-.2,1.3-.4,1.5.2,2.3-.5,3.4-.9.4,0,.5,0,.9.2-.2.5-.7,1-1.2,1.7-1.1.8-2.2,1.4-3.3,2.2-2.1,1.1-4,2.1-6,3.3-.3.6-.7.6-1.3.8-.2,0-.2,0-.2,0Z"/>
  <path class="st21" d="M184.4,247.5c-1.6.1-2.2,1.6-3.6,2.1-.4,1.2-1,2-2.4,2.3-.4,0-.6,0-1-.3-.4-.5-.4-.8-.1-1.3.2-.2.2-.1.3-.1,2.8-1,4.4-3.4,6.9-5,.5-.1.8,0,1,.5,0,.2,0,.5-.2.7-.3.5-.3,1-1,1.2Z"/>
  <path class="st13" d="M185.7,245.7c-.4,0-.5-.3-.9-.5,1.6-1.6,3.3-3.2,5.9-3.3-1.5,1.4-3.2,2.6-5.1,3.9Z"/>
  <path class="st3" d="M197.7,234.5c0-.2.4-.4.9-.7-.1.2-.4.4-.9.7Z"/>
  <path class="st11" d="M207,243.7c-1,.2-1.2-.2-.3-1,.2.2.2.5.3,1Z"/>
  <path class="st10" d="M202.6,224.4c1.7.2,3.2.5,4.8-.6.3,0,.5.1.5.5-.2,1.1-1,1-1.6,1.4-1.2,1-2.4,2-3.9,3-.4.4-.6.5-.9.7-.9.5-1.5,1-2.7.9-.9-.4-1.3-.9-1.3-1.8,1.2-1.2,2.4-2.2,3.5-3.4.5-.4,1-.6,1.7-.8Z"/>
  <path class="st38" d="M201.7,228.6c1.1-1.3,2.3-2.4,4.2-2.7,0,.3-.2.6-.3,1.1,0,.2,0,.2,0,.2-.4.6-1.1.8-1.8,1.2-.2.1-.1.1-.2.1-.1.2-.3.3-.6.6-.1.1-.1.1-.1.1-.1,0-.2.2-.5.2-.4-.2-.6-.4-.7-.8Z"/>
  <path class="st15" d="M207.9,224.6c-.3,0-.3-.2-.4-.6,1.5-1,2.6-2.5,4.6-2.9,0,.3-.3.7-.6,1.1-1.2.9-2.3,1.6-3.6,2.4Z"/>
  <path class="st9" d="M215.2,219c-.2-1,.4-1.6,1.6-1.9,0,.9-.8,1.3-1.6,1.9Z"/>
  <path class="st9" d="M213.9,219.8c0-.3.4-.5.9-.7.2,0,.2.3.2.5-.3.2-.6.2-1.1.2Z"/>
  <path class="st15" d="M212.5,221.1c-.3-.7.2-1,1-1.3-.1.4-.4.8-1,1.3Z"/>
  <path class="st32" d="M175.9,225.7c.4.6.5,1.2.7,2-.2,3.7-2.1,2.4-4,1.5-2-1.1-3.1-3-5-4.2-.7-.8-1.4-1.5-1.7-2.6-.1-1,0-1.7.7-2.5,3.9.7,5.9,4.1,9.4,5.8Z"/>
  <path class="st42" d="M166.6,219.6c0,.9,0,1.7,0,2.8-.6.7-1.3.6-2.2.3-2.2-1.1-4.4-1.6-6.6-2.5-1.8-.7-3-2.1-4.7-2.6-.7-.2-1-.9-.2-1.7,3.4-1.3,6.4-.8,9.4,1,.6.4.9.6,1.5.8,1,.6,1.8,1.2,2.8,1.9Z"/>
  <path class="st42" d="M182.1,218.2c-2,2.6-3.4,5.3-5.9,7.5.8-2.9,2.9-5.1,4.7-7.8.3-.3.5-.4.9-.4.4.3.5.4.3.7Z"/>
  <path class="st34" d="M182.3,217.6c-.4,0-.5,0-.9.1.4-1,1.1-2.1,2-3.3.2,0,.2.1.3.5.7,1.5-.2,2-1.3,2.7Z"/>
  <path class="st16" d="M194.9,211.1c.6.5.9,1,1.3,1.7,0,.4,0,.6-.4.8-.6-.7-1-1.4-1.5-2.3.1-.2.3-.2.6-.2Z"/>
  <path class="st47" d="M162.7,216.8c-3.3.3-6.4-.8-9.9-.3-.6.6-1.1.9-1.9.4-1.4-2.6-1.6-5.2-1.6-8.1.3-1.5.2-2.8-.2-4.3,0-.8,0-1.4.6-2.1,3.5,2.9,7.7,2.9,11.8,3.5,1.1.2,2.1.7,3.1,1.6,0,3.2-.7,6.1-1.9,9.2Z"/>
  <path class="st47" d="M165.8,187.7c.4,1.3.9,2.9-.7,3.5-1.8.7-4,1.7-5.7-.8.1-1.3-.6-2.6.3-3.8,0-.4.2-.6.7-.7,2.1,0,3.1,2.3,5.4,1.9Z"/>
  <path class="st23" d="M160.6,185.6c-.1.4-.3.5-.6.7-.1,0-.4,0-.6,0-.5-.3-.9-.6-1.1-1.2.6-.2,1.2-.2,2.1,0,.3.2.3.3.2.6Z"/>
  <path class="st47" d="M164.9,207.6c-.1-.5,0-1,.2-1.8,0,.4,0,1.1-.2,1.8Z"/>
  <path class="st33" d="M182,217.9c.5-.9,1-1.6,1.5-2.5.6-.8,1.1-1.4,1.8-2-.1,1.4-.4,3-1.7,4.3-.6.3-.9.5-1.5.7-.2,0-.1-.3,0-.4Z"/>
  <path class="st3" d="M179.9,239.8c-.3.2-.5.3-.9.5-2.1-1.2-3.6,1-5.6.7-.7-.3-1-.7-1.2-1.4.2-2.4,2.2-3,3.7-4.2,1.6-.3,2.6-1.2,3.9-1.9,2.3-.7,3.5-3.1,6.1-3,.6,2.9-2.4,4.1-3.1,6.7-.2.4-.3.6-.6.8-.8.4-1.7.1-2.1,1.3-.1.2-.2.5-.3.6Z"/>
  <path class="st13" d="M179.9,233.1c.4,2.4-1.2,2.7-3,2.9-2.3-2-4.1-4.1-4.3-7.3.7-.7,1.1-.5,1.5,0,1.4,1.9,1.6.2,2.3-.7.7.7,1.3,1.4,1.9,2.2.5,1,1,1.9,1.6,2.9Z"/>
  <path class="st46" d="M183.1,237.2c-1.3-3.1,1.5-4.4,3-6.5.7-1.1,1.7-.2,2.6-.8.2,1,.1,2.1-.4,3.3-1.7,1.5-3.4,2.7-5.2,4Z"/>
  <path class="st54" d="M192.4,235.6c-2,.3-3.1,3.3-5.5,1,1.6-1.5,3.2-2.8,5.1-4.2,1,.1,1.3.6,1.4,1.6-.1.7-.3,1.2-1,1.6Z"/>
  <path class="st29" d="M193,234.7c-.3-.8-.5-1.3-.8-2,1.6-1.5,3.2-2.8,5.1-4.2.6.4,1,.8,1.5,1.4.4.9,0,1.3-.9,1.6-1.4,1.1-2.7,1.9-4.2,2.8-.2,0-.3,0-.4.1-.1.2-.2.3-.4.2Z"/>
  <path class="st32" d="M180.3,239.3c0-.7-.9-1.5-.2-2.1.7-.6,1.1.3,1.9.7-.4.5-.9.9-1.7,1.4Z"/>
  <path class="st29" d="M196.8,213.2c.2.1.5.4.7,1-.2-.1-.5-.4-.7-1Z"/>
  <path class="st10" d="M218.6,214.2c-.2.3-.2.4-.3.8-.1.3-.2.4-.4.7-.1.2-.1.1-.1.1-1.3-.2-2.3.5-3.5,1.3.1-1.6,1.2-1.8,2-2.5,0-.3,0-.4,0-.7.1-.2.1-.2.2-.2.5,0,1,0,1.7,0,.4.1.5.2.5.5Z"/>
  <path class="st52" d="M218.6,214.3c-.2,0-.2-.2-.3-.5.2-.3.4-.5.7-.8.7-.4,1.2-.8,1.9-1.2.2-.2.2-.1.1-.1.3,0,.6,0,1.1-.1.2,0,.3.2.3.6-1.1,1-2.1,2-3.8,2.2Z"/>
  <path class="st15" d="M220.9,211.6c0,.7-.6,1.1-1.5,1.3.3-.4.8-.9,1.5-1.3Z"/>
  <path class="st27" d="M216.3,213.8c0,0,.1.3,0,.4-.1,0-.2,0-.3-.2,0,0,0-.1.2-.3Z"/>
  <path class="st29" d="M229.6,206.2c.2.4.2.7.2,1.2-.6.2-1.1,0-1.8-.2.4-.5.9-.8,1.6-1Z"/>
  <path class="st8" d="M121.6,297c-.2-.4-.3-.7-.5-1.1,0,0,.2-.1.3-.2,0,.3.2.6.2,1.1,0,.2,0,.2,0,.2Z"/>
  <path class="st24" d="M122.9,283.6c3.4-2.8,6.9-5.4,10.6-8,2.3.4,1.1,1.4.5,2.5-.4.6-.8.9-1.3,1.3-.3.3-.4.4-.6.6-.3.2-.4.2-.8.4-.6.2-.9.5-1.4.9-.2.3-.3.4-.6.6-.3.2-.4.3-.7.6-.3.2-.5.2-.8.2-1.9.2-2.4,2.8-4.7,1.8-.2-.3-.2-.5-.3-.9Z"/>
  <path class="st53" d="M122.9,284.5c1.7-.9,3.2-1.6,5.1-2.3.5.4.4.7-.2.8-.6.3-.9.6-1.3,1.1-1.8,1.6-3.2,3.3-5.8,3.7-.1-1.7,1.7-1.9,2.3-3.3Z"/>
  <path class="st53" d="M117.8,289.8c-.1-1.5,1.1-1.7,2.2-2.2.2,0,.3,0,.3,0,.5.7.2,1.2-.6,1.8-.2.1-.2.1-.2.1-.5.4-1,.5-1.8.2Z"/>
  <path class="st9" d="M117.5,289.8c.6-.2,1.1-.2,1.8-.2-.2.9-.9,1.3-2.1,1.4,0-.3,0-.7.3-1.2Z"/>
  <path class="st24" d="M109.4,293.3c0-.1.2-.3.5-.5,0,.1-.2.3-.5.5Z"/>
  <path class="st33" d="M150.1,271.3c-4.2,4.1-8.9,7.2-13.5,10.8-.1.2-.3.2-.5.2-.7.4-1.4.4-2.2,0-.2-.1-.3-.3-.4-.3.5-.7,1.1-1.3,1.8-2.4.4-1.2,1.2-1.5,1.9-2.4.3-.4.5-.5.9-.8.8-.5,1.4-.7,2.1-1.3.6-.5,1.2-.6,1.9-1.1,2.4-1.8,4.4-3.9,7.6-4.4.4,0,.6.1.9.4.2.3.3.5.3.9,0,.2-.3.2-.2.1-.1,0-.2.1-.5.4Z"/>
  <path class="st29" d="M138.9,285.5c.5.5.9.9,1.4,1.3.7.6,1.4.7,2,1.4.1.2.1.1.1.1.1,0,.3.1.3.4-.9.6-.5,1.4-.9,2.1-2.8-.3-2.1-3.7-4-5.2.4-.4.7-.4,1.1-.2Z"/>
  <path class="st22" d="M133.7,282.5c.6-.6,1.3-.8,2.1-.2,0,1-.8,1.2-1.8,1.4-.3-.3-.3-.6-.3-1.2Z"/>
  <path class="st53" d="M137.6,285.6c-.2,0-.4-.2-.6-.3.1-.1.3-.2.6-.3.1,0,.1,0,.1,0,.1.1.3.2.2.4-.2.1-.3.2-.3.2Z"/>
  <path class="st9" d="M119.8,289.6c0-.5.2-1,.5-1.7,2.5-.3,3.5-2.8,5.8-3.6-1.1,2.6-3.7,3.8-6.3,5.2Z"/>
  <path class="st15" d="M127.7,283.1c0-.3.3-.4.5-.7,0-.2.1-.2.2-.2.1-.1.3-.2.5-.4.2-.1.1-.1.2-.1.4-.4.8-.8,1.4-1.3.4-.3.7-.4,1.1-.5.2,0,.2,0,.2,0,.3-.7,1.1-.9,1.7-1.5.3-.2.4-.2.8-.2.5.1.7.3,1,.7,0,.3,0,.5,0,.8-.1.2,0,.2,0,.2-2.1.3-3.4,2-5.3,3.2-.8.4-1.3,1.1-2.2.3Z"/>
  <path class="st31" d="M116.9,293.7s-.2-.1-.2-.1c0,0,.2,0,.2,0,0,0,0,0,0,0Z"/>
  <path class="st40" d="M124.3,260.9c0-.2.3-.2.4-.1,1.9,3.2,2.5,6.8,2.7,10.6-4,4.7-9.3,7.4-14.1,11.1-1.4-1.5-3.7-2.2-3.3-4.8,2.8-1.7,3.7-4.2,1.7-6.3-2.2-2.3-2.1-3.6.9-4.6.5-.2.9-.7,1.4-1.1,2.1-2,2.2-2,5.1-2.3.3,0,.5-.8.7-1.2.7,1.8,1.2-3.3,1.9,0,0,.3.5.2.7-1.9.9.4.8,1.2,1,1.9.1.4.3,1,.6.1.1-.3,0-.7,0-1.2Z"/>
  <path class="st32" d="M173.1,240.4c1.3-.5,2.3-1.1,3.4-1.7,1.3-.7,2.1-.4,2.4,1.3-4.6,3.7-9.2,7.1-14,10.5-.5-.3-.9-.3-1.4,0-.1.2,0,.2,0,.2-1.1.5-2.2.8-2.2-1.3.9-1,1.7-1.7,2.7-2.6,1.9-2.6,4.6-3.9,7-5.8.8-.4,1.2-.8,2.1-.7Z"/>
  <path class="st11" d="M143.8,265.8c-6.4,4.9-12.8,9.6-19.3,14.3,0-2-.4-4.2,2.9-3.9.7,0,2-1.3,2.3-2.2.5-2.1,2.1-2.9,3.9-3.9,1.4-.8,3-1.1,4-2.7.2-.2.2-.1.2-.1,1.1-.7,2.1-1.6,3.2-2.5.1-.2.2-.1.2-.1.7-.1,1.2-.9,2.3-.6.5.5.6.9.5,1.6Z"/>
  <path class="st46" d="M144,265.9c-.4-.2-.5-.5-.8-1,.3-.7,0-1.3.4-2,.1-.2.1-.2.1-.2,1.2-.2,1.7-1.7,3.2-1.8.2-.2.2-.2.2-.2.7-.3.9-1,1.3-1.8.1-.2.4-.2.5-.2,1.6,0,2.6-1.6,4.4-.7.2.3.2.5.1.9-3.2,2.5-6.2,4.8-9.5,7.1Z"/>
  <path class="st3" d="M153.5,258.9c-.2,0-.2-.2-.3-.6-1.1-1.6.1-2.2.9-2.9,1.1-.9,2.5-1.4,3.7-2.6,1.2-.7,2.3-1.1,2.6-2.7.2-.4.3-.6.6-.8.6.6.9,1.5,2.2,1.4-2.2,3.7-6.4,5.2-9.8,8.1Z"/>
  <path class="st19" d="M158.8,253.1c-1.9,1.7-4.2,2.5-5.5,4.8-1.4.1-2.3,2-4,.9,2.8-2.5,5.9-4.8,9.2-7.3.6.3.7.8.4,1.6Z"/>
  <path class="st11" d="M171.5,241c-2,2.5-4.5,4.1-7.2,5.7-.3-.1-.3-.3-.4-.7,2-2.3,4.3-4.1,7.1-5.5.3,0,.5.2.5.5Z"/>
  <path class="st15" d="M126.8,266c.5,1.8.9,3.3,1.3,5.1-.1.4-.4.5-.7.6-1.5-3.3-2.4-6.7-2.6-10.5,0-1.3.2-2.3.5-3.5,2.3,1.2.7,3.3,1.2,5.2.3,1.2.2,2.1.3,3.2Z"/>
  <path class="st19" d="M140.9,264.8c-.5,1.2-.2,3.5-2.9,2.7.2-1.5,1.5-2,2.9-2.7Z"/>
  <path class="st19" d="M137.5,267.5c0,2-1.4,2.7-3.5,2.7.6-1.3,1.9-2,3.5-2.7Z"/>
  <path class="st19" d="M146.9,260.7c-1.1.3-.8,2.8-3,2.1.5-1.2,1.4-2,3-2.1Z"/>
  <path class="st11" d="M122.8,281c-.4,1.3-1.8,1.7-3,2.6,0-1.7.9-2.6,3-2.6Z"/>
  <path class="st32" d="M158.9,253.2c-.2-.4-.2-.8-.3-1.5,0-.2.3-.3.4-.3.3-.1.5-.3.7-.5.2-.3.3-.5.6-.7.2,1.2,0,2.4-1.5,3.1Z"/>
  <path class="st19" d="M143.6,262.8c0,.5,0,1.1-.3,1.8-.8-.3-1.3.9-2,.2.4-1,1.3-1.4,2.3-2Z"/>
  <path class="st19" d="M148.3,258.8c0,.7,1.4,2.3-1.1,1.9-.2-.9.2-1.4,1.1-1.9Z"/>
  <path class="st11" d="M124.2,280.1c-.1.4-.4.6-.8.9-.3-.5-.5-1,0-1.4,0,0,.5.3.9.5Z"/>
  <path class="st11" d="M119.5,283.6c-.1.3-.4.6-.8.9-.3-.7-.3-1.2.8-.9Z"/>
  <path class="st11" d="M118.3,284.4c0,.2,0,.4-.4.7-.5-.4-.4-.7.4-.7Z"/>
  <path class="st3" d="M159.8,250.7c0,.1,0,.3-.4.5,0-.2,0-.3.4-.5Z"/>
  <path class="st29" d="M149.8,270c-2.7,1.2-4.7,3.1-7.1,4.8-.5,0-.8,0-1.3-.3-.4-.4-.6-.7-.7-1.2,1-3.6,4.5-4.6,6.7-6.7,2.6-2.5,5.8-4.3,8.5-7.1,1-1.4,2.4-2,3.7-2.9.5,0,.7,0,1,.4.2.3.4.5.8.6.5.2.8.5,1,1.1-.4,2.5-2.3,3.6-4,4.8-1.7,1.2-3.4,2.5-4.8,4.3-.2.3-.3.4-.5.7-.5.4-.9.5-1.4.9-.3.2-.4.3-.7.4-.4.1-.7.2-1.1.3Z"/>
  <path class="st59" d="M155.8,259.4c-1.3,3.8-5.3,5.2-8,8-2,2.1-4.4,3.7-6.6,5.8-1.2,3-3.9,3.9-6.5,5.1-.2,0-.5,0-.7,0-.3,0-.4.2-.8,0-.3-1.2,1.2-1.5.6-2.7,7.1-5.6,14.2-11.1,22-16.3Z"/>
  <path class="st46" d="M160.8,258.1c-.4-.4-.6-.8-.9-1.4-.1-.2,0-.2,0-.1.6-.3,1.2-.7,1.9-1.2.1-.1.2-.1.1-.1.2-.1.3-.2.5-.6,3-2.9,6.4-5.2,9.9-7.7.6.4,1,.9,1.6,1.5.3.2.4.3.3.5-.2.1-.2.2-.2.2-3.6,3.7-7.7,6.6-12,9.6-.5-.3-.8-.5-1.3-.8Z"/>
  <path class="st29" d="M161.7,255.3c0,.9-.5,1.4-1.6,1.4-.1-.9.8-1.1,1.6-1.4Z"/>
  <path class="st3" d="M163.6,250.9c0-.7.3-.9,1-.4-.2.3-.5.4-1,.4Z"/>
  <path class="st29" d="M162.3,254.7c0,.2,0,.4-.3.6,0-.2,0-.4.3-.6Z"/>
  <path class="st29" d="M226.3,208.6c.2,0,.3.1.4.2-.2,0-.3,0-.4-.2Z"/>
  <path class="st53" d="M217.9,215.7c0-.1,0-.3.3-.5.1.1,0,.3-.3.5Z"/>
  <path class="st40" d="M110.2,277.6s-.2-.2-.2-.2c0,0,.2,0,.2,0,0,0,0,0,0,0Z"/>
  <path class="st57" d="M150.3,208.2c.4,2.9.7,5.6,1,8.6-.7,2-2.4,1.7-3.9,2.4-.7.3-1.1.5-1.7.8-2.5.7-4.5,2-6.2,3.7-.7.7-1.4,1.4-2.8,1.1-1.1-2-2.1-4-3-6.1,2.5-.7,2.7-2.6,2.6-4.6,0-.2.2-.5.2-.6q-2.3-2.4-2.1-5.8c0-.5,0-1.1-.4-1.7,0,.4-.1.7-.2,1.1,0,.4-.1.8-.2,1.5-2.1-1.7-.2-5-3-6.2-.3,1.1,1.7,2,.2,2.8-.8.4-1.4-.6-1.7-1.2-.7-1.1,0-1.9,1.1-2.2.7-.2,1.6-.4,1.5-1.1-.3-1.3-.8.6-1.3,0-.4-.5,0-1.1.2-1.5,1.7-3,3.3-6.1,4.7-9.4,1.2-2.9,4.5-2.5,6.9-4,1.9,0,3.4-2.6,5.3-.3.3.3.4.4.7.7.4,1.6.1,3,.5,4.6.3.9.2,1.6,0,2.5-.1.4-.2.5-.3.8-.5,1-.3,1.9,0,2.7,1.1,1.6.9,3.4,1.3,5.3.2.7.2,1.2.3,1.9.4,1.4.1,2.7.3,4.1Z"/>
  <path class="st47" d="M158.1,184.8c.4.4.7.7,1,1.3-2.5-.8-5.5-.6-7.9-2.7.3-.2.6-.2,1.3,0,2,.6,3.7,1,5.6,1.5Z"/>
  <path class="st47" d="M148.8,193.4c-.2-.5-.3-1.2-.3-2.1-.5-1.7,0-3.2-.4-4.9-.2-.2-.2-.5-.2-.6.4-1.2,1-1.6,1.2-.2.5,2.5.7,5.1-.2,7.8Z"/>
  <path class="st12" d="M148.6,196.5c-.2.4-.3,1.4-.6.6-.3-.7,0-1.7.3-2.7.2.5.3,1.2.4,2.1Z"/>
  <path class="st47" d="M159.3,190.2c0,.4-.2.8-.2,1.2-.6-.3-.2-.7,0-1.1.1-.1.1-.1.2,0Z"/>
  <path class="st39" d="M152.9,183.3c0,0-.1,0-.1,0,0,0,.2,0,.1,0Z"/>
  <path class="st51" d="M125.8,256.1c1.1,1.3.4,3.2,1.2,5,0,.8,0,1.3,0,2.1-.1.4-.2.5-.5.4-1-1.9-.6-3.8-.9-6,0-.6,0-1,.2-1.5Z"/>
  <path class="st31" d="M145.1,219.1c1.1,3.1-2.1,2.7-3.2,3.7-3.8,3.4-6.7,7.5-10.6,11-.1-.5,0-1,.1-1.7,0-.2,0-.5.1-.6,1.1,0,.3-.9.8-1.3,1.4-1.9,2.7-3.6,4.1-5.4,3.1-1.7,5.1-4.8,8.8-5.6Z"/>
  <path class="st51" d="M130.8,233.9c.7,1,.5,1.7-1,1.9.1-.6.5-1.2,1-1.9Z"/>
  <path class="st47" d="M129,211.3c0-.2.3-.2.4-.2.7,1.2,1.2,2.3,1.8,3.7,0,.2-.2.2-.7.2-.7-1.2-1.1-2.3-1.6-3.6Z"/>
  <path class="st47" d="M112.9,220.5c.2-.7.4-1.7,1.4-.2-.3.2-.6.2-1.2.2-.2,0-.2,0-.2,0Z"/>
  <path class="st1" d="M132.2,230c0,.4-.2.8-.5,1.3,0-.4.2-.8.5-1.3Z"/>
  <path class="st57" d="M131.9,215c0-.5,0-.9,0-1.2.5.1.3.6.4,1.1,0,.2-.4.2-.5.1Z"/>
  <path class="st57" d="M132.3,215.3c.3.1.5.4.7.9-.5,0-.7-.3-.7-.9Z"/>
  <path class="st57" d="M133,216.6c.3.2.5.6.7,1.2-.3-.2-.5-.6-.7-1.2Z"/>
  <path class="st47" d="M114.3,220.4c.2.1.5.2.7.4-.2,0-.4,0-.6-.2,0-.1,0-.1,0-.1Z"/>
  <path class="st1" d="M124,202.4c.9,1.4,1.5,2.7,2.2,4.3-.4.3-.6,1.5-1.2.8-1.2-1.5-1.9-3.1-1-5.1Z"/>
  <path class="st19" d="M185.2,258.6c1.2-1.5,2.2-3.1,3.2-4.7,1.5,1.2.8,3.3,2.3,4.6,1.9,1.8,1.4,5.2-1,7.6-.6.6-1.3,1.1-2.2,1.9-2.1-.2-2.8-1.6-3-3.7,0-1.6.1-3.1.2-4.8-.1-.6,0-.8.4-.9Z"/>
  <path class="st46" d="M194.2,250c.1.1.3.3.4.4,0,0,0,.2,0,.2,0-.1-.2-.3-.3-.5,0-.1,0-.1,0-.1Z"/>
  <path class="st46" d="M196.2,250c-.1.2-.2.4-.4.7,0-.2,0-.3.2-.6.1,0,.1,0,.1,0Z"/>
  <path class="st16" d="M185.4,258.4c-.2.4-.3.5-.6.7,0,.1-.4.2-.5.2-.1-1.6-.2-3.3,0-5,.1-1.2.7-.8,1.2.1,0,1.3,0,2.4-.1,3.8Z"/>
  <path class="st27" d="M142.8,289c-.2-.1-.3-.4-.3-.6,2-.2,3.6.6,4.7,2.5-1.7,0-2.9-.9-4.4-1.9Z"/>
  <path class="st16" d="M184.2,247.8c.3-.5.6-.9,1-1.3.2,1.6.3,3.3.4,5.2-2-.5-1.2-2.3-1.4-4Z"/>
  <path class="st22" d="M161,293.1c-.2.5-.8.6-1.5.2.3-.1.8-.2,1.5-.2Z"/>
  <path class="st22" d="M157.1,293.2c0,.2-.2.4-.5.6,0-.3.1-.4.5-.6Z"/>
  <path class="st22" d="M153.7,293.2c.2,0,0,.1,0,.1,0,0-.3,0-.3,0s.2,0,.4,0Z"/>
  <path class="st45" d="M160.9,263.3c-.1.1-.2.4-.2.6-.3.4-.6.6-1,.9-1.9.7-3.1,2.2-4.8,3.3-.2.2-.2.1-.2.1-.6.3-1.1.5-2,0,1.7-4.4,6.1-5.9,9.1-9.2,3.4-4.1,7.3-7.2,12.1-9.6,1.4,2-1.9,2.4-1.2,4.4-1.8,2.7-4.5,4.2-7.1,6.2-.2.2-.2.1-.2.1-1,.8-2,1.7-3.2,2.6-.2.1-.2.1-.1.1-.3.2-.6.3-1.1.5Z"/>
  <path class="st42" d="M165.6,260.2c1.4-2.8,4.2-4.2,6.9-6.1,1.9-.6,2.8-2,4.1-3.3.3,0,.5,0,.7.3.2.2.4.2.7.2-3.9,3-8,5.9-12.4,8.8Z"/>
  <path class="st33" d="M193.7,234.5c.6-1.5,2.2-2.1,3.6-3.1.3,0,.5.2.4.6-1.2,1-2.1,1.7-3.3,2.5-.3,0-.5,0-.8,0Z"/>
  <path class="st45" d="M174.3,249.3c-.2,0-.2-.3-.2-.4.5-.2,1-.2,1.5-.2,0,.8-.7.5-1.3.6Z"/>
  <path class="st33" d="M192.8,234.6c0-.2.3-.2.4-.1.2.6,0,1.1-.9,1.2,0-.3.2-.6.5-1.1Z"/>
  <path class="st32" d="M177.4,251.1c-.2.1-.4,0-.6-.3,0-.3.2-.5.5-.7.1.2.1.5,0,1Z"/>
  <path class="st16" d="M197.8,232.1c-.2,0-.2-.2-.2-.6.4-.6.8-.9,1.4-1.4.8-.5,1.5-.8,2.5-1,.3.2.4.3.3.6-.2.2-.1.2-.1.2-.2.2-.3.3-.6.7-1.1.6-2,1-3.2,1.6Z"/>
  <path class="st52" d="M203.8,228.5c0-.8.6-1.1,1.5-1.4.3,1.1-.5,1.3-1.5,1.4Z"/>
  <path class="st52" d="M201.8,229.8c-.2-.1-.2-.2-.2-.5,0-.2,0-.1,0-.1,0,0,.2-.2.5-.2.3,0,.4,0,.7.1-.1.3-.5.5-1,.8Z"/>
  <path class="st52" d="M201.1,230.5c0-.2,0-.4.3-.7,0,.2,0,.4-.3.7Z"/>
  <path class="st52" d="M203.1,229.1c0-.2,0-.4.3-.6,0,.2,0,.4-.3.6Z"/>
  <path class="st16" d="M202.2,228.9c0,.2-.1.2-.4.3-.2-.1-.3-.2-.3-.5.3,0,.5,0,.7.2Z"/>
  <path class="st45" d="M156.2,219c-2.5-.5-4.7-.2-6.9.3-.9.2-1.9.8-2.8-.5,1.4-.7,2.8-1.1,4.5-1.6.5-.2.8-.4,1.2-.6,1.9.7,3.7,1.5,5.5,2.3-.4.1-.9.1-1.6.1Z"/>
  <path class="st39" d="M150.5,208.2c-.7-.9-.4-2.1-.5-3.6.8.8.6,2.1.5,3.6Z"/>
  <path class="st46" d="M171.6,241.2c-.2-.1-.3-.2-.3-.6.3-.5.7-.9,1.3-1.3.3.2.5.5.7,1-.4.4-.9.6-1.6.9Z"/>
  <path class="st53" d="M131.2,280.1c-.7.6-1.2,1-1.9,1.5-.2-1,.3-1.7,1.6-2,.3,0,.4.2.4.5Z"/>
  <path class="st8" d="M132.8,278.3c.3,0,.5,0,.8,0-.3.5-.9.9-1.6,1.3-.2-.6,0-1,.8-1.3Z"/>
  <path class="st53" d="M128.9,281.7c0,.2,0,.3-.4.4,0-.2,0-.3.4-.4Z"/>
  <path class="st8" d="M131.2,280.2c-.1,0-.2-.2-.2-.5.1-.2.2-.2.5-.1.1.3,0,.4-.4.6Z"/>
  <path class="st33" d="M154.8,268.2c1-1.5,1.9-3.4,4.4-3.4-.7.8-1.5,1.5-2.5,2.4-.6.5-1.1.7-1.9,1Z"/>
  <path class="st27" d="M142.4,288.1c-.7.2-1.3-.2-1.9-1,.7-.2,1.5-.2,1.9,1Z"/>
  <path class="st33" d="M152.4,268c.6,0,1.1.1,1.9.2,0,.9-.6,1.2-1.7,1.2-.5-.4-.5-.7-.3-1.1,0-.2,0-.2,0-.3Z"/>
  <path class="st16" d="M150.9,271c-.2-.1-.3-.3-.4-.6-.1-.3-.2-.5-.2-.7.1-.2.2-.2.1-.2.5-.4,1-.5,1.8-.1.2.2.2.2.3.2-.2.7-.7,1.2-1.6,1.5Z"/>
  <path class="st8" d="M137.9,285.5c-.2,0-.2-.3-.2-.4.4,0,.7.1,1.2.4-.2.1-.5,0-1,0Z"/>
  <path class="st16" d="M150.1,271.4c0-.2,0-.3.4-.5,0,.1,0,.3-.4.5Z"/>
  <path class="st59" d="M135.3,279.7c-.2-.2-.3-.3-.2-.6.5-1.1,1.1-1.8,2.4-2,.4.1.5.2.7.6-.9.9-1.7,1.5-2.8,2Z"/>
  <path class="st59" d="M141.6,274.1c.5.2.6.3.8.7-.4.5-.8.8-1.4,1.2-.4,0-.5,0-.8-.2,0-1,.5-1.4,1.4-1.6Z"/>
  <path class="st59" d="M140.7,275.8c-.4.6-1,1-1.7,1.6-.3,0-.5,0-.7-.4,0-1.2.7-1.7,1.8-1.7.3.2.4.3.6.5Z"/>
  <path class="st45" d="M150.3,269.5c.2,0,.2.2.2.5-.2.2-.3.1-.7,0,0-.2.1-.4.5-.6Z"/>
  <path class="st59" d="M138.7,277.3c0,.3,0,.5-.4.6-.2,0-.3-.1-.6-.4-.1-.4,0-.6.4-.8.3.1.4.2.5.5Z"/>
  <path class="st38" d="M138.4,276.6c-.3.2-.5.3-.8.6-.8.6-1.5,1-2.4,1.6-.4,0-.6,0-.8-.4,2-1.7,4.1-3.2,6.4-4.9.4,0,.6.2.9.5-.4.5-.8.8-1.4,1.2-.7.5-1.3.9-2,1.4Z"/>
  <path class="st10" d="M161.9,226.5c-.7-.7-.8-1.5-.2-2.9.1,1.1.2,1.8.3,2.7,0,.2,0,.2,0,.3Z"/>
  <path class="st18" d="M148.7,235.7c-.6-.7-.5-1.5.3-2.4,0,.7,0,1.4-.3,2.4Z"/>
  <path class="st31" d="M158.4,236.6c.1.8.1,1.5.1,2.4-.9-.5-.4-1.3-.5-2.1,0-.2.3-.2.4-.2Z"/>
  <path class="st10" d="M126.3,263.7c0-.2.3-.2.4-.2.7.8.4,1.6.2,2.6-.7-.4-.6-1.3-.7-2.4Z"/>
  <path class="st36" d="M133,250.9c1.1,0,1.1.3.2,1.1-.2-.2-.2-.5-.2-1.1Z"/>
  <path class="st29" d="M174.7,235c.4.6.2,1-.3,1-.5,0-.8-.3-.8-.7,0-.6.5-.6,1-.3Z"/>
  <path class="st45" d="M152.5,269.2c-.5.3-1,.3-1.7.2-.3-1,.4-1.3,1.4-1.5.3.3.3.7.3,1.2Z"/>
  <path class="st46" d="M160.6,258.1c-.3.3-.6.6-.8.8l-.2-.2c.2-.2.5-.3.9-.5.2,0,.1,0,.1,0Z"/>
  <path class="st39" d="M147.8,186.4c1.1,1,.7,2.6.7,4.3-.8-1.1-.6-2.6-.7-4.3Z"/>
  <path class="st53" d="M162,277.6c0-.4.2-.8.2-1.3.7.3.2.7-.1,1.2-.1.1-.1.1-.1.1Z"/>
  <path class="st42" d="M162.2,262.8c.5-1.2,1.3-2.2,2.9-2.6-.3,1.4-1.6,1.8-2.9,2.6Z"/>
  <path class="st42" d="M160.9,263.4c0-.2.4-.4.9-.6,0,.2-.4.4-.9.6Z"/>
</svg>